;TYPE=PLATED
;Layer: PTH_Through_Via
;EasyEDA Pro v2.2.40.8, 2025-08-10 13:50:58
;Gerber Generator version 0.3
M48
METRIC,LZ,0000.00000
;Hole size 1 = 0.30500 METRIC
T01C0.30500
%
G05
G90
T01
X-0.82499Y3.70011
X-1.64998Y2.87512
X0.0Y2.87512
X0.825Y3.70011
X1.64998Y2.87512
X-1.64998Y1.22514
X-0.82499Y2.05012
X0.0Y1.22514
X0.825Y2.05012
X1.64998Y1.22514
X-0.82499Y0.40014
X0.825Y0.40014
X-18.34996Y-5.77499
X12.49998Y7.99999
X13.29998Y7.99999
X13.32105Y7.28461
X12.47105Y7.28461
X13.32497Y6.54999
X12.47498Y6.54999
X-8.56467Y-1.05878
X-8.54043Y-5.35882
X-6.99999Y-4.94999
X15.99054Y7.04999
X17.27496Y9.27498
X10.34626Y9.14221
X9.61008Y9.08539
X9.44998Y7.37499
X9.94099Y5.51943
X11.44998Y5.52499
X10.28249Y3.784
X7.87499Y5.41838
X6.14999Y5.42499
X6.14671Y6.30005
X6.99999Y9.05011
X-6.99999Y9.05011
X-5.94995Y8.00007
X-5.94995Y7.15019
X-4.24993Y8.00007
X-1.70002Y8.00007
X0.84988Y8.00007
X3.40004Y8.00007
X5.94995Y8.00007
X-17.16084Y7.05509
X-17.16477Y7.78971
X-17.18584Y8.50509
X-17.98584Y8.50509
X-18.01476Y7.78971
X-18.01084Y7.05509
X-13.89962Y9.01403
X-22.13424Y5.93971
X-21.04412Y7.81471
X-15.37497Y6.82499
X-13.23455Y7.43975
X-8.34998Y7.42125
X-10.17291Y7.34507
X6.99999Y-4.94986
X8.92498Y-2.38491
X17.01391Y0.34463
X18.27496Y-5.72499
X19.36993Y-6.49324
X20.31671Y-8.22487
X11.42616Y-11.89722
X12.31452Y-11.05254
X12.52241Y-13.79887
X16.90997Y-8.79276
X6.91678Y-11.93322
X5.87649Y-12.38988
X17.69028Y-7.89756
X14.65812Y-10.82754
X19.5911Y-9.32487
X14.24106Y-4.99496
X-8.97498Y4.74999
X16.70104Y-10.82754
X-15.39997Y8.79998
X-7.82499Y1.4
X-7.84998Y0.35
X-19.75175Y9.1591
X-20.46011Y8.46483
X-9.57476Y-0.44978
X10.7345Y6.30951
X9.52758Y8.29842
X9.22539Y6.36686
X15.00803Y7.02608
X15.52159Y6.43799
X5.77494Y-0.47495
X5.1224Y-0.041
X4.54991Y0.52507
X-10.37498Y1.55
X21.49172Y5.34999
X-22.80493Y-13.91418
X-21.12739Y-12.20829
X-22.82993Y-12.20829
X-21.99173Y-12.20829
X-20.19688Y-12.20829
X-22.82495Y-13.02497
X12.92498Y-8.37498
X16.84938Y3.48027
X-13.44997Y8.22676
X-15.3712Y8.01602
X22.52496Y-3.44999
X23.29995Y-4.54999
X22.51193Y-5.6591
X-14.99996Y-3.09998
X-12.47757Y-1.545
X-14.4839Y-2.47499
X-13.32497Y-1.625
X6.20019Y-2.19979
X6.11117Y-3.11381
X6.14999Y-3.89999
X5.37498Y-1.47498
X7.85231Y8.00007
X8.37498Y6.24999
X-10.34998Y6.2549
X18.27496Y-3.72567
X-9.59998Y-2.68499
X23.32495Y9.12498
X-23.22495Y9.07498
X16.37497Y-12.42498
X-5.94999Y-4.09999
X9.58398Y4.7494
X-5.52499Y2.025
X17.54996Y-1.15
X19.19996Y2.2
X14.02497Y2.84999
X5.84999Y-7.29998
X0.4Y-4.09999
X3.29999Y-2.64999
X-4.79999Y-0.45
X5.79999Y1.9
X8.19998Y3.69999
X-20.67496Y2.925
X-17.59996Y1.275
X-12.79997Y3.64999
X-14.02757Y1.3724
X-20.57496Y9.24998
X-22.44996Y8.72498
X-23.07495Y7.94998
X-20.19996Y-0.325
X-19.04996Y-7.77498
X-10.77498Y-11.49998
X-16.62497Y-13.47497
X-10.09998Y-13.69997
X8.54998Y-13.59997
X0.275Y-12.39998
X-7.52498Y-9.09998
X6.97499Y-8.32498
X15.99997Y-1.3
X15.22497Y-3.59999
X23.29995Y-11.59998
X17.54997Y-14.24997
X23.14995Y3.82499
X22.44996Y8.19998
X18.69996Y0.075
X3.125Y4.79999
X-3.14999Y5.34999
X0.925Y5.89999
X-1.35Y6.07499
X-3.72499Y2.99999
X-3.22499Y1.5
X-5.79999Y0.625
X-3.77499Y-0.9
X-5.49999Y3.84999
X4.92499Y1.375
X3.82499Y3.125
X5.1657Y4.57512
X4.74999Y6.49999
X2.12499Y-4.09999
X-1.075Y-4.07499
X-5.37499Y-6.44999
X-7.22499Y-7.24999
X-6.67499Y-12.09998
X9.14998Y-8.67498
X9.87498Y-10.94998
X13.41286Y-10.92689
X18.4724Y-13.22875
X14.49997Y-8.84998
X17.59996Y-6.02499
X15.72497Y-4.82499
X14.57497Y-12.34998
X18.24996Y-12.09998
X9.09998Y-12.62497
X15.65811Y-8.74245
X-11.62498Y-2.64999
X-3.31479Y-6.54999
X3.94999Y-6.57499
X7.97498Y-7.27498
X-2.54999Y-4.14999
X-3.89999Y-4.04999
X1.475Y-6.04999
X-0.8Y-5.94999
X13.49997Y-9.22498
X18.82496Y-7.19999
M30