G04 Layer: InnerLayer2*
G04 EasyEDA Pro v2.2.40.8, 2025-08-10 13:50:58*
G04 Gerber Generator version 0.3*
G04 Scale: 100 percent, Rotated: No, Reflected: No*
G04 Dimensions in millimeters*
G04 Leading zeros omitted, absolute positions, 4 integers and 5 decimals*
G04 Generated by one-click*
%FSLAX45Y45*%
%MOMM*%
%ADD10R,1.1X1.1*%
%ADD11C,1.1*%
%ADD12O,1.1X2.0*%
%ADD13O,1.2X1.8*%
%ADD14C,0.61*%
%ADD15C,0.0592*%
G75*


G04 PlaneZone Start*
G36*
G01X-2374346Y-1474346D02*
G01X-2374346Y885939D01*
G03X-2298843Y856568I51851J21559D01*
G03X-2296472Y850060I53847J15930D01*
G03X-2342746Y751287I-11024J-55061D01*
G03X-2256019Y817437I35251J43711D01*
G03X-2189236Y879142I11024J55061D01*
G03X-2268648Y923428I-55760J-6644D01*
G03X-2319509Y963573I-53847J-15930D01*
G03X-2374346Y929057I-2986J-56075D01*
G01X-2374346Y1471846D01*
G01X-1830526Y1471846D01*
G01X-1830526Y998675D01*
G03X-1804872Y973021I25654J0D01*
G01X1694618Y973021D01*
G03X1727496Y871344I32878J-45523D01*
G03X1760375Y973021I0J56154D01*
G01X1913232Y973021D01*
G03X1938886Y998675I0J25654D01*
G01X1938886Y1474346D01*
G01X2374346Y1474346D01*
G01X2374346Y949939D01*
G03X2276341Y912498I-41851J-37441D01*
G03X2374346Y875058I56154J0D01*
G01X2374346Y-420556D01*
G03X2273841Y-454999I-44351J-34443D01*
G03X2374346Y-489442I56154J0D01*
G01X2374346Y-1125555D01*
G03X2273841Y-1159998I-44351J-34443D01*
G03X2374346Y-1194440I56154J0D01*
G01X2374346Y-1474346D01*
G01X1781791Y-1474346D01*
G03X1754997Y-1368843I-26795J49349D01*
G03X1728202Y-1474346I0J-56154D01*
G01X-2374346Y-1474346D01*
G37*
%LPC*%
G36*
G01X-2315772Y-1347730D02*
G03X-2279229Y-1447558I35278J-43689D01*
G03X-2247217Y-1346186I-1264J56140D01*
G03X-2244199Y-1261428I-35278J43689D01*
G03X-2241083Y-1258203I-38795J40599D01*
G03X-2155956Y-1256684I41910J37374D01*
G03X-2066213Y-1252272I43217J35855D01*
G03X-1963534Y-1220829I46526J31443D01*
G03X-2066213Y-1189387I-56154J0D01*
G03X-2155956Y-1184975I-46526J-31443D01*
G03X-2241083Y-1183455I-43217J-35855D01*
G03X-2322256Y-1180684I-41910J-37374D01*
G03X-2321290Y-1261898I39263J-40146D01*
G03X-2315772Y-1347730I38795J-40599D01*
G37*
G36*
G01X-2269578Y593971D02*
G03X-2157270Y593971I56154J0D01*
G03X-2269578Y593971I-56154J0D01*
G37*
G36*
G01X-2164996Y1273149D02*
G03X-2190650Y1247495I0J-25654D01*
G01X-2190650Y1137495D01*
G03X-2164996Y1111841I25654J0D01*
G01X-2054996Y1111841D01*
G03X-2029342Y1137495I0J25654D01*
G01X-2029342Y1247495D01*
G03X-2054996Y1273149I-25654J0D01*
G01X-2055383Y1273149D01*
G03X-2109996Y1413154I-54612J59351D01*
G03X-2164608Y1273149I0J-80654D01*
G01X-2164996Y1273149D01*
G37*
G36*
G01X-2101450Y837547D02*
G03X-2141937Y739697I-2962J-56076D01*
G03X-2048973Y790407I37526J41774D01*
G03X-1992156Y862385I2962J56076D01*
G03X-1920209Y927399I16981J53525D01*
G03X-2012174Y958152I-54966J-11489D01*
G03X-2097016Y964891I-45322J-33154D01*
G03X-2091074Y879989I39520J-39893D01*
G03X-2101450Y837547I45062J-33506D01*
G37*
G36*
G01X-2123650Y292500D02*
G03X-2011342Y292500I56154J0D01*
G03X-2123650Y292500I-56154J0D01*
G37*
G36*
G01X-2076150Y-32500D02*
G03X-1963842Y-32500I56154J0D01*
G03X-2076150Y-32500I-56154J0D01*
G37*
G36*
G01X-1961150Y-777498D02*
G03X-1848842Y-777498I56154J0D01*
G03X-1961150Y-777498I-56154J0D01*
G37*
G36*
G01X-1891150Y-577499D02*
G03X-1778842Y-577499I56154J0D01*
G03X-1891150Y-577499I-56154J0D01*
G37*
G36*
G01X-1835375Y892932D02*
G03X-1843259Y816488I36791J-42423D01*
G03X-1843754Y742013I41782J-37517D01*
G03X-1837687Y662924I42670J-36504D01*
G03X-1758584Y668807I36603J42585D01*
G03X-1679254Y663120I42500J36702D01*
G03X-1673807Y742467I-36830J42389D01*
G03X-1674274Y816014I-42670J36504D01*
G03X-1681568Y892736I-44310J34495D01*
G03X-1758584Y889921I-37016J-42227D01*
G03X-1835375Y892932I-40000J-39412D01*
G37*
G36*
G01X-1816151Y127500D02*
G03X-1703842Y127500I56154J0D01*
G03X-1816151Y127500I-56154J0D01*
G37*
G36*
G01X-1718651Y-1347497D02*
G03X-1606342Y-1347497I56154J0D01*
G03X-1718651Y-1347497I-56154J0D01*
G37*
G36*
G01X-1596151Y879998D02*
G03X-1483843Y879998I56154J0D01*
G03X-1596151Y879998I-56154J0D01*
G37*
G36*
G01X-1535750Y-353299D02*
G03X-1444220Y-303498I35754J43300D01*
G03X-1412636Y-204199I-4170J55999D01*
G03X-1504166Y-253999I-35754J-43300D01*
G03X-1535750Y-353299I4170J-55999D01*
G37*
G36*
G01X-1458911Y137240D02*
G03X-1346603Y137240I56154J0D01*
G03X-1458911Y137240I-56154J0D01*
G37*
G36*
G01X-1446116Y901403D02*
G03X-1333808Y901403I56154J0D01*
G03X-1446116Y901403I-56154J0D01*
G37*
G36*
G01X-1388402Y-167778D02*
G03X-1286684Y-194972I55905J5278D01*
G03X-1191852Y-149222I38926J40472D01*
G03X-1293570Y-122028I-55905J-5278D01*
G03X-1388402Y-167778I-38926J-40472D01*
G37*
G36*
G01X-1379609Y743975D02*
G03X-1267301Y743975I56154J0D01*
G03X-1379609Y743975I-56154J0D01*
G37*
G36*
G01X-1336152Y364999D02*
G03X-1223843Y364999I56154J0D01*
G03X-1336152Y364999I-56154J0D01*
G37*
G36*
G01X-1218652Y-264999D02*
G03X-1106343Y-264999I56154J0D01*
G03X-1218652Y-264999I-56154J0D01*
G37*
G36*
G01X-1133652Y-1149998D02*
G03X-1021344Y-1149998I56154J0D01*
G03X-1133652Y-1149998I-56154J0D01*
G37*
G36*
G01X-1093652Y155000D02*
G03X-981344Y155000I56154J0D01*
G03X-1093652Y155000I-56154J0D01*
G37*
G36*
G01X-1073445Y734507D02*
G03X-961137Y734507I56154J0D01*
G03X-1073445Y734507I-56154J0D01*
G37*
G36*
G01X-1066152Y-1369997D02*
G03X-953844Y-1369997I56154J0D01*
G03X-1066152Y-1369997I-56154J0D01*
G37*
G36*
G01X-1013630Y-44978D02*
G03X-901322Y-44978I56154J0D01*
G03X-1013630Y-44978I-56154J0D01*
G37*
G36*
G01X-912621Y-105878D02*
G03X-800313Y-105878I56154J0D01*
G03X-912621Y-105878I-56154J0D01*
G37*
G36*
G01X-910197Y-535882D02*
G03X-797889Y-535882I56154J0D01*
G03X-910197Y-535882I-56154J0D01*
G37*
G36*
G01X-891152Y742125D02*
G03X-778844Y742125I56154J0D01*
G03X-891152Y742125I-56154J0D01*
G37*
G36*
G01X-786335Y-21138D02*
G03X-763868Y87026I1337J56138D01*
G03X-781162Y196138I-18631J52973D01*
G03X-803629Y87973I-1337J-56138D01*
G03X-786335Y-21138I18631J-52973D01*
G37*
G36*
G01X-808652Y-909998D02*
G03X-696344Y-909998I56154J0D01*
G03X-808652Y-909998I-56154J0D01*
G37*
G36*
G01X-778653Y-724999D02*
G03X-666345Y-724999I56154J0D01*
G03X-778653Y-724999I-56154J0D01*
G37*
G36*
G01X-756153Y905011D02*
G03X-643845Y905011I56154J0D01*
G03X-756153Y905011I-56154J0D01*
G37*
G36*
G01X-756153Y-494999D02*
G03X-643845Y-494999I56154J0D01*
G03X-756153Y-494999I-56154J0D01*
G37*
G36*
G01X-723653Y-1209998D02*
G03X-611344Y-1209998I56154J0D01*
G03X-723653Y-1209998I-56154J0D01*
G37*
G36*
G01X-651153Y-409999D02*
G03X-538845Y-409999I56154J0D01*
G03X-651153Y-409999I-56154J0D01*
G37*
G36*
G01X-594995Y658865D02*
G03X-558286Y757513I0J56154D01*
G03X-594995Y856161I-36709J42494D01*
G03X-631704Y757513I0J-56154D01*
G03X-594995Y658865I36709J-42494D01*
G37*
G36*
G01X-636153Y62500D02*
G03X-523845Y62500I56154J0D01*
G03X-636153Y62500I-56154J0D01*
G37*
G36*
G01X-608653Y202500D02*
G03X-496345Y202500I56154J0D01*
G03X-608653Y202500I-56154J0D01*
G37*
G36*
G01X-606153Y384999D02*
G03X-493845Y384999I56154J0D01*
G03X-606153Y384999I-56154J0D01*
G37*
G36*
G01X-593653Y-644999D02*
G03X-481345Y-644999I56154J0D01*
G03X-593653Y-644999I-56154J0D01*
G37*
G36*
G01X-326082Y-112573D02*
G03X-426930Y-63356I-51417J22573D01*
G03X-531416Y-22427I-53069J18356D01*
G03X-430569Y-71644I51417J-22573D01*
G03X-326082Y-112573I53069J-18356D01*
G37*
G36*
G01X-520665Y-1220013D02*
G01X-520665Y-1280013D01*
G03X-349357Y-1280013I85654J0D01*
G01X-349357Y-1220013D01*
G03X-520665Y-1220013I-85654J0D01*
G37*
G36*
G01X-515665Y-784999D02*
G01X-515665Y-874999D01*
G03X-354357Y-874999I80654J0D01*
G01X-354357Y-784999D01*
G03X-515665Y-784999I-80654J0D01*
G37*
G36*
G01X-481147Y800007D02*
G03X-368839Y800007I56154J0D01*
G03X-481147Y800007I-56154J0D01*
G37*
G36*
G01X-446153Y-404999D02*
G03X-333845Y-404999I56154J0D01*
G03X-446153Y-404999I-56154J0D01*
G37*
G36*
G01X-428653Y299999D02*
G03X-316345Y299999I56154J0D01*
G03X-428653Y299999I-56154J0D01*
G37*
G36*
G01X-387633Y-654999D02*
G03X-275325Y-654999I56154J0D01*
G03X-387633Y-654999I-56154J0D01*
G37*
G36*
G01X-378654Y150000D02*
G03X-266345Y150000I56154J0D01*
G03X-378654Y150000I-56154J0D01*
G37*
G36*
G01X-371153Y534999D02*
G03X-258845Y534999I56154J0D01*
G03X-371153Y534999I-56154J0D01*
G37*
G36*
G01X-352156Y-882018D02*
G03X-230846Y-882018I60655J0D01*
G03X-352156Y-882018I-60655J0D01*
G37*
G36*
G01X-311154Y-414999D02*
G03X-198845Y-414999I56154J0D01*
G03X-311154Y-414999I-56154J0D01*
G37*
G36*
G01X-226156Y800007D02*
G03X-113848Y800007I56154J0D01*
G03X-226156Y800007I-56154J0D01*
G37*
G36*
G01X-221152Y287512D02*
G03X-108844Y287512I56154J0D01*
G03X-221152Y287512I-56154J0D01*
G37*
G36*
G01X-221152Y122514D02*
G03X-108844Y122514I56154J0D01*
G03X-221152Y122514I-56154J0D01*
G37*
G36*
G01X-191154Y607499D02*
G03X-78846Y607499I56154J0D01*
G03X-191154Y607499I-56154J0D01*
G37*
G36*
G01X-163654Y-407499D02*
G03X-51346Y-407499I56154J0D01*
G03X-163654Y-407499I-56154J0D01*
G37*
G36*
G01X-138653Y370011D02*
G03X-26345Y370011I56154J0D01*
G03X-138653Y370011I-56154J0D01*
G37*
G36*
G01X-138653Y205012D02*
G03X-26345Y205012I56154J0D01*
G03X-138653Y205012I-56154J0D01*
G37*
G36*
G01X-138653Y40014D02*
G03X-26345Y40014I56154J0D01*
G03X-138653Y40014I-56154J0D01*
G37*
G36*
G01X-136154Y-594999D02*
G03X-23846Y-594999I56154J0D01*
G03X-136154Y-594999I-56154J0D01*
G37*
G36*
G01X-56154Y287512D02*
G03X56154Y287512I56154J0D01*
G03X-56154Y287512I-56154J0D01*
G37*
G36*
G01X-56154Y122514D02*
G03X56154Y122514I56154J0D01*
G03X-56154Y122514I-56154J0D01*
G37*
G36*
G01X-28654Y-1239998D02*
G03X83654Y-1239998I56154J0D01*
G03X-28654Y-1239998I-56154J0D01*
G37*
G36*
G01X-16154Y-409999D02*
G03X96154Y-409999I56154J0D01*
G03X-16154Y-409999I-56154J0D01*
G37*
G36*
G01X26346Y205012D02*
G03X138654Y205012I56154J0D01*
G03X26346Y205012I-56154J0D01*
G37*
G36*
G01X26346Y370011D02*
G03X138654Y370011I56154J0D01*
G03X26346Y370011I-56154J0D01*
G37*
G36*
G01X26346Y40014D02*
G03X138654Y40014I56154J0D01*
G03X26346Y40014I-56154J0D01*
G37*
G36*
G01X28834Y800007D02*
G03X141142Y800007I56154J0D01*
G03X28834Y800007I-56154J0D01*
G37*
G36*
G01X36346Y589999D02*
G03X148654Y589999I56154J0D01*
G03X36346Y589999I-56154J0D01*
G37*
G36*
G01X91346Y-604999D02*
G03X203654Y-604999I56154J0D01*
G03X91346Y-604999I-56154J0D01*
G37*
G36*
G01X108844Y122514D02*
G03X221152Y122514I56154J0D01*
G03X108844Y122514I-56154J0D01*
G37*
G36*
G01X108844Y287512D02*
G03X221152Y287512I56154J0D01*
G03X108844Y287512I-56154J0D01*
G37*
G36*
G01X156345Y-409999D02*
G03X268654Y-409999I56154J0D01*
G03X156345Y-409999I-56154J0D01*
G37*
G36*
G01X225846Y-882018D02*
G03X347156Y-882018I60655J0D01*
G03X225846Y-882018I-60655J0D01*
G37*
G36*
G01X256345Y479999D02*
G03X368654Y479999I56154J0D01*
G03X256345Y479999I-56154J0D01*
G37*
G36*
G01X273845Y-264999D02*
G03X386153Y-264999I56154J0D01*
G03X273845Y-264999I-56154J0D01*
G37*
G36*
G01X283850Y800007D02*
G03X396158Y800007I56154J0D01*
G03X283850Y800007I-56154J0D01*
G37*
G36*
G01X326345Y312500D02*
G03X438653Y312500I56154J0D01*
G03X326345Y312500I-56154J0D01*
G37*
G36*
G01X349332Y-784999D02*
G01X349332Y-874999D01*
G03X510640Y-874999I80654J0D01*
G01X510640Y-784999D01*
G03X425796Y-704454I-80654J0D01*
G03X380140Y-603346I-30797J46955D01*
G03X392480Y-713596I14860J-54152D01*
G03X349332Y-784999I37506J-71403D01*
G37*
G36*
G01X344332Y-1220013D02*
G01X344332Y-1280013D01*
G03X515640Y-1280013I85654J0D01*
G01X515640Y-1220013D01*
G03X344332Y-1220013I-85654J0D01*
G37*
G36*
G01X542722Y-91588D02*
G03X483428Y-162654I-5224J-55911D01*
G03X571021Y-192548I54070J15156D01*
G03X583395Y-262547I48998J-27431D01*
G03X573053Y-352665I27721J-48834D01*
G03X617768Y-446085I41946J-37334D01*
G03X653063Y-348715I-2769J56086D01*
G03X647741Y-268814I-41946J37334D01*
G03X667051Y-189298I-27721J48834D01*
G03X586496Y-174930I-47032J-30681D01*
G03X572270Y-103405I-48998J27431D01*
G03X633588Y-44905I5224J55911D01*
G03X567141Y7697I-56094J-2590D01*
G03X511144Y52044I-54901J-11796D01*
G03X502613Y82264I-56152J464D01*
G03X548317Y143637I-10114J55236D01*
G03X628151Y218891I31682J46363D01*
G03X524181Y183862I-48152J-28891D01*
G03X453614Y178012I-31682J-46363D01*
G03X444877Y107743I38885J-40512D01*
G03X399120Y46884I10114J-55236D01*
G03X456087Y-3636I55872J5623D01*
G03X522593Y-59291I56152J-464D01*
G03X542722Y-91588I54901J11796D01*
G37*
G36*
G01X418845Y649999D02*
G03X531153Y649999I56154J0D01*
G03X418845Y649999I-56154J0D01*
G37*
G36*
G01X460416Y457512D02*
G03X572724Y457512I56154J0D01*
G03X460416Y457512I-56154J0D01*
G37*
G36*
G01X528845Y-729998D02*
G03X641153Y-729998I56154J0D01*
G03X528845Y-729998I-56154J0D01*
G37*
G36*
G01X531495Y-1238988D02*
G03X643803Y-1238988I56154J0D01*
G03X531495Y-1238988I-56154J0D01*
G37*
G36*
G01X538841Y800007D02*
G03X651149Y800007I56154J0D01*
G03X538841Y800007I-56154J0D01*
G37*
G36*
G01X615209Y486345D02*
G03X650033Y586384I-211J56154D01*
G03X614460Y686159I-35362J43621D01*
G03X579637Y586120I211J-56154D01*
G03X615209Y486345I35362J-43621D01*
G37*
G36*
G01X635523Y-1193322D02*
G03X747832Y-1193322I56154J0D01*
G03X635523Y-1193322I-56154J0D01*
G37*
G36*
G01X641345Y-832498D02*
G03X753653Y-832498I56154J0D01*
G03X641345Y-832498I-56154J0D01*
G37*
G36*
G01X643845Y905011D02*
G03X756153Y905011I56154J0D01*
G03X643845Y905011I-56154J0D01*
G37*
G36*
G01X643845Y-494986D02*
G03X756153Y-494986I56154J0D01*
G03X643845Y-494986I-56154J0D01*
G37*
G36*
G01X729077Y800007D02*
G03X841385Y800007I56154J0D01*
G03X729077Y800007I-56154J0D01*
G37*
G36*
G01X758563Y493713D02*
G03X836729Y568850I28935J48125D01*
G03X866434Y673124I769J56149D01*
G03X788268Y597987I-28935J-48125D01*
G03X758563Y493713I-769J-56149D01*
G37*
G36*
G01X741344Y-727498D02*
G03X853652Y-727498I56154J0D01*
G03X741344Y-727498I-56154J0D01*
G37*
G36*
G01X763844Y369999D02*
G03X876152Y369999I56154J0D01*
G03X763844Y369999I-56154J0D01*
G37*
G36*
G01X827409Y-1408906D02*
G03X886440Y-1313471I27590J48909D01*
G03X937588Y-1213588I23558J50974D01*
G03X878556Y-1309024I-27590J-48909D01*
G03X827409Y-1408906I-23558J-50974D01*
G37*
G36*
G01X836344Y-238491D02*
G03X948652Y-238491I56154J0D01*
G03X836344Y-238491I-56154J0D01*
G37*
G36*
G01X858844Y-867498D02*
G03X971152Y-867498I56154J0D01*
G03X858844Y-867498I-56154J0D01*
G37*
G36*
G01X888844Y737499D02*
G03X1001152Y737499I56154J0D01*
G03X888844Y737499I-56154J0D01*
G37*
G36*
G01X1036817Y588391D02*
G03X1095704Y579395I36633J42559D01*
G03X1182837Y511009I49294J-26896D01*
G03X1122744Y604055I-37839J41490D01*
G03X1067651Y686805I-49294J26896D01*
G03X1030732Y594503I5799J-55854D01*
G03X942887Y528909I-36633J-42559D01*
G03X934779Y423994I15512J-53969D01*
G03X1009611Y497974I23619J50945D01*
G03X1036817Y588391I-15512J53969D01*
G37*
G36*
G01X905021Y904218D02*
G03X1001073Y869193I55988J4321D01*
G03X1090614Y918542I33553J45027D01*
G03X994561Y953566I-55988J-4321D01*
G03X905021Y904218I-33553J-45027D01*
G37*
G36*
G01X931344Y-1094998D02*
G03X1043652Y-1094998I56154J0D01*
G03X931344Y-1094998I-56154J0D01*
G37*
G36*
G01X972095Y378400D02*
G03X1084403Y378400I56154J0D01*
G03X972095Y378400I-56154J0D01*
G37*
G36*
G01X1086462Y-1189722D02*
G03X1198770Y-1189722I56154J0D01*
G03X1086462Y-1189722I-56154J0D01*
G37*
G36*
G01X1175662Y-1111636D02*
G03X1287494Y-1108802I55790J6382D01*
G03X1397077Y-1086307I53793J16113D01*
G03X1285245Y-1089141I-55790J-6382D01*
G03X1175662Y-1111636I-53793J-16113D01*
G37*
G36*
G01X1210895Y612414D02*
G03X1289998Y618297I36603J42585D01*
G03X1369328Y612610I42500J36702D01*
G03X1374775Y691957I-36830J42389D01*
G03X1374308Y765504I-42670J36504D01*
G03X1367014Y842225I-44310J34495D01*
G03X1289998Y839410I-37016J-42227D01*
G03X1213207Y842422I-40000J-39412D01*
G03X1205323Y765978I36791J-42423D01*
G03X1204828Y691503I41782J-37517D01*
G03X1210895Y612414I42670J-36504D01*
G37*
G36*
G01X1196087Y-1379887D02*
G03X1308395Y-1379887I56154J0D01*
G03X1196087Y-1379887I-56154J0D01*
G37*
G36*
G01X1335741Y-976812D02*
G03X1406096Y-920013I14257J54314D01*
G03X1502576Y-865281I43901J35014D01*
G03X1393898Y-887484I-52579J-19717D01*
G03X1340144Y-867215I-43901J-35014D01*
G03X1261034Y-790987I-47646J29717D01*
G03X1302351Y-892781I31464J-46512D01*
G03X1335741Y-976812I47646J-29717D01*
G37*
G36*
G01X1346343Y284999D02*
G03X1458651Y284999I56154J0D01*
G03X1346343Y284999I-56154J0D01*
G37*
G36*
G01X1367952Y-499496D02*
G03X1480260Y-499496I56154J0D01*
G03X1367952Y-499496I-56154J0D01*
G37*
G36*
G01X1401343Y-1234998D02*
G03X1513651Y-1234998I56154J0D01*
G03X1401343Y-1234998I-56154J0D01*
G37*
G36*
G01X1409658Y-1082754D02*
G03X1521966Y-1082754I56154J0D01*
G03X1409658Y-1082754I-56154J0D01*
G37*
G36*
G01X1553619Y587664D02*
G03X1608017Y649564I-1460J56135D01*
G03X1644589Y737860I-8962J55434D01*
G03X1549268Y730971I-45535J-32861D01*
G03X1453310Y732568I-48464J-28363D01*
G03X1496078Y646653I47494J-29960D01*
G03X1553619Y587664I56082J-2854D01*
G37*
G36*
G01X1466343Y-359999D02*
G03X1578651Y-359999I56154J0D01*
G03X1466343Y-359999I-56154J0D01*
G37*
G36*
G01X1509657Y-874245D02*
G03X1621966Y-874245I56154J0D01*
G03X1509657Y-874245I-56154J0D01*
G37*
G36*
G01X1516343Y-482499D02*
G03X1628651Y-482499I56154J0D01*
G03X1516343Y-482499I-56154J0D01*
G37*
G36*
G01X1543843Y-130000D02*
G03X1656151Y-130000I56154J0D01*
G03X1543843Y-130000I-56154J0D01*
G37*
G36*
G01X1581343Y-1242498D02*
G03X1693651Y-1242498I56154J0D01*
G03X1581343Y-1242498I-56154J0D01*
G37*
G36*
G01X1613950Y-1082754D02*
G03X1726258Y-1082754I56154J0D01*
G03X1613950Y-1082754I-56154J0D01*
G37*
G36*
G01X1628784Y348027D02*
G03X1741092Y348027I56154J0D01*
G03X1628784Y348027I-56154J0D01*
G37*
G36*
G01X1634843Y-879276D02*
G03X1747151Y-879276I56154J0D01*
G03X1634843Y-879276I-56154J0D01*
G37*
G36*
G01X1645236Y34463D02*
G03X1757545Y34463I56154J0D01*
G03X1645236Y34463I-56154J0D01*
G37*
G36*
G01X1698842Y-115000D02*
G03X1811151Y-115000I56154J0D01*
G03X1698842Y-115000I-56154J0D01*
G37*
G36*
G01X1708682Y-625305D02*
G03X1810926Y-626152I51314J22806D01*
G03X1878811Y-549692I16571J53653D01*
G03X1776567Y-548845I-51314J-22806D01*
G03X1708682Y-625305I-16571J-53653D01*
G37*
G36*
G01X1712874Y-789756D02*
G03X1825182Y-789756I56154J0D01*
G03X1712874Y-789756I-56154J0D01*
G37*
G36*
G01X1768842Y-1209998D02*
G03X1881150Y-1209998I56154J0D01*
G03X1768842Y-1209998I-56154J0D01*
G37*
G36*
G01X1791086Y-1322875D02*
G03X1903394Y-1322875I56154J0D01*
G03X1791086Y-1322875I-56154J0D01*
G37*
G36*
G01X1813842Y7500D02*
G03X1926150Y7500I56154J0D01*
G03X1813842Y7500I-56154J0D01*
G37*
G36*
G01X1848206Y-764467D02*
G03X1936740Y-705478I34290J44469D01*
G03X1971283Y-604856I253J56153D01*
G03X1882749Y-663845I-34290J-44469D01*
G03X1848206Y-764467I-253J-56153D01*
G37*
G36*
G01X1863842Y220000D02*
G03X1976150Y220000I56154J0D01*
G03X1863842Y220000I-56154J0D01*
G37*
G36*
G01X1902956Y-932487D02*
G03X2015264Y-932487I56154J0D01*
G03X1902956Y-932487I-56154J0D01*
G37*
G36*
G01X1975517Y-822487D02*
G03X2087825Y-822487I56154J0D01*
G03X1975517Y-822487I-56154J0D01*
G37*
G36*
G01X2093018Y534999D02*
G03X2205327Y534999I56154J0D01*
G03X2093018Y534999I-56154J0D01*
G37*
G36*
G01X2159996Y1270649D02*
G03X2134342Y1244995I0J-25654D01*
G01X2134342Y1134995D01*
G03X2159996Y1109341I25654J0D01*
G01X2269995Y1109341D01*
G03X2295649Y1134995I0J25654D01*
G01X2295649Y1244995D01*
G03X2269995Y1270649I-25654J0D01*
G01X2269608Y1270649D01*
G03X2214996Y1410654I-54612J59351D01*
G03X2160383Y1270649I0J-80654D01*
G01X2159996Y1270649D01*
G37*
G36*
G01X2188841Y819998D02*
G03X2301150Y819998I56154J0D01*
G03X2188841Y819998I-56154J0D01*
G37*
G36*
G01X2195039Y-565910D02*
G03X2307347Y-565910I56154J0D01*
G03X2195039Y-565910I-56154J0D01*
G37*
G36*
G01X2196342Y-344999D02*
G03X2308650Y-344999I56154J0D01*
G03X2196342Y-344999I-56154J0D01*
G37*
G36*
G01X2258841Y382499D02*
G03X2371149Y382499I56154J0D01*
G03X2258841Y382499I-56154J0D01*
G37*
%LPD*%
G04 PlaneZone End*

G04 Pad Start*
G54D10*
G01X-2109996Y1192495D03*
G54D11*
G01X-2109996Y1332500D03*
G54D10*
G01X2214996Y1189995D03*
G54D11*
G01X2214996Y1330000D03*
G54D12*
G01X-435011Y-829999D03*
G01X429986Y-829999D03*
G54D13*
G01X-435011Y-1250013D03*
G01X429986Y-1250013D03*
G04 Pad End*

G04 Via Start*
G54D14*
G01X-82499Y370011D03*
G01X-164998Y287512D03*
G01X0Y287512D03*
G01X82500Y370011D03*
G01X164998Y287512D03*
G01X-164998Y122514D03*
G01X-82499Y205012D03*
G01X0Y122514D03*
G01X82500Y205012D03*
G01X164998Y122514D03*
G01X-82499Y40014D03*
G01X82500Y40014D03*
G01X-1834996Y-577499D03*
G01X1249998Y799999D03*
G01X1329998Y799999D03*
G01X1332105Y728461D03*
G01X1247105Y728461D03*
G01X1332497Y654999D03*
G01X1247498Y654999D03*
G01X-856467Y-105878D03*
G01X-854043Y-535882D03*
G01X-699999Y-494999D03*
G01X1599054Y704999D03*
G01X1727496Y927498D03*
G01X1034626Y914221D03*
G01X961008Y908539D03*
G01X944998Y737499D03*
G01X994099Y551943D03*
G01X1144998Y552499D03*
G01X1028249Y378400D03*
G01X787499Y541838D03*
G01X614999Y542499D03*
G01X614671Y630005D03*
G01X699999Y905011D03*
G01X-699999Y905011D03*
G01X-594995Y800007D03*
G01X-594995Y715019D03*
G01X-424993Y800007D03*
G01X-170002Y800007D03*
G01X84988Y800007D03*
G01X340004Y800007D03*
G01X594995Y800007D03*
G01X-1716084Y705509D03*
G01X-1716477Y778971D03*
G01X-1718584Y850509D03*
G01X-1798584Y850509D03*
G01X-1801476Y778971D03*
G01X-1801084Y705509D03*
G01X-1389962Y901403D03*
G01X-2213424Y593971D03*
G01X-2104412Y781471D03*
G01X-1537497Y682499D03*
G01X-1323455Y743975D03*
G01X-834998Y742125D03*
G01X-1017291Y734507D03*
G01X699999Y-494986D03*
G01X892498Y-238491D03*
G01X1701391Y34463D03*
G01X1827496Y-572499D03*
G01X1936993Y-649324D03*
G01X2031671Y-822487D03*
G01X1142616Y-1189722D03*
G01X1231452Y-1105254D03*
G01X1252241Y-1379887D03*
G01X1690997Y-879276D03*
G01X691678Y-1193322D03*
G01X587649Y-1238988D03*
G01X1769028Y-789756D03*
G01X1465812Y-1082754D03*
G01X1959110Y-932487D03*
G01X1424106Y-499496D03*
G01X-897498Y474999D03*
G01X1670104Y-1082754D03*
G01X-1539997Y879998D03*
G01X-782499Y140000D03*
G01X-784998Y35000D03*
G01X-1975175Y915910D03*
G01X-2046011Y846483D03*
G01X-957476Y-44978D03*
G01X1073450Y630951D03*
G01X952758Y829842D03*
G01X922539Y636686D03*
G01X1500803Y702608D03*
G01X1552159Y643799D03*
G01X577494Y-47495D03*
G01X512240Y-4100D03*
G01X454991Y52507D03*
G01X-1037498Y155000D03*
G01X2149172Y534999D03*
G01X-2280493Y-1391418D03*
G01X-2112739Y-1220829D03*
G01X-2282993Y-1220829D03*
G01X-2199173Y-1220829D03*
G01X-2019688Y-1220829D03*
G01X-2282495Y-1302497D03*
G01X1292498Y-837498D03*
G01X1684938Y348027D03*
G01X-1344997Y822676D03*
G01X-1537120Y801602D03*
G01X2252496Y-344999D03*
G01X2329995Y-454999D03*
G01X2251193Y-565910D03*
G01X-1499996Y-309998D03*
G01X-1247757Y-154500D03*
G01X-1448390Y-247499D03*
G01X-1332497Y-162500D03*
G01X620019Y-219979D03*
G01X611117Y-311381D03*
G01X614999Y-389999D03*
G01X537498Y-147498D03*
G01X785231Y800007D03*
G01X837498Y624999D03*
G01X-1034998Y625490D03*
G01X1827496Y-372567D03*
G01X-959998Y-268499D03*
G01X2332495Y912498D03*
G01X-2322495Y907498D03*
G01X1637497Y-1242498D03*
G01X-594999Y-409999D03*
G01X958398Y474940D03*
G01X-552499Y202500D03*
G01X1754996Y-115000D03*
G01X1919996Y220000D03*
G01X1402497Y284999D03*
G01X584999Y-729998D03*
G01X40000Y-409999D03*
G01X329999Y-264999D03*
G01X-479999Y-45000D03*
G01X579999Y190000D03*
G01X819998Y369999D03*
G01X-2067496Y292500D03*
G01X-1759996Y127500D03*
G01X-1279997Y364999D03*
G01X-1402757Y137240D03*
G01X-2057496Y924998D03*
G01X-2244996Y872498D03*
G01X-2307495Y794998D03*
G01X-2019996Y-32500D03*
G01X-1904996Y-777498D03*
G01X-1077498Y-1149998D03*
G01X-1662497Y-1347497D03*
G01X-1009998Y-1369997D03*
G01X854998Y-1359997D03*
G01X27500Y-1239998D03*
G01X-752498Y-909998D03*
G01X697499Y-832498D03*
G01X1599997Y-130000D03*
G01X1522497Y-359999D03*
G01X2329995Y-1159998D03*
G01X1754997Y-1424997D03*
G01X2314995Y382499D03*
G01X2244996Y819998D03*
G01X1869996Y7500D03*
G01X312500Y479999D03*
G01X-314999Y534999D03*
G01X92500Y589999D03*
G01X-135000Y607499D03*
G01X-372499Y299999D03*
G01X-322499Y150000D03*
G01X-579999Y62500D03*
G01X-377499Y-90000D03*
G01X-549999Y384999D03*
G01X492499Y137500D03*
G01X382499Y312500D03*
G01X516570Y457512D03*
G01X474999Y649999D03*
G01X212499Y-409999D03*
G01X-107500Y-407499D03*
G01X-537499Y-644999D03*
G01X-722499Y-724999D03*
G01X-667499Y-1209998D03*
G01X914998Y-867498D03*
G01X987498Y-1094998D03*
G01X1341286Y-1092689D03*
G01X1847240Y-1322875D03*
G01X1449997Y-884998D03*
G01X1759996Y-602499D03*
G01X1572497Y-482499D03*
G01X1457497Y-1234998D03*
G01X1824996Y-1209998D03*
G01X909998Y-1262497D03*
G01X1565811Y-874245D03*
G01X-1162498Y-264999D03*
G01X-331479Y-654999D03*
G01X394999Y-657499D03*
G01X797498Y-727498D03*
G01X-254999Y-414999D03*
G01X-389999Y-404999D03*
G01X147500Y-604999D03*
G01X-80000Y-594999D03*
G01X1349997Y-922498D03*
G01X1882496Y-719999D03*
G04 Via End*

M02*

