G04 Layer: TopLayer*
G04 EasyEDA Pro v2.2.40.8, 2025-08-10 13:50:58*
G04 Gerber Generator version 0.3*
G04 Scale: 100 percent, Rotated: No, Reflected: No*
G04 Dimensions in millimeters*
G04 Leading zeros omitted, absolute positions, 4 integers and 5 decimals*
G04 Generated by one-click*
%FSLAX45Y45*%
%MOMM*%
%ADD10C,0.2032*%
%ADD11R,0.54X0.79009*%
%ADD12R,0.324X0.36843*%
%ADD13R,0.36843X0.324*%
%ADD14R,0.79009X0.54*%
%ADD15R,0.8X0.8*%
%ADD16R,0.5748X0.54*%
%ADD17R,0.56566X0.54*%
%ADD18R,0.30312X0.324*%
%ADD19R,0.324X0.30312*%
%ADD20R,1.35999X1.23*%
%ADD21R,0.8X0.4*%
%ADD22R,0.4X0.8*%
%ADD23R,1.2X1.2*%
%ADD24R,1.157X0.48999*%
%ADD25R,1.175X0.48999*%
%ADD26R,0.505X0.224*%
%ADD27R,1.7X2.3*%
%ADD28R,0.7X1.25001*%
%ADD29R,0.8X1.524*%
%ADD30R,1.5X2.0*%
%ADD31R,1.1X1.1*%
%ADD32C,1.1*%
%ADD33R,2.0X1.5*%
%ADD34R,1.23X1.35999*%
%ADD35R,0.55001X1.1*%
%ADD36R,0.3X1.1*%
%ADD37O,1.1X2.0*%
%ADD38O,1.2X1.8*%
%ADD39C,0.61*%
%ADD40C,0.2*%
%ADD41C,0.25*%
%ADD42C,0.154*%
%ADD43C,0.254*%
%ADD44C,0.4*%
%ADD45C,0.3*%
%ADD46C,0.35*%
%ADD47C,0.7*%
G75*


G04 Copper Start*
G36*
G01X1627958Y-1022440D02*
G01X1516808Y-1022440D01*
G01X1507657Y-1013290D01*
G01X1507657Y-964206D01*
G01X1526705Y-945158D01*
G01X1683440Y-945158D01*
G01X1698555Y-945158D01*
G01X1720241Y-945158D01*
G01X1727126Y-949605D01*
G01X1734843Y-952370D01*
G01X1742986Y-953308D01*
G01X1796987Y-953308D01*
G01X1805130Y-952370D01*
G01X1812846Y-949605D01*
G01X1819732Y-945158D01*
G01X1825788Y-945158D01*
G01X1895312Y-1014682D01*
G01X1898608Y-1016885D01*
G01X1902496Y-1017658D01*
G01X2067496Y-1017658D01*
G01X2071384Y-1016885D01*
G01X2074680Y-1014682D01*
G01X2097217Y-992145D01*
G01X2105850Y-986647D01*
G01X2112575Y-978931D01*
G01X2116843Y-969628D01*
G01X2118306Y-959498D01*
G01X2118306Y-905498D01*
G01X2117181Y-896593D01*
G01X2113878Y-888248D01*
G01X2130838Y-871287D01*
G01X2139423Y-865778D01*
G01X2146107Y-858072D01*
G01X2150346Y-848795D01*
G01X2151799Y-838698D01*
G01X2151799Y-806298D01*
G01X2150652Y-797308D01*
G01X2147285Y-788893D01*
G01X2141914Y-781593D01*
G01X2134882Y-775875D01*
G01X2132180Y-771035D01*
G01X2127656Y-766510D01*
G01X2127656Y-659207D01*
G01X2134204Y-652659D01*
G01X2173627Y-652659D01*
G01X2182336Y-662501D01*
G01X2182335Y-966106D01*
G01X2183149Y-970090D01*
G01X2185460Y-973436D01*
G01X2209836Y-996829D01*
G01X2209836Y-1418289D01*
G01X2200787Y-1427337D01*
G01X2031704Y-1427337D01*
G01X2022656Y-1418289D01*
G01X2022656Y-1144998D01*
G01X2021883Y-1141110D01*
G01X2019680Y-1137813D01*
G01X1969680Y-1087814D01*
G01X1966384Y-1085611D01*
G01X1962496Y-1084838D01*
G01X1871705Y-1084838D01*
G01X1819680Y-1032814D01*
G01X1816384Y-1030611D01*
G01X1812496Y-1029838D01*
G01X1710072Y-1029838D01*
G01X1697137Y-1022200D01*
G01X1682814Y-1017669D01*
G01X1667840Y-1016479D01*
G01X1652981Y-1018688D01*
G01X1639002Y-1024186D01*
G01X1627958Y-1022440D01*
G37*
G36*
G01X560498Y-1081116D02*
G01X557241Y-1081264D01*
G01X539687Y-1063644D01*
G01X539687Y-969267D01*
G01X558291Y-954046D01*
G01X1379507Y-954046D01*
G01X1392293Y-966755D01*
G01X1391789Y-1015482D01*
G01X1376887Y-1027338D01*
G01X1352545Y-1027338D01*
G01X1341286Y-1026375D01*
G01X1330028Y-1027338D01*
G01X1187576Y-1027338D01*
G01X1178867Y-1023691D01*
G01X1169508Y-1022446D01*
G01X1115508Y-1022446D01*
G01X1106148Y-1023691D01*
G01X1097439Y-1027338D01*
G01X779998Y-1027338D01*
G01X776110Y-1028111D01*
G01X772814Y-1030314D01*
G01X722265Y-1080863D01*
G01X715612Y-1078868D01*
G01X708699Y-1078194D01*
G01X676299Y-1078194D01*
G01X667661Y-1079252D01*
G01X659534Y-1082360D01*
G01X652396Y-1087338D01*
G01X634672Y-1087338D01*
G01X625054Y-1082707D01*
G01X614499Y-1081116D01*
G01X560498Y-1081116D01*
G37*
G36*
G01X-2364186Y944841D02*
G01X-2189943Y944841D01*
G01X-2194891Y939893D01*
G01X-2202172Y930405D01*
G01X-2206748Y919356D01*
G01X-2208310Y907498D01*
G01X-2208310Y698343D01*
G01X-2207621Y690431D01*
G01X-2207621Y673799D01*
G01X-2205868Y662731D01*
G01X-2200781Y652748D01*
G01X-2192858Y644824D01*
G01X-2182874Y639737D01*
G01X-2171807Y637985D01*
G01X-2144112Y637985D01*
G01X-2152259Y630038D01*
G01X-2157502Y619936D01*
G01X-2159310Y608699D01*
G01X-2159310Y576299D01*
G01X-2157558Y565232D01*
G01X-2152471Y555248D01*
G01X-2144547Y547325D01*
G01X-2134564Y542238D01*
G01X-2123496Y540485D01*
G01X-2093184Y540485D01*
G01X-2082782Y542029D01*
G01X-2073276Y546528D01*
G01X-2065487Y553594D01*
G01X-2060086Y562618D01*
G01X-2051019Y571685D01*
G01X-2016293Y571685D01*
G01X-2004436Y573246D01*
G01X-1993386Y577823D01*
G01X-1983898Y585104D01*
G01X-1980156Y588846D01*
G01X-1977776Y588846D01*
G01X-1968167Y590159D01*
G01X-1959263Y594002D01*
G01X-1952679Y594002D01*
G01X-1940821Y595563D01*
G01X-1929772Y600140D01*
G01X-1920283Y607420D01*
G01X-1915737Y611967D01*
G01X-1876475Y611967D01*
G01X-1865407Y613720D01*
G01X-1855424Y618807D01*
G01X-1847500Y626730D01*
G01X-1842413Y636714D01*
G01X-1840661Y647781D01*
G01X-1840661Y670182D01*
G01X-1841756Y678971D01*
G01X-1840661Y687761D01*
G01X-1840661Y710161D01*
G01X-1841759Y718964D01*
G01X-1840661Y727766D01*
G01X-1840661Y750166D01*
G01X-1842384Y761142D01*
G01X-1847389Y771062D01*
G01X-1855193Y778971D01*
G01X-1847389Y786880D01*
G01X-1842384Y796800D01*
G01X-1840661Y807776D01*
G01X-1840661Y830176D01*
G01X-1841759Y838979D01*
G01X-1840661Y847781D01*
G01X-1840661Y870181D01*
G01X-1841756Y878971D01*
G01X-1840661Y887760D01*
G01X-1840661Y910161D01*
G01X-1841854Y919330D01*
G01X-1845356Y927888D01*
G01X-1850932Y935265D01*
G01X-1858211Y940968D01*
G01X-1858211Y944841D01*
G01X-1553887Y944841D01*
G01X-1568856Y939703D01*
G01X-1582182Y931164D01*
G01X-1593105Y919711D01*
G01X-1601003Y905995D01*
G01X-1641479Y905995D01*
G01X-1652546Y904242D01*
G01X-1662530Y899155D01*
G01X-1670453Y891232D01*
G01X-1675540Y881248D01*
G01X-1677293Y870181D01*
G01X-1677293Y847781D01*
G01X-1676194Y838979D01*
G01X-1677293Y830176D01*
G01X-1677293Y807776D01*
G01X-1675569Y796800D01*
G01X-1670565Y786880D01*
G01X-1662761Y778971D01*
G01X-1670565Y771062D01*
G01X-1675569Y761142D01*
G01X-1677293Y750166D01*
G01X-1677293Y727766D01*
G01X-1676194Y718964D01*
G01X-1677293Y710161D01*
G01X-1677293Y687761D01*
G01X-1676197Y678971D01*
G01X-1677293Y670182D01*
G01X-1677293Y647781D01*
G01X-1675540Y636714D01*
G01X-1670453Y626730D01*
G01X-1662530Y618807D01*
G01X-1652546Y613720D01*
G01X-1641479Y611967D01*
G01X-1611756Y611967D01*
G01X-1569892Y570104D01*
G01X-1562317Y563991D01*
G01X-1553621Y559616D01*
G01X-1544197Y557178D01*
G01X-1534298Y552199D01*
G01X-1523350Y550485D01*
G01X-1486508Y550485D01*
G01X-1475440Y552238D01*
G01X-1465457Y557325D01*
G01X-1457533Y565248D01*
G01X-1452446Y575232D01*
G01X-1450694Y586299D01*
G01X-1450694Y618699D01*
G01X-1452648Y630368D01*
G01X-1458297Y640763D01*
G01X-1467025Y648750D01*
G01X-1477880Y653458D01*
G01X-1473445Y665326D01*
G01X-1471348Y677820D01*
G01X-1471665Y690485D01*
G01X-1441508Y690485D01*
G01X-1430441Y692237D01*
G01X-1420457Y697324D01*
G01X-1412534Y705248D01*
G01X-1407447Y715231D01*
G01X-1405694Y726299D01*
G01X-1405694Y758699D01*
G01X-1407360Y769497D01*
G01X-1412205Y779291D01*
G01X-1419778Y787167D01*
G01X-1429373Y792394D01*
G01X-1424706Y795725D01*
G01X-1405588Y795725D01*
G01X-1397996Y782817D01*
G01X-1387701Y771942D01*
G01X-1375229Y763654D01*
G01X-1361215Y758375D01*
G01X-1346375Y756376D01*
G01X-1331464Y757757D01*
G01X-1317243Y762449D01*
G01X-1304437Y770212D01*
G01X-1293700Y780650D01*
G01X-1285578Y793232D01*
G01X-1280487Y807315D01*
G01X-1278685Y822181D01*
G01X-1280265Y837072D01*
G01X-1285146Y851229D01*
G01X-1293078Y863931D01*
G01X-1303659Y874528D01*
G01X-1316347Y882481D01*
G01X-1330496Y887385D01*
G01X-1345385Y888988D01*
G01X-1360254Y887211D01*
G01X-1363861Y887353D01*
G01X-1424706Y887353D01*
G01X-1431665Y891945D01*
G01X-1439496Y894804D01*
G01X-1447777Y895774D01*
G01X-1475587Y895774D01*
G01X-1480698Y909683D01*
G01X-1488770Y922109D01*
G01X-1499399Y932433D01*
G01X-1512056Y940138D01*
G01X-1526107Y944841D01*
G01X799667Y944841D01*
G01X793529Y937281D01*
G01X789655Y928346D01*
G01X788331Y918698D01*
G01X788331Y886298D01*
G01X790015Y875444D01*
G01X794910Y865611D01*
G01X781648Y866225D01*
G01X768530Y864184D01*
G01X756081Y859571D01*
G01X744801Y852571D01*
G01X737509Y853321D01*
G01X657509Y853321D01*
G01X646442Y851569D01*
G01X636459Y846482D01*
G01X628535Y838558D01*
G01X623448Y828575D01*
G01X621695Y817507D01*
G01X621695Y777507D01*
G01X622609Y769470D01*
G01X625303Y761842D01*
G01X629641Y755013D01*
G01X625303Y748185D01*
G01X622609Y740557D01*
G01X621695Y732519D01*
G01X621695Y692519D01*
G01X623448Y681452D01*
G01X628535Y671468D01*
G01X636459Y663545D01*
G01X646442Y658458D01*
G01X657509Y656705D01*
G01X737509Y656705D01*
G01X746952Y657972D01*
G01X755727Y661685D01*
G01X782256Y661685D01*
G01X775604Y648802D01*
G01X771910Y634782D01*
G01X771352Y620293D01*
G01X773955Y606030D01*
G01X779596Y592674D01*
G01X788006Y580862D01*
G01X798781Y571161D01*
G01X811407Y564033D01*
G01X825280Y559820D01*
G01X839737Y558722D01*
G01X853984Y544476D01*
G01X853984Y511814D01*
G01X828798Y511814D01*
G01X818435Y510282D01*
G01X808959Y505817D01*
G01X759440Y505817D01*
G01X749098Y511390D01*
G01X737509Y513317D01*
G01X657509Y513317D01*
G01X646442Y511564D01*
G01X636459Y506477D01*
G01X628535Y498554D01*
G01X623448Y488570D01*
G01X621695Y477503D01*
G01X621695Y437503D01*
G01X622609Y429465D01*
G01X625303Y421837D01*
G01X629641Y415009D01*
G01X625303Y408180D01*
G01X622609Y400553D01*
G01X621695Y392515D01*
G01X621695Y352515D01*
G01X622610Y344471D01*
G01X625308Y336839D01*
G01X629651Y330008D01*
G01X625308Y323176D01*
G01X622610Y315544D01*
G01X621695Y307501D01*
G01X621695Y267501D01*
G01X622609Y259463D01*
G01X625303Y251835D01*
G01X629641Y245007D01*
G01X625303Y238178D01*
G01X622609Y230550D01*
G01X621695Y222512D01*
G01X621695Y182512D01*
G01X622609Y174475D01*
G01X625303Y166847D01*
G01X629641Y160018D01*
G01X625303Y153190D01*
G01X622609Y145562D01*
G01X621695Y137524D01*
G01X621695Y97524D01*
G01X622610Y89481D01*
G01X625308Y81849D01*
G01X629651Y75017D01*
G01X625308Y68186D01*
G01X622610Y60553D01*
G01X621695Y52510D01*
G01X621695Y12510D01*
G01X622291Y6009D01*
G01X624056Y-277D01*
G01X613418Y8246D01*
G01X601261Y14414D01*
G01X588101Y17966D01*
G01X574492Y18751D01*
G01X569331Y29637D01*
G01X562285Y39409D01*
G01X553587Y47746D01*
G01X543525Y54371D01*
G01X532430Y59066D01*
G01X520669Y61677D01*
G01X516660Y76892D01*
G01X509179Y90734D01*
G01X498648Y102424D01*
G01X485659Y111304D01*
G01X470944Y116874D01*
G01X455330Y118821D01*
G01X439698Y117034D01*
G01X424926Y111614D01*
G01X411847Y102868D01*
G01X401197Y91286D01*
G01X393576Y77521D01*
G01X389412Y62347D01*
G01X388939Y46620D01*
G01X392185Y31225D01*
G01X224895Y-136066D01*
G01X-607394Y-136066D01*
G01X-621695Y-121765D01*
G01X-621695Y-117492D01*
G01X-622610Y-109449D01*
G01X-625308Y-101817D01*
G01X-629651Y-94985D01*
G01X-625308Y-88154D01*
G01X-622610Y-80521D01*
G01X-621695Y-72478D01*
G01X-621695Y-32478D01*
G01X-622609Y-24440D01*
G01X-625303Y-16812D01*
G01X-629641Y-9984D01*
G01X-625303Y-3155D01*
G01X-622609Y4472D01*
G01X-621695Y12510D01*
G01X-621695Y52510D01*
G01X-622610Y60553D01*
G01X-625308Y68186D01*
G01X-629651Y75017D01*
G01X-625308Y81849D01*
G01X-622610Y89481D01*
G01X-621695Y97524D01*
G01X-621695Y137524D01*
G01X-623531Y148841D01*
G01X-628848Y158998D01*
G01X-602551Y158998D01*
G01X-590636Y148249D01*
G01X-576487Y140677D01*
G01X-560934Y136724D01*
G01X-544887Y136624D01*
G01X-529286Y140381D01*
G01X-515044Y147776D01*
G01X-502995Y158375D01*
G01X-493845Y171559D01*
G01X-488130Y186554D01*
G01X-486185Y202483D01*
G01X-488122Y218413D01*
G01X-493830Y233411D01*
G01X-502973Y246599D01*
G01X-515016Y257204D01*
G01X-529254Y264606D01*
G01X-544854Y268372D01*
G01X-560901Y268279D01*
G01X-576456Y264335D01*
G01X-590608Y256770D01*
G01X-602529Y246026D01*
G01X-628848Y246026D01*
G01X-623531Y256184D01*
G01X-621695Y267501D01*
G01X-621695Y307501D01*
G01X-622610Y315544D01*
G01X-625308Y323176D01*
G01X-629651Y330008D01*
G01X-625308Y336839D01*
G01X-622610Y344471D01*
G01X-621695Y352515D01*
G01X-621695Y392515D01*
G01X-622609Y400553D01*
G01X-625303Y408180D01*
G01X-629641Y415009D01*
G01X-625303Y421837D01*
G01X-622609Y429465D01*
G01X-621695Y437503D01*
G01X-621695Y477503D01*
G01X-622610Y485546D01*
G01X-625308Y493178D01*
G01X-629651Y500010D01*
G01X-625308Y506841D01*
G01X-622610Y514474D01*
G01X-621695Y522517D01*
G01X-621695Y562517D01*
G01X-622609Y570555D01*
G01X-625303Y578183D01*
G01X-629641Y585011D01*
G01X-625303Y591840D01*
G01X-622609Y599467D01*
G01X-621695Y607505D01*
G01X-621695Y647505D01*
G01X-623448Y658572D01*
G01X-628535Y668556D01*
G01X-636459Y676479D01*
G01X-646442Y681566D01*
G01X-657509Y683319D01*
G01X-737509Y683319D01*
G01X-746781Y682098D01*
G01X-755420Y678519D01*
G01X-803819Y678519D01*
G01X-811131Y680972D01*
G01X-818798Y681802D01*
G01X-851198Y681802D01*
G01X-863015Y679796D01*
G01X-873508Y674004D01*
G01X-883336Y674004D01*
G01X-888108Y684724D01*
G01X-896089Y693326D01*
G01X-906422Y698887D01*
G01X-917998Y700809D01*
G01X-971998Y700809D01*
G01X-981124Y699627D01*
G01X-989647Y696158D01*
G01X-997005Y690633D01*
G01X-1002713Y683414D01*
G01X-1016834Y689268D01*
G01X-1031920Y691733D01*
G01X-1047171Y690678D01*
G01X-1061774Y686158D01*
G01X-1074954Y678415D01*
G01X-1086012Y667860D01*
G01X-1094358Y655053D01*
G01X-1099550Y640675D01*
G01X-1101312Y625490D01*
G01X-1099550Y610306D01*
G01X-1094358Y595928D01*
G01X-1086012Y583121D01*
G01X-1074954Y572565D01*
G01X-1061774Y564822D01*
G01X-1047171Y560303D01*
G01X-1031920Y559248D01*
G01X-1016834Y561712D01*
G01X-1002713Y567566D01*
G01X-997005Y560348D01*
G01X-989647Y554822D01*
G01X-981124Y551354D01*
G01X-971998Y550172D01*
G01X-917998Y550172D01*
G01X-906422Y552094D01*
G01X-896089Y557655D01*
G01X-888108Y566256D01*
G01X-883336Y576976D01*
G01X-866940Y576976D01*
G01X-859312Y574263D01*
G01X-870093Y569772D01*
G01X-878855Y562052D01*
G01X-884668Y551923D01*
G01X-886914Y540463D01*
G01X-901676Y541181D01*
G01X-916231Y538612D01*
G01X-929855Y532883D01*
G01X-941872Y524279D01*
G01X-951685Y513226D01*
G01X-958806Y500275D01*
G01X-962882Y486068D01*
G01X-963710Y471311D01*
G01X-961248Y456738D01*
G01X-955620Y443072D01*
G01X-947105Y430991D01*
G01X-936126Y421097D01*
G01X-923228Y413880D01*
G01X-909051Y409699D01*
G01X-894301Y408762D01*
G01X-879710Y411115D01*
G01X-866002Y416642D01*
G01X-853859Y425067D01*
G01X-851116Y424962D01*
G01X-818715Y424962D01*
G01X-807648Y426715D01*
G01X-797664Y431802D01*
G01X-789741Y439725D01*
G01X-784654Y449709D01*
G01X-782901Y460776D01*
G01X-782901Y491088D01*
G01X-783833Y499203D01*
G01X-766001Y499203D01*
G01X-771443Y488954D01*
G01X-773323Y477503D01*
G01X-773323Y437503D01*
G01X-772410Y429465D01*
G01X-769715Y421837D01*
G01X-765378Y415009D01*
G01X-769715Y408180D01*
G01X-772410Y400553D01*
G01X-773323Y392515D01*
G01X-773323Y352515D01*
G01X-772408Y344471D01*
G01X-769711Y336839D01*
G01X-765368Y330008D01*
G01X-769711Y323176D01*
G01X-772408Y315544D01*
G01X-773323Y307501D01*
G01X-773323Y267501D01*
G01X-772410Y259463D01*
G01X-769715Y251835D01*
G01X-765378Y245007D01*
G01X-769715Y238178D01*
G01X-772410Y230550D01*
G01X-773323Y222512D01*
G01X-773323Y205676D01*
G01X-787655Y206113D01*
G01X-801746Y203459D01*
G01X-814937Y197838D01*
G01X-826611Y189514D01*
G01X-836223Y178874D01*
G01X-843324Y166417D01*
G01X-847580Y152725D01*
G01X-848794Y138438D01*
G01X-846909Y124224D01*
G01X-842012Y110748D01*
G01X-834333Y98639D01*
G01X-824231Y88464D01*
G01X-833622Y80092D01*
G01X-841263Y70098D01*
G01X-846879Y58841D01*
G01X-850268Y46726D01*
G01X-851308Y34189D01*
G01X-849961Y21681D01*
G01X-846277Y9652D01*
G01X-840387Y-1464D01*
G01X-907436Y-1464D01*
G01X-919353Y9282D01*
G01X-933504Y16851D01*
G01X-949058Y20799D01*
G01X-965105Y20896D01*
G01X-980705Y17134D01*
G01X-994945Y9736D01*
G01X-1006991Y-867D01*
G01X-1016138Y-14052D01*
G01X-1021849Y-29049D01*
G01X-1023790Y-44978D01*
G01X-1021849Y-60908D01*
G01X-1016138Y-75904D01*
G01X-1006991Y-89090D01*
G01X-994945Y-99693D01*
G01X-980705Y-107091D01*
G01X-965105Y-110852D01*
G01X-949058Y-110756D01*
G01X-933504Y-106808D01*
G01X-919353Y-99239D01*
G01X-907436Y-88492D01*
G01X-769543Y-88492D01*
G01X-765368Y-94985D01*
G01X-769711Y-101817D01*
G01X-772408Y-109449D01*
G01X-773323Y-117492D01*
G01X-773323Y-157492D01*
G01X-772410Y-165530D01*
G01X-769715Y-173158D01*
G01X-765378Y-179986D01*
G01X-769715Y-186815D01*
G01X-772410Y-194442D01*
G01X-773323Y-202480D01*
G01X-773323Y-242480D01*
G01X-772408Y-250524D01*
G01X-769711Y-258156D01*
G01X-765368Y-264987D01*
G01X-769711Y-271819D01*
G01X-772408Y-279451D01*
G01X-773323Y-287494D01*
G01X-773323Y-327494D01*
G01X-772410Y-335532D01*
G01X-769715Y-343160D01*
G01X-765378Y-349988D01*
G01X-769715Y-356817D01*
G01X-772410Y-364445D01*
G01X-773323Y-372483D01*
G01X-773323Y-412483D01*
G01X-771570Y-423550D01*
G01X-766483Y-433533D01*
G01X-758560Y-441457D01*
G01X-748576Y-446544D01*
G01X-737509Y-448297D01*
G01X-657509Y-448297D01*
G01X-649731Y-447442D01*
G01X-648938Y-448576D01*
G01X-650809Y-460001D01*
G01X-650809Y-540001D01*
G01X-649056Y-551068D01*
G01X-643969Y-561052D01*
G01X-636046Y-568975D01*
G01X-626062Y-574062D01*
G01X-614995Y-575815D01*
G01X-574995Y-575815D01*
G01X-566957Y-574901D01*
G01X-559329Y-572207D01*
G01X-552501Y-567869D01*
G01X-545672Y-572207D01*
G01X-538044Y-574901D01*
G01X-530007Y-575815D01*
G01X-490007Y-575815D01*
G01X-481963Y-574900D01*
G01X-474331Y-572202D01*
G01X-467500Y-567859D01*
G01X-460668Y-572202D01*
G01X-453036Y-574900D01*
G01X-444993Y-575815D01*
G01X-404993Y-575815D01*
G01X-396955Y-574901D01*
G01X-389327Y-572207D01*
G01X-382499Y-567869D01*
G01X-375670Y-572207D01*
G01X-368042Y-574901D01*
G01X-360004Y-575815D01*
G01X-320004Y-575815D01*
G01X-311961Y-574900D01*
G01X-304329Y-572202D01*
G01X-297497Y-567859D01*
G01X-290666Y-572202D01*
G01X-283034Y-574900D01*
G01X-274991Y-575815D01*
G01X-234991Y-575815D01*
G01X-226953Y-574901D01*
G01X-219325Y-572207D01*
G01X-212496Y-567869D01*
G01X-205668Y-572207D01*
G01X-198040Y-574901D01*
G01X-190002Y-575815D01*
G01X-150002Y-575815D01*
G01X-141959Y-574900D01*
G01X-134327Y-572202D01*
G01X-127495Y-567859D01*
G01X-120664Y-572202D01*
G01X-113032Y-574900D01*
G01X-104988Y-575815D01*
G01X-64988Y-575815D01*
G01X-56061Y-574684D01*
G01X-47697Y-571364D01*
G01X-44975Y-580688D01*
G01X-40451Y-589282D01*
G01X-34305Y-596803D01*
G01X-26020Y-605088D01*
G01X-26020Y-636485D01*
G01X-55000Y-636485D01*
G01X-67556Y-638138D01*
G01X-79257Y-642984D01*
G01X-89304Y-650694D01*
G01X-97109Y-658499D01*
G01X-105121Y-650486D01*
G01X-105121Y-627998D01*
G01X-106874Y-616931D01*
G01X-111961Y-606948D01*
G01X-119884Y-599024D01*
G01X-129868Y-593937D01*
G01X-140935Y-592184D01*
G01X-197501Y-592184D01*
G01X-208568Y-593937D01*
G01X-218552Y-599024D01*
G01X-226475Y-606948D01*
G01X-231562Y-616931D01*
G01X-233315Y-627998D01*
G01X-233315Y-681999D01*
G01X-233249Y-684169D01*
G01X-270005Y-684169D01*
G01X-281072Y-685922D01*
G01X-291056Y-691009D01*
G01X-298979Y-698932D01*
G01X-304066Y-708916D01*
G01X-305819Y-719983D01*
G01X-305819Y-812666D01*
G01X-320781Y-817540D01*
G01X-334297Y-825598D01*
G01X-345700Y-836441D01*
G01X-354427Y-849536D01*
G01X-360047Y-864234D01*
G01X-362282Y-879810D01*
G01X-361022Y-895495D01*
G01X-356330Y-910515D01*
G01X-348436Y-924128D01*
G01X-337731Y-935661D01*
G01X-324743Y-944546D01*
G01X-310114Y-950343D01*
G01X-294566Y-952767D01*
G01X-278867Y-951697D01*
G01X-263791Y-947187D01*
G01X-250084Y-939459D01*
G01X-238422Y-928894D01*
G01X-229380Y-916015D01*
G01X-122699Y-1022697D01*
G01X-111657Y-1031169D01*
G01X-98799Y-1036495D01*
G01X-85000Y-1038312D01*
G01X133757Y-1038312D01*
G01X192936Y-1097491D01*
G01X203667Y-1106298D01*
G01X215910Y-1112841D01*
G01X229194Y-1116871D01*
G01X243009Y-1118232D01*
G01X529174Y-1118232D01*
G01X533698Y-1122773D01*
G01X541124Y-1128491D01*
G01X549779Y-1132085D01*
G01X559071Y-1133312D01*
G01X719999Y-1133312D01*
G01X729268Y-1132091D01*
G01X737906Y-1128514D01*
G01X745323Y-1122822D01*
G01X794833Y-1073312D01*
G01X1380436Y-1073312D01*
G01X1392245Y-1071309D01*
G01X1402733Y-1065524D01*
G01X1424196Y-1048449D01*
G01X1431404Y-1040722D01*
G01X1436044Y-1031228D01*
G01X1437710Y-1020793D01*
G01X1438309Y-962942D01*
G01X1437144Y-953507D01*
G01X1433538Y-944710D01*
G01X1427745Y-937172D01*
G01X1416233Y-925729D01*
G01X1415005Y-909398D01*
G01X1409812Y-893867D01*
G01X1400971Y-880081D01*
G01X1389022Y-868883D01*
G01X1374693Y-860954D01*
G01X1358858Y-856779D01*
G01X1342482Y-856611D01*
G01X1326565Y-860462D01*
G01X1312077Y-868096D01*
G01X1299901Y-879048D01*
G01X1290780Y-892650D01*
G01X1285271Y-908072D01*
G01X554665Y-908072D01*
G01X546550Y-909003D01*
G01X538857Y-911749D01*
G01X531986Y-916167D01*
G01X506849Y-936734D01*
G01X499769Y-944525D01*
G01X495261Y-954039D01*
G01X493713Y-964452D01*
G01X493713Y-976604D01*
G01X272341Y-976604D01*
G01X228314Y-932576D01*
G01X228314Y-922379D01*
G01X238358Y-933951D01*
G01X250655Y-943091D01*
G01X264631Y-949372D01*
G01X279631Y-952499D01*
G01X294953Y-952327D01*
G01X309879Y-948863D01*
G01X323710Y-942270D01*
G01X335799Y-932856D01*
G01X345581Y-921062D01*
G01X352596Y-907439D01*
G01X356517Y-892627D01*
G01X357160Y-877318D01*
G01X354495Y-862229D01*
G01X348647Y-848067D01*
G01X339889Y-835494D01*
G01X328632Y-825099D01*
G01X315402Y-817369D01*
G01X300819Y-812666D01*
G01X300819Y-727498D01*
G01X731184Y-727498D01*
G01X732955Y-742720D01*
G01X738172Y-757129D01*
G01X746558Y-769955D01*
G01X757663Y-780515D01*
G01X770896Y-788243D01*
G01X785550Y-792727D01*
G01X800841Y-793728D01*
G01X815954Y-791192D01*
G01X830082Y-785255D01*
G01X842469Y-776234D01*
G01X850346Y-783804D01*
G01X860138Y-788647D01*
G01X870934Y-790313D01*
G01X927500Y-790313D01*
G01X935177Y-789480D01*
G01X942498Y-787021D01*
G01X949819Y-789480D01*
G01X957497Y-790313D01*
G01X957497Y-790313D01*
G01X1014063Y-790313D01*
G01X1023077Y-789160D01*
G01X1031510Y-785775D01*
G01X1038821Y-780377D01*
G01X1044537Y-773312D01*
G01X1051688Y-773312D01*
G01X1051688Y-789999D01*
G01X1053441Y-801066D01*
G01X1058528Y-811050D01*
G01X1066451Y-818973D01*
G01X1076435Y-824060D01*
G01X1087502Y-825813D01*
G01X1157502Y-825813D01*
G01X1168569Y-824060D01*
G01X1178553Y-818973D01*
G01X1186476Y-811050D01*
G01X1191563Y-801066D01*
G01X1193316Y-789999D01*
G01X1193316Y-664998D01*
G01X1191563Y-653931D01*
G01X1186476Y-643947D01*
G01X1178553Y-636024D01*
G01X1168569Y-630937D01*
G01X1157502Y-629184D01*
G01X1087502Y-629184D01*
G01X1076435Y-630937D01*
G01X1066451Y-636024D01*
G01X1058528Y-643947D01*
G01X1053441Y-653931D01*
G01X1051688Y-664998D01*
G01X1051688Y-681684D01*
G01X1044537Y-681684D01*
G01X1038821Y-674620D01*
G01X1031510Y-669222D01*
G01X1023077Y-665837D01*
G01X1014063Y-664684D01*
G01X957497Y-664684D01*
G01X949819Y-665517D01*
G01X942498Y-667976D01*
G01X935177Y-665517D01*
G01X927500Y-664684D01*
G01X870934Y-664684D01*
G01X860138Y-666350D01*
G01X850346Y-671193D01*
G01X842469Y-678763D01*
G01X830082Y-669741D01*
G01X815954Y-663804D01*
G01X800841Y-661269D01*
G01X785550Y-662270D01*
G01X770896Y-666754D01*
G01X757663Y-674482D01*
G01X746558Y-685041D01*
G01X738172Y-697868D01*
G01X732955Y-712277D01*
G01X731184Y-727498D01*
G01X300819Y-727498D01*
G01X300819Y-719983D01*
G01X299861Y-711756D01*
G01X297039Y-703969D01*
G01X292504Y-697038D01*
G01X294977Y-689699D01*
G01X295815Y-681999D01*
G01X295815Y-627998D01*
G01X294062Y-616931D01*
G01X288975Y-606948D01*
G01X281052Y-599024D01*
G01X271068Y-593937D01*
G01X260001Y-592184D01*
G01X203435Y-592184D01*
G01X192368Y-593937D01*
G01X182384Y-599024D01*
G01X174461Y-606948D01*
G01X169374Y-616931D01*
G01X167621Y-627998D01*
G01X167621Y-654300D01*
G01X138201Y-683719D01*
G01X137757Y-684170D01*
G01X137493Y-684169D01*
G01X120995Y-684169D01*
G01X120995Y-597525D01*
G01X126733Y-589737D01*
G01X130811Y-580965D01*
G01X133068Y-571558D01*
G01X141272Y-574734D01*
G01X150002Y-575815D01*
G01X190002Y-575815D01*
G01X198040Y-574901D01*
G01X205668Y-572207D01*
G01X212496Y-567869D01*
G01X219325Y-572207D01*
G01X226953Y-574901D01*
G01X234991Y-575815D01*
G01X274991Y-575815D01*
G01X283034Y-574900D01*
G01X290666Y-572202D01*
G01X297498Y-567859D01*
G01X304329Y-572202D01*
G01X311961Y-574900D01*
G01X320004Y-575815D01*
G01X360004Y-575815D01*
G01X368042Y-574901D01*
G01X375670Y-572207D01*
G01X382499Y-567869D01*
G01X389327Y-572207D01*
G01X396955Y-574901D01*
G01X404993Y-575815D01*
G01X444993Y-575815D01*
G01X453036Y-574900D01*
G01X460668Y-572202D01*
G01X467500Y-567859D01*
G01X474331Y-572202D01*
G01X481963Y-574900D01*
G01X490007Y-575815D01*
G01X530007Y-575815D01*
G01X538044Y-574901D01*
G01X545672Y-572207D01*
G01X552501Y-567869D01*
G01X559329Y-572207D01*
G01X566957Y-574901D01*
G01X574995Y-575815D01*
G01X614995Y-575815D01*
G01X626062Y-574062D01*
G01X636046Y-568975D01*
G01X643969Y-561052D01*
G01X649056Y-551068D01*
G01X650809Y-540001D01*
G01X650809Y-460001D01*
G01X650217Y-453519D01*
G01X648463Y-447251D01*
G01X648682Y-447122D01*
G01X657509Y-448297D01*
G01X737509Y-448297D01*
G01X748576Y-446544D01*
G01X758560Y-441457D01*
G01X766483Y-433533D01*
G01X771570Y-423550D01*
G01X773323Y-412483D01*
G01X773323Y-372483D01*
G01X772410Y-364445D01*
G01X769715Y-356817D01*
G01X765378Y-349988D01*
G01X769715Y-343160D01*
G01X772410Y-335532D01*
G01X773323Y-327494D01*
G01X773323Y-287494D01*
G01X772408Y-279451D01*
G01X769711Y-271819D01*
G01X765368Y-264987D01*
G01X769711Y-258156D01*
G01X772408Y-250524D01*
G01X773323Y-242480D01*
G01X773323Y-202480D01*
G01X772410Y-194442D01*
G01X769715Y-186815D01*
G01X765378Y-179986D01*
G01X769715Y-173158D01*
G01X772410Y-165530D01*
G01X773323Y-157492D01*
G01X773323Y-117492D01*
G01X772408Y-109449D01*
G01X769711Y-101817D01*
G01X765368Y-94985D01*
G01X769711Y-88154D01*
G01X772408Y-80521D01*
G01X773323Y-72478D01*
G01X773323Y-32478D01*
G01X772006Y-22856D01*
G01X768153Y-13941D01*
G01X1174918Y-13941D01*
G01X1180634Y-21006D01*
G01X1187944Y-26404D01*
G01X1196378Y-29789D01*
G01X1205392Y-30942D01*
G01X1261958Y-30942D01*
G01X1269636Y-30109D01*
G01X1276957Y-27650D01*
G01X1284277Y-30109D01*
G01X1291955Y-30942D01*
G01X1348521Y-30942D01*
G01X1359018Y-29369D01*
G01X1368593Y-24788D01*
G01X1376405Y-17603D01*
G01X1381646Y-27155D01*
G01X1389517Y-34689D01*
G01X1399289Y-39507D01*
G01X1410058Y-41165D01*
G01X1490058Y-41165D01*
G01X1501125Y-39412D01*
G01X1511109Y-34325D01*
G01X1519032Y-26401D01*
G01X1524119Y-16418D01*
G01X1525872Y-5351D01*
G01X1525872Y74649D01*
G01X1524119Y85716D01*
G01X1519032Y95700D01*
G01X1511109Y103623D01*
G01X1501125Y108710D01*
G01X1490058Y110463D01*
G01X1410058Y110463D01*
G01X1398270Y108468D01*
G01X1387796Y102704D01*
G01X1379803Y93813D01*
G01X1375181Y82787D01*
G01X1367538Y89221D01*
G01X1358414Y93293D01*
G01X1348521Y94687D01*
G01X1291955Y94687D01*
G01X1284277Y93854D01*
G01X1276957Y91395D01*
G01X1269636Y93854D01*
G01X1261958Y94687D01*
G01X1205392Y94687D01*
G01X1196378Y93534D01*
G01X1187944Y90149D01*
G01X1180634Y84751D01*
G01X1174918Y77687D01*
G01X767327Y77687D01*
G01X771792Y87162D01*
G01X773323Y97524D01*
G01X773323Y137524D01*
G01X772410Y145562D01*
G01X769715Y153190D01*
G01X765378Y160018D01*
G01X769715Y166847D01*
G01X772410Y174475D01*
G01X773323Y182512D01*
G01X773323Y222512D01*
G01X772410Y230550D01*
G01X769715Y238178D01*
G01X765378Y245007D01*
G01X769715Y251835D01*
G01X772410Y259463D01*
G01X773323Y267501D01*
G01X773323Y307501D01*
G01X772408Y315544D01*
G01X769711Y323176D01*
G01X765368Y330008D01*
G01X769711Y336839D01*
G01X772408Y344471D01*
G01X773323Y352515D01*
G01X773323Y392515D01*
G01X771448Y403950D01*
G01X766020Y414189D01*
G01X811755Y414189D01*
G01X820007Y410969D01*
G01X828798Y409873D01*
G01X853984Y409873D01*
G01X853984Y395067D01*
G01X855467Y383805D01*
G01X859814Y373310D01*
G01X866729Y364298D01*
G01X918331Y312697D01*
G01X918331Y303799D01*
G01X918858Y297679D01*
G01X920423Y291738D01*
G01X912492Y286108D01*
G01X906369Y278551D01*
G01X902505Y269626D01*
G01X901184Y259991D01*
G01X901184Y136991D01*
G01X902937Y125924D01*
G01X908024Y115940D01*
G01X915947Y108017D01*
G01X925931Y102930D01*
G01X936998Y101177D01*
G01X1072998Y101177D01*
G01X1084065Y102930D01*
G01X1094049Y108017D01*
G01X1101972Y115940D01*
G01X1107059Y125924D01*
G01X1108812Y136991D01*
G01X1108812Y259991D01*
G01X1107059Y271058D01*
G01X1101972Y281042D01*
G01X1094049Y288965D01*
G01X1084065Y294052D01*
G01X1072998Y295805D01*
G01X1025898Y295805D01*
G01X1026801Y303799D01*
G01X1026801Y336199D01*
G01X1025048Y347267D01*
G01X1019961Y357250D01*
G01X1012038Y365174D01*
G01X1002054Y370261D01*
G01X990987Y372013D01*
G01X982090Y372013D01*
G01X943866Y410237D01*
G01X958018Y408627D01*
G01X972187Y410075D01*
G01X985720Y414516D01*
G01X997993Y421744D01*
G01X1008439Y431426D01*
G01X1067033Y431426D01*
G01X1126797Y371662D01*
G01X1135809Y364747D01*
G01X1146303Y360400D01*
G01X1157566Y358917D01*
G01X1713242Y358917D01*
G01X1720701Y353103D01*
G01X1729422Y349445D01*
G01X1738796Y348196D01*
G01X1771197Y348196D01*
G01X1782264Y349949D01*
G01X1792248Y355036D01*
G01X1800171Y362959D01*
G01X1805258Y372943D01*
G01X1807011Y384010D01*
G01X1807011Y420853D01*
G01X1806611Y426185D01*
G01X1883005Y426185D01*
G01X1894072Y427938D01*
G01X1904056Y433025D01*
G01X1911979Y440948D01*
G01X1917066Y450932D01*
G01X1918819Y461999D01*
G01X1918819Y597999D01*
G01X1917066Y609066D01*
G01X1911979Y619049D01*
G01X1904056Y626973D01*
G01X1894072Y632060D01*
G01X1883005Y633813D01*
G01X1760005Y633813D01*
G01X1748938Y632060D01*
G01X1738954Y626973D01*
G01X1731031Y619049D01*
G01X1725944Y609066D01*
G01X1724191Y597999D01*
G01X1724191Y485732D01*
G01X1717295Y476727D01*
G01X1712961Y466245D01*
G01X1711482Y454999D01*
G01X1711482Y445945D01*
G01X1175590Y445945D01*
G01X1115826Y505709D01*
G01X1106814Y512624D01*
G01X1096320Y516971D01*
G01X1085057Y518454D01*
G01X1008439Y518454D01*
G01X997520Y528485D01*
G01X984644Y535839D01*
G01X970457Y540148D01*
G01X955666Y541197D01*
G01X941012Y538934D01*
G01X941012Y562500D01*
G01X939809Y572660D01*
G01X954915Y578813D01*
G01X968062Y588466D01*
G01X978455Y601036D01*
G01X985466Y615763D01*
G01X1008898Y615763D01*
G01X1014507Y600564D01*
G01X1023635Y587178D01*
G01X1035736Y576405D01*
G01X1050088Y568888D01*
G01X1065835Y565075D01*
G01X1082036Y565195D01*
G01X1097724Y569239D01*
G01X1111964Y576967D01*
G01X1123905Y587918D01*
G01X1132834Y601436D01*
G01X1169607Y601436D01*
G01X1180674Y603189D01*
G01X1190658Y608276D01*
G01X1198581Y616199D01*
G01X1203668Y626183D01*
G01X1205421Y637250D01*
G01X1205421Y659651D01*
G01X1204323Y668453D01*
G01X1205421Y677255D01*
G01X1205421Y699656D01*
G01X1203698Y710632D01*
G01X1198693Y720552D01*
G01X1190889Y728461D01*
G01X1198693Y736369D01*
G01X1203698Y746289D01*
G01X1205421Y757265D01*
G01X1205421Y779666D01*
G01X1204323Y788468D01*
G01X1205421Y797270D01*
G01X1205421Y819671D01*
G01X1204326Y828460D01*
G01X1205421Y837250D01*
G01X1205421Y859650D01*
G01X1203881Y870039D01*
G01X1199394Y879535D01*
G01X1192345Y887321D01*
G01X1192345Y902774D01*
G01X1197417Y912747D01*
G01X1199165Y923798D01*
G01X1199165Y944841D01*
G01X1480787Y944841D01*
G01X1472844Y940603D01*
G01X1465884Y934894D01*
G01X1426455Y895464D01*
G01X1404603Y895464D01*
G01X1393536Y893711D01*
G01X1383552Y888624D01*
G01X1375629Y880701D01*
G01X1370542Y870717D01*
G01X1368789Y859650D01*
G01X1368789Y837250D01*
G01X1369884Y828460D01*
G01X1368789Y819671D01*
G01X1368789Y797270D01*
G01X1369888Y788468D01*
G01X1368789Y779666D01*
G01X1368789Y757265D01*
G01X1370512Y746289D01*
G01X1375517Y736369D01*
G01X1383321Y728461D01*
G01X1375517Y720552D01*
G01X1370512Y710632D01*
G01X1368789Y699656D01*
G01X1368789Y677255D01*
G01X1369888Y668453D01*
G01X1368789Y659651D01*
G01X1368789Y637250D01*
G01X1369884Y628461D01*
G01X1368789Y619671D01*
G01X1368789Y597271D01*
G01X1370542Y586204D01*
G01X1375629Y576220D01*
G01X1383552Y568297D01*
G01X1393536Y563210D01*
G01X1404603Y561457D01*
G01X1441248Y561457D01*
G01X1447001Y555704D01*
G01X1456489Y548423D01*
G01X1467539Y543846D01*
G01X1479397Y542285D01*
G01X1648029Y542285D01*
G01X1659887Y543846D01*
G01X1670936Y548423D01*
G01X1680425Y555704D01*
G01X1686197Y555832D01*
G01X1697264Y557584D01*
G01X1707248Y562671D01*
G01X1715171Y570595D01*
G01X1720258Y580578D01*
G01X1722011Y591646D01*
G01X1722011Y628488D01*
G01X1720859Y637499D01*
G01X1722011Y646510D01*
G01X1722011Y683352D01*
G01X1720426Y693889D01*
G01X1715811Y703493D01*
G01X1715811Y809184D01*
G01X1879999Y809184D01*
G01X1891856Y810745D01*
G01X1902906Y815322D01*
G01X1912394Y822603D01*
G01X2034633Y944841D01*
G01X2364186Y944841D01*
G01X2364186Y226140D01*
G01X2359258Y236514D01*
G01X2351299Y244795D01*
G01X2341128Y250131D01*
G01X2329791Y251973D01*
G01X2129791Y251973D01*
G01X2118724Y250220D01*
G01X2108740Y245133D01*
G01X2100817Y237210D01*
G01X2095730Y227226D01*
G01X2093977Y216159D01*
G01X2093977Y115843D01*
G01X1791449Y-186686D01*
G01X1482497Y-186685D01*
G01X1469346Y-188417D01*
G01X1457090Y-193493D01*
G01X1446566Y-201568D01*
G01X1218950Y-429184D01*
G01X1182498Y-429184D01*
G01X1171431Y-430937D01*
G01X1161447Y-436024D01*
G01X1153524Y-443947D01*
G01X1148437Y-453931D01*
G01X1146684Y-464998D01*
G01X1146684Y-589999D01*
G01X1148437Y-601066D01*
G01X1153524Y-611050D01*
G01X1161447Y-618973D01*
G01X1171431Y-624060D01*
G01X1182498Y-625813D01*
G01X1252498Y-625813D01*
G01X1263565Y-624060D01*
G01X1273549Y-618973D01*
G01X1281472Y-611050D01*
G01X1286559Y-601066D01*
G01X1288312Y-589999D01*
G01X1288312Y-503547D01*
G01X1503545Y-288313D01*
G01X1812496Y-288314D01*
G01X1825648Y-286582D01*
G01X1837903Y-281506D01*
G01X1848427Y-273431D01*
G01X2152203Y30345D01*
G01X2329791Y30345D01*
G01X2341128Y32187D01*
G01X2351299Y37523D01*
G01X2359258Y45804D01*
G01X2364186Y56178D01*
G01X2364186Y-66359D01*
G01X2359258Y-55984D01*
G01X2351299Y-47704D01*
G01X2341128Y-42368D01*
G01X2329791Y-40526D01*
G01X2129791Y-40526D01*
G01X2118724Y-42279D01*
G01X2108740Y-47366D01*
G01X2100817Y-55289D01*
G01X2095730Y-65273D01*
G01X2093977Y-76340D01*
G01X2093977Y-226340D01*
G01X2095525Y-236755D01*
G01X2100034Y-246269D01*
G01X2100034Y-356271D01*
G01X2095852Y-356026D01*
G01X2025852Y-356026D01*
G01X2014961Y-357722D01*
G01X2005102Y-362649D01*
G01X1997208Y-370341D01*
G01X1992027Y-380069D01*
G01X1990050Y-390912D01*
G01X1982504Y-384823D01*
G01X1973601Y-380981D01*
G01X1963994Y-379669D01*
G01X1909993Y-379669D01*
G01X1901124Y-380784D01*
G01X1892807Y-384062D01*
G01X1893654Y-368017D01*
G01X1890618Y-352239D01*
G01X1883876Y-337654D01*
G01X1873824Y-325119D01*
G01X1861053Y-315370D01*
G01X1846311Y-308978D01*
G01X1830465Y-306319D01*
G01X1814445Y-307550D01*
G01X1799191Y-312598D01*
G01X1785598Y-321166D01*
G01X1774466Y-332751D01*
G01X1766446Y-346675D01*
G01X1762011Y-362118D01*
G01X1761420Y-378175D01*
G01X1764708Y-393902D01*
G01X1771683Y-408377D01*
G01X1771683Y-455067D01*
G01X1772654Y-465437D01*
G01X1775536Y-475446D01*
G01X1777752Y-486034D01*
G01X1783028Y-495478D01*
G01X1790884Y-502916D01*
G01X1800602Y-507668D01*
G01X1811296Y-509302D01*
G01X1814316Y-509302D01*
G01X1822340Y-510642D01*
G01X1830474Y-510801D01*
G01X1878108Y-510801D01*
G01X1883723Y-518834D01*
G01X1891304Y-525043D01*
G01X1900285Y-528965D01*
G01X1909993Y-530306D01*
G01X1963994Y-530306D01*
G01X1973626Y-528986D01*
G01X1982548Y-525125D01*
G01X1990103Y-519006D01*
G01X1992366Y-529542D01*
G01X1997661Y-538929D01*
G01X2005508Y-546316D01*
G01X2015198Y-551033D01*
G01X2025852Y-552655D01*
G01X2095852Y-552655D01*
G01X2100034Y-552410D01*
G01X2100034Y-612631D01*
G01X2092394Y-620026D01*
G01X2087263Y-629339D01*
G01X2085091Y-639747D01*
G01X2082544Y-647185D01*
G01X2081682Y-654999D01*
G01X2081682Y-669185D01*
G01X1925105Y-669185D01*
G01X1912584Y-660903D01*
G01X1898522Y-655650D01*
G01X1883638Y-653694D01*
G01X1868696Y-655136D01*
G01X1854460Y-659902D01*
G01X1841662Y-667748D01*
G01X1830956Y-678271D01*
G01X1822892Y-690932D01*
G01X1817881Y-705083D01*
G01X1816182Y-719999D01*
G01X1817881Y-734914D01*
G01X1822892Y-749065D01*
G01X1830956Y-761726D01*
G01X1841662Y-772249D01*
G01X1854460Y-780095D01*
G01X1868696Y-784861D01*
G01X1883638Y-786303D01*
G01X1898522Y-784347D01*
G01X1912584Y-779094D01*
G01X1925105Y-770813D01*
G01X2081682Y-770813D01*
G01X2083624Y-782352D01*
G01X2089182Y-792650D01*
G01X2089182Y-847927D01*
G01X2072171Y-864937D01*
G01X2066480Y-872354D01*
G01X2062902Y-880992D01*
G01X2061682Y-890261D01*
G01X2061682Y-962664D01*
G01X2052661Y-971684D01*
G01X1917331Y-971684D01*
G01X1855321Y-909674D01*
G01X1847903Y-903982D01*
G01X1839266Y-900404D01*
G01X1829996Y-899184D01*
G01X1522497Y-899184D01*
G01X1513228Y-900404D01*
G01X1504590Y-903982D01*
G01X1497173Y-909674D01*
G01X1472173Y-934674D01*
G01X1466481Y-942091D01*
G01X1462903Y-950729D01*
G01X1461683Y-959998D01*
G01X1461683Y-1017498D01*
G01X1462903Y-1026767D01*
G01X1466481Y-1035405D01*
G01X1472173Y-1042822D01*
G01X1494673Y-1065322D01*
G01X1502090Y-1071014D01*
G01X1510728Y-1074592D01*
G01X1519997Y-1075812D01*
G01X1797662Y-1075812D01*
G01X1842172Y-1120322D01*
G01X1849589Y-1126014D01*
G01X1858227Y-1129591D01*
G01X1867496Y-1130812D01*
G01X1947661Y-1130812D01*
G01X1976682Y-1159832D01*
G01X1976682Y-1422497D01*
G01X1977961Y-1431983D01*
G01X1981707Y-1440791D01*
G01X1983958Y-1449614D01*
G01X1988362Y-1457584D01*
G01X1994634Y-1464186D01*
G01X-2364186Y-1464186D01*
G01X-2364186Y-1202250D01*
G01X1244810Y-1202250D01*
G01X1246563Y-1213317D01*
G01X1251650Y-1223301D01*
G01X1259573Y-1231224D01*
G01X1269557Y-1236311D01*
G01X1280624Y-1238064D01*
G01X1287465Y-1238064D01*
G01X1287465Y-1250927D01*
G01X1280309Y-1258733D01*
G01X1275748Y-1268292D01*
G01X1274182Y-1278766D01*
G01X1274182Y-1332766D01*
G01X1275935Y-1343833D01*
G01X1281022Y-1353817D01*
G01X1288945Y-1361740D01*
G01X1298929Y-1366827D01*
G01X1309996Y-1368580D01*
G01X1366562Y-1368580D01*
G01X1377629Y-1366827D01*
G01X1387613Y-1361740D01*
G01X1395536Y-1353817D01*
G01X1400623Y-1343833D01*
G01X1402376Y-1332766D01*
G01X1402376Y-1278766D01*
G01X1400810Y-1268292D01*
G01X1396250Y-1258733D01*
G01X1389093Y-1250927D01*
G01X1389093Y-1238064D01*
G01X1389093Y-1238064D01*
G01X1398124Y-1238064D01*
G01X1409192Y-1236311D01*
G01X1419175Y-1231224D01*
G01X1427099Y-1223301D01*
G01X1432186Y-1213317D01*
G01X1433938Y-1202250D01*
G01X1433938Y-1153250D01*
G01X1433938Y-1153250D01*
G01X1476444Y-1153250D01*
G01X1476444Y-1202250D01*
G01X1478197Y-1213317D01*
G01X1483284Y-1223301D01*
G01X1491207Y-1231224D01*
G01X1501191Y-1236311D01*
G01X1512258Y-1238064D01*
G01X1571331Y-1238064D01*
G01X1572120Y-1253610D01*
G01X1576512Y-1268545D01*
G01X1584265Y-1282044D01*
G01X1594950Y-1293363D01*
G01X1607980Y-1301880D01*
G01X1622637Y-1307125D01*
G01X1638112Y-1308809D01*
G01X1653554Y-1306838D01*
G01X1668110Y-1301322D01*
G01X1668110Y-1301322D01*
G01X1680980Y-1292565D01*
G01X1691454Y-1281049D01*
G01X1698954Y-1267408D01*
G01X1703068Y-1252395D01*
G01X1703569Y-1236836D01*
G01X1700429Y-1221590D01*
G01X1693821Y-1207495D01*
G01X1684109Y-1195329D01*
G01X1671829Y-1185763D01*
G01X1668266Y-1181729D01*
G01X1663772Y-1177234D01*
G01X1663772Y-1153250D01*
G01X1662019Y-1142183D01*
G01X1656932Y-1132199D01*
G01X1649009Y-1124276D01*
G01X1639025Y-1119189D01*
G01X1627958Y-1117436D01*
G01X1512258Y-1117436D01*
G01X1501191Y-1119189D01*
G01X1491207Y-1124276D01*
G01X1483284Y-1132199D01*
G01X1478197Y-1142183D01*
G01X1476444Y-1153250D01*
G01X1433938Y-1153250D01*
G01X1432186Y-1142183D01*
G01X1427099Y-1132199D01*
G01X1419175Y-1124276D01*
G01X1409192Y-1119189D01*
G01X1398124Y-1117436D01*
G01X1280624Y-1117436D01*
G01X1269557Y-1119189D01*
G01X1259573Y-1124276D01*
G01X1251650Y-1132199D01*
G01X1246563Y-1142183D01*
G01X1244810Y-1153250D01*
G01X1244810Y-1202250D01*
G01X-2364186Y-1202250D01*
G01X-2364186Y-338790D01*
G01X-2130797Y-338790D01*
G01X-2130797Y-491190D01*
G01X-2129044Y-502257D01*
G01X-2123957Y-512241D01*
G01X-2116034Y-520164D01*
G01X-2106050Y-525251D01*
G01X-2094983Y-527004D01*
G01X-2014983Y-527004D01*
G01X-2007310Y-526173D01*
G01X-1999992Y-523716D01*
G01X-1992675Y-526173D01*
G01X-1985001Y-527004D01*
G01X-1905001Y-527004D01*
G01X-1893934Y-525251D01*
G01X-1883950Y-520164D01*
G01X-1876027Y-512241D01*
G01X-1870940Y-502257D01*
G01X-1869187Y-491190D01*
G01X-1869187Y-355729D01*
G01X-1719473Y-206014D01*
G01X-1615628Y-206014D01*
G01X-1625092Y-210311D01*
G01X-1633266Y-216730D01*
G01X-1719512Y-302976D01*
G01X-1764986Y-302976D01*
G01X-1776053Y-304729D01*
G01X-1786037Y-309816D01*
G01X-1793960Y-317739D01*
G01X-1799047Y-327723D01*
G01X-1800800Y-338790D01*
G01X-1800800Y-491190D01*
G01X-1799047Y-502257D01*
G01X-1793960Y-512241D01*
G01X-1786037Y-520164D01*
G01X-1776053Y-525251D01*
G01X-1764986Y-527004D01*
G01X-1684986Y-527004D01*
G01X-1677313Y-526173D01*
G01X-1669995Y-523716D01*
G01X-1662678Y-526173D01*
G01X-1655004Y-527004D01*
G01X-1617782Y-527004D01*
G01X-1567392Y-577394D01*
G01X-1557904Y-584675D01*
G01X-1546854Y-589252D01*
G01X-1534997Y-590813D01*
G01X-1087498Y-590813D01*
G01X-1075640Y-589252D01*
G01X-1064591Y-584675D01*
G01X-1055102Y-577394D01*
G01X-939747Y-462039D01*
G01X-893314Y-462039D01*
G01X-886356Y-466631D01*
G01X-878524Y-469489D01*
G01X-870243Y-470460D01*
G01X-837843Y-470460D01*
G01X-826776Y-468707D01*
G01X-816792Y-463620D01*
G01X-808869Y-455697D01*
G01X-803782Y-445713D01*
G01X-802029Y-434646D01*
G01X-802029Y-397803D01*
G01X-803412Y-387949D01*
G01X-807452Y-378855D01*
G01X-807452Y-363347D01*
G01X-799269Y-355397D01*
G01X-794001Y-345276D01*
G01X-792184Y-334013D01*
G01X-792184Y-255003D01*
G01X-793937Y-243936D01*
G01X-799024Y-233952D01*
G01X-806947Y-226029D01*
G01X-816931Y-220942D01*
G01X-827998Y-219189D01*
G01X-881998Y-219189D01*
G01X-889507Y-219985D01*
G01X-914788Y-219985D01*
G01X-926985Y-210987D01*
G01X-940906Y-204993D01*
G01X-955825Y-202317D01*
G01X-970962Y-203098D01*
G01X-985526Y-207296D01*
G01X-998756Y-214691D01*
G01X-1009962Y-224897D01*
G01X-1018557Y-237381D01*
G01X-1024094Y-251490D01*
G01X-1026282Y-266488D01*
G01X-1025007Y-281591D01*
G01X-1020336Y-296011D01*
G01X-1012513Y-308993D01*
G01X-1001947Y-319859D01*
G01X-989189Y-328043D01*
G01X-974907Y-333116D01*
G01X-959845Y-334813D01*
G01X-944791Y-333046D01*
G01X-930532Y-327907D01*
G01X-917812Y-319665D01*
G01X-917812Y-334013D01*
G01X-916530Y-343510D01*
G01X-912775Y-352328D01*
G01X-906816Y-359834D01*
G01X-899080Y-365491D01*
G01X-899080Y-370411D01*
G01X-958724Y-370411D01*
G01X-970581Y-371972D01*
G01X-981631Y-376549D01*
G01X-991119Y-383829D01*
G01X-1106474Y-499185D01*
G01X-1210097Y-499185D01*
G01X-1210097Y-499185D01*
G01X-1209194Y-491190D01*
G01X-1209194Y-338790D01*
G01X-1210947Y-327723D01*
G01X-1216034Y-317739D01*
G01X-1223957Y-309816D01*
G01X-1233941Y-304729D01*
G01X-1245008Y-302976D01*
G01X-1325008Y-302976D01*
G01X-1335511Y-304551D01*
G01X-1251659Y-220699D01*
G01X-1237004Y-219936D01*
G01X-1222876Y-215969D01*
G01X-1209966Y-208992D01*
G01X-1198907Y-199346D01*
G01X-1190240Y-187504D01*
G01X-1184389Y-174046D01*
G01X-1181642Y-159631D01*
G01X-1182132Y-144965D01*
G01X-1185836Y-130765D01*
G01X-1192572Y-117728D01*
G01X-1202011Y-106491D01*
G01X-1213689Y-97606D01*
G01X-1227036Y-91506D01*
G01X-1241398Y-88491D01*
G01X-1256071Y-88709D01*
G01X-1270337Y-92148D01*
G01X-1283497Y-98641D01*
G01X-1294907Y-107869D01*
G01X-1309154Y-100430D01*
G01X-1324771Y-96638D01*
G01X-1340843Y-96713D01*
G01X-1356424Y-100653D01*
G01X-1370600Y-108226D01*
G01X-1382538Y-118986D01*
G01X-1737497Y-118986D01*
G01X-1748759Y-120469D01*
G01X-1759254Y-124816D01*
G01X-1768266Y-131731D01*
G01X-1939511Y-302976D01*
G01X-1985001Y-302976D01*
G01X-1992675Y-303808D01*
G01X-1999992Y-306265D01*
G01X-2007310Y-303808D01*
G01X-2014983Y-302976D01*
G01X-2094983Y-302976D01*
G01X-2106050Y-304729D01*
G01X-2116034Y-309816D01*
G01X-2123957Y-317739D01*
G01X-2129044Y-327723D01*
G01X-2130797Y-338790D01*
G01X-2364186Y-338790D01*
G01X-2364186Y944841D01*
G37*
G36*
G01X-2116682Y888521D02*
G01X-2060361Y944841D01*
G01X-2034845Y944841D01*
G01X-2038823Y934524D01*
G01X-2041031Y923689D01*
G01X-2041408Y912637D01*
G01X-2056690Y911932D01*
G01X-2071404Y907743D01*
G01X-2084766Y900294D01*
G01X-2096066Y889982D01*
G01X-2104701Y877354D01*
G01X-2110214Y863084D01*
G01X-2112310Y847930D01*
G01X-2110877Y832699D01*
G01X-2105993Y818202D01*
G01X-2097916Y805210D01*
G01X-2087077Y794414D01*
G01X-2074052Y786389D01*
G01X-2059536Y781563D01*
G01X-2044299Y780191D01*
G01X-2044299Y766298D01*
G01X-2043074Y757012D01*
G01X-2039483Y748360D01*
G01X-2033771Y740936D01*
G01X-2026330Y735247D01*
G01X-2028690Y733941D01*
G01X-2070534Y733941D01*
G01X-2077398Y738346D01*
G01X-2085081Y741084D01*
G01X-2093184Y742013D01*
G01X-2116682Y742013D01*
G01X-2116682Y888521D01*
G37*
G36*
G01X490204Y-101014D02*
G01X481309Y-112280D01*
G01X475046Y-125196D01*
G01X471710Y-139157D01*
G01X471457Y-153509D01*
G01X474297Y-167580D01*
G01X480099Y-180709D01*
G01X488591Y-192283D01*
G01X499373Y-201758D01*
G01X511942Y-208690D01*
G01X525709Y-212756D01*
G01X540028Y-213764D01*
G01X554228Y-211667D01*
G01X553880Y-224795D01*
G01X556126Y-237734D01*
G01X560877Y-249976D01*
G01X567948Y-261042D01*
G01X559081Y-270274D01*
G01X552152Y-281038D01*
G01X547421Y-292932D01*
G01X545063Y-305513D01*
G01X545166Y-318314D01*
G01X547727Y-330856D01*
G01X552649Y-342672D01*
G01X559751Y-353322D01*
G01X552684Y-367317D01*
G01X549101Y-382579D01*
G01X549201Y-398257D01*
G01X552978Y-413472D01*
G01X560221Y-427376D01*
G01X552501Y-432132D01*
G01X545672Y-427795D01*
G01X538044Y-425101D01*
G01X530007Y-424187D01*
G01X490007Y-424187D01*
G01X481963Y-425102D01*
G01X474331Y-427800D01*
G01X467500Y-432143D01*
G01X460668Y-427800D01*
G01X453036Y-425102D01*
G01X444993Y-424187D01*
G01X404993Y-424187D01*
G01X396955Y-425101D01*
G01X389327Y-427795D01*
G01X382499Y-432132D01*
G01X375670Y-427795D01*
G01X368042Y-425101D01*
G01X360004Y-424187D01*
G01X320004Y-424187D01*
G01X311961Y-425102D01*
G01X304329Y-427800D01*
G01X297498Y-432143D01*
G01X290666Y-427800D01*
G01X283034Y-425102D01*
G01X274991Y-424187D01*
G01X234991Y-424187D01*
G01X226953Y-425101D01*
G01X219325Y-427795D01*
G01X212496Y-432132D01*
G01X205668Y-427795D01*
G01X198040Y-425101D01*
G01X190002Y-424187D01*
G01X150002Y-424187D01*
G01X141959Y-425102D01*
G01X134327Y-427800D01*
G01X127495Y-432143D01*
G01X120664Y-427800D01*
G01X113032Y-425102D01*
G01X104988Y-424187D01*
G01X64988Y-424187D01*
G01X56951Y-425101D01*
G01X49323Y-427795D01*
G01X42494Y-432132D01*
G01X35666Y-427795D01*
G01X28038Y-425101D01*
G01X20000Y-424187D01*
G01X-20000Y-424187D01*
G01X-28038Y-425101D01*
G01X-35666Y-427795D01*
G01X-42494Y-432132D01*
G01X-49323Y-427795D01*
G01X-56951Y-425101D01*
G01X-64988Y-424187D01*
G01X-104988Y-424187D01*
G01X-113032Y-425102D01*
G01X-120664Y-427800D01*
G01X-127495Y-432143D01*
G01X-134327Y-427800D01*
G01X-141959Y-425102D01*
G01X-150002Y-424187D01*
G01X-189325Y-424187D01*
G01X-189052Y-408032D01*
G01X-192695Y-392290D01*
G01X-200036Y-377897D01*
G01X-210640Y-365706D01*
G01X-223877Y-356442D01*
G01X-238962Y-350653D01*
G01X-254999Y-348685D01*
G01X-271037Y-350653D01*
G01X-286121Y-356442D01*
G01X-299359Y-365706D01*
G01X-309963Y-377897D01*
G01X-317304Y-392290D01*
G01X-320947Y-408032D01*
G01X-320674Y-424187D01*
G01X-360004Y-424187D01*
G01X-368042Y-425101D01*
G01X-375670Y-427795D01*
G01X-382499Y-432132D01*
G01X-389327Y-427795D01*
G01X-396955Y-425101D01*
G01X-404993Y-424187D01*
G01X-444993Y-424187D01*
G01X-453036Y-425102D01*
G01X-460668Y-427800D01*
G01X-467500Y-432143D01*
G01X-474331Y-427800D01*
G01X-481963Y-425102D01*
G01X-490007Y-424187D01*
G01X-530007Y-424187D01*
G01X-530261Y-424188D01*
G01X-528725Y-409451D01*
G01X-530500Y-394741D01*
G01X-535498Y-380793D01*
G01X-543468Y-368303D01*
G01X-554014Y-357895D01*
G01X-566607Y-350089D01*
G01X-580620Y-345275D01*
G01X-595352Y-343694D01*
G01X-610067Y-345423D01*
G01X-624031Y-350378D01*
G01X-629150Y-349366D01*
G01X-623610Y-339048D01*
G01X-621695Y-327494D01*
G01X-621695Y-320730D01*
G01X-594474Y-293514D01*
G01X267500Y-293514D01*
G01X278762Y-292031D01*
G01X289257Y-287684D01*
G01X298269Y-280769D01*
G01X478023Y-101014D01*
G01X490204Y-101014D01*
G37*
G36*
G01X906810Y752984D02*
G01X917211Y754528D01*
G01X926716Y759026D01*
G01X934504Y766090D01*
G01X948684Y763653D01*
G01X963056Y764333D01*
G01X976943Y768096D01*
G01X989692Y774766D01*
G01X1000702Y784028D01*
G01X1005696Y784028D01*
G01X1005695Y783698D01*
G01X1005695Y751298D01*
G01X1006798Y742478D01*
G01X1010040Y734200D01*
G01X1000711Y732712D01*
G01X991887Y729342D01*
G01X983941Y724234D01*
G01X977899Y724234D01*
G01X969612Y723262D01*
G01X961775Y720399D01*
G01X954813Y715801D01*
G01X943597Y714143D01*
G01X933130Y709781D01*
G01X924056Y702983D01*
G01X908819Y701565D01*
G01X894313Y696693D01*
G01X894313Y723699D01*
G01X892505Y734935D01*
G01X887262Y745037D01*
G01X879115Y752984D01*
G01X906810Y752984D01*
G37*
G36*
G01X896802Y918698D02*
G01X895478Y928346D01*
G01X891604Y937281D01*
G01X885466Y944841D01*
G01X1090694Y944841D01*
G01X1090694Y923798D01*
G01X1091858Y914744D01*
G01X1095273Y906278D01*
G01X1100717Y898950D01*
G01X1100717Y890382D01*
G01X1092506Y883630D01*
G01X1086639Y874766D01*
G01X1077654Y875656D01*
G01X1000702Y875656D01*
G01X988611Y885628D01*
G01X974518Y892485D01*
G01X959209Y895842D01*
G01X943540Y895512D01*
G01X928385Y891515D01*
G01X914592Y884073D01*
G01X902931Y873601D01*
G01X892153Y868653D01*
G01X895620Y877174D01*
G01X896802Y886298D01*
G01X896802Y918698D01*
G37*
G36*
G01X1599300Y743798D02*
G01X1599300Y776199D01*
G01X1597777Y786532D01*
G01X1593338Y795986D01*
G01X1586359Y803757D01*
G01X1577436Y809184D01*
G01X1587077Y809184D01*
G01X1596681Y804569D01*
G01X1607218Y802984D01*
G01X1624183Y802984D01*
G01X1624183Y703493D01*
G01X1619568Y693889D01*
G01X1617983Y683352D01*
G01X1617983Y651852D01*
G01X1614130Y667405D01*
G01X1606659Y681580D01*
G01X1596006Y693549D01*
G01X1582794Y702613D01*
G01X1567793Y708244D01*
G01X1577781Y710961D01*
G01X1586576Y716421D01*
G01X1593441Y724168D01*
G01X1597804Y733555D01*
G01X1599300Y743798D01*
G37*
G36*
G01X1673344Y933798D02*
G01X1673344Y944841D01*
G01X1905051Y944841D01*
G01X1861022Y900812D01*
G01X1705982Y900812D01*
G01X1696378Y905427D01*
G01X1685841Y907012D01*
G01X1661304Y907012D01*
G01X1667812Y914675D01*
G01X1671933Y923844D01*
G01X1673344Y933798D01*
G37*
G36*
G01X2329791Y-262154D02*
G01X2341128Y-260313D01*
G01X2351299Y-254977D01*
G01X2359258Y-246696D01*
G01X2364186Y-236322D01*
G01X2364186Y-1464186D01*
G01X2239815Y-1464186D01*
G01X2246972Y-1456342D01*
G01X2251522Y-1446748D01*
G01X2253067Y-1436243D01*
G01X2255117Y-1429505D01*
G01X2255810Y-1422497D01*
G01X2255810Y-992498D01*
G01X2254525Y-982992D01*
G01X2250763Y-974168D01*
G01X2244794Y-966659D01*
G01X2228310Y-950838D01*
G01X2228310Y-658651D01*
G01X2226662Y-647912D01*
G01X2226662Y-641776D01*
G01X2224879Y-630616D01*
G01X2219707Y-620568D01*
G01X2211662Y-612631D01*
G01X2211662Y-262154D01*
G01X2329791Y-262154D01*
G37*
G54D10*
G01X1627958Y-1022440D02*
G01X1516808Y-1022440D01*
G01X1507657Y-1013290D01*
G01X1507657Y-964206D01*
G01X1526705Y-945158D01*
G01X1683440Y-945158D01*
G03X1698555Y-945158I7558J65882D01*
G01X1720241Y-945158D01*
G03X1742986Y-953308I22745J27664D01*
G01X1796987Y-953308D01*
G03X1819732Y-945158I0J35814D01*
G01X1825788Y-945158D01*
G01X1895312Y-1014682D01*
G03X1902496Y-1017658I7184J7184D01*
G01X2067496Y-1017658D01*
G03X2074680Y-1014682I0J10160D01*
G01X2097217Y-992145D01*
G03X2118306Y-959498I-14726J32647D01*
G01X2118306Y-905498D01*
G03X2113878Y-888248I-35814J0D01*
G01X2130838Y-871287D01*
G03X2151799Y-838698I-14853J32589D01*
G01X2151799Y-806298D01*
G03X2134882Y-775875I-35814J0D01*
G03X2132180Y-771035I-9886J-2344D01*
G01X2127656Y-766510D01*
G01X2127656Y-659207D01*
G01X2134204Y-652659D01*
G01X2173627Y-652659D01*
G01X2182336Y-662501D01*
G01X2182335Y-966106D01*
G03X2185460Y-973436I10160J0D01*
G01X2209836Y-996829D01*
G01X2209836Y-1418289D01*
G01X2200787Y-1427337D01*
G01X2031704Y-1427337D01*
G01X2022656Y-1418289D01*
G01X2022656Y-1144998D01*
G03X2019680Y-1137813I-10160J0D01*
G01X1969680Y-1087814D01*
G03X1962496Y-1084838I-7184J-7184D01*
G01X1871705Y-1084838D01*
G01X1819680Y-1032814D01*
G03X1812496Y-1029838I-7184J-7184D01*
G01X1710072Y-1029838D01*
G03X1639002Y-1024186I-39968J-52916D01*
G03X1627958Y-1022440I-11044J-34069D01*
G01X560498Y-1081116D02*
G03X557241Y-1081264I0J-35814D01*
G01X539687Y-1063644D01*
G01X539687Y-969267D01*
G01X558291Y-954046D01*
G01X1379507Y-954046D01*
G01X1392293Y-966755D01*
G01X1391789Y-1015482D01*
G01X1376887Y-1027338D01*
G01X1352545Y-1027338D01*
G03X1330028Y-1027338I-11258J-65351D01*
G01X1187576Y-1027338D01*
G03X1169508Y-1022446I-18068J-30922D01*
G01X1115508Y-1022446D01*
G03X1097439Y-1027338I0J-35814D01*
G01X779998Y-1027338D01*
G03X772814Y-1030314I0J-10160D01*
G01X722265Y-1080863D01*
G03X708699Y-1078194I-13566J-33145D01*
G01X676299Y-1078194D01*
G03X652396Y-1087338I0J-35814D01*
G01X634672Y-1087338D01*
G03X614499Y-1081116I-20173J-29592D01*
G01X560498Y-1081116D01*
G01X-2364186Y944841D02*
G01X-2189943Y944841D01*
G01X-2194891Y939893D01*
G03X-2208310Y907498I32395J-32395D01*
G01X-2208310Y698343D01*
G03X-2207621Y690431I45814J0D01*
G01X-2207621Y673799D01*
G03X-2171807Y637985I35814J0D01*
G01X-2144112Y637985D01*
G03X-2159310Y608699I20616J-29285D01*
G01X-2159310Y576299D01*
G03X-2123496Y540485I35814J0D01*
G01X-2093184Y540485D01*
G03X-2060086Y562618I0J35814D01*
G01X-2051019Y571685D01*
G01X-2016293Y571685D01*
G03X-1983898Y585104I0J45814D01*
G01X-1980156Y588846D01*
G01X-1977776Y588846D01*
G03X-1959263Y594002I0J35814D01*
G01X-1952679Y594002D01*
G03X-1920283Y607420I0J45814D01*
G01X-1915737Y611967D01*
G01X-1876475Y611967D01*
G03X-1840661Y647781I0J35814D01*
G01X-1840661Y670182D01*
G03X-1841756Y678971I-35814J0D01*
G03X-1840661Y687761I-34719J8790D01*
G01X-1840661Y710161D01*
G03X-1841759Y718964I-35814J0D01*
G03X-1840661Y727766I-34715J8802D01*
G01X-1840661Y750166D01*
G03X-1855193Y778971I-35814J0D01*
G03X-1840661Y807776I-21282J28805D01*
G01X-1840661Y830176D01*
G03X-1841759Y838979I-35814J0D01*
G03X-1840661Y847781I-34715J8802D01*
G01X-1840661Y870181D01*
G03X-1841756Y878971I-35814J0D01*
G03X-1840661Y887760I-34719J8790D01*
G01X-1840661Y910161D01*
G03X-1858211Y940968I-35814J0D01*
G01X-1858211Y944841D01*
G01X-1553887Y944841D01*
G03X-1601003Y905995I13890J-64843D01*
G01X-1641479Y905995D01*
G03X-1677293Y870181I0J-35814D01*
G01X-1677293Y847781D01*
G03X-1676194Y838979I35814J0D01*
G03X-1677293Y830176I34715J-8802D01*
G01X-1677293Y807776D01*
G03X-1662761Y778971I35814J0D01*
G03X-1677293Y750166I21282J-28805D01*
G01X-1677293Y727766D01*
G03X-1676194Y718964I35814J0D01*
G03X-1677293Y710161I34715J-8802D01*
G01X-1677293Y687761D01*
G03X-1676197Y678971I35814J0D01*
G03X-1677293Y670182I34719J-8790D01*
G01X-1677293Y647781D01*
G03X-1641479Y611967I35814J0D01*
G01X-1611756Y611967D01*
G01X-1569892Y570104D01*
G03X-1544197Y557178I32395J32395D01*
G03X-1523350Y550485I20847J29121D01*
G01X-1486508Y550485D01*
G03X-1450694Y586299I0J35814D01*
G01X-1450694Y618699D01*
G03X-1477880Y653458I-35814J0D01*
G03X-1471665Y690485I-59617J29041D01*
G01X-1441508Y690485D01*
G03X-1405694Y726299I0J35814D01*
G01X-1405694Y758699D01*
G03X-1429373Y792394I-35814J0D01*
G03X-1424706Y795725I-18404J30723D01*
G01X-1405588Y795725D01*
G03X-1285578Y793232I60591J26951D01*
G03X-1360254Y887211I-59419J29444D01*
G03X-1363861Y887353I-3606J-45672D01*
G01X-1424706Y887353D01*
G03X-1447777Y895774I-23071J-27393D01*
G01X-1475587Y895774D01*
G03X-1526107Y944841I-64410J-15776D01*
G01X799667Y944841D01*
G03X788331Y918698I24478J-26143D01*
G01X788331Y886298D01*
G03X794910Y865611I35814J0D01*
G03X744801Y852571I-9679J-65604D01*
G03X737509Y853321I-7291J-35064D01*
G01X657509Y853321D01*
G03X621695Y817507I0J-35814D01*
G01X621695Y777507D01*
G03X629641Y755013I35814J0D01*
G03X621695Y732519I27868J-22494D01*
G01X621695Y692519D01*
G03X657509Y656705I35814J0D01*
G01X737509Y656705D01*
G03X755727Y661685I0J35814D01*
G01X782256Y661685D01*
G03X779596Y592674I55242J-36686D01*
G03X839737Y558722I57902J32325D01*
G01X853984Y544476D01*
G01X853984Y511814D01*
G01X828798Y511814D01*
G03X808959Y505817I0J-35814D01*
G01X759440Y505817D01*
G03X737509Y513317I-21931J-28314D01*
G01X657509Y513317D01*
G03X621695Y477503I0J-35814D01*
G01X621695Y437503D01*
G03X629641Y415009I35814J0D01*
G03X621695Y392515I27868J-22494D01*
G01X621695Y352515D01*
G03X629651Y330008I35814J0D01*
G03X621695Y307501I27858J-22507D01*
G01X621695Y267501D01*
G03X629641Y245007I35814J0D01*
G03X621695Y222512I27868J-22494D01*
G01X621695Y182512D01*
G03X629641Y160018I35814J0D01*
G03X621695Y137524I27868J-22494D01*
G01X621695Y97524D01*
G03X629651Y75017I35814J0D01*
G03X621695Y52510I27858J-22507D01*
G01X621695Y12510D01*
G03X624056Y-277I35814J0D01*
G03X574492Y18751I-46562J-47218D01*
G03X553587Y47746I-62253J-22851D01*
G03X520669Y61677I-41348J-51845D01*
G03X439698Y117034I-65677J-9169D01*
G03X392185Y31225I15294J-64526D01*
G01X224895Y-136066D01*
G01X-607394Y-136066D01*
G01X-621695Y-121765D01*
G01X-621695Y-117492D01*
G03X-629651Y-94985I-35814J0D01*
G03X-621695Y-72478I-27858J22507D01*
G01X-621695Y-32478D01*
G03X-629641Y-9984I-35814J0D01*
G03X-621695Y12510I-27868J22494D01*
G01X-621695Y52510D01*
G03X-629651Y75017I-35814J0D01*
G03X-621695Y97524I-27858J22507D01*
G01X-621695Y137524D01*
G03X-628848Y158998I-35814J0D01*
G01X-602551Y158998D01*
G03X-486185Y202483I50052J43501D01*
G03X-602529Y246026I-66314J17D01*
G01X-628848Y246026D01*
G03X-621695Y267501I-28662J21474D01*
G01X-621695Y307501D01*
G03X-629651Y330008I-35814J0D01*
G03X-621695Y352515I-27858J22507D01*
G01X-621695Y392515D01*
G03X-629641Y415009I-35814J0D01*
G03X-621695Y437503I-27868J22494D01*
G01X-621695Y477503D01*
G03X-629651Y500010I-35814J0D01*
G03X-621695Y522517I-27858J22507D01*
G01X-621695Y562517D01*
G03X-629641Y585011I-35814J0D01*
G03X-621695Y607505I-27868J22494D01*
G01X-621695Y647505D01*
G03X-657509Y683319I-35814J0D01*
G01X-737509Y683319D01*
G03X-755420Y678519I0J-35814D01*
G01X-803819Y678519D01*
G03X-818798Y681802I-14979J-32531D01*
G01X-851198Y681802D01*
G03X-873508Y674004I0J-35814D01*
G01X-883336Y674004D01*
G03X-917998Y700809I-34662J-9009D01*
G01X-971998Y700809D01*
G03X-1002713Y683414I0J-35814D01*
G03X-1101312Y625490I-32285J-57924D01*
G03X-1002713Y567566I66314J0D01*
G03X-971998Y550172I30714J18420D01*
G01X-917998Y550172D01*
G03X-883336Y576976I0J35814D01*
G01X-866940Y576976D01*
G03X-859312Y574263I15741J32169D01*
G03X-886914Y540463I8197J-34863D01*
G03X-961248Y456738I-10584J-65464D01*
G03X-853859Y425067I63750J18261D01*
G03X-851116Y424962I2743J35709D01*
G01X-818715Y424962D01*
G03X-782901Y460776I0J35814D01*
G01X-782901Y491088D01*
G03X-783833Y499203I-35814J0D01*
G01X-766001Y499203D01*
G03X-773323Y477503I28491J-21700D01*
G01X-773323Y437503D01*
G03X-765378Y415009I35814J0D01*
G03X-773323Y392515I27868J-22494D01*
G01X-773323Y352515D01*
G03X-765368Y330008I35814J0D01*
G03X-773323Y307501I27858J-22507D01*
G01X-773323Y267501D01*
G03X-765378Y245007I35814J0D01*
G03X-773323Y222512I27868J-22494D01*
G01X-773323Y205676D01*
G03X-843324Y166417I-9175J-65676D01*
G03X-824231Y88464I60825J-26417D01*
G03X-850268Y46726I39232J-53464D01*
G03X-840387Y-1464I65269J-11726D01*
G01X-907436Y-1464D01*
G03X-1023790Y-44978I-50041J-43514D01*
G03X-907436Y-88492I66314J0D01*
G01X-769543Y-88492D01*
G03X-765368Y-94985I32034J16014D01*
G03X-773323Y-117492I27858J-22507D01*
G01X-773323Y-157492D01*
G03X-765378Y-179986I35814J0D01*
G03X-773323Y-202480I27868J-22494D01*
G01X-773323Y-242480D01*
G03X-765368Y-264987I35814J0D01*
G03X-773323Y-287494I27858J-22507D01*
G01X-773323Y-327494D01*
G03X-765378Y-349988I35814J0D01*
G03X-773323Y-372483I27868J-22494D01*
G01X-773323Y-412483D01*
G03X-737509Y-448297I35814J0D01*
G01X-657509Y-448297D01*
G03X-649731Y-447442I0J35814D01*
G01X-648938Y-448576D01*
G03X-650809Y-460001I33943J-11425D01*
G01X-650809Y-540001D01*
G03X-614995Y-575815I35814J0D01*
G01X-574995Y-575815D01*
G03X-552501Y-567869I0J35814D01*
G03X-530007Y-575815I22494J27868D01*
G01X-490007Y-575815D01*
G03X-467500Y-567859I0J35814D01*
G03X-444993Y-575815I22507J27858D01*
G01X-404993Y-575815D01*
G03X-382499Y-567869I0J35814D01*
G03X-360004Y-575815I22494J27868D01*
G01X-320004Y-575815D01*
G03X-297497Y-567859I0J35814D01*
G03X-274991Y-575815I22507J27858D01*
G01X-234991Y-575815D01*
G03X-212496Y-567869I0J35814D01*
G03X-190002Y-575815I22494J27868D01*
G01X-150002Y-575815D01*
G03X-127495Y-567859I0J35814D01*
G03X-104988Y-575815I22507J27858D01*
G01X-64988Y-575815D01*
G03X-47697Y-571364I0J35814D01*
G03X-34305Y-596803I47697J8865D01*
G01X-26020Y-605088D01*
G01X-26020Y-636485D01*
G01X-55000Y-636485D01*
G03X-89304Y-650694I0J-48514D01*
G01X-97109Y-658499D01*
G01X-105121Y-650486D01*
G01X-105121Y-627998D01*
G03X-140935Y-592184I-35814J0D01*
G01X-197501Y-592184D01*
G03X-233315Y-627998I0J-35814D01*
G01X-233315Y-681999D01*
G01X-233249Y-684169D01*
G01X-270005Y-684169D01*
G03X-305819Y-719983I0J-35814D01*
G01X-305819Y-812666D01*
G03X-348436Y-924128I14318J-69353D01*
G03X-229380Y-916015I56935J42110D01*
G01X-122699Y-1022697D01*
G03X-85000Y-1038312I37699J37699D01*
G01X133757Y-1038312D01*
G01X192936Y-1097491D01*
G03X243009Y-1118232I50073J50073D01*
G01X529174Y-1118232D01*
G01X533698Y-1122773D01*
G03X559071Y-1133312I25373J25276D01*
G01X719999Y-1133312D01*
G03X745323Y-1122822I0J35814D01*
G01X794833Y-1073312D01*
G01X1380436Y-1073312D01*
G03X1402733Y-1065524I0J35814D01*
G01X1424196Y-1048449D01*
G03X1437710Y-1020793I-22297J28026D01*
G01X1438309Y-962942D01*
G03X1427745Y-937172I-35812J370D01*
G01X1416233Y-925729D01*
G03X1358858Y-856779I-66235J3230D01*
G03X1285271Y-908072I-8861J-65719D01*
G01X554665Y-908072D01*
G03X531986Y-916167I0J-35814D01*
G01X506849Y-936734D01*
G03X493713Y-964452I22679J-27719D01*
G01X493713Y-976604D01*
G01X272341Y-976604D01*
G01X228314Y-932576D01*
G01X228314Y-922379D01*
G03X345581Y-921062I58188J40361D01*
G03X300819Y-812666I-59080J39043D01*
G01X300819Y-719983D01*
G03X292504Y-697038I-35814J0D01*
G03X295815Y-681999I-32503J15039D01*
G01X295815Y-627998D01*
G03X260001Y-592184I-35814J0D01*
G01X203435Y-592184D01*
G03X167621Y-627998I0J-35814D01*
G01X167621Y-654300D01*
G01X138201Y-683719D01*
G01X137757Y-684170D01*
G01X137493Y-684169D01*
G01X120995Y-684169D01*
G01X120995Y-597525D01*
G03X133068Y-571558I-35995J32526D01*
G03X150002Y-575815I16934J31558D01*
G01X190002Y-575815D01*
G03X212496Y-567869I0J35814D01*
G03X234991Y-575815I22494J27868D01*
G01X274991Y-575815D01*
G03X297498Y-567859I0J35814D01*
G03X320004Y-575815I22507J27858D01*
G01X360004Y-575815D01*
G03X382499Y-567869I0J35814D01*
G03X404993Y-575815I22494J27868D01*
G01X444993Y-575815D01*
G03X467500Y-567859I0J35814D01*
G03X490007Y-575815I22507J27858D01*
G01X530007Y-575815D01*
G03X552501Y-567869I0J35814D01*
G03X574995Y-575815I22494J27868D01*
G01X614995Y-575815D01*
G03X650809Y-540001I0J35814D01*
G01X650809Y-460001D01*
G03X648463Y-447251I-35814J0D01*
G01X648682Y-447122D01*
G03X657509Y-448297I9059J34339D01*
G01X737509Y-448297D01*
G03X773323Y-412483I0J35814D01*
G01X773323Y-372483D01*
G03X765378Y-349988I-35814J0D01*
G03X773323Y-327494I-27868J22494D01*
G01X773323Y-287494D01*
G03X765368Y-264987I-35814J0D01*
G03X773323Y-242480I-27858J22507D01*
G01X773323Y-202480D01*
G03X765378Y-179986I-35814J0D01*
G03X773323Y-157492I-27868J22494D01*
G01X773323Y-117492D01*
G03X765368Y-94985I-35814J0D01*
G03X773323Y-72478I-27858J22507D01*
G01X773323Y-32478D01*
G03X768153Y-13941I-35814J0D01*
G01X1174918Y-13941D01*
G03X1205392Y-30942I30474J18814D01*
G01X1261958Y-30942D01*
G03X1276957Y-27650I0J35814D01*
G03X1291955Y-30942I14999J32522D01*
G01X1348521Y-30942D01*
G03X1376405Y-17603I0J35814D01*
G03X1410058Y-41165I33653J12252D01*
G01X1490058Y-41165D01*
G03X1525872Y-5351I0J35814D01*
G01X1525872Y74649D01*
G03X1490058Y110463I-35814J0D01*
G01X1410058Y110463D01*
G03X1375181Y82787I0J-35814D01*
G03X1348521Y94687I-26660J-23914D01*
G01X1291955Y94687D01*
G03X1276957Y91395I0J-35814D01*
G03X1261958Y94687I-14999J-32522D01*
G01X1205392Y94687D01*
G03X1174918Y77687I0J-35814D01*
G01X767327Y77687D01*
G03X773323Y97524I-29818J19837D01*
G01X773323Y137524D01*
G03X765378Y160018I-35814J0D01*
G03X773323Y182512I-27868J22494D01*
G01X773323Y222512D01*
G03X765378Y245007I-35814J0D01*
G03X773323Y267501I-27868J22494D01*
G01X773323Y307501D01*
G03X765368Y330008I-35814J0D01*
G03X773323Y352515I-27858J22507D01*
G01X773323Y392515D01*
G03X766020Y414189I-35814J0D01*
G01X811755Y414189D01*
G03X828798Y409873I17044J31499D01*
G01X853984Y409873D01*
G01X853984Y395067D01*
G03X866729Y364298I43514J0D01*
G01X918331Y312697D01*
G01X918331Y303799D01*
G03X920423Y291738I35814J0D01*
G03X901184Y259991I16576J-31747D01*
G01X901184Y136991D01*
G03X936998Y101177I35814J0D01*
G01X1072998Y101177D01*
G03X1108812Y136991I0J35814D01*
G01X1108812Y259991D01*
G03X1072998Y295805I-35814J0D01*
G01X1025898Y295805D01*
G03X1026801Y303799I-34910J7995D01*
G01X1026801Y336199D01*
G03X990987Y372013I-35814J0D01*
G01X982090Y372013D01*
G01X943866Y410237D01*
G03X1008439Y431426I14532J64702D01*
G01X1067033Y431426D01*
G01X1126797Y371662D01*
G03X1157566Y358917I30769J30769D01*
G01X1713242Y358917D01*
G03X1738796Y348196I25554J25093D01*
G01X1771197Y348196D01*
G03X1807011Y384010I0J35814D01*
G01X1807011Y420853D01*
G03X1806611Y426185I-35814J0D01*
G01X1883005Y426185D01*
G03X1918819Y461999I0J35814D01*
G01X1918819Y597999D01*
G03X1883005Y633813I-35814J0D01*
G01X1760005Y633813D01*
G03X1724191Y597999I0J-35814D01*
G01X1724191Y485732D01*
G03X1711482Y454999I30805J-30733D01*
G01X1711482Y445945D01*
G01X1175590Y445945D01*
G01X1115826Y505709D01*
G03X1085057Y518454I-30769J-30769D01*
G01X1008439Y518454D01*
G03X941012Y538934I-50041J-43514D01*
G01X941012Y562500D01*
G03X939809Y572660I-43514J0D01*
G03X985466Y615763I-17271J64026D01*
G01X1008898Y615763D01*
G03X1065835Y565075I64552J15187D01*
G03X1132834Y601436I7615J65875D01*
G01X1169607Y601436D01*
G03X1205421Y637250I0J35814D01*
G01X1205421Y659651D01*
G03X1204323Y668453I-35814J0D01*
G03X1205421Y677255I-34715J8802D01*
G01X1205421Y699656D01*
G03X1190889Y728461I-35814J0D01*
G03X1205421Y757265I-21282J28805D01*
G01X1205421Y779666D01*
G03X1204323Y788468I-35814J0D01*
G03X1205421Y797270I-34715J8802D01*
G01X1205421Y819671D01*
G03X1204326Y828460I-35814J0D01*
G03X1205421Y837250I-34719J8790D01*
G01X1205421Y859650D01*
G03X1192345Y887321I-35814J0D01*
G01X1192345Y902774D01*
G03X1199165Y923798I-28993J21024D01*
G01X1199165Y944841D01*
G01X1480787Y944841D01*
G03X1465884Y934894I17492J-42343D01*
G01X1426455Y895464D01*
G01X1404603Y895464D01*
G03X1368789Y859650I0J-35814D01*
G01X1368789Y837250D01*
G03X1369884Y828460I35814J0D01*
G03X1368789Y819671I34719J-8790D01*
G01X1368789Y797270D01*
G03X1369888Y788468I35814J0D01*
G03X1368789Y779666I34715J-8802D01*
G01X1368789Y757265D01*
G03X1383321Y728461I35814J0D01*
G03X1368789Y699656I21282J-28805D01*
G01X1368789Y677255D01*
G03X1369888Y668453I35814J0D01*
G03X1368789Y659651I34715J-8802D01*
G01X1368789Y637250D01*
G03X1369884Y628461I35814J0D01*
G03X1368789Y619671I34719J-8790D01*
G01X1368789Y597271D01*
G03X1404603Y561457I35814J0D01*
G01X1441248Y561457D01*
G01X1447001Y555704D01*
G03X1479397Y542285I32396J32395D01*
G01X1648029Y542285D01*
G03X1680425Y555704I0J45814D01*
G01X1686197Y555832D01*
G03X1722011Y591646I0J35814D01*
G01X1722011Y628488D01*
G03X1720859Y637499I-35814J0D01*
G03X1722011Y646510I-34662J9011D01*
G01X1722011Y683352D01*
G03X1715811Y703493I-35814J0D01*
G01X1715811Y809184D01*
G01X1879999Y809184D01*
G03X1912394Y822603I0J45814D01*
G01X2034633Y944841D01*
G01X2364186Y944841D01*
G01X2364186Y226140D01*
G03X2329791Y251973I-34395J-9981D01*
G01X2129791Y251973D01*
G03X2093977Y216159I0J-35814D01*
G01X2093977Y115843D01*
G01X1791449Y-186686D01*
G01X1482497Y-186685D01*
G03X1446566Y-201568I0J-50814D01*
G01X1218950Y-429184D01*
G01X1182498Y-429184D01*
G03X1146684Y-464998I0J-35814D01*
G01X1146684Y-589999D01*
G03X1182498Y-625813I35814J0D01*
G01X1252498Y-625813D01*
G03X1288312Y-589999I0J35814D01*
G01X1288312Y-503547D01*
G01X1503545Y-288313D01*
G01X1812496Y-288314D01*
G03X1848427Y-273431I0J50814D01*
G01X2152203Y30345D01*
G01X2329791Y30345D01*
G03X2364186Y56178I0J35814D01*
G01X2364186Y-66359D01*
G03X2329791Y-40526I-34395J-9982D01*
G01X2129791Y-40526D01*
G03X2093977Y-76340I0J-35814D01*
G01X2093977Y-226340D01*
G03X2100034Y-246269I35814J0D01*
G01X2100034Y-356271D01*
G03X2095852Y-356026I-4182J-35569D01*
G01X2025852Y-356026D01*
G03X1990050Y-390912I0J-35814D01*
G03X1963994Y-379669I-26056J-24570D01*
G01X1909993Y-379669D01*
G03X1892807Y-384062I0J-35814D01*
G03X1814445Y-307550I-65310J11495D01*
G03X1771683Y-408377I13052J-65017D01*
G01X1771683Y-455067D01*
G03X1775536Y-475446I55814J0D01*
G03X1811296Y-509302I35760J1957D01*
G01X1814316Y-509302D01*
G03X1830474Y-510801I13180J54235D01*
G01X1878108Y-510801D01*
G03X1909993Y-530306I31885J16309D01*
G01X1963994Y-530306D01*
G03X1990103Y-519006I0J35814D01*
G03X2025852Y-552655I35749J2165D01*
G01X2095852Y-552655D01*
G03X2100034Y-552410I0J35814D01*
G01X2100034Y-612631D01*
G03X2085091Y-639747I20814J-29145D01*
G03X2081682Y-654999I32404J-15252D01*
G01X2081682Y-669185D01*
G01X1925105Y-669185D01*
G03X1816182Y-719999I-42609J-50814D01*
G03X1925105Y-770813I66314J0D01*
G01X2081682Y-770813D01*
G03X2089182Y-792650I35814J94D01*
G01X2089182Y-847927D01*
G01X2072171Y-864937D01*
G03X2061682Y-890261I25324J-25324D01*
G01X2061682Y-962664D01*
G01X2052661Y-971684D01*
G01X1917331Y-971684D01*
G01X1855321Y-909674D01*
G03X1829996Y-899184I-25324J-25324D01*
G01X1522497Y-899184D01*
G03X1497173Y-909674I0J-35814D01*
G01X1472173Y-934674D01*
G03X1461683Y-959998I25324J-25324D01*
G01X1461683Y-1017498D01*
G03X1472173Y-1042822I35814J0D01*
G01X1494673Y-1065322D01*
G03X1519997Y-1075812I25324J25324D01*
G01X1797662Y-1075812D01*
G01X1842172Y-1120322D01*
G03X1867496Y-1130812I25324J25324D01*
G01X1947661Y-1130812D01*
G01X1976682Y-1159832D01*
G01X1976682Y-1422497D01*
G03X1981707Y-1440791I35814J0D01*
G03X1994634Y-1464186I35546J4372D01*
G01X-2364186Y-1464186D01*
G01X-2364186Y944841D01*
G01X-1210097Y-499185D02*
G03X-1209194Y-491190I-34910J7995D01*
G01X-1209194Y-338790D01*
G03X-1245008Y-302976I-35814J0D01*
G01X-1325008Y-302976D01*
G03X-1335511Y-304551I0J-35814D01*
G01X-1251659Y-220699D01*
G03X-1185836Y-130765I3901J66199D01*
G03X-1294907Y-107869I-61921J-23735D01*
G03X-1382538Y-118986I-37590J-54631D01*
G01X-1737497Y-118986D01*
G03X-1768266Y-131731I0J-43514D01*
G01X-1939511Y-302976D01*
G01X-1985001Y-302976D01*
G03X-1999992Y-306265I0J-35814D01*
G03X-2014983Y-302976I-14991J-32526D01*
G01X-2094983Y-302976D01*
G03X-2130797Y-338790I0J-35814D01*
G01X-2130797Y-491190D01*
G03X-2094983Y-527004I35814J0D01*
G01X-2014983Y-527004D01*
G03X-1999992Y-523716I0J35814D01*
G03X-1985001Y-527004I14991J32526D01*
G01X-1905001Y-527004D01*
G03X-1869187Y-491190I0J35814D01*
G01X-1869187Y-355729D01*
G01X-1719473Y-206014D01*
G01X-1615628Y-206014D01*
G03X-1633266Y-216730I13132J-41485D01*
G01X-1719512Y-302976D01*
G01X-1764986Y-302976D01*
G03X-1800800Y-338790I0J-35814D01*
G01X-1800800Y-491190D01*
G03X-1764986Y-527004I35814J0D01*
G01X-1684986Y-527004D01*
G03X-1669995Y-523716I0J35814D01*
G03X-1655004Y-527004I14991J32526D01*
G01X-1617782Y-527004D01*
G01X-1567392Y-577394D01*
G03X-1534997Y-590813I32395J32395D01*
G01X-1087498Y-590813D01*
G03X-1055102Y-577394I0J45814D01*
G01X-939747Y-462039D01*
G01X-893314Y-462039D01*
G03X-870243Y-470460I23071J27393D01*
G01X-837843Y-470460D01*
G03X-802029Y-434646I0J35814D01*
G01X-802029Y-397803D01*
G03X-807452Y-378855I-35814J0D01*
G01X-807452Y-363347D01*
G03X-792184Y-334013I-20546J29334D01*
G01X-792184Y-255003D01*
G03X-827998Y-219189I-35814J0D01*
G01X-881998Y-219189D01*
G03X-889507Y-219985I0J-35814D01*
G01X-914788Y-219985D01*
G03X-1026282Y-266488I-45210J-48514D01*
G03X-917812Y-319665I66284J-2011D01*
G01X-917812Y-334013D01*
G03X-899080Y-365491I35814J0D01*
G01X-899080Y-370411D01*
G01X-958724Y-370411D01*
G03X-991119Y-383829I0J-45814D01*
G01X-1106474Y-499185D01*
G01X-1210097Y-499185D01*
G01X957497Y-790313D02*
G01X1014063Y-790313D01*
G03X1044537Y-773312I0J35814D01*
G01X1051688Y-773312D01*
G01X1051688Y-789999D01*
G03X1087502Y-825813I35814J0D01*
G01X1157502Y-825813D01*
G03X1193316Y-789999I0J35814D01*
G01X1193316Y-664998D01*
G03X1157502Y-629184I-35814J0D01*
G01X1087502Y-629184D01*
G03X1051688Y-664998I0J-35814D01*
G01X1051688Y-681684D01*
G01X1044537Y-681684D01*
G03X1014063Y-664684I-30474J-18814D01*
G01X957497Y-664684D01*
G03X942498Y-667976I0J-35814D01*
G03X927500Y-664684I-14999J-32522D01*
G01X870934Y-664684D01*
G03X842469Y-678763I0J-35814D01*
G03X731184Y-727498I-44971J-48736D01*
G03X842469Y-776234I66314J0D01*
G03X870934Y-790313I28464J21735D01*
G01X927500Y-790313D01*
G03X942498Y-787021I0J35814D01*
G03X957497Y-790313I14999J32522D01*
G01X1389093Y-1238064D02*
G01X1398124Y-1238064D01*
G03X1433938Y-1202250I0J35814D01*
G01X1433938Y-1153250D01*
G03X1398124Y-1117436I-35814J0D01*
G01X1280624Y-1117436D01*
G03X1244810Y-1153250I0J-35814D01*
G01X1244810Y-1202250D01*
G03X1280624Y-1238064I35814J0D01*
G01X1287465Y-1238064D01*
G01X1287465Y-1250927D01*
G03X1274182Y-1278766I22531J-27839D01*
G01X1274182Y-1332766D01*
G03X1309996Y-1368580I35814J0D01*
G01X1366562Y-1368580D01*
G03X1402376Y-1332766I0J35814D01*
G01X1402376Y-1278766D01*
G03X1389093Y-1250927I-35814J0D01*
G01X1389093Y-1238064D01*
G01X1668110Y-1301322D02*
G03X1671829Y-1185763I-30613J58825D01*
G03X1668266Y-1181729I-34332J-26735D01*
G01X1663772Y-1177234D01*
G01X1663772Y-1153250D01*
G03X1627958Y-1117436I-35814J0D01*
G01X1512258Y-1117436D01*
G03X1476444Y-1153250I0J-35814D01*
G01X1476444Y-1202250D01*
G03X1512258Y-1238064I35814J0D01*
G01X1571331Y-1238064D01*
G03X1668110Y-1301322I66166J-4434D01*
G01X-2116682Y888521D02*
G01X-2060361Y944841D01*
G01X-2034845Y944841D01*
G03X-2041408Y912637I59670J-28931D01*
G03X-2112310Y847930I-4603J-66154D01*
G03X-2044299Y780191I66298J-1447D01*
G01X-2044299Y766298D01*
G03X-2026330Y735247I35814J0D01*
G03X-2028690Y733941I16154J-31964D01*
G01X-2070534Y733941D01*
G03X-2093184Y742013I-22650J-27742D01*
G01X-2116682Y742013D01*
G01X-2116682Y888521D01*
G01X490204Y-101014D02*
G03X480099Y-180709I47294J-46485D01*
G03X554228Y-211667I57399J33211D01*
G03X567948Y-261042I65791J-8312D01*
G03X545063Y-305513I43169J-50339D01*
G03X559751Y-353322I66054J-5868D01*
G03X560221Y-427376I55248J-36677D01*
G03X552501Y-432132I14774J-32625D01*
G03X530007Y-424187I-22494J-27868D01*
G01X490007Y-424187D01*
G03X467500Y-432143I0J-35814D01*
G03X444993Y-424187I-22507J-27858D01*
G01X404993Y-424187D01*
G03X382499Y-432132I0J-35814D01*
G03X360004Y-424187I-22494J-27868D01*
G01X320004Y-424187D01*
G03X297498Y-432143I0J-35814D01*
G03X274991Y-424187I-22507J-27858D01*
G01X234991Y-424187D01*
G03X212496Y-432132I0J-35814D01*
G03X190002Y-424187I-22494J-27868D01*
G01X150002Y-424187D01*
G03X127495Y-432143I0J-35814D01*
G03X104988Y-424187I-22507J-27858D01*
G01X64988Y-424187D01*
G03X42494Y-432132I0J-35814D01*
G03X20000Y-424187I-22494J-27868D01*
G01X-20000Y-424187D01*
G03X-42494Y-432132I0J-35814D01*
G03X-64988Y-424187I-22494J-27868D01*
G01X-104988Y-424187D01*
G03X-127495Y-432143I0J-35814D01*
G03X-150002Y-424187I-22507J-27858D01*
G01X-189325Y-424187D01*
G03X-254999Y-348685I-65675J9188D01*
G03X-320674Y-424187I0J-66314D01*
G01X-360004Y-424187D01*
G03X-382499Y-432132I0J-35814D01*
G03X-404993Y-424187I-22494J-27868D01*
G01X-444993Y-424187D01*
G03X-467500Y-432143I0J-35814D01*
G03X-490007Y-424187I-22507J-27858D01*
G01X-530007Y-424187D01*
G01X-530261Y-424188D01*
G03X-624031Y-350378I-64758J14198D01*
G03X-629150Y-349366I-10985J-42105D01*
G03X-621695Y-327494I-28360J21872D01*
G01X-621695Y-320730D01*
G01X-594474Y-293514D01*
G01X267500Y-293514D01*
G03X298269Y-280769I0J43514D01*
G01X478023Y-101014D01*
G01X490204Y-101014D01*
G01X906810Y752984D02*
G03X934504Y766090I0J35814D01*
G03X1000702Y784028I18253J63752D01*
G01X1005696Y784028D01*
G01X1005695Y783698D01*
G01X1005695Y751298D01*
G03X1010040Y734200I35814J0D01*
G03X983941Y724234I2516J-45745D01*
G01X977899Y724234D01*
G03X954813Y715801I0J-35814D01*
G03X924056Y702983I1038J-45802D01*
G03X894313Y696693I-1517J-66297D01*
G01X894313Y723699D01*
G03X879115Y752984I-35814J0D01*
G01X906810Y752984D01*
G01X896802Y918698D02*
G03X885466Y944841I-35814J0D01*
G01X1090694Y944841D01*
G01X1090694Y923798D01*
G03X1100717Y898950I35814J0D01*
G01X1100717Y890382D01*
G03X1086639Y874766I18390J-30732D01*
G03X1077654Y875656I-8986J-44924D01*
G01X1000702Y875656D01*
G03X902931Y873601I-47944J-45814D01*
G03X892153Y868653I13567J-43759D01*
G03X896802Y886298I-31165J17645D01*
G01X896802Y918698D01*
G01X1599300Y743798D02*
G01X1599300Y776199D01*
G03X1577436Y809184I-35814J0D01*
G01X1587077Y809184D01*
G03X1607218Y802984I20141J29614D01*
G01X1624183Y802984D01*
G01X1624183Y703493D01*
G03X1617983Y683352I29614J-20141D01*
G01X1617983Y651852D01*
G03X1567793Y708244I-65823J-8053D01*
G03X1599300Y743798I-4306J35554D01*
G01X1673344Y933798D02*
G01X1673344Y944841D01*
G01X1905051Y944841D01*
G01X1861022Y900812D01*
G01X1705982Y900812D01*
G03X1685841Y907012I-20141J-29614D01*
G01X1661304Y907012D01*
G03X1673344Y933798I-23773J26786D01*
G01X2329791Y-262154D02*
G03X2364186Y-236322I0J35814D01*
G01X2364186Y-1464186D01*
G01X2239815Y-1464186D01*
G03X2253067Y-1436243I-22650J27855D01*
G03X2255810Y-1422497I-33071J13745D01*
G01X2255810Y-992498D01*
G03X2244794Y-966659I-35814J0D01*
G01X2228310Y-950838D01*
G01X2228310Y-658651D01*
G03X2226662Y-647912I-35814J0D01*
G01X2226662Y-641776D01*
G03X2211662Y-612631I-35814J0D01*
G01X2211662Y-262154D01*
G01X2329791Y-262154D01*
G04 Copper End*

G04 Pad Start*
G54D11*
G01X-944998Y625490D03*
G01X-944998Y734507D03*
G54D12*
G01X-834998Y627567D03*
G01X-834998Y682431D03*
G54D13*
G01X842566Y902498D03*
G01X897430Y902498D03*
G54D12*
G01X692499Y-1077566D03*
G01X692499Y-1132430D03*
G54D11*
G01X587499Y-1047418D03*
G01X587499Y-1156435D03*
G54D13*
G01X972566Y319999D03*
G01X1027430Y319999D03*
G54D14*
G01X2152004Y-932498D03*
G01X2042987Y-932498D03*
G54D13*
G01X2152428Y-822498D03*
G01X2097564Y-822498D03*
G54D12*
G01X1827496Y-455067D03*
G01X1827496Y-509931D03*
G54D11*
G01X1936993Y-454987D03*
G01X1936993Y-564004D03*
G01X1769986Y-987006D03*
G01X1769986Y-877990D03*
G01X1142508Y-988748D03*
G01X1142508Y-1097765D03*
G54D12*
G01X-854043Y-471088D03*
G01X-854043Y-416224D03*
G01X-1463977Y896403D03*
G01X-1463977Y841539D03*
G54D13*
G01X-1459929Y742499D03*
G01X-1405065Y742499D03*
G01X-1504929Y602499D03*
G01X-1450065Y602499D03*
G01X-1990064Y782499D03*
G01X-2044928Y782499D03*
G01X-1900064Y997498D03*
G01X-1954928Y997498D03*
G54D11*
G01X-854998Y-185491D03*
G01X-854998Y-294508D03*
G54D15*
G01X1609951Y35361D03*
G01X1450058Y34649D03*
G54D17*
G01X1233675Y31873D03*
G01X1320238Y31873D03*
G01X1251716Y-1305766D03*
G01X1338279Y-1305766D03*
G54D18*
G01X-2108340Y689999D03*
G01X-2156651Y689999D03*
G54D19*
G01X-1993976Y639816D03*
G01X-1993976Y688127D03*
G54D18*
G01X-2156651Y592499D03*
G01X-2108340Y592499D03*
G54D20*
G01X1004998Y-238491D03*
G01X1004998Y198491D03*
G54D21*
G01X-697509Y797507D03*
G01X-697509Y712519D03*
G01X-697509Y627505D03*
G01X-697509Y542517D03*
G01X-697509Y457503D03*
G01X-697509Y372515D03*
G01X-697509Y287501D03*
G01X-697509Y202512D03*
G01X-697509Y117524D03*
G01X-697509Y32510D03*
G01X-697509Y-52478D03*
G01X-697509Y-137492D03*
G01X-697509Y-222480D03*
G01X-697509Y-307494D03*
G01X-697509Y-392483D03*
G54D22*
G01X-594995Y-500001D03*
G01X-510007Y-500001D03*
G01X-424993Y-500001D03*
G01X-340004Y-500001D03*
G01X-254991Y-500001D03*
G01X-170002Y-500001D03*
G01X-84988Y-500001D03*
G01X0Y-500001D03*
G01X84988Y-500001D03*
G01X170002Y-500001D03*
G01X254991Y-500001D03*
G01X340004Y-500001D03*
G01X424993Y-500001D03*
G01X510007Y-500001D03*
G01X594995Y-500001D03*
G54D21*
G01X697509Y-392483D03*
G01X697509Y-307494D03*
G01X697509Y-222480D03*
G01X697509Y-137492D03*
G01X697509Y-52478D03*
G01X697509Y32510D03*
G01X697509Y117524D03*
G01X697509Y202512D03*
G01X697509Y287501D03*
G01X697509Y372515D03*
G01X697509Y457503D03*
G01X697509Y542517D03*
G01X697509Y627505D03*
G01X697509Y712519D03*
G01X697509Y797507D03*
G54D22*
G01X594995Y905000D03*
G01X510007Y905000D03*
G01X424993Y905000D03*
G01X340004Y905000D03*
G01X254991Y905000D03*
G01X170002Y905000D03*
G01X84988Y905000D03*
G01X0Y905000D03*
G01X-84988Y905000D03*
G01X-170002Y905000D03*
G01X-254991Y905000D03*
G01X-340004Y905000D03*
G01X-424993Y905000D03*
G01X-510007Y905000D03*
G01X-594995Y905000D03*
G54D15*
G01X-699999Y902511D03*
G01X699999Y902511D03*
G01X-699999Y-497486D03*
G01X699999Y-497486D03*
G54D23*
G01X-164998Y367511D03*
G01X0Y367511D03*
G01X164998Y367511D03*
G01X-164998Y202512D03*
G01X0Y202512D03*
G01X164998Y202512D03*
G01X-164998Y37514D03*
G01X0Y37514D03*
G01X164998Y37514D03*
G54D24*
G01X1570108Y-1177750D03*
G01X1570108Y-1082754D03*
G01X1570108Y-987758D03*
G54D25*
G01X1339374Y-987758D03*
G01X1339374Y-1177750D03*
G54D26*
G01X-1616229Y658981D03*
G01X-1616229Y698961D03*
G01X-1616229Y738966D03*
G01X-1616229Y778971D03*
G01X-1616229Y818976D03*
G01X-1616229Y858981D03*
G01X-1616229Y898961D03*
G01X-1901725Y898961D03*
G01X-1901725Y858981D03*
G01X-1901725Y818976D03*
G01X-1901725Y778971D03*
G01X-1901725Y738966D03*
G01X-1901725Y698961D03*
G01X-1901725Y658981D03*
G54D27*
G01X-1758977Y778971D03*
G54D28*
G01X2155848Y-704276D03*
G01X2060852Y-454340D03*
G01X2250844Y-454340D03*
G54D13*
G01X1059930Y767498D03*
G01X1005066Y767498D03*
G01X1144930Y939998D03*
G01X1090066Y939998D03*
G54D12*
G01X994099Y615135D03*
G01X994099Y669999D03*
G54D13*
G01X1545065Y759998D03*
G01X1599929Y759998D03*
G54D12*
G01X1669997Y610067D03*
G01X1669997Y664931D03*
G54D18*
G01X1622374Y854998D03*
G01X1670685Y854998D03*
G54D19*
G01X1527374Y903309D03*
G01X1527374Y854998D03*
G54D18*
G01X1670685Y949998D03*
G01X1622374Y949998D03*
G54D26*
G01X1144357Y848450D03*
G01X1144357Y808471D03*
G01X1144357Y768466D03*
G01X1144357Y728461D03*
G01X1144357Y688456D03*
G01X1144357Y648451D03*
G01X1144357Y608471D03*
G01X1429853Y608471D03*
G01X1429853Y648451D03*
G01X1429853Y688456D03*
G01X1429853Y728461D03*
G01X1429853Y768466D03*
G01X1429853Y808471D03*
G01X1429853Y848450D03*
G54D27*
G01X1287105Y728461D03*
G54D19*
G01X-834916Y524243D03*
G01X-834916Y475932D03*
G54D18*
G01X891654Y707499D03*
G01X843343Y707499D03*
G01X891654Y804998D03*
G01X843343Y804998D03*
G54D19*
G01X844998Y509154D03*
G01X844998Y460844D03*
G54D28*
G01X1122502Y-727498D03*
G01X1312494Y-727498D03*
G01X1217498Y-527499D03*
G54D17*
G01X899217Y-727498D03*
G01X985780Y-727498D03*
G54D29*
G01X-2054983Y-414990D03*
G01X-1945001Y-414990D03*
G01X-1834994Y-414990D03*
G01X-1724986Y-414990D03*
G01X-1615004Y-414990D03*
G01X-1504997Y-414990D03*
G01X-1394990Y-414990D03*
G01X-1285008Y-414990D03*
G54D30*
G01X-917495Y-675010D03*
G01X-917495Y155011D03*
G01X-2292499Y-675010D03*
G01X-2292499Y155011D03*
G54D31*
G01X-2109996Y1192495D03*
G54D32*
G01X-2109996Y1332500D03*
G54D31*
G01X2214996Y1189995D03*
G54D32*
G01X2214996Y1330000D03*
G54D33*
G01X2229791Y141159D03*
G01X2229791Y-151340D03*
G01X2117253Y-1361419D03*
G01X-2112739Y-1361418D03*
G54D12*
G01X1754996Y402431D03*
G01X1754996Y347567D03*
G54D34*
G01X2258487Y529999D03*
G01X1821505Y529999D03*
G54D17*
G01X231718Y-654999D03*
G01X318281Y-654999D03*
G01X-169218Y-654999D03*
G01X-255781Y-654999D03*
G54D35*
G01X-322515Y-774982D03*
G01X-242505Y-774982D03*
G54D36*
G01X-177506Y-774982D03*
G01X-127494Y-774982D03*
G01X-77506Y-774982D03*
G01X-27519Y-774982D03*
G01X22493Y-774982D03*
G01X72481Y-774982D03*
G01X122493Y-774982D03*
G01X172506Y-774982D03*
G54D35*
G01X237505Y-774982D03*
G01X317489Y-774982D03*
G54D37*
G01X-435011Y-829999D03*
G01X429986Y-829999D03*
G54D38*
G01X-435011Y-1250013D03*
G01X429986Y-1250013D03*
G04 Pad End*

G04 Via Start*
G54D39*
G01X-82499Y370011D03*
G01X-164998Y287512D03*
G01X0Y287512D03*
G01X82500Y370011D03*
G01X164998Y287512D03*
G01X-164998Y122514D03*
G01X-82499Y205012D03*
G01X0Y122514D03*
G01X82500Y205012D03*
G01X164998Y122514D03*
G01X-82499Y40014D03*
G01X82500Y40014D03*
G01X-1834996Y-577499D03*
G01X1249998Y799999D03*
G01X1329998Y799999D03*
G01X1332105Y728461D03*
G01X1247105Y728461D03*
G01X1332497Y654999D03*
G01X1247498Y654999D03*
G01X-856467Y-105878D03*
G01X-854043Y-535882D03*
G01X-699999Y-494999D03*
G01X1599054Y704999D03*
G01X1727496Y927498D03*
G01X1034626Y914221D03*
G01X961008Y908539D03*
G01X944998Y737499D03*
G01X994099Y551943D03*
G01X1144998Y552499D03*
G01X1028249Y378400D03*
G01X787499Y541838D03*
G01X614999Y542499D03*
G01X614671Y630005D03*
G01X699999Y905011D03*
G01X-699999Y905011D03*
G01X-594995Y800007D03*
G01X-594995Y715019D03*
G01X-424993Y800007D03*
G01X-170002Y800007D03*
G01X84988Y800007D03*
G01X340004Y800007D03*
G01X594995Y800007D03*
G01X-1716084Y705509D03*
G01X-1716477Y778971D03*
G01X-1718584Y850509D03*
G01X-1798584Y850509D03*
G01X-1801476Y778971D03*
G01X-1801084Y705509D03*
G01X-1389962Y901403D03*
G01X-2213424Y593971D03*
G01X-2104412Y781471D03*
G01X-1537497Y682499D03*
G01X-1323455Y743975D03*
G01X-834998Y742125D03*
G01X-1017291Y734507D03*
G01X699999Y-494986D03*
G01X892498Y-238491D03*
G01X1701391Y34463D03*
G01X1827496Y-572499D03*
G01X1936993Y-649324D03*
G01X2031671Y-822487D03*
G01X1142616Y-1189722D03*
G01X1231452Y-1105254D03*
G01X1252241Y-1379887D03*
G01X1690997Y-879276D03*
G01X691678Y-1193322D03*
G01X587649Y-1238988D03*
G01X1769028Y-789756D03*
G01X1465812Y-1082754D03*
G01X1959110Y-932487D03*
G01X1424106Y-499496D03*
G01X-897498Y474999D03*
G01X1670104Y-1082754D03*
G01X-1539997Y879998D03*
G01X-782499Y140000D03*
G01X-784998Y35000D03*
G01X-1975175Y915910D03*
G01X-2046011Y846483D03*
G01X-957476Y-44978D03*
G01X1073450Y630951D03*
G01X952758Y829842D03*
G01X922539Y636686D03*
G01X1500803Y702608D03*
G01X1552159Y643799D03*
G01X577494Y-47495D03*
G01X512240Y-4100D03*
G01X454991Y52507D03*
G01X-1037498Y155000D03*
G01X2149172Y534999D03*
G01X-2280493Y-1391418D03*
G01X-2112739Y-1220829D03*
G01X-2282993Y-1220829D03*
G01X-2199173Y-1220829D03*
G01X-2019688Y-1220829D03*
G01X-2282495Y-1302497D03*
G01X1292498Y-837498D03*
G01X1684938Y348027D03*
G01X-1344997Y822676D03*
G01X-1537120Y801602D03*
G01X2252496Y-344999D03*
G01X2329995Y-454999D03*
G01X2251193Y-565910D03*
G01X-1499996Y-309998D03*
G01X-1247757Y-154500D03*
G01X-1448390Y-247499D03*
G01X-1332497Y-162500D03*
G01X620019Y-219979D03*
G01X611117Y-311381D03*
G01X614999Y-389999D03*
G01X537498Y-147498D03*
G01X785231Y800007D03*
G01X837498Y624999D03*
G01X-1034998Y625490D03*
G01X1827496Y-372567D03*
G01X-959998Y-268499D03*
G01X2332495Y912498D03*
G01X-2322495Y907498D03*
G01X1637497Y-1242498D03*
G01X-594999Y-409999D03*
G01X958398Y474940D03*
G01X-552499Y202500D03*
G01X1754996Y-115000D03*
G01X1919996Y220000D03*
G01X1402497Y284999D03*
G01X584999Y-729998D03*
G01X40000Y-409999D03*
G01X329999Y-264999D03*
G01X-479999Y-45000D03*
G01X579999Y190000D03*
G01X819998Y369999D03*
G01X-2067496Y292500D03*
G01X-1759996Y127500D03*
G01X-1279997Y364999D03*
G01X-1402757Y137240D03*
G01X-2057496Y924998D03*
G01X-2244996Y872498D03*
G01X-2307495Y794998D03*
G01X-2019996Y-32500D03*
G01X-1904996Y-777498D03*
G01X-1077498Y-1149998D03*
G01X-1662497Y-1347497D03*
G01X-1009998Y-1369997D03*
G01X854998Y-1359997D03*
G01X27500Y-1239998D03*
G01X-752498Y-909998D03*
G01X697499Y-832498D03*
G01X1599997Y-130000D03*
G01X1522497Y-359999D03*
G01X2329995Y-1159998D03*
G01X1754997Y-1424997D03*
G01X2314995Y382499D03*
G01X2244996Y819998D03*
G01X1869996Y7500D03*
G01X312500Y479999D03*
G01X-314999Y534999D03*
G01X92500Y589999D03*
G01X-135000Y607499D03*
G01X-372499Y299999D03*
G01X-322499Y150000D03*
G01X-579999Y62500D03*
G01X-377499Y-90000D03*
G01X-549999Y384999D03*
G01X492499Y137500D03*
G01X382499Y312500D03*
G01X516570Y457512D03*
G01X474999Y649999D03*
G01X212499Y-409999D03*
G01X-107500Y-407499D03*
G01X-537499Y-644999D03*
G01X-722499Y-724999D03*
G01X-667499Y-1209998D03*
G01X914998Y-867498D03*
G01X987498Y-1094998D03*
G01X1341286Y-1092689D03*
G01X1847240Y-1322875D03*
G01X1449997Y-884998D03*
G01X1759996Y-602499D03*
G01X1572497Y-482499D03*
G01X1457497Y-1234998D03*
G01X1824996Y-1209998D03*
G01X909998Y-1262497D03*
G01X1565811Y-874245D03*
G01X-1162498Y-264999D03*
G01X-331479Y-654999D03*
G01X394999Y-657499D03*
G01X797498Y-727498D03*
G01X-254999Y-414999D03*
G01X-389999Y-404999D03*
G01X147500Y-604999D03*
G01X-80000Y-594999D03*
G01X1349997Y-922498D03*
G01X1882496Y-719999D03*
G04 Via End*

G04 Track Start*
G54D40*
G01X-1901725Y738966D02*
G01X-1946464Y738966D01*
G01X-1993976Y639816D02*
G01X-1952679Y639816D01*
G01X-1933513Y658981D01*
G01X-1901725Y658981D01*
G01X-1993976Y688127D02*
G01X-1989368Y688127D01*
G01X-1978534Y698961D01*
G01X-1901725Y698961D01*
G01X-2093523Y593971D02*
G01X-2069996Y617499D01*
G01X-2016293Y617499D01*
G01X-1993976Y639816D01*
G54D41*
G01X-1616229Y898961D02*
G01X-1666034Y898961D01*
G54D40*
G01X-697509Y545017D02*
G01X-807480Y545017D01*
G01X-828254Y524243D01*
G01X-834916Y524243D01*
G01X-854043Y-416224D02*
G01X-853266Y-415447D01*
G01X1450058Y34649D02*
G01X1323015Y34649D01*
G01X1320238Y31873D01*
G01X1233675Y31873D02*
G01X700647Y31873D01*
G01X697509Y35010D01*
G01X844998Y460844D02*
G01X844158Y460003D01*
G01X697509Y460003D01*
G01X843343Y804998D02*
G01X838352Y800007D01*
G01X843343Y707499D02*
G01X705030Y707499D01*
G01X697509Y715019D01*
G01X842654Y805687D02*
G01X843343Y804998D01*
G01X842654Y902411D02*
G01X842654Y805687D01*
G01X1146531Y942430D02*
G01X1146531Y848777D01*
G01X1146857Y848450D01*
G01X1146857Y768466D02*
G01X1145890Y767498D01*
G01X1059930Y767498D01*
G01X1432353Y808471D02*
G01X1480847Y808471D01*
G01X1527374Y854998D01*
G01X1622374Y854998D02*
G01X1527374Y854998D01*
G01X1574063Y949998D02*
G01X1622374Y949998D01*
G01X1526564Y902498D02*
G01X1574063Y949998D01*
G01X1432353Y848450D02*
G01X1444231Y848450D01*
G01X1498279Y902498D01*
G01X1526564Y902498D01*
G01X-1504929Y602499D02*
G01X-1537497Y602499D01*
G01X-1593980Y658981D01*
G01X-1616229Y658981D01*
G01X-1087498Y-544999D02*
G01X-1534997Y-544999D01*
G01X-1615004Y-464991D01*
G01X-1615004Y-417490D01*
G01X-854042Y-416225D02*
G01X-958724Y-416225D01*
G01X-1087498Y-544999D01*
G01X-834916Y475932D02*
G01X-835849Y474999D01*
G01X-897498Y474999D01*
G01X-1463462Y738966D02*
G01X-1616229Y738966D01*
G01X-1459929Y742499D02*
G01X-1463462Y738966D01*
G01X1539098Y755000D02*
G01X1525632Y768466D01*
G01X1432353Y768466D01*
G01X985780Y-727498D02*
G01X1122501Y-727498D01*
G54D42*
G01X-1901725Y898961D02*
G01X-1901725Y995837D01*
G01X-1900064Y997498D01*
G54D40*
G01X-1946464Y738966D02*
G01X-1989996Y782499D01*
G54D42*
G01X-1901725Y818976D02*
G01X-1946474Y818976D01*
G54D43*
G01X-697509Y630005D02*
G01X-832560Y630005D01*
G01X-834998Y627567D01*
G01X-837075Y625490D01*
G01X-944998Y625490D01*
G54D40*
G01X1012556Y688456D02*
G01X994099Y669999D01*
G01X1144357Y688456D02*
G01X1012556Y688456D01*
G01X922539Y636686D02*
G01X955852Y669999D01*
G01X994099Y669999D01*
G01X1144357Y808471D02*
G01X1099025Y808471D01*
G54D42*
G01X1432353Y688456D02*
G01X1486651Y688456D01*
G01X1500803Y702608D01*
G01X1429853Y648451D02*
G01X1547508Y648451D01*
G01X1552159Y643799D01*
G54D40*
G01X1669997Y664931D02*
G01X1669997Y854310D01*
G01X1670685Y854998D01*
G01X1879999Y854998D01*
G01X2214996Y1189995D01*
G01X1648029Y588099D02*
G01X1669997Y610067D01*
G54D42*
G01X1146857Y648451D02*
G01X1090950Y648451D01*
G01X1073450Y630951D01*
G01X-1616229Y858981D02*
G01X-1561014Y858981D01*
G01X-1539997Y879998D01*
G01X-697534Y120000D02*
G01X-762499Y120000D01*
G01X-782499Y140000D01*
G01X-697509Y35010D02*
G01X-784988Y35010D01*
G54D40*
G01X-1537497Y682499D02*
G01X-1553959Y698961D01*
G01X-1616229Y698961D01*
G01X-1616229Y818976D02*
G01X-1554494Y818976D01*
G01X-1537120Y801602D01*
G01X-1497183Y841539D01*
G01X-1463977Y841539D01*
G01X-1363861Y841539D01*
G01X-1344997Y822676D01*
G54D42*
G01X-1901725Y858981D02*
G01X-1938979Y858981D01*
G01X-1975175Y895177D01*
G01X-1975175Y915910D01*
G01X-1946474Y818976D02*
G01X-1973981Y846483D01*
G01X-2046011Y846483D01*
G54D40*
G01X-1993976Y688127D02*
G01X-2103968Y688127D01*
G01X-2105840Y689999D01*
G01X-2154151Y689999D02*
G01X-2162496Y698343D01*
G01X-2072496Y997498D02*
G01X-1954928Y997498D01*
G01X-2162496Y698343D02*
G01X-2162496Y907498D01*
G01X-2072496Y997498D01*
G01X-2114996Y1189995D02*
G01X-2114996Y1039998D01*
G01X-2072496Y997498D01*
G01X-2108340Y592499D02*
G01X-2106868Y593971D01*
G01X-2093523Y593971D01*
G54D44*
G01X2155848Y-704276D02*
G01X2155848Y-186647D01*
G01X2191155Y-151340D01*
G01X2229791Y-151340D01*
G01X2060852Y-454340D02*
G01X2060205Y-454987D01*
G01X1936993Y-454987D01*
G01X1827576Y-454987D01*
G54D42*
G01X-1945001Y-417490D02*
G01X-1945001Y-370004D01*
G01X-1724986Y-417490D02*
G01X-1724986Y-369989D01*
G54D40*
G01X838352Y800007D02*
G01X785231Y800007D01*
G01X697509Y800007D01*
G54D42*
G01X837498Y624999D02*
G01X837498Y622499D01*
G54D40*
G01X1002498Y198491D02*
G01X970066Y230923D01*
G01X970066Y317499D01*
G01X1004999Y198491D02*
G01X1002498Y198491D01*
G01X970066Y317499D02*
G01X972566Y319999D01*
G54D43*
G01X-944998Y625490D02*
G01X-1034998Y625490D01*
G54D44*
G01X1827496Y-455067D02*
G01X1827496Y-372567D01*
G54D40*
G01X-853266Y-415447D02*
G01X-853266Y-290059D01*
G54D45*
G01X1217498Y-502499D02*
G01X1217498Y-527499D01*
G01X2229791Y141159D02*
G01X2191155Y141159D01*
G01X1812497Y-237500D01*
G01X1482497Y-237499D01*
G01X1217498Y-502499D01*
G01X-2109996Y1332500D02*
G01X-2192493Y1332500D01*
G01X2214996Y1330000D02*
G01X2274993Y1330000D01*
G01X2332495Y1272498D01*
G01X2332495Y912498D01*
G01X-2192493Y1332500D02*
G01X-2322495Y1202498D01*
G01X-2322495Y907498D01*
G01X1338279Y-1305766D02*
G01X1338279Y-1178845D01*
G01X1339374Y-1177750D01*
G54D42*
G01X-697509Y-392483D02*
G01X-635015Y-392483D01*
G01X-617499Y-409999D01*
G01X-594999Y-409999D01*
G01X837498Y622499D02*
G01X897498Y562500D01*
G01X897498Y395067D01*
G01X972566Y319999D01*
G01X1754996Y402431D02*
G01X1157566Y402431D01*
G01X1085057Y474940D01*
G01X958398Y474940D01*
G01X697509Y-49978D02*
G01X667520Y-49978D01*
G54D43*
G01X-854998Y-294508D02*
G01X-881007Y-268499D01*
G01X-959998Y-268499D01*
G54D42*
G01X-697509Y-304993D02*
G01X-667501Y-304996D01*
G01X-612496Y-249999D01*
G01X267500Y-249999D01*
G01X-697509Y-134992D02*
G01X-670006Y-134992D01*
G01X-625418Y-179580D01*
G01X242919Y-179580D01*
G01X-697509Y-219981D02*
G01X261315Y-219981D01*
G01X267500Y-249999D02*
G01X459999Y-57500D01*
G01X567489Y-57500D01*
G01X577494Y-47495D01*
G01X261315Y-219981D02*
G01X477196Y-4100D01*
G01X512240Y-4100D01*
G01X242919Y-179580D02*
G01X454991Y32492D01*
G01X454991Y52507D01*
G01X-697509Y202512D02*
G01X-552512Y202512D01*
G54D40*
G01X1429853Y728461D02*
G01X1332105Y728461D01*
G01X1144357Y728461D02*
G01X1247105Y728461D01*
G54D41*
G01X-1901725Y778971D02*
G01X-1801476Y778971D01*
G01X-1616229Y778971D02*
G01X-1716477Y778971D01*
G01X-1666034Y898961D02*
G01X-1714486Y850509D01*
G01X-1718584Y850509D01*
G54D42*
G01X1821505Y529999D02*
G01X1821505Y521508D01*
G01X1754996Y454999D01*
G01X1754996Y402431D01*
G54D40*
G01X1429853Y608471D02*
G01X1459025Y608471D01*
G01X1479397Y588099D01*
G01X1648029Y588099D01*
G54D42*
G01X697509Y-219979D02*
G01X620019Y-219979D01*
G01X667520Y-49978D02*
G01X570000Y-147498D01*
G01X537498Y-147498D01*
G01X611117Y-311381D02*
G01X617504Y-304994D01*
G01X697509Y-304994D01*
G01X614999Y-389999D02*
G01X697493Y-389999D01*
G01X-1602497Y-247499D02*
G01X-1448390Y-247499D01*
G01X-1724986Y-369989D02*
G01X-1602497Y-247499D01*
G01X-1499996Y-412490D02*
G01X-1499996Y-309998D01*
G01X-1504997Y-417490D02*
G01X-1499996Y-412490D01*
G01X-1394990Y-417490D02*
G01X-1394990Y-302492D01*
G01X-1945001Y-370004D02*
G01X-1737497Y-162500D01*
G01X-1332497Y-162500D01*
G01X-1394990Y-302492D02*
G01X-1247757Y-155260D01*
G01X-1247757Y-154500D01*
G01X-697509Y-49978D02*
G01X-702509Y-44978D01*
G01X-957476Y-44978D01*
G54D43*
G01X231718Y-658812D02*
G01X231718Y-654999D01*
G01X172506Y-774983D02*
G01X172506Y-718024D01*
G01X231718Y-658812D01*
G01X-169218Y-654999D02*
G01X-127493Y-696723D01*
G01X-127493Y-774983D01*
G01X72481Y-774983D02*
G01X72481Y-577518D01*
G01X85000Y-564999D01*
G01X85000Y-500012D01*
G01X22494Y-584992D02*
G01X0Y-562499D01*
G01X0Y-500001D01*
G54D46*
G01X-242505Y-827493D02*
G01X-242505Y-774983D01*
G01X-85000Y-984998D02*
G01X-242505Y-827493D01*
G54D43*
G01X72481Y-774983D02*
G01X72481Y-845017D01*
G01X50000Y-867498D01*
G01X0Y-867498D01*
G01X-27519Y-839979D01*
G01X-27519Y-774983D01*
G01X-77506Y-774983D02*
G01X-77506Y-707505D01*
G01X19533Y-684999D02*
G01X22494Y-687959D01*
G01X22494Y-774983D02*
G01X22494Y-687959D01*
G01X22494Y-584992D01*
G01X-77506Y-707505D02*
G01X-55000Y-684999D01*
G01X19533Y-684999D01*
G54D46*
G01X237505Y-774983D02*
G01X237505Y-827493D01*
G01X175000Y-889998D01*
G01X175000Y-979408D02*
G01X169410Y-984998D01*
G01X-85000Y-984998D01*
G01X175000Y-889998D02*
G01X175000Y-979408D01*
G54D47*
G01X587499Y-1047418D02*
G01X243009Y-1047418D01*
G01X175000Y-979408D01*
G54D42*
G01X899217Y-727498D02*
G01X797498Y-727498D01*
G01X-254991Y-500001D02*
G01X-254991Y-415008D01*
G01X1570108Y-1177750D02*
G01X1602749Y-1177750D01*
G01X1637497Y-1212498D01*
G01X1637497Y-1242498D01*
G54D45*
G01X1339374Y-987758D02*
G01X1349997Y-977135D01*
G01X1349997Y-922498D01*
G01X2155848Y-704276D02*
G01X2140126Y-719999D01*
G01X1882496Y-719999D01*
G54D40*
G01X891654Y804998D02*
G01X916498Y829842D01*
G01X952758Y829842D01*
G01X1099025Y808471D02*
G01X1077654Y829842D01*
G01X952758Y829842D01*
G04 Track End*

M02*

