G04 Layer: TopSilkscreenLayer*
G04 EasyEDA Pro v2.2.40.8, 2025-08-10 13:50:58*
G04 Gerber Generator version 0.3*
G04 Scale: 100 percent, Rotated: No, Reflected: No*
G04 Dimensions in millimeters*
G04 Leading zeros omitted, absolute positions, 4 integers and 5 decimals*
G04 Generated by one-click*
%FSLAX45Y45*%
%MOMM*%
%ADD10C,0.1524*%
%ADD11C,0.1*%
%ADD12C,0.152*%
%ADD13C,0.15001*%
%ADD14C,0.254*%
%ADD15C,0.12499*%
%ADD16C,0.3*%
%ADD17C,0.4064*%
%ADD18C,0.4*%
G75*


G04 Text Start*
G54D10*
G01X-947754Y863578D02*
G01X-950294Y868912D01*
G01X-955628Y874246D01*
G01X-960962Y876786D01*
G01X-971376Y876786D01*
G01X-976710Y874246D01*
G01X-982044Y868912D01*
G01X-984838Y863578D01*
G01X-987378Y855704D01*
G01X-987378Y842242D01*
G01X-984838Y834368D01*
G01X-982044Y829034D01*
G01X-976710Y823700D01*
G01X-971376Y821160D01*
G01X-960962Y821160D01*
G01X-955628Y823700D01*
G01X-950294Y829034D01*
G01X-947754Y834368D01*
G01X-919814Y866118D02*
G01X-914480Y868912D01*
G01X-906606Y876786D01*
G01X-906606Y821160D01*
G54D11*
G01X-847152Y780371D02*
G01X-849438Y784689D01*
G01X-853756Y789007D01*
G01X-858074Y791293D01*
G01X-866964Y791293D01*
G01X-871282Y789007D01*
G01X-875600Y784689D01*
G01X-877886Y780371D01*
G01X-879918Y773767D01*
G01X-879918Y762845D01*
G01X-877886Y756241D01*
G01X-875600Y751923D01*
G01X-871282Y747605D01*
G01X-866964Y745319D01*
G01X-858074Y745319D01*
G01X-853756Y747605D01*
G01X-849438Y751923D01*
G01X-847152Y756241D01*
G01X-824546Y780371D02*
G01X-824546Y782403D01*
G01X-822260Y786975D01*
G01X-819974Y789007D01*
G01X-815656Y791293D01*
G01X-807020Y791293D01*
G01X-802702Y789007D01*
G01X-800416Y786975D01*
G01X-798130Y782403D01*
G01X-798130Y778085D01*
G01X-800416Y773767D01*
G01X-804734Y767163D01*
G01X-826578Y745319D01*
G01X-796098Y745319D01*
G54D10*
G01X871099Y1283934D02*
G01X868051Y1290284D01*
G01X861701Y1296380D01*
G01X855605Y1299428D01*
G01X843159Y1299428D01*
G01X837063Y1296380D01*
G01X830713Y1290284D01*
G01X827665Y1283934D01*
G01X824617Y1274790D01*
G01X824617Y1259296D01*
G01X827665Y1249898D01*
G01X830713Y1243802D01*
G01X837063Y1237452D01*
G01X843159Y1234404D01*
G01X855605Y1234404D01*
G01X861701Y1237452D01*
G01X868051Y1243802D01*
G01X871099Y1249898D01*
G01X907421Y1299428D02*
G01X941457Y1299428D01*
G01X922915Y1274790D01*
G01X932059Y1274790D01*
G01X938409Y1271742D01*
G01X941457Y1268440D01*
G01X944505Y1259296D01*
G01X944505Y1252946D01*
G01X941457Y1243802D01*
G01X935361Y1237452D01*
G01X925963Y1234404D01*
G01X916565Y1234404D01*
G01X907421Y1237452D01*
G01X904373Y1240754D01*
G01X901325Y1246850D01*
G54D11*
G01X704743Y-968908D02*
G01X701949Y-963066D01*
G01X696361Y-957478D01*
G01X690519Y-954684D01*
G01X679343Y-954684D01*
G01X673755Y-957478D01*
G01X668167Y-963066D01*
G01X665373Y-968908D01*
G01X662579Y-977290D01*
G01X662579Y-991260D01*
G01X665373Y-999642D01*
G01X668167Y-1005484D01*
G01X673755Y-1011072D01*
G01X679343Y-1013866D01*
G01X690519Y-1013866D01*
G01X696361Y-1011072D01*
G01X701949Y-1005484D01*
G01X704743Y-999642D01*
G01X756305Y-954684D02*
G01X728365Y-994054D01*
G01X770529Y-994054D01*
G01X756305Y-954684D02*
G01X756305Y-1013866D01*
G01X577243Y-1272901D02*
G01X574449Y-1267059D01*
G01X568861Y-1261471D01*
G01X563019Y-1258677D01*
G01X551843Y-1258677D01*
G01X546255Y-1261471D01*
G01X540667Y-1267059D01*
G01X537873Y-1272901D01*
G01X535079Y-1281283D01*
G01X535079Y-1295253D01*
G01X537873Y-1303635D01*
G01X540667Y-1309477D01*
G01X546255Y-1315065D01*
G01X551843Y-1317859D01*
G01X563019Y-1317859D01*
G01X568861Y-1315065D01*
G01X574449Y-1309477D01*
G01X577243Y-1303635D01*
G01X634393Y-1258677D02*
G01X606453Y-1258677D01*
G01X603659Y-1284077D01*
G01X606453Y-1281283D01*
G01X614835Y-1278489D01*
G01X623217Y-1278489D01*
G01X631599Y-1281283D01*
G01X637187Y-1286871D01*
G01X640235Y-1295253D01*
G01X640235Y-1300841D01*
G01X637187Y-1309477D01*
G01X631599Y-1315065D01*
G01X623217Y-1317859D01*
G01X614835Y-1317859D01*
G01X606453Y-1315065D01*
G01X603659Y-1312271D01*
G01X600865Y-1306683D01*
G54D10*
G01X964100Y428739D02*
G01X961052Y435089D01*
G01X954702Y441185D01*
G01X948606Y444233D01*
G01X936160Y444233D01*
G01X930064Y441185D01*
G01X923714Y435089D01*
G01X920666Y428739D01*
G01X917618Y419595D01*
G01X917618Y404101D01*
G01X920666Y394703D01*
G01X923714Y388607D01*
G01X930064Y382257D01*
G01X936160Y379209D01*
G01X948606Y379209D01*
G01X954702Y382257D01*
G01X961052Y388607D01*
G01X964100Y394703D01*
G01X1037506Y444233D02*
G01X1006518Y379209D01*
G01X994326Y444233D02*
G01X1037506Y444233D01*
G01X2281598Y-916258D02*
G01X2278550Y-909908D01*
G01X2272200Y-903812D01*
G01X2266104Y-900764D01*
G01X2253658Y-900764D01*
G01X2247562Y-903812D01*
G01X2241212Y-909908D01*
G01X2238164Y-916258D01*
G01X2235116Y-925402D01*
G01X2235116Y-940896D01*
G01X2238164Y-950294D01*
G01X2241212Y-956390D01*
G01X2247562Y-962740D01*
G01X2253658Y-965788D01*
G01X2266104Y-965788D01*
G01X2272200Y-962740D01*
G01X2278550Y-956390D01*
G01X2281598Y-950294D01*
G01X2327064Y-900764D02*
G01X2317920Y-903812D01*
G01X2314872Y-909908D01*
G01X2314872Y-916258D01*
G01X2317920Y-922354D01*
G01X2324016Y-925402D01*
G01X2336462Y-928450D01*
G01X2345860Y-931752D01*
G01X2351956Y-937848D01*
G01X2355004Y-943944D01*
G01X2355004Y-953342D01*
G01X2351956Y-959438D01*
G01X2348908Y-962740D01*
G01X2339510Y-965788D01*
G01X2327064Y-965788D01*
G01X2317920Y-962740D01*
G01X2314872Y-959438D01*
G01X2311824Y-953342D01*
G01X2311824Y-943944D01*
G01X2314872Y-937848D01*
G01X2320968Y-931752D01*
G01X2330366Y-928450D01*
G01X2342558Y-925402D01*
G01X2348908Y-922354D01*
G01X2351956Y-916258D01*
G01X2351956Y-909908D01*
G01X2348908Y-903812D01*
G01X2339510Y-900764D01*
G01X2327064Y-900764D01*
G01X2261598Y-803758D02*
G01X2258550Y-797408D01*
G01X2252200Y-791312D01*
G01X2246104Y-788264D01*
G01X2233658Y-788264D01*
G01X2227562Y-791312D01*
G01X2221212Y-797408D01*
G01X2218164Y-803758D01*
G01X2215116Y-812902D01*
G01X2215116Y-828396D01*
G01X2218164Y-837794D01*
G01X2221212Y-843890D01*
G01X2227562Y-850240D01*
G01X2233658Y-853288D01*
G01X2246104Y-853288D01*
G01X2252200Y-850240D01*
G01X2258550Y-843890D01*
G01X2261598Y-837794D01*
G01X2331956Y-809854D02*
G01X2328908Y-819252D01*
G01X2322558Y-825348D01*
G01X2313414Y-828396D01*
G01X2310366Y-828396D01*
G01X2300968Y-825348D01*
G01X2294872Y-819252D01*
G01X2291824Y-809854D01*
G01X2291824Y-806806D01*
G01X2294872Y-797408D01*
G01X2300968Y-791312D01*
G01X2310366Y-788264D01*
G01X2313414Y-788264D01*
G01X2322558Y-791312D01*
G01X2328908Y-797408D01*
G01X2331956Y-809854D01*
G01X2331956Y-825348D01*
G01X2328908Y-840842D01*
G01X2322558Y-850240D01*
G01X2313414Y-853288D01*
G01X2307064Y-853288D01*
G01X2297920Y-850240D01*
G01X2294872Y-843890D01*
G01X1662241Y-463919D02*
G01X1659701Y-458585D01*
G01X1654367Y-453251D01*
G01X1649033Y-450711D01*
G01X1638619Y-450711D01*
G01X1633285Y-453251D01*
G01X1627951Y-458585D01*
G01X1625157Y-463919D01*
G01X1622617Y-471793D01*
G01X1622617Y-485255D01*
G01X1625157Y-493129D01*
G01X1627951Y-498463D01*
G01X1633285Y-503797D01*
G01X1638619Y-506337D01*
G01X1649033Y-506337D01*
G01X1654367Y-503797D01*
G01X1659701Y-498463D01*
G01X1662241Y-493129D01*
G01X1690181Y-461379D02*
G01X1695515Y-458585D01*
G01X1703389Y-450711D01*
G01X1703389Y-506337D01*
G01X1747331Y-450711D02*
G01X1739203Y-453251D01*
G01X1733869Y-461379D01*
G01X1731329Y-474587D01*
G01X1731329Y-482461D01*
G01X1733869Y-495669D01*
G01X1739203Y-503797D01*
G01X1747331Y-506337D01*
G01X1752411Y-506337D01*
G01X1760539Y-503797D01*
G01X1765873Y-495669D01*
G01X1768413Y-482461D01*
G01X1768413Y-474587D01*
G01X1765873Y-461379D01*
G01X1760539Y-453251D01*
G01X1752411Y-450711D01*
G01X1747331Y-450711D01*
G01X1909740Y-328919D02*
G01X1907200Y-323585D01*
G01X1901866Y-318251D01*
G01X1896532Y-315711D01*
G01X1886118Y-315711D01*
G01X1880784Y-318251D01*
G01X1875450Y-323585D01*
G01X1872656Y-328919D01*
G01X1870116Y-336793D01*
G01X1870116Y-350255D01*
G01X1872656Y-358129D01*
G01X1875450Y-363463D01*
G01X1880784Y-368797D01*
G01X1886118Y-371337D01*
G01X1896532Y-371337D01*
G01X1901866Y-368797D01*
G01X1907200Y-363463D01*
G01X1909740Y-358129D01*
G01X1937680Y-326379D02*
G01X1943014Y-323585D01*
G01X1950888Y-315711D01*
G01X1950888Y-371337D01*
G01X1978828Y-326379D02*
G01X1984162Y-323585D01*
G01X1992036Y-315711D01*
G01X1992036Y-371337D01*
G01X1743097Y-1075896D02*
G01X1741065Y-1071832D01*
G01X1737001Y-1067768D01*
G01X1732937Y-1065736D01*
G01X1724809Y-1065736D01*
G01X1720745Y-1067768D01*
G01X1716681Y-1071832D01*
G01X1714649Y-1075896D01*
G01X1712617Y-1081992D01*
G01X1712617Y-1091898D01*
G01X1714649Y-1097994D01*
G01X1716681Y-1102058D01*
G01X1720745Y-1106122D01*
G01X1724809Y-1108154D01*
G01X1732937Y-1108154D01*
G01X1737001Y-1106122D01*
G01X1741065Y-1102058D01*
G01X1743097Y-1097994D01*
G01X1767989Y-1073864D02*
G01X1772053Y-1071832D01*
G01X1778149Y-1065736D01*
G01X1778149Y-1108154D01*
G01X1805073Y-1075896D02*
G01X1805073Y-1073864D01*
G01X1807105Y-1069800D01*
G01X1809137Y-1067768D01*
G01X1813201Y-1065736D01*
G01X1821329Y-1065736D01*
G01X1825393Y-1067768D01*
G01X1827425Y-1069800D01*
G01X1829457Y-1073864D01*
G01X1829457Y-1077928D01*
G01X1827425Y-1081992D01*
G01X1823361Y-1088088D01*
G01X1803041Y-1108154D01*
G01X1831489Y-1108154D01*
G01X1099100Y-853758D02*
G01X1096052Y-847408D01*
G01X1089702Y-841312D01*
G01X1083606Y-838264D01*
G01X1071160Y-838264D01*
G01X1065064Y-841312D01*
G01X1058714Y-847408D01*
G01X1055666Y-853758D01*
G01X1052618Y-862902D01*
G01X1052618Y-878396D01*
G01X1055666Y-887794D01*
G01X1058714Y-893890D01*
G01X1065064Y-900240D01*
G01X1071160Y-903288D01*
G01X1083606Y-903288D01*
G01X1089702Y-900240D01*
G01X1096052Y-893890D01*
G01X1099100Y-887794D01*
G01X1129326Y-850710D02*
G01X1135422Y-847408D01*
G01X1144566Y-838264D01*
G01X1144566Y-903288D01*
G01X1180888Y-838264D02*
G01X1214924Y-838264D01*
G01X1196382Y-862902D01*
G01X1205526Y-862902D01*
G01X1211876Y-865950D01*
G01X1214924Y-869252D01*
G01X1217972Y-878396D01*
G01X1217972Y-884746D01*
G01X1214924Y-893890D01*
G01X1208828Y-900240D01*
G01X1199430Y-903288D01*
G01X1190032Y-903288D01*
G01X1180888Y-900240D01*
G01X1177840Y-896938D01*
G01X1174792Y-890842D01*
G01X-1008738Y-490897D02*
G01X-1015088Y-493945D01*
G01X-1021184Y-500295D01*
G01X-1024232Y-506391D01*
G01X-1024232Y-518837D01*
G01X-1021184Y-524933D01*
G01X-1015088Y-531283D01*
G01X-1008738Y-534331D01*
G01X-999594Y-537379D01*
G01X-984100Y-537379D01*
G01X-974702Y-534331D01*
G01X-968606Y-531283D01*
G01X-962256Y-524933D01*
G01X-959208Y-518837D01*
G01X-959208Y-506391D01*
G01X-962256Y-500295D01*
G01X-968606Y-493945D01*
G01X-974702Y-490897D01*
G01X-1011786Y-460671D02*
G01X-1015088Y-454575D01*
G01X-1024232Y-445431D01*
G01X-959208Y-445431D01*
G01X-1024232Y-384471D02*
G01X-981052Y-415205D01*
G01X-981052Y-368977D01*
G01X-1024232Y-384471D02*
G01X-959208Y-384471D01*
G01X-1530895Y1003738D02*
G01X-1533943Y1010088D01*
G01X-1540293Y1016184D01*
G01X-1546389Y1019232D01*
G01X-1558835Y1019232D01*
G01X-1564931Y1016184D01*
G01X-1571281Y1010088D01*
G01X-1574329Y1003738D01*
G01X-1577377Y994594D01*
G01X-1577377Y979100D01*
G01X-1574329Y969702D01*
G01X-1571281Y963606D01*
G01X-1564931Y957256D01*
G01X-1558835Y954208D01*
G01X-1546389Y954208D01*
G01X-1540293Y957256D01*
G01X-1533943Y963606D01*
G01X-1530895Y969702D01*
G01X-1500669Y1006786D02*
G01X-1494573Y1010088D01*
G01X-1485429Y1019232D01*
G01X-1485429Y954208D01*
G01X-1418119Y1019232D02*
G01X-1449107Y1019232D01*
G01X-1452155Y991546D01*
G01X-1449107Y994594D01*
G01X-1439963Y997642D01*
G01X-1430565Y997642D01*
G01X-1421167Y994594D01*
G01X-1415071Y988244D01*
G01X-1412023Y979100D01*
G01X-1412023Y972750D01*
G01X-1415071Y963606D01*
G01X-1421167Y957256D01*
G01X-1430565Y954208D01*
G01X-1439963Y954208D01*
G01X-1449107Y957256D01*
G01X-1452155Y960558D01*
G01X-1455203Y966654D01*
G01X-1315253Y758579D02*
G01X-1317793Y763913D01*
G01X-1323127Y769247D01*
G01X-1328461Y771787D01*
G01X-1338875Y771787D01*
G01X-1344209Y769247D01*
G01X-1349543Y763913D01*
G01X-1352337Y758579D01*
G01X-1354877Y750705D01*
G01X-1354877Y737243D01*
G01X-1352337Y729369D01*
G01X-1349543Y724035D01*
G01X-1344209Y718701D01*
G01X-1338875Y716161D01*
G01X-1328461Y716161D01*
G01X-1323127Y718701D01*
G01X-1317793Y724035D01*
G01X-1315253Y729369D01*
G01X-1287313Y761119D02*
G01X-1281979Y763913D01*
G01X-1274105Y771787D01*
G01X-1274105Y716161D01*
G01X-1214415Y763913D02*
G01X-1216955Y769247D01*
G01X-1225083Y771787D01*
G01X-1230163Y771787D01*
G01X-1238291Y769247D01*
G01X-1243625Y761119D01*
G01X-1246165Y747911D01*
G01X-1246165Y734703D01*
G01X-1243625Y724035D01*
G01X-1238291Y718701D01*
G01X-1230163Y716161D01*
G01X-1227623Y716161D01*
G01X-1219749Y718701D01*
G01X-1214415Y724035D01*
G01X-1211621Y732163D01*
G01X-1211621Y734703D01*
G01X-1214415Y742577D01*
G01X-1219749Y747911D01*
G01X-1227623Y750705D01*
G01X-1230163Y750705D01*
G01X-1238291Y747911D01*
G01X-1243625Y742577D01*
G01X-1246165Y734703D01*
G01X-1333395Y623739D02*
G01X-1336443Y630089D01*
G01X-1342793Y636185D01*
G01X-1348889Y639233D01*
G01X-1361335Y639233D01*
G01X-1367431Y636185D01*
G01X-1373781Y630089D01*
G01X-1376829Y623739D01*
G01X-1379877Y614595D01*
G01X-1379877Y599101D01*
G01X-1376829Y589703D01*
G01X-1373781Y583607D01*
G01X-1367431Y577257D01*
G01X-1361335Y574209D01*
G01X-1348889Y574209D01*
G01X-1342793Y577257D01*
G01X-1336443Y583607D01*
G01X-1333395Y589703D01*
G01X-1303169Y626787D02*
G01X-1297073Y630089D01*
G01X-1287929Y639233D01*
G01X-1287929Y574209D01*
G01X-1214523Y639233D02*
G01X-1245511Y574209D01*
G01X-1257703Y639233D02*
G01X-1214523Y639233D01*
G01X-2211271Y797106D02*
G01X-2213811Y802440D01*
G01X-2219145Y807774D01*
G01X-2224479Y810314D01*
G01X-2234893Y810314D01*
G01X-2240227Y807774D01*
G01X-2245561Y802440D01*
G01X-2248355Y797106D01*
G01X-2250895Y789232D01*
G01X-2250895Y775770D01*
G01X-2248355Y767896D01*
G01X-2245561Y762562D01*
G01X-2240227Y757228D01*
G01X-2234893Y754688D01*
G01X-2224479Y754688D01*
G01X-2219145Y757228D01*
G01X-2213811Y762562D01*
G01X-2211271Y767896D01*
G01X-2183331Y799646D02*
G01X-2177997Y802440D01*
G01X-2170123Y810314D01*
G01X-2170123Y754688D01*
G01X-2128975Y810314D02*
G01X-2136849Y807774D01*
G01X-2139643Y802440D01*
G01X-2139643Y797106D01*
G01X-2136849Y791772D01*
G01X-2131515Y789232D01*
G01X-2121101Y786438D01*
G01X-2112973Y783898D01*
G01X-2107639Y778564D01*
G01X-2105099Y773230D01*
G01X-2105099Y765356D01*
G01X-2107639Y760022D01*
G01X-2110433Y757228D01*
G01X-2118307Y754688D01*
G01X-2128975Y754688D01*
G01X-2136849Y757228D01*
G01X-2139643Y760022D01*
G01X-2142183Y765356D01*
G01X-2142183Y773230D01*
G01X-2139643Y778564D01*
G01X-2134309Y783898D01*
G01X-2126181Y786438D01*
G01X-2115767Y789232D01*
G01X-2110433Y791772D01*
G01X-2107639Y797106D01*
G01X-2107639Y802440D01*
G01X-2110433Y807774D01*
G01X-2118307Y810314D01*
G01X-2128975Y810314D01*
G01X-1960252Y1101078D02*
G01X-1962792Y1106412D01*
G01X-1968126Y1111746D01*
G01X-1973460Y1114286D01*
G01X-1983874Y1114286D01*
G01X-1989208Y1111746D01*
G01X-1994542Y1106412D01*
G01X-1997336Y1101078D01*
G01X-1999876Y1093204D01*
G01X-1999876Y1079742D01*
G01X-1997336Y1071868D01*
G01X-1994542Y1066534D01*
G01X-1989208Y1061200D01*
G01X-1983874Y1058660D01*
G01X-1973460Y1058660D01*
G01X-1968126Y1061200D01*
G01X-1962792Y1066534D01*
G01X-1960252Y1071868D01*
G01X-1932312Y1103618D02*
G01X-1926978Y1106412D01*
G01X-1919104Y1114286D01*
G01X-1919104Y1058660D01*
G01X-1856620Y1095744D02*
G01X-1859414Y1087870D01*
G01X-1864748Y1082536D01*
G01X-1872622Y1079742D01*
G01X-1875162Y1079742D01*
G01X-1883290Y1082536D01*
G01X-1888624Y1087870D01*
G01X-1891164Y1095744D01*
G01X-1891164Y1098284D01*
G01X-1888624Y1106412D01*
G01X-1883290Y1111746D01*
G01X-1875162Y1114286D01*
G01X-1872622Y1114286D01*
G01X-1864748Y1111746D01*
G01X-1859414Y1106412D01*
G01X-1856620Y1095744D01*
G01X-1856620Y1082536D01*
G01X-1859414Y1069328D01*
G01X-1864748Y1061200D01*
G01X-1872622Y1058660D01*
G01X-1877956Y1058660D01*
G01X-1885830Y1061200D01*
G01X-1888624Y1066534D01*
G01X-1010470Y-285346D02*
G01X-1016820Y-288394D01*
G01X-1022916Y-294744D01*
G01X-1025964Y-300840D01*
G01X-1025964Y-313286D01*
G01X-1022916Y-319382D01*
G01X-1016820Y-325732D01*
G01X-1010470Y-328780D01*
G01X-1001326Y-331828D01*
G01X-985832Y-331828D01*
G01X-976434Y-328780D01*
G01X-970338Y-325732D01*
G01X-963988Y-319382D01*
G01X-960940Y-313286D01*
G01X-960940Y-300840D01*
G01X-963988Y-294744D01*
G01X-970338Y-288394D01*
G01X-976434Y-285346D01*
G01X-1010470Y-252072D02*
G01X-1013518Y-252072D01*
G01X-1019868Y-249024D01*
G01X-1022916Y-245976D01*
G01X-1025964Y-239880D01*
G01X-1025964Y-227434D01*
G01X-1022916Y-221084D01*
G01X-1019868Y-218036D01*
G01X-1013518Y-214988D01*
G01X-1007422Y-214988D01*
G01X-1001326Y-218036D01*
G01X-991928Y-224386D01*
G01X-960940Y-255120D01*
G01X-960940Y-211940D01*
G01X-1025964Y-163172D02*
G01X-1022916Y-172570D01*
G01X-1013518Y-178666D01*
G01X-998278Y-181714D01*
G01X-988880Y-181714D01*
G01X-973386Y-178666D01*
G01X-963988Y-172570D01*
G01X-960940Y-163172D01*
G01X-960940Y-157076D01*
G01X-963988Y-147678D01*
G01X-973386Y-141582D01*
G01X-988880Y-138534D01*
G01X-998278Y-138534D01*
G01X-1013518Y-141582D01*
G01X-1022916Y-147678D01*
G01X-1025964Y-157076D01*
G01X-1025964Y-163172D01*
G01X1402617Y201734D02*
G01X1402617Y136710D01*
G01X1402617Y136710D02*
G01X1439701Y136710D01*
G01X1469927Y201734D02*
G01X1469927Y136710D01*
G01X1469927Y201734D02*
G01X1510059Y201734D01*
G01X1469927Y170746D02*
G01X1494565Y170746D01*
G01X1469927Y136710D02*
G01X1510059Y136710D01*
G01X1540285Y201734D02*
G01X1540285Y136710D01*
G01X1540285Y201734D02*
G01X1561875Y201734D01*
G01X1571019Y198686D01*
G01X1577369Y192590D01*
G01X1580417Y186240D01*
G01X1583465Y177096D01*
G01X1583465Y161602D01*
G01X1580417Y152204D01*
G01X1577369Y146108D01*
G01X1571019Y139758D01*
G01X1561875Y136710D01*
G01X1540285Y136710D01*
G01X1613691Y189288D02*
G01X1619787Y192590D01*
G01X1628931Y201734D01*
G01X1628931Y136710D01*
G36*
G01X1497876Y-147064D02*
G01X1495451Y-146891D01*
G01X1494585Y-146545D01*
G01X1493373Y-146025D01*
G01X1491988Y-145159D01*
G01X1490775Y-144120D01*
G01X1489909Y-143254D01*
G01X1488870Y-142042D01*
G01X1487831Y-140483D01*
G01X1486965Y-138925D01*
G01X1485580Y-136154D01*
G01X1484887Y-134249D01*
G01X1484368Y-132344D01*
G01X1484021Y-130958D01*
G01X1483675Y-129226D01*
G01X1483329Y-127148D01*
G01X1482982Y-125416D01*
G01X1482636Y-122992D01*
G01X1482463Y-120221D01*
G01X1482289Y-118489D01*
G01X1482116Y-110350D01*
G01X1482289Y-102210D01*
G01X1482636Y-98054D01*
G01X1483329Y-94244D01*
G01X1483675Y-91819D01*
G01X1484368Y-89395D01*
G01X1484887Y-87836D01*
G01X1485580Y-85931D01*
G01X1486273Y-84372D01*
G01X1487139Y-82814D01*
G01X1488178Y-81082D01*
G01X1489216Y-79870D01*
G01X1489909Y-79004D01*
G01X1490775Y-78138D01*
G01X1491814Y-77272D01*
G01X1492854Y-76579D01*
G01X1494066Y-76060D01*
G01X1495278Y-75713D01*
G01X1496490Y-75540D01*
G01X1499261Y-75367D01*
G01X1502032Y-75540D01*
G01X1503591Y-76060D01*
G01X1504976Y-76752D01*
G01X1506189Y-77618D01*
G01X1507401Y-78657D01*
G01X1508094Y-79523D01*
G01X1508959Y-80735D01*
G01X1509999Y-82467D01*
G01X1510691Y-84026D01*
G01X1511211Y-85238D01*
G01X1511730Y-86797D01*
G01X1512769Y-90260D01*
G01X1513116Y-91819D01*
G01X1513289Y-93031D01*
G01X1513635Y-94417D01*
G01X1513981Y-96149D01*
G01X1514155Y-97707D01*
G01X1514501Y-101517D01*
G01X1514674Y-111908D01*
G01X1514501Y-122299D01*
G01X1514155Y-126455D01*
G01X1513981Y-127668D01*
G01X1513635Y-129053D01*
G01X1513289Y-130612D01*
G01X1513116Y-131997D01*
G01X1512769Y-133383D01*
G01X1511730Y-136500D01*
G01X1511211Y-137885D01*
G01X1510518Y-139271D01*
G01X1509825Y-140483D01*
G01X1509133Y-141522D01*
G01X1508266Y-142561D01*
G01X1506535Y-144293D01*
G01X1505669Y-144986D01*
G01X1504456Y-145679D01*
G01X1503071Y-146371D01*
G01X1501339Y-146891D01*
G01X1497876Y-147064D01*
G37*
G36*
G01X1641097Y-167500D02*
G01X1412497Y-167500D01*
G01X1412497Y-148623D01*
G01X1422888Y-148623D01*
G01X1427391Y-149012D01*
G01X1440899Y-149142D01*
G01X1458910Y-149142D01*
G01X1458910Y-147930D01*
G01X1458693Y-146978D01*
G01X1458044Y-146545D01*
G01X1451983Y-146371D01*
G01X1446268Y-146025D01*
G01X1445229Y-144986D01*
G01X1444536Y-142735D01*
G01X1444370Y-111389D01*
G01X1473457Y-111389D01*
G01X1473630Y-116411D01*
G01X1473976Y-120914D01*
G01X1474150Y-122126D01*
G01X1474843Y-124897D01*
G01X1475016Y-126109D01*
G01X1475709Y-128534D01*
G01X1476228Y-130265D01*
G01X1476921Y-131997D01*
G01X1477960Y-134422D01*
G01X1478653Y-135807D01*
G01X1479519Y-137366D01*
G01X1480558Y-138925D01*
G01X1481770Y-140656D01*
G01X1482809Y-142042D01*
G01X1486273Y-145505D01*
G01X1487139Y-146198D01*
G01X1488004Y-146718D01*
G01X1489044Y-147410D01*
G01X1490256Y-148103D01*
G01X1491468Y-148623D01*
G01X1492854Y-149142D01*
G01X1494239Y-149489D01*
G01X1495451Y-149662D01*
G01X1495451Y-149662D01*
G01X1496490Y-150008D01*
G01X1499088Y-150181D01*
G01X1501686Y-150008D01*
G01X1503244Y-149662D01*
G01X1504976Y-149142D01*
G01X1506535Y-148450D01*
G01X1508266Y-147584D01*
G01X1509479Y-146718D01*
G01X1510345Y-146025D01*
G01X1511730Y-144986D01*
G01X1513809Y-142908D01*
G01X1515886Y-140310D01*
G01X1516406Y-139444D01*
G01X1517099Y-138405D01*
G01X1517791Y-137193D01*
G01X1519177Y-134422D01*
G01X1520216Y-131997D01*
G01X1520736Y-130439D01*
G01X1521255Y-128707D01*
G01X1522294Y-124550D01*
G01X1522398Y-124031D01*
G01X1530607Y-124031D01*
G01X1530607Y-125416D01*
G01X1531819Y-126109D01*
G01X1546194Y-126282D01*
G01X1560048Y-126109D01*
G01X1560308Y-128101D01*
G01X1560394Y-134422D01*
G01X1560264Y-141003D01*
G01X1559875Y-143774D01*
G01X1559009Y-144986D01*
G01X1557624Y-145679D01*
G01X1555719Y-146198D01*
G01X1552081Y-146371D01*
G01X1549311Y-146371D01*
G01X1549138Y-147237D01*
G01X1549138Y-147237D01*
G01X1548964Y-148623D01*
G01X1552644Y-149012D01*
G01X1563685Y-149142D01*
G01X1578405Y-149142D01*
G01X1578579Y-148276D01*
G01X1578405Y-146891D01*
G01X1577409Y-146501D01*
G01X1575115Y-146371D01*
G01X1571651Y-146025D01*
G01X1570266Y-145505D01*
G01X1569530Y-145202D01*
G01X1569054Y-144640D01*
G01X1568361Y-143600D01*
G01X1568014Y-142561D01*
G01X1567841Y-141349D01*
G01X1567668Y-133556D01*
G01X1567798Y-128057D01*
G01X1568188Y-126109D01*
G01X1569226Y-126109D01*
G01X1574422Y-126282D01*
G01X1578016Y-126152D01*
G01X1579444Y-125763D01*
G01X1579791Y-124377D01*
G01X1579574Y-123685D01*
G01X1578925Y-123338D01*
G01X1572864Y-123165D01*
G01X1567668Y-123165D01*
G01X1567668Y-111562D01*
G01X1589143Y-111562D01*
G01X1589316Y-117796D01*
G01X1589662Y-122299D01*
G01X1590009Y-123685D01*
G01X1590355Y-125763D01*
G01X1590874Y-128187D01*
G01X1591567Y-130439D01*
G01X1592086Y-132170D01*
G01X1592606Y-133556D01*
G01X1593299Y-135288D01*
G01X1593991Y-136846D01*
G01X1595724Y-139617D01*
G01X1597109Y-141695D01*
G01X1598494Y-143427D01*
G01X1600226Y-145159D01*
G01X1601092Y-145852D01*
G01X1601958Y-146371D01*
G01X1603170Y-147237D01*
G01X1604556Y-148103D01*
G01X1606980Y-149142D01*
G01X1608193Y-149489D01*
G01X1609405Y-149662D01*
G01X1609405Y-149662D01*
G01X1610444Y-150008D01*
G01X1612695Y-150181D01*
G01X1614946Y-150008D01*
G01X1616505Y-149662D01*
G01X1618237Y-149142D01*
G01X1619796Y-148450D01*
G01X1621528Y-147410D01*
G01X1622913Y-146371D01*
G01X1625511Y-143774D01*
G01X1626896Y-142042D01*
G01X1627762Y-140830D01*
G01X1628801Y-139271D01*
G01X1631053Y-134768D01*
G01X1631745Y-133036D01*
G01X1632438Y-130958D01*
G01X1633131Y-128707D01*
G01X1633650Y-126109D01*
G01X1634170Y-123858D01*
G01X1634516Y-121780D01*
G01X1634689Y-119875D01*
G01X1635036Y-114679D01*
G01X1635209Y-110176D01*
G01X1635036Y-105674D01*
G01X1634689Y-100825D01*
G01X1634516Y-99266D01*
G01X1634170Y-97534D01*
G01X1633824Y-95975D01*
G01X1633650Y-94590D01*
G01X1633304Y-93205D01*
G01X1632784Y-91646D01*
G01X1632265Y-89914D01*
G01X1631745Y-88355D01*
G01X1630706Y-85931D01*
G01X1629321Y-83160D01*
G01X1628628Y-82121D01*
G01X1626896Y-79696D01*
G01X1625511Y-77965D01*
G01X1624645Y-77099D01*
G01X1622047Y-75020D01*
G01X1619623Y-73635D01*
G01X1618410Y-73115D01*
G01X1617025Y-72596D01*
G01X1615639Y-72250D01*
G01X1614254Y-72076D01*
G01X1611656Y-71903D01*
G01X1609059Y-72076D01*
G01X1607846Y-72423D01*
G01X1605075Y-73462D01*
G01X1604036Y-73981D01*
G01X1603170Y-74501D01*
G01X1600573Y-76579D01*
G01X1598841Y-78311D01*
G01X1597455Y-80043D01*
G01X1596416Y-81428D01*
G01X1595377Y-83160D01*
G01X1594684Y-84372D01*
G01X1593299Y-87143D01*
G01X1592779Y-88355D01*
G01X1591740Y-91473D01*
G01X1591221Y-93205D01*
G01X1590701Y-95283D01*
G01X1590355Y-97361D01*
G01X1590009Y-99266D01*
G01X1589662Y-100825D01*
G01X1589316Y-105327D01*
G01X1589143Y-111562D01*
G01X1567668Y-111562D01*
G01X1567668Y-71903D01*
G01X1565416Y-71903D01*
G01X1563642Y-72076D01*
G01X1562819Y-72596D01*
G01X1561087Y-75367D01*
G01X1560394Y-76579D01*
G01X1559009Y-78657D01*
G01X1558143Y-80043D01*
G01X1557104Y-81775D01*
G01X1556065Y-83333D01*
G01X1555199Y-84892D01*
G01X1554333Y-86104D01*
G01X1553640Y-87143D01*
G01X1553121Y-88182D01*
G01X1551735Y-90260D01*
G01X1550350Y-92685D01*
G01X1549657Y-93551D01*
G01X1548964Y-94590D01*
G01X1548271Y-95802D01*
G01X1547406Y-97188D01*
G01X1546366Y-98746D01*
G01X1545328Y-100478D01*
G01X1544461Y-101864D01*
G01X1543769Y-102903D01*
G01X1542903Y-104288D01*
G01X1541864Y-106020D01*
G01X1540825Y-107579D01*
G01X1538227Y-111735D01*
G01X1537534Y-112947D01*
G01X1536149Y-115025D01*
G01X1534417Y-117796D01*
G01X1533724Y-118835D01*
G01X1532859Y-120221D01*
G01X1531993Y-121780D01*
G01X1531300Y-122819D01*
G01X1530607Y-124031D01*
G01X1522398Y-124031D01*
G01X1522641Y-122819D01*
G01X1522814Y-121260D01*
G01X1523160Y-117796D01*
G01X1523506Y-114679D01*
G01X1523680Y-110523D01*
G01X1523506Y-106366D01*
G01X1522814Y-100132D01*
G01X1522641Y-98920D01*
G01X1521948Y-96149D01*
G01X1521775Y-94936D01*
G01X1520563Y-91300D01*
G01X1519870Y-89395D01*
G01X1518484Y-86277D01*
G01X1517791Y-84892D01*
G01X1517099Y-83680D01*
G01X1515021Y-80562D01*
G01X1514328Y-79696D01*
G01X1510864Y-76233D01*
G01X1509999Y-75540D01*
G01X1509133Y-75020D01*
G01X1507920Y-74328D01*
G01X1506535Y-73635D01*
G01X1503418Y-72596D01*
G01X1502205Y-72250D01*
G01X1500993Y-72076D01*
G01X1498049Y-71903D01*
G01X1495105Y-72076D01*
G01X1493719Y-72423D01*
G01X1492161Y-72942D01*
G01X1490775Y-73462D01*
G01X1489563Y-73981D01*
G01X1488351Y-74674D01*
G01X1486965Y-75540D01*
G01X1485753Y-76406D01*
G01X1483155Y-79004D01*
G01X1482116Y-80389D01*
G01X1480904Y-81948D01*
G01X1479865Y-83506D01*
G01X1478999Y-85065D01*
G01X1478306Y-86624D01*
G01X1477614Y-88009D01*
G01X1476574Y-90434D01*
G01X1476055Y-91992D01*
G01X1475535Y-93724D01*
G01X1475189Y-95110D01*
G01X1475016Y-96322D01*
G01X1474323Y-99093D01*
G01X1473976Y-101517D01*
G01X1473630Y-106366D01*
G01X1473457Y-111389D01*
G01X1444370Y-111389D01*
G01X1444363Y-110003D01*
G01X1444536Y-78311D01*
G01X1445055Y-77099D01*
G01X1446094Y-76233D01*
G01X1447306Y-75886D01*
G01X1453021Y-75713D01*
G01X1457005Y-75583D01*
G01X1458564Y-75194D01*
G01X1458910Y-73808D01*
G01X1458607Y-73115D01*
G01X1457698Y-72769D01*
G01X1440033Y-72596D01*
G01X1427607Y-72726D01*
G01X1423234Y-73115D01*
G01X1422888Y-74501D01*
G01X1423191Y-75194D01*
G01X1424100Y-75540D01*
G01X1429989Y-75713D01*
G01X1435184Y-75886D01*
G01X1436223Y-76406D01*
G01X1436916Y-77791D01*
G01X1437262Y-79350D01*
G01X1437435Y-111389D01*
G01X1437262Y-143427D01*
G01X1436916Y-144640D01*
G01X1435876Y-145852D01*
G01X1433755Y-146242D01*
G01X1429123Y-146371D01*
G01X1423234Y-146371D01*
G01X1423061Y-147237D01*
G01X1423061Y-147237D01*
G01X1422888Y-148623D01*
G01X1412497Y-148623D01*
G01X1412497Y-52853D01*
G01X1641097Y-52853D01*
G01X1641097Y-167500D01*
G37*
G36*
G01X1547925Y-123165D02*
G01X1535283Y-122992D01*
G01X1535283Y-122299D01*
G01X1535803Y-121433D01*
G01X1536495Y-120394D01*
G01X1537188Y-119182D01*
G01X1539786Y-115025D01*
G01X1540825Y-113467D01*
G01X1544289Y-107925D01*
G01X1545154Y-106366D01*
G01X1546020Y-105154D01*
G01X1546713Y-104288D01*
G01X1547233Y-103249D01*
G01X1547925Y-102037D01*
G01X1549311Y-99959D01*
G01X1550004Y-98746D01*
G01X1551389Y-96668D01*
G01X1552255Y-95283D01*
G01X1554333Y-91819D01*
G01X1555372Y-90260D01*
G01X1558836Y-84719D01*
G01X1559701Y-83680D01*
G01X1560005Y-83550D01*
G01X1560221Y-83853D01*
G01X1560394Y-103769D01*
G01X1560394Y-123165D01*
G01X1547925Y-123165D01*
G37*
G36*
G01X1613215Y-146198D02*
G01X1611656Y-146198D01*
G01X1610271Y-146025D01*
G01X1608885Y-145679D01*
G01X1607673Y-144986D01*
G01X1605249Y-142561D01*
G01X1604383Y-141522D01*
G01X1603690Y-140483D01*
G01X1601611Y-136327D01*
G01X1600919Y-134422D01*
G01X1600399Y-132690D01*
G01X1599880Y-131131D01*
G01X1599360Y-128880D01*
G01X1599014Y-126802D01*
G01X1598668Y-124031D01*
G01X1598321Y-122645D01*
G01X1598148Y-120740D01*
G01X1597975Y-119182D01*
G01X1597801Y-110523D01*
G01X1597975Y-101864D01*
G01X1598321Y-98400D01*
G01X1598668Y-97015D01*
G01X1599014Y-94590D01*
G01X1599360Y-92512D01*
G01X1599880Y-90953D01*
G01X1600399Y-88875D01*
G01X1600919Y-87316D01*
G01X1601611Y-85758D01*
G01X1602304Y-84026D01*
G01X1602997Y-82640D01*
G01X1603690Y-81428D01*
G01X1604383Y-80389D01*
G01X1605768Y-78657D01*
G01X1606634Y-77791D01*
G01X1607673Y-77099D01*
G01X1608885Y-76406D01*
G01X1610444Y-75886D01*
G01X1613215Y-75713D01*
G01X1614860Y-75843D01*
G01X1615986Y-76233D01*
G01X1617544Y-77099D01*
G01X1618584Y-77965D01*
G01X1619449Y-78830D01*
G01X1620315Y-79870D01*
G01X1621008Y-81082D01*
G01X1621874Y-82467D01*
G01X1622566Y-84199D01*
G01X1623086Y-85585D01*
G01X1623606Y-87143D01*
G01X1624125Y-88875D01*
G01X1624645Y-90953D01*
G01X1624991Y-92858D01*
G01X1625338Y-95283D01*
G01X1625684Y-96668D01*
G01X1625857Y-98227D01*
G01X1626030Y-99439D01*
G01X1626376Y-104981D01*
G01X1626550Y-111215D01*
G01X1626376Y-117450D01*
G01X1626030Y-123338D01*
G01X1625684Y-126109D01*
G01X1625338Y-127495D01*
G01X1624991Y-129746D01*
G01X1624645Y-131651D01*
G01X1624125Y-133210D01*
G01X1623606Y-135115D01*
G01X1623086Y-136500D01*
G01X1621701Y-139617D01*
G01X1621008Y-140830D01*
G01X1620315Y-141869D01*
G01X1619623Y-142735D01*
G01X1618756Y-143600D01*
G01X1617891Y-144293D01*
G01X1616679Y-145159D01*
G01X1614946Y-145852D01*
G01X1613215Y-146198D01*
G37*
G01X1197618Y164234D02*
G01X1197618Y99210D01*
G01X1197618Y164234D02*
G01X1225558Y164234D01*
G01X1234702Y161186D01*
G01X1237750Y158138D01*
G01X1241052Y151788D01*
G01X1241052Y145692D01*
G01X1237750Y139596D01*
G01X1234702Y136548D01*
G01X1225558Y133246D01*
G01X1197618Y133246D01*
G01X1219208Y133246D02*
G01X1241052Y99210D01*
G01X1308362Y164234D02*
G01X1277374Y164234D01*
G01X1274326Y136548D01*
G01X1277374Y139596D01*
G01X1286518Y142644D01*
G01X1295916Y142644D01*
G01X1305314Y139596D01*
G01X1311410Y133246D01*
G01X1314458Y124102D01*
G01X1314458Y117752D01*
G01X1311410Y108608D01*
G01X1305314Y102258D01*
G01X1295916Y99210D01*
G01X1286518Y99210D01*
G01X1277374Y102258D01*
G01X1274326Y105560D01*
G01X1271278Y111656D01*
G01X1080270Y-1278968D02*
G01X1080270Y-1334594D01*
G01X1080270Y-1278968D02*
G01X1104146Y-1278968D01*
G01X1112020Y-1281508D01*
G01X1114814Y-1284302D01*
G01X1117354Y-1289636D01*
G01X1117354Y-1294970D01*
G01X1114814Y-1300050D01*
G01X1112020Y-1302844D01*
G01X1104146Y-1305384D01*
G01X1080270Y-1305384D01*
G01X1098812Y-1305384D02*
G01X1117354Y-1334594D01*
G01X1158502Y-1278968D02*
G01X1150628Y-1281508D01*
G01X1147834Y-1286842D01*
G01X1147834Y-1292176D01*
G01X1150628Y-1297510D01*
G01X1155962Y-1300050D01*
G01X1166376Y-1302844D01*
G01X1174504Y-1305384D01*
G01X1179838Y-1310718D01*
G01X1182378Y-1316052D01*
G01X1182378Y-1323926D01*
G01X1179838Y-1329260D01*
G01X1177044Y-1332054D01*
G01X1169170Y-1334594D01*
G01X1158502Y-1334594D01*
G01X1150628Y-1332054D01*
G01X1147834Y-1329260D01*
G01X1145294Y-1323926D01*
G01X1145294Y-1316052D01*
G01X1147834Y-1310718D01*
G01X1153168Y-1305384D01*
G01X1161296Y-1302844D01*
G01X1171710Y-1300050D01*
G01X1177044Y-1297510D01*
G01X1179838Y-1292176D01*
G01X1179838Y-1286842D01*
G01X1177044Y-1281508D01*
G01X1169170Y-1278968D01*
G01X1158502Y-1278968D01*
G01X-2325895Y730260D02*
G01X-2325895Y665236D01*
G01X-2325895Y730260D02*
G01X-2297955Y730260D01*
G01X-2288811Y727212D01*
G01X-2285763Y724164D01*
G01X-2282461Y717814D01*
G01X-2282461Y711718D01*
G01X-2285763Y705622D01*
G01X-2288811Y702574D01*
G01X-2297955Y699272D01*
G01X-2325895Y699272D01*
G01X-2304305Y699272D02*
G01X-2282461Y665236D01*
G01X-2212103Y708670D02*
G01X-2215151Y699272D01*
G01X-2221501Y693176D01*
G01X-2230645Y690128D01*
G01X-2233693Y690128D01*
G01X-2243091Y693176D01*
G01X-2249187Y699272D01*
G01X-2252235Y708670D01*
G01X-2252235Y711718D01*
G01X-2249187Y721116D01*
G01X-2243091Y727212D01*
G01X-2233693Y730260D01*
G01X-2230645Y730260D01*
G01X-2221501Y727212D01*
G01X-2215151Y721116D01*
G01X-2212103Y708670D01*
G01X-2212103Y693176D01*
G01X-2215151Y677682D01*
G01X-2221501Y668284D01*
G01X-2230645Y665236D01*
G01X-2236995Y665236D01*
G01X-2246139Y668284D01*
G01X-2249187Y674634D01*
G54D12*
G01X-1937376Y604287D02*
G01X-1937376Y548661D01*
G01X-1937376Y604287D02*
G01X-1913500Y604287D01*
G01X-1905626Y601747D01*
G01X-1902832Y598953D01*
G01X-1900292Y593619D01*
G01X-1900292Y588285D01*
G01X-1902832Y583205D01*
G01X-1905626Y580411D01*
G01X-1913500Y577871D01*
G01X-1937376Y577871D01*
G01X-1918834Y577871D02*
G01X-1900292Y548661D01*
G01X-1872352Y593619D02*
G01X-1867018Y596413D01*
G01X-1859144Y604287D01*
G01X-1859144Y548661D01*
G01X-1815202Y604287D02*
G01X-1823330Y601747D01*
G01X-1828664Y593619D01*
G01X-1831204Y580411D01*
G01X-1831204Y572537D01*
G01X-1828664Y559329D01*
G01X-1823330Y551201D01*
G01X-1815202Y548661D01*
G01X-1810122Y548661D01*
G01X-1801994Y551201D01*
G01X-1796660Y559329D01*
G01X-1794120Y572537D01*
G01X-1794120Y580411D01*
G01X-1796660Y593619D01*
G01X-1801994Y601747D01*
G01X-1810122Y604287D01*
G01X-1815202Y604287D01*
G01X-2335895Y625314D02*
G01X-2335895Y569688D01*
G01X-2335895Y625314D02*
G01X-2312019Y625314D01*
G01X-2304145Y622774D01*
G01X-2301351Y619980D01*
G01X-2298811Y614646D01*
G01X-2298811Y609312D01*
G01X-2301351Y604232D01*
G01X-2304145Y601438D01*
G01X-2312019Y598898D01*
G01X-2335895Y598898D01*
G01X-2317353Y598898D02*
G01X-2298811Y569688D01*
G01X-2270871Y614646D02*
G01X-2265537Y617440D01*
G01X-2257663Y625314D01*
G01X-2257663Y569688D01*
G01X-2229723Y614646D02*
G01X-2224389Y617440D01*
G01X-2216515Y625314D01*
G01X-2216515Y569688D01*
G54D10*
G01X1221052Y-79910D02*
G01X1214702Y-73814D01*
G01X1205558Y-70766D01*
G01X1193112Y-70766D01*
G01X1183714Y-73814D01*
G01X1177618Y-79910D01*
G01X1177618Y-86260D01*
G01X1180666Y-92356D01*
G01X1183714Y-95404D01*
G01X1190064Y-98452D01*
G01X1208606Y-104802D01*
G01X1214702Y-107850D01*
G01X1217750Y-110898D01*
G01X1221052Y-117248D01*
G01X1221052Y-126392D01*
G01X1214702Y-132742D01*
G01X1205558Y-135790D01*
G01X1193112Y-135790D01*
G01X1183714Y-132742D01*
G01X1177618Y-126392D01*
G01X1251278Y-70766D02*
G01X1266518Y-135790D01*
G01X1282012Y-70766D02*
G01X1266518Y-135790D01*
G01X1282012Y-70766D02*
G01X1297506Y-135790D01*
G01X1313000Y-70766D02*
G01X1297506Y-135790D01*
G01X1343226Y-83212D02*
G01X1349322Y-79910D01*
G01X1358466Y-70766D01*
G01X1358466Y-135790D01*
G36*
G01X970622Y-380123D02*
G01X961443Y-379950D01*
G01X961617Y-378564D01*
G01X962136Y-376140D01*
G01X962656Y-374235D01*
G01X963002Y-372849D01*
G01X963175Y-371637D01*
G01X963695Y-370078D01*
G01X964214Y-368173D01*
G01X964561Y-366441D01*
G01X965080Y-364710D01*
G01X965600Y-362631D01*
G01X965946Y-360900D01*
G01X966466Y-359341D01*
G01X966985Y-357090D01*
G01X967505Y-355185D01*
G01X968024Y-353106D01*
G01X968371Y-351201D01*
G01X968890Y-349643D01*
G01X969410Y-347391D01*
G01X969929Y-345660D01*
G01X970449Y-344621D01*
G01X970665Y-344317D01*
G01X970968Y-344447D01*
G01X971488Y-346179D01*
G01X971834Y-348084D01*
G01X972527Y-350509D01*
G01X973220Y-353972D01*
G01X973739Y-355531D01*
G01X974259Y-357956D01*
G01X974778Y-359861D01*
G01X975125Y-361073D01*
G01X975298Y-362285D01*
G01X975644Y-363844D01*
G01X976164Y-365576D01*
G01X976683Y-367654D01*
G01X977030Y-369559D01*
G01X977549Y-371291D01*
G01X978069Y-373715D01*
G01X978588Y-375620D01*
G01X978935Y-377006D01*
G01X979108Y-378218D01*
G01X979454Y-379430D01*
G01X979627Y-380123D01*
G01X970622Y-380123D01*
G37*
G36*
G01X1172898Y-429999D02*
G01X829998Y-429999D01*
G01X829998Y-409737D01*
G01X832942Y-409737D01*
G01X832942Y-411122D01*
G01X838744Y-411512D01*
G01X855802Y-411642D01*
G01X878489Y-411642D01*
G01X878836Y-410430D01*
G01X878883Y-410256D01*
G01X887841Y-410256D01*
G01X887841Y-411642D01*
G01X905852Y-411642D01*
G01X905852Y-410430D01*
G01X905635Y-409477D01*
G01X904986Y-409044D01*
G01X902388Y-408871D01*
G01X900137Y-408525D01*
G01X899098Y-407832D01*
G01X898405Y-406273D01*
G01X898232Y-375101D01*
G01X898362Y-352673D01*
G01X898752Y-345313D01*
G01X899617Y-346179D01*
G01X900310Y-347391D01*
G01X900830Y-348604D01*
G01X901349Y-349643D01*
G01X902042Y-350855D01*
G01X910701Y-368173D01*
G01X912087Y-370598D01*
G01X912606Y-371810D01*
G01X913126Y-372849D01*
G01X913818Y-374061D01*
G01X921438Y-389301D01*
G01X922131Y-390514D01*
G01X922824Y-392072D01*
G01X923517Y-393285D01*
G01X925941Y-398134D01*
G01X926634Y-399346D01*
G01X930097Y-406273D01*
G01X931483Y-408698D01*
G01X932002Y-409910D01*
G01X932522Y-410949D01*
G01X933388Y-411469D01*
G01X934773Y-411642D01*
G01X935639Y-411642D01*
G01X935639Y-410776D01*
G01X944991Y-410776D01*
G01X944991Y-411642D01*
G01X961270Y-411642D01*
G01X961443Y-410776D01*
G01X961443Y-409391D01*
G01X961054Y-409001D01*
G01X960231Y-408871D01*
G01X958672Y-408698D01*
G01X957633Y-408351D01*
G01X956594Y-407312D01*
G01X956075Y-405754D01*
G01X955902Y-404541D01*
G01X955728Y-402983D01*
G01X955902Y-401424D01*
G01X956594Y-398307D01*
G01X957287Y-394843D01*
G01X957807Y-393285D01*
G01X958326Y-390860D01*
G01X958846Y-388782D01*
G01X959365Y-386531D01*
G01X959712Y-384452D01*
G01X960231Y-383586D01*
G01X970102Y-383240D01*
G01X979974Y-383067D01*
G01X980233Y-383110D01*
G01X980320Y-383586D01*
G01X980493Y-384799D01*
G01X981186Y-387570D01*
G01X981532Y-389301D01*
G01X982572Y-393804D01*
G01X982918Y-395536D01*
G01X983957Y-399692D01*
G01X984303Y-401424D01*
G01X984996Y-404195D01*
G01X985169Y-406100D01*
G01X984823Y-407659D01*
G01X983611Y-408525D01*
G01X981359Y-408871D01*
G01X979974Y-408871D01*
G01X979801Y-409910D01*
G01X979801Y-410776D01*
G01X980147Y-411296D01*
G01X989845Y-411642D01*
G01X999024Y-411642D01*
G01X999024Y-410256D01*
G01X1003180Y-410256D01*
G01X1003180Y-411642D01*
G01X1019632Y-411642D01*
G01X1036604Y-411469D01*
G01X1038336Y-410949D01*
G01X1040587Y-410430D01*
G01X1041107Y-410256D01*
G01X1062062Y-410256D01*
G01X1062062Y-411642D01*
G01X1108128Y-411642D01*
G01X1108302Y-410430D01*
G01X1108450Y-409737D01*
G01X1118692Y-409737D01*
G01X1118692Y-411122D01*
G01X1124494Y-411512D01*
G01X1141552Y-411642D01*
G01X1164239Y-411642D01*
G01X1164586Y-410430D01*
G01X1165105Y-408525D01*
G01X1165452Y-407312D01*
G01X1165971Y-405581D01*
G01X1166491Y-403676D01*
G01X1166837Y-402463D01*
G01X1167530Y-399692D01*
G01X1168049Y-398307D01*
G01X1168569Y-396229D01*
G01X1168915Y-394670D01*
G01X1168396Y-393977D01*
G01X1167183Y-393631D01*
G01X1166750Y-393804D01*
G01X1166491Y-394324D01*
G01X1165971Y-395709D01*
G01X1165452Y-396921D01*
G01X1164412Y-399000D01*
G01X1163720Y-400212D01*
G01X1162681Y-401771D01*
G01X1161815Y-402983D01*
G01X1160602Y-404022D01*
G01X1159390Y-405234D01*
G01X1158524Y-405927D01*
G01X1156100Y-407139D01*
G01X1154541Y-407832D01*
G01X1152636Y-408351D01*
G01X1150904Y-408698D01*
G01X1142592Y-408871D01*
G01X1134279Y-408525D01*
G01X1133413Y-407659D01*
G01X1132893Y-406273D01*
G01X1132720Y-388782D01*
G01X1132720Y-372156D01*
G01X1140340Y-372156D01*
G01X1148480Y-372330D01*
G01X1149692Y-372849D01*
G01X1151251Y-373888D01*
G01X1152463Y-375447D01*
G01X1153156Y-377525D01*
G01X1153675Y-379603D01*
G01X1153848Y-382201D01*
G01X1153848Y-383933D01*
G01X1154714Y-384106D01*
G01X1156100Y-384106D01*
G01X1156489Y-380686D01*
G01X1156619Y-370771D01*
G01X1156619Y-357609D01*
G01X1155753Y-357436D01*
G01X1154368Y-357609D01*
G01X1153978Y-358518D01*
G01X1153848Y-360553D01*
G01X1153675Y-363671D01*
G01X1153156Y-365056D01*
G01X1152117Y-366788D01*
G01X1150558Y-368000D01*
G01X1149172Y-368520D01*
G01X1147787Y-368866D01*
G01X1139647Y-369039D01*
G01X1132374Y-369039D01*
G01X1132547Y-367827D01*
G01X1132720Y-353626D01*
G01X1133067Y-339945D01*
G01X1133932Y-338906D01*
G01X1135664Y-338386D01*
G01X1143977Y-338213D01*
G01X1151597Y-338386D01*
G01X1153156Y-338732D01*
G01X1154714Y-339252D01*
G01X1155927Y-339945D01*
G01X1158005Y-341330D01*
G01X1159044Y-342196D01*
G01X1159910Y-343062D01*
G01X1161988Y-345660D01*
G01X1162507Y-346526D01*
G01X1164586Y-349643D01*
G01X1165452Y-350855D01*
G01X1166014Y-351158D01*
G01X1166664Y-351028D01*
G01X1167530Y-350162D01*
G01X1167530Y-349123D01*
G01X1167010Y-347565D01*
G01X1166317Y-345833D01*
G01X1165278Y-342369D01*
G01X1163720Y-337693D01*
G01X1163373Y-336308D01*
G01X1162681Y-335442D01*
G01X1140860Y-335096D01*
G01X1119558Y-335096D01*
G01X1119385Y-335961D01*
G01X1119385Y-337520D01*
G01X1119948Y-338040D01*
G01X1121290Y-338213D01*
G01X1123542Y-338386D01*
G01X1124407Y-338906D01*
G01X1125100Y-340464D01*
G01X1125447Y-373888D01*
G01X1125273Y-406620D01*
G01X1124754Y-407659D01*
G01X1123715Y-408525D01*
G01X1120944Y-408871D01*
G01X1118866Y-408871D01*
G01X1118692Y-409737D01*
G01X1118692Y-409737D01*
G01X1108450Y-409737D01*
G01X1108821Y-408005D01*
G01X1109687Y-404541D01*
G01X1110033Y-402636D01*
G01X1110553Y-400558D01*
G01X1111072Y-398307D01*
G01X1111419Y-396229D01*
G01X1111765Y-395016D01*
G01X1111722Y-394410D01*
G01X1111246Y-393977D01*
G01X1110033Y-393631D01*
G01X1109600Y-393847D01*
G01X1109341Y-394497D01*
G01X1108994Y-395882D01*
G01X1108475Y-397268D01*
G01X1107089Y-400039D01*
G01X1106397Y-401251D01*
G01X1105531Y-402463D01*
G01X1104492Y-403676D01*
G01X1103626Y-404541D01*
G01X1102413Y-405581D01*
G01X1099642Y-407312D01*
G01X1097737Y-408005D01*
G01X1096179Y-408351D01*
G01X1094793Y-408698D01*
G01X1086134Y-408871D01*
G01X1080116Y-408698D01*
G01X1077648Y-408178D01*
G01X1076609Y-406446D01*
G01X1076263Y-373022D01*
G01X1076609Y-340118D01*
G01X1077302Y-339252D01*
G01X1078514Y-338559D01*
G01X1081112Y-338213D01*
G01X1082497Y-338083D01*
G01X1083190Y-337693D01*
G01X1083537Y-336308D01*
G01X1083320Y-335615D01*
G01X1082671Y-335269D01*
G01X1072280Y-335096D01*
G01X1062755Y-335096D01*
G01X1062582Y-335961D01*
G01X1062582Y-337347D01*
G01X1063621Y-338040D01*
G01X1065699Y-338213D01*
G01X1067777Y-338732D01*
G01X1068426Y-339295D01*
G01X1068643Y-339945D01*
G01X1068816Y-341157D01*
G01X1068989Y-374235D01*
G01X1068643Y-407312D01*
G01X1067950Y-408178D01*
G01X1066738Y-408698D01*
G01X1063967Y-408871D01*
G01X1062062Y-408871D01*
G01X1062062Y-410256D01*
G01X1062062Y-410256D01*
G01X1041107Y-410256D01*
G01X1042146Y-409910D01*
G01X1043358Y-409391D01*
G01X1044744Y-408698D01*
G01X1046129Y-407832D01*
G01X1047168Y-406966D01*
G01X1048900Y-405581D01*
G01X1049766Y-404715D01*
G01X1050632Y-403676D01*
G01X1052017Y-401597D01*
G01X1052710Y-400212D01*
G01X1053403Y-398480D01*
G01X1053922Y-396575D01*
G01X1054269Y-394151D01*
G01X1054442Y-391033D01*
G01X1054269Y-388955D01*
G01X1054096Y-387396D01*
G01X1053749Y-385665D01*
G01X1052710Y-382547D01*
G01X1052017Y-380989D01*
G01X1051152Y-379430D01*
G01X1050286Y-378218D01*
G01X1048900Y-376486D01*
G01X1047688Y-375447D01*
G01X1045263Y-373715D01*
G01X1043705Y-372849D01*
G01X1042146Y-372156D01*
G01X1040761Y-371464D01*
G01X1039375Y-370944D01*
G01X1038336Y-370251D01*
G01X1038423Y-369775D01*
G01X1039029Y-369386D01*
G01X1040761Y-368693D01*
G01X1041973Y-368000D01*
G01X1043012Y-367481D01*
G01X1044051Y-366788D01*
G01X1045783Y-365402D01*
G01X1047515Y-363671D01*
G01X1048381Y-362458D01*
G01X1049247Y-360726D01*
G01X1049939Y-359168D01*
G01X1050286Y-357782D01*
G01X1050459Y-356397D01*
G01X1050805Y-353280D01*
G01X1050978Y-351894D01*
G01X1050459Y-347738D01*
G01X1050112Y-346352D01*
G01X1049593Y-344967D01*
G01X1048900Y-343581D01*
G01X1047861Y-341850D01*
G01X1045783Y-339771D01*
G01X1044744Y-338906D01*
G01X1043532Y-338213D01*
G01X1042146Y-337520D01*
G01X1040414Y-336827D01*
G01X1038682Y-336308D01*
G01X1036951Y-335961D01*
G01X1034872Y-335615D01*
G01X1032102Y-335269D01*
G01X1017381Y-335096D01*
G01X1004219Y-335096D01*
G01X1004046Y-335961D01*
G01X1004046Y-337347D01*
G01X1005085Y-338040D01*
G01X1007163Y-338213D01*
G01X1009242Y-338732D01*
G01X1009934Y-339512D01*
G01X1010281Y-340811D01*
G01X1010454Y-374754D01*
G01X1010281Y-399216D01*
G01X1009761Y-407832D01*
G01X1008202Y-408698D01*
G01X1005258Y-408871D01*
G01X1003180Y-408871D01*
G01X1003180Y-410256D01*
G01X1003180Y-410256D01*
G01X999024Y-410256D01*
G01X999024Y-408871D01*
G01X997985Y-408871D01*
G01X996426Y-408698D01*
G01X995387Y-408351D01*
G01X994175Y-407312D01*
G01X993136Y-405581D01*
G01X992616Y-404195D01*
G01X992097Y-402636D01*
G01X991577Y-400212D01*
G01X991057Y-398134D01*
G01X990538Y-396229D01*
G01X990192Y-394497D01*
G01X989152Y-390341D01*
G01X988806Y-388436D01*
G01X988287Y-386704D01*
G01X987940Y-385318D01*
G01X987767Y-384106D01*
G01X987074Y-381681D01*
G01X986728Y-380296D01*
G01X986382Y-378564D01*
G01X985862Y-376659D01*
G01X985342Y-374235D01*
G01X984823Y-372156D01*
G01X984303Y-370251D01*
G01X983957Y-368520D01*
G01X982918Y-364363D01*
G01X982572Y-362631D01*
G01X981879Y-359861D01*
G01X981532Y-358129D01*
G01X981013Y-356397D01*
G01X980493Y-354319D01*
G01X980147Y-352587D01*
G01X979627Y-350855D01*
G01X979108Y-348257D01*
G01X978588Y-346352D01*
G01X978242Y-345140D01*
G01X978069Y-343928D01*
G01X977722Y-342369D01*
G01X977203Y-340637D01*
G01X976857Y-339252D01*
G01X976683Y-338040D01*
G01X975644Y-334403D01*
G01X975384Y-333883D01*
G01X974952Y-333710D01*
G01X973739Y-334056D01*
G01X972007Y-334576D01*
G01X970449Y-335096D01*
G01X969237Y-335615D01*
G01X968674Y-336048D01*
G01X968371Y-337001D01*
G01X968024Y-338732D01*
G01X967505Y-340291D01*
G01X966985Y-342542D01*
G01X966639Y-344274D01*
G01X966119Y-345660D01*
G01X965600Y-347911D01*
G01X965080Y-349816D01*
G01X964734Y-351028D01*
G01X964561Y-352241D01*
G01X964214Y-353626D01*
G01X963695Y-355358D01*
G01X963175Y-357436D01*
G01X962136Y-361246D01*
G01X961790Y-362978D01*
G01X961097Y-365402D01*
G01X960751Y-367134D01*
G01X959712Y-370944D01*
G01X959365Y-372676D01*
G01X958846Y-374235D01*
G01X958326Y-376486D01*
G01X957980Y-378218D01*
G01X957460Y-379776D01*
G01X956941Y-382028D01*
G01X956421Y-383760D01*
G01X956075Y-384972D01*
G01X955902Y-386184D01*
G01X955382Y-387916D01*
G01X954343Y-392072D01*
G01X953650Y-394497D01*
G01X953131Y-396921D01*
G01X952611Y-398653D01*
G01X952265Y-399866D01*
G01X952092Y-401078D01*
G01X951399Y-403502D01*
G01X951052Y-405061D01*
G01X950187Y-406966D01*
G01X948628Y-408178D01*
G01X946550Y-408698D01*
G01X945597Y-408958D01*
G01X945164Y-409391D01*
G01X945164Y-409391D01*
G01X944991Y-410776D01*
G01X935639Y-410776D01*
G01X935639Y-376313D01*
G01X935812Y-340464D01*
G01X936332Y-339425D01*
G01X937717Y-338559D01*
G01X940835Y-338213D01*
G01X942913Y-338213D01*
G01X943086Y-337347D01*
G01X943086Y-335788D01*
G01X940835Y-335269D01*
G01X934427Y-335096D01*
G01X927976Y-335225D01*
G01X925595Y-335615D01*
G01X925248Y-337001D01*
G01X925551Y-337693D01*
G01X926461Y-338040D01*
G01X929232Y-338213D01*
G01X930574Y-338343D01*
G01X931483Y-338732D01*
G01X932522Y-340291D01*
G01X932868Y-367827D01*
G01X932739Y-387656D01*
G01X932349Y-394151D01*
G01X931483Y-393111D01*
G01X928019Y-386184D01*
G01X927327Y-384972D01*
G01X926634Y-383586D01*
G01X925941Y-382374D01*
G01X921438Y-373369D01*
G01X920572Y-371810D01*
G01X919880Y-370598D01*
G01X915204Y-361246D01*
G01X914511Y-360034D01*
G01X913818Y-358648D01*
G01X913126Y-357436D01*
G01X910355Y-351894D01*
G01X908969Y-349470D01*
G01X908450Y-348257D01*
G01X907930Y-347218D01*
G01X907237Y-346006D01*
G01X903774Y-339079D01*
G01X902388Y-336654D01*
G01X901869Y-335788D01*
G01X900830Y-335269D01*
G01X894595Y-335096D01*
G01X889227Y-335096D01*
G01X889053Y-335961D01*
G01X889053Y-337520D01*
G01X889659Y-338040D01*
G01X891132Y-338213D01*
G01X893556Y-338386D01*
G01X894422Y-338906D01*
G01X895115Y-340291D01*
G01X895461Y-373888D01*
G01X895115Y-407139D01*
G01X894422Y-408178D01*
G01X893210Y-408698D01*
G01X890092Y-408871D01*
G01X887841Y-408871D01*
G01X887841Y-410256D01*
G01X887841Y-410256D01*
G01X878883Y-410256D01*
G01X879355Y-408525D01*
G01X879702Y-407312D01*
G01X880221Y-405581D01*
G01X880741Y-403676D01*
G01X881087Y-402463D01*
G01X881780Y-399692D01*
G01X882299Y-398307D01*
G01X882819Y-396229D01*
G01X883165Y-394670D01*
G01X882646Y-393977D01*
G01X881433Y-393631D01*
G01X881000Y-393804D01*
G01X880741Y-394324D01*
G01X880221Y-395709D01*
G01X879702Y-396921D01*
G01X878662Y-399000D01*
G01X877970Y-400212D01*
G01X876931Y-401771D01*
G01X876065Y-402983D01*
G01X874852Y-404022D01*
G01X873640Y-405234D01*
G01X872774Y-405927D01*
G01X870350Y-407139D01*
G01X868791Y-407832D01*
G01X866886Y-408351D01*
G01X865154Y-408698D01*
G01X856842Y-408871D01*
G01X848529Y-408525D01*
G01X847663Y-407659D01*
G01X847143Y-406273D01*
G01X846970Y-388782D01*
G01X846970Y-372156D01*
G01X854590Y-372156D01*
G01X862730Y-372330D01*
G01X863942Y-372849D01*
G01X865501Y-373888D01*
G01X866713Y-375447D01*
G01X867406Y-377525D01*
G01X867925Y-379603D01*
G01X868098Y-382201D01*
G01X868098Y-383933D01*
G01X868964Y-384106D01*
G01X870350Y-384106D01*
G01X870739Y-380686D01*
G01X870869Y-370771D01*
G01X870869Y-357609D01*
G01X870003Y-357436D01*
G01X868618Y-357609D01*
G01X868228Y-358518D01*
G01X868098Y-360553D01*
G01X867925Y-363671D01*
G01X867406Y-365056D01*
G01X866367Y-366788D01*
G01X864808Y-368000D01*
G01X863422Y-368520D01*
G01X862037Y-368866D01*
G01X853897Y-369039D01*
G01X846624Y-369039D01*
G01X846797Y-367827D01*
G01X846970Y-353626D01*
G01X847317Y-339945D01*
G01X848182Y-338906D01*
G01X849914Y-338386D01*
G01X858227Y-338213D01*
G01X865847Y-338386D01*
G01X867406Y-338732D01*
G01X868964Y-339252D01*
G01X870177Y-339945D01*
G01X872255Y-341330D01*
G01X873294Y-342196D01*
G01X874160Y-343062D01*
G01X876238Y-345660D01*
G01X876757Y-346526D01*
G01X878836Y-349643D01*
G01X879702Y-350855D01*
G01X880264Y-351158D01*
G01X880914Y-351028D01*
G01X881780Y-350162D01*
G01X881780Y-349123D01*
G01X881260Y-347565D01*
G01X880567Y-345833D01*
G01X879528Y-342369D01*
G01X877970Y-337693D01*
G01X877623Y-336308D01*
G01X876931Y-335442D01*
G01X855110Y-335096D01*
G01X833808Y-335096D01*
G01X833635Y-335961D01*
G01X833635Y-337520D01*
G01X834198Y-338040D01*
G01X835540Y-338213D01*
G01X837792Y-338386D01*
G01X838657Y-338906D01*
G01X839350Y-340464D01*
G01X839697Y-373888D01*
G01X839523Y-406620D01*
G01X839004Y-407659D01*
G01X837965Y-408525D01*
G01X835194Y-408871D01*
G01X833116Y-408871D01*
G01X832942Y-409737D01*
G01X832942Y-409737D01*
G01X829998Y-409737D01*
G01X829998Y-315353D01*
G01X1172898Y-315353D01*
G01X1172898Y-429999D01*
G37*
G36*
G01X1025347Y-408871D02*
G01X1020325Y-408698D01*
G01X1019459Y-408351D01*
G01X1018593Y-407659D01*
G01X1018074Y-406446D01*
G01X1017727Y-388955D01*
G01X1017727Y-372156D01*
G01X1025001Y-372156D01*
G01X1032794Y-372330D01*
G01X1034353Y-372676D01*
G01X1035912Y-373196D01*
G01X1038336Y-374235D01*
G01X1039722Y-375101D01*
G01X1040934Y-376140D01*
G01X1041800Y-377006D01*
G01X1042492Y-377871D01*
G01X1043705Y-380296D01*
G01X1044397Y-381855D01*
G01X1044917Y-383760D01*
G01X1045263Y-385838D01*
G01X1045437Y-388089D01*
G01X1045610Y-389994D01*
G01X1045783Y-391553D01*
G01X1045610Y-393111D01*
G01X1045263Y-396921D01*
G01X1044917Y-398480D01*
G01X1044397Y-400039D01*
G01X1043705Y-401424D01*
G01X1042839Y-402636D01*
G01X1041453Y-404368D01*
G01X1040587Y-405234D01*
G01X1039375Y-406273D01*
G01X1037643Y-407139D01*
G01X1036258Y-407659D01*
G01X1034526Y-408178D01*
G01X1031755Y-408698D01*
G01X1025347Y-408871D01*
G37*
G36*
G01X1024308Y-369039D02*
G01X1017901Y-368866D01*
G01X1017727Y-354838D01*
G01X1018074Y-340291D01*
G01X1018767Y-339252D01*
G01X1019979Y-338559D01*
G01X1025521Y-338213D01*
G01X1030716Y-338386D01*
G01X1033141Y-338732D01*
G01X1034353Y-339079D01*
G01X1036777Y-340118D01*
G01X1037817Y-340637D01*
G01X1038682Y-341330D01*
G01X1040414Y-343062D01*
G01X1041107Y-344101D01*
G01X1041627Y-345140D01*
G01X1042319Y-346699D01*
G01X1042666Y-348777D01*
G01X1042839Y-350162D01*
G01X1043012Y-353453D01*
G01X1042839Y-356743D01*
G01X1042492Y-359168D01*
G01X1041973Y-360553D01*
G01X1041280Y-361939D01*
G01X1040587Y-363151D01*
G01X1039722Y-364190D01*
G01X1038856Y-365056D01*
G01X1037643Y-366095D01*
G01X1036258Y-366961D01*
G01X1035046Y-367654D01*
G01X1033660Y-368346D01*
G01X1031755Y-368866D01*
G01X1024308Y-369039D01*
G37*
G01X-892463Y1461744D02*
G01X-892463Y1415262D01*
G01X-889415Y1406118D01*
G01X-883065Y1399768D01*
G01X-873921Y1396720D01*
G01X-867571Y1396720D01*
G01X-858427Y1399768D01*
G01X-852331Y1406118D01*
G01X-849029Y1415262D01*
G01X-849029Y1461744D01*
G01X-818803Y1449298D02*
G01X-812707Y1452600D01*
G01X-803563Y1461744D01*
G01X-803563Y1396720D01*
G01X-1677377Y604287D02*
G01X-1677377Y564663D01*
G01X-1674837Y556535D01*
G01X-1669503Y551201D01*
G01X-1661375Y548661D01*
G01X-1656295Y548661D01*
G01X-1648167Y551201D01*
G01X-1642833Y556535D01*
G01X-1640293Y564663D01*
G01X-1640293Y604287D01*
G01X-1607019Y604287D02*
G01X-1577809Y604287D01*
G01X-1593811Y583205D01*
G01X-1585937Y583205D01*
G01X-1580603Y580411D01*
G01X-1577809Y577871D01*
G01X-1575269Y569743D01*
G01X-1575269Y564663D01*
G01X-1577809Y556535D01*
G01X-1583143Y551201D01*
G01X-1591271Y548661D01*
G01X-1599145Y548661D01*
G01X-1607019Y551201D01*
G01X-1609813Y553995D01*
G01X-1612353Y559329D01*
G01X2215116Y-680764D02*
G01X2215116Y-727246D01*
G01X2218164Y-736390D01*
G01X2224514Y-742740D01*
G01X2233658Y-745788D01*
G01X2240008Y-745788D01*
G01X2249152Y-742740D01*
G01X2255248Y-736390D01*
G01X2258550Y-727246D01*
G01X2258550Y-680764D01*
G01X2319510Y-680764D02*
G01X2288776Y-723944D01*
G01X2335004Y-723944D01*
G01X2319510Y-680764D02*
G01X2319510Y-745788D01*
G01X976258Y869100D02*
G01X969908Y866052D01*
G01X963812Y859702D01*
G01X960764Y853606D01*
G01X960764Y841160D01*
G01X963812Y835064D01*
G01X969908Y828714D01*
G01X976258Y825666D01*
G01X985402Y822618D01*
G01X1000896Y822618D01*
G01X1010294Y825666D01*
G01X1016390Y828714D01*
G01X1022740Y835064D01*
G01X1025788Y841160D01*
G01X1025788Y853606D01*
G01X1022740Y859702D01*
G01X1016390Y866052D01*
G01X1010294Y869100D01*
G01X976258Y902374D02*
G01X973210Y902374D01*
G01X966860Y905422D01*
G01X963812Y908470D01*
G01X960764Y914566D01*
G01X960764Y927012D01*
G01X963812Y933362D01*
G01X966860Y936410D01*
G01X973210Y939458D01*
G01X979306Y939458D01*
G01X985402Y936410D01*
G01X994800Y930060D01*
G01X1025788Y899326D01*
G01X1025788Y942506D01*
G01X973210Y972732D02*
G01X969908Y978828D01*
G01X960764Y987972D01*
G01X1025788Y987972D01*
G01X1071600Y1083738D02*
G01X1068552Y1090088D01*
G01X1062202Y1096184D01*
G01X1056106Y1099232D01*
G01X1043660Y1099232D01*
G01X1037564Y1096184D01*
G01X1031214Y1090088D01*
G01X1028166Y1083738D01*
G01X1025118Y1074594D01*
G01X1025118Y1059100D01*
G01X1028166Y1049702D01*
G01X1031214Y1043606D01*
G01X1037564Y1037256D01*
G01X1043660Y1034208D01*
G01X1056106Y1034208D01*
G01X1062202Y1037256D01*
G01X1068552Y1043606D01*
G01X1071600Y1049702D01*
G01X1104874Y1083738D02*
G01X1104874Y1086786D01*
G01X1107922Y1093136D01*
G01X1110970Y1096184D01*
G01X1117066Y1099232D01*
G01X1129512Y1099232D01*
G01X1135862Y1096184D01*
G01X1138910Y1093136D01*
G01X1141958Y1086786D01*
G01X1141958Y1080690D01*
G01X1138910Y1074594D01*
G01X1132560Y1065196D01*
G01X1101826Y1034208D01*
G01X1145006Y1034208D01*
G01X1178280Y1083738D02*
G01X1178280Y1086786D01*
G01X1181328Y1093136D01*
G01X1184376Y1096184D01*
G01X1190472Y1099232D01*
G01X1202918Y1099232D01*
G01X1209268Y1096184D01*
G01X1212316Y1093136D01*
G01X1215364Y1086786D01*
G01X1215364Y1080690D01*
G01X1212316Y1074594D01*
G01X1205966Y1065196D01*
G01X1175232Y1034208D01*
G01X1218412Y1034208D01*
G01X989100Y533739D02*
G01X986052Y540089D01*
G01X979702Y546185D01*
G01X973606Y549233D01*
G01X961160Y549233D01*
G01X955064Y546185D01*
G01X948714Y540089D01*
G01X945666Y533739D01*
G01X942618Y524595D01*
G01X942618Y509101D01*
G01X945666Y499703D01*
G01X948714Y493607D01*
G01X955064Y487257D01*
G01X961160Y484209D01*
G01X973606Y484209D01*
G01X979702Y487257D01*
G01X986052Y493607D01*
G01X989100Y499703D01*
G01X1022374Y533739D02*
G01X1022374Y536787D01*
G01X1025422Y543137D01*
G01X1028470Y546185D01*
G01X1034566Y549233D01*
G01X1047012Y549233D01*
G01X1053362Y546185D01*
G01X1056410Y543137D01*
G01X1059458Y536787D01*
G01X1059458Y530691D01*
G01X1056410Y524595D01*
G01X1050060Y515197D01*
G01X1019326Y484209D01*
G01X1062506Y484209D01*
G01X1098828Y549233D02*
G01X1132864Y549233D01*
G01X1114322Y524595D01*
G01X1123466Y524595D01*
G01X1129816Y521547D01*
G01X1132864Y518245D01*
G01X1135912Y509101D01*
G01X1135912Y502751D01*
G01X1132864Y493607D01*
G01X1126768Y487257D01*
G01X1117370Y484209D01*
G01X1107972Y484209D01*
G01X1098828Y487257D01*
G01X1095780Y490559D01*
G01X1092732Y496655D01*
G01X1697241Y781079D02*
G01X1694701Y786413D01*
G01X1689367Y791747D01*
G01X1684033Y794287D01*
G01X1673619Y794287D01*
G01X1668285Y791747D01*
G01X1662951Y786413D01*
G01X1660157Y781079D01*
G01X1657617Y773205D01*
G01X1657617Y759743D01*
G01X1660157Y751869D01*
G01X1662951Y746535D01*
G01X1668285Y741201D01*
G01X1673619Y738661D01*
G01X1684033Y738661D01*
G01X1689367Y741201D01*
G01X1694701Y746535D01*
G01X1697241Y751869D01*
G01X1727721Y781079D02*
G01X1727721Y783619D01*
G01X1730515Y788953D01*
G01X1733055Y791747D01*
G01X1738389Y794287D01*
G01X1749057Y794287D01*
G01X1754391Y791747D01*
G01X1756931Y788953D01*
G01X1759725Y783619D01*
G01X1759725Y778285D01*
G01X1756931Y773205D01*
G01X1751597Y765077D01*
G01X1725181Y738661D01*
G01X1762265Y738661D01*
G01X1816621Y794287D02*
G01X1790205Y757203D01*
G01X1829829Y757203D01*
G01X1816621Y794287D02*
G01X1816621Y738661D01*
G01X1570134Y533671D02*
G01X1567086Y540021D01*
G01X1560736Y546117D01*
G01X1554640Y549165D01*
G01X1542194Y549165D01*
G01X1536098Y546117D01*
G01X1529748Y540021D01*
G01X1526700Y533671D01*
G01X1523652Y524527D01*
G01X1523652Y509033D01*
G01X1526700Y499635D01*
G01X1529748Y493539D01*
G01X1536098Y487189D01*
G01X1542194Y484141D01*
G01X1554640Y484141D01*
G01X1560736Y487189D01*
G01X1567086Y493539D01*
G01X1570134Y499635D01*
G01X1603408Y533671D02*
G01X1603408Y536719D01*
G01X1606456Y543069D01*
G01X1609504Y546117D01*
G01X1615600Y549165D01*
G01X1628046Y549165D01*
G01X1634396Y546117D01*
G01X1637444Y543069D01*
G01X1640492Y536719D01*
G01X1640492Y530623D01*
G01X1637444Y524527D01*
G01X1631094Y515129D01*
G01X1600360Y484141D01*
G01X1643540Y484141D01*
G01X1710850Y549165D02*
G01X1679862Y549165D01*
G01X1676814Y521479D01*
G01X1679862Y524527D01*
G01X1689006Y527575D01*
G01X1698404Y527575D01*
G01X1707802Y524527D01*
G01X1713898Y518177D01*
G01X1716946Y509033D01*
G01X1716946Y502683D01*
G01X1713898Y493539D01*
G01X1707802Y487189D01*
G01X1698404Y484141D01*
G01X1689006Y484141D01*
G01X1679862Y487189D01*
G01X1676814Y490491D01*
G01X1673766Y496587D01*
G01X1732617Y884232D02*
G01X1732617Y819208D01*
G01X1732617Y884232D02*
G01X1760557Y884232D01*
G01X1769701Y881184D01*
G01X1772749Y878136D01*
G01X1776051Y871786D01*
G01X1776051Y865690D01*
G01X1772749Y859594D01*
G01X1769701Y856546D01*
G01X1760557Y853244D01*
G01X1732617Y853244D01*
G01X1754207Y853244D02*
G01X1776051Y819208D01*
G01X1806277Y871786D02*
G01X1812373Y875088D01*
G01X1821517Y884232D01*
G01X1821517Y819208D01*
G01X1854791Y868738D02*
G01X1854791Y871786D01*
G01X1857839Y878136D01*
G01X1860887Y881184D01*
G01X1866983Y884232D01*
G01X1879429Y884232D01*
G01X1885779Y881184D01*
G01X1888827Y878136D01*
G01X1891875Y871786D01*
G01X1891875Y865690D01*
G01X1888827Y859594D01*
G01X1882477Y850196D01*
G01X1851743Y819208D01*
G01X1894923Y819208D01*
G01X1422617Y1094286D02*
G01X1422617Y1038660D01*
G01X1422617Y1094286D02*
G01X1446493Y1094286D01*
G01X1454367Y1091746D01*
G01X1457161Y1088952D01*
G01X1459701Y1083618D01*
G01X1459701Y1078284D01*
G01X1457161Y1073204D01*
G01X1454367Y1070410D01*
G01X1446493Y1067870D01*
G01X1422617Y1067870D01*
G01X1441159Y1067870D02*
G01X1459701Y1038660D01*
G01X1487641Y1083618D02*
G01X1492975Y1086412D01*
G01X1500849Y1094286D01*
G01X1500849Y1038660D01*
G01X1534123Y1094286D02*
G01X1563333Y1094286D01*
G01X1547331Y1073204D01*
G01X1555205Y1073204D01*
G01X1560539Y1070410D01*
G01X1563333Y1067870D01*
G01X1565873Y1059742D01*
G01X1565873Y1054662D01*
G01X1563333Y1046534D01*
G01X1557999Y1041200D01*
G01X1549871Y1038660D01*
G01X1541997Y1038660D01*
G01X1534123Y1041200D01*
G01X1531329Y1043994D01*
G01X1528789Y1049328D01*
G01X1727617Y984232D02*
G01X1727617Y919208D01*
G01X1727617Y984232D02*
G01X1755557Y984232D01*
G01X1764701Y981184D01*
G01X1767749Y978136D01*
G01X1771051Y971786D01*
G01X1771051Y965690D01*
G01X1767749Y959594D01*
G01X1764701Y956546D01*
G01X1755557Y953244D01*
G01X1727617Y953244D01*
G01X1749207Y953244D02*
G01X1771051Y919208D01*
G01X1801277Y971786D02*
G01X1807373Y975088D01*
G01X1816517Y984232D01*
G01X1816517Y919208D01*
G01X1877477Y984232D02*
G01X1846743Y941052D01*
G01X1892971Y941052D01*
G01X1877477Y984232D02*
G01X1877477Y919208D01*
G01X1210118Y974232D02*
G01X1210118Y927750D01*
G01X1213166Y918606D01*
G01X1219516Y912256D01*
G01X1228660Y909208D01*
G01X1235010Y909208D01*
G01X1244154Y912256D01*
G01X1250250Y918606D01*
G01X1253552Y927750D01*
G01X1253552Y974232D01*
G01X1283778Y961786D02*
G01X1289874Y965088D01*
G01X1299018Y974232D01*
G01X1299018Y909208D01*
G01X1369376Y952642D02*
G01X1366328Y943244D01*
G01X1359978Y937148D01*
G01X1350834Y934100D01*
G01X1347786Y934100D01*
G01X1338388Y937148D01*
G01X1332292Y943244D01*
G01X1329244Y952642D01*
G01X1329244Y955690D01*
G01X1332292Y965088D01*
G01X1338388Y971184D01*
G01X1347786Y974232D01*
G01X1350834Y974232D01*
G01X1359978Y971184D01*
G01X1366328Y965088D01*
G01X1369376Y952642D01*
G01X1369376Y937148D01*
G01X1366328Y921654D01*
G01X1359978Y912256D01*
G01X1350834Y909208D01*
G01X1344484Y909208D01*
G01X1335340Y912256D01*
G01X1332292Y918606D01*
G01X-872378Y421787D02*
G01X-872378Y366161D01*
G01X-872378Y421787D02*
G01X-848502Y421787D01*
G01X-840628Y419247D01*
G01X-837834Y416453D01*
G01X-835294Y411119D01*
G01X-835294Y405785D01*
G01X-837834Y400705D01*
G01X-840628Y397911D01*
G01X-848502Y395371D01*
G01X-872378Y395371D01*
G01X-853836Y395371D02*
G01X-835294Y366161D01*
G01X-807354Y411119D02*
G01X-802020Y413913D01*
G01X-794146Y421787D01*
G01X-794146Y366161D01*
G01X822531Y1124143D02*
G01X822531Y1059119D01*
G01X822531Y1124143D02*
G01X850471Y1124143D01*
G01X859615Y1121095D01*
G01X862663Y1118047D01*
G01X865965Y1111697D01*
G01X865965Y1105601D01*
G01X862663Y1099505D01*
G01X859615Y1096457D01*
G01X850471Y1093155D01*
G01X822531Y1093155D01*
G01X844121Y1093155D02*
G01X865965Y1059119D01*
G01X899239Y1108649D02*
G01X899239Y1111697D01*
G01X902287Y1118047D01*
G01X905335Y1121095D01*
G01X911431Y1124143D01*
G01X923877Y1124143D01*
G01X930227Y1121095D01*
G01X933275Y1118047D01*
G01X936323Y1111697D01*
G01X936323Y1105601D01*
G01X933275Y1099505D01*
G01X926925Y1090107D01*
G01X896191Y1059119D01*
G01X939371Y1059119D01*
G01X822531Y1211642D02*
G01X822531Y1146618D01*
G01X822531Y1211642D02*
G01X850471Y1211642D01*
G01X859615Y1208594D01*
G01X862663Y1205546D01*
G01X865965Y1199196D01*
G01X865965Y1193100D01*
G01X862663Y1187004D01*
G01X859615Y1183956D01*
G01X850471Y1180654D01*
G01X822531Y1180654D01*
G01X844121Y1180654D02*
G01X865965Y1146618D01*
G01X902287Y1211642D02*
G01X936323Y1211642D01*
G01X917781Y1187004D01*
G01X926925Y1187004D01*
G01X933275Y1183956D01*
G01X936323Y1180654D01*
G01X939371Y1171510D01*
G01X939371Y1165160D01*
G01X936323Y1156016D01*
G01X930227Y1149666D01*
G01X920829Y1146618D01*
G01X911431Y1146618D01*
G01X902287Y1149666D01*
G01X899239Y1152968D01*
G01X896191Y1159064D01*
G01X807618Y634233D02*
G01X807618Y569209D01*
G01X807618Y634233D02*
G01X835558Y634233D01*
G01X844702Y631185D01*
G01X847750Y628137D01*
G01X851052Y621787D01*
G01X851052Y615691D01*
G01X847750Y609595D01*
G01X844702Y606547D01*
G01X835558Y603245D01*
G01X807618Y603245D01*
G01X829208Y603245D02*
G01X851052Y569209D01*
G01X912012Y634233D02*
G01X881278Y591053D01*
G01X927506Y591053D01*
G01X912012Y634233D02*
G01X912012Y569209D01*
G01X1298660Y-460765D02*
G01X1292564Y-463813D01*
G01X1286214Y-469909D01*
G01X1283166Y-476259D01*
G01X1280118Y-485403D01*
G01X1280118Y-500897D01*
G01X1283166Y-510295D01*
G01X1286214Y-516391D01*
G01X1292564Y-522741D01*
G01X1298660Y-525789D01*
G01X1311106Y-525789D01*
G01X1317202Y-522741D01*
G01X1323552Y-516391D01*
G01X1326600Y-510295D01*
G01X1329648Y-500897D01*
G01X1329648Y-485403D01*
G01X1326600Y-476259D01*
G01X1323552Y-469909D01*
G01X1317202Y-463813D01*
G01X1311106Y-460765D01*
G01X1298660Y-460765D01*
G01X1308058Y-513343D02*
G01X1326600Y-531885D01*
G01X1359874Y-473211D02*
G01X1365970Y-469909D01*
G01X1375114Y-460765D01*
G01X1375114Y-525789D01*
G01X852618Y-590765D02*
G01X852618Y-655789D01*
G01X852618Y-590765D02*
G01X880558Y-590765D01*
G01X889702Y-593813D01*
G01X892750Y-596861D01*
G01X896052Y-603211D01*
G01X896052Y-609307D01*
G01X892750Y-615403D01*
G01X889702Y-618451D01*
G01X880558Y-621753D01*
G01X852618Y-621753D01*
G01X874208Y-621753D02*
G01X896052Y-655789D01*
G01X926278Y-603211D02*
G01X932374Y-599909D01*
G01X941518Y-590765D01*
G01X941518Y-655789D01*
G01X1008828Y-590765D02*
G01X977840Y-590765D01*
G01X974792Y-618451D01*
G01X977840Y-615403D01*
G01X986984Y-612355D01*
G01X996382Y-612355D01*
G01X1005780Y-615403D01*
G01X1011876Y-621753D01*
G01X1014924Y-630897D01*
G01X1014924Y-637247D01*
G01X1011876Y-646391D01*
G01X1005780Y-652741D01*
G01X996382Y-655789D01*
G01X986984Y-655789D01*
G01X977840Y-652741D01*
G01X974792Y-649439D01*
G01X971744Y-643343D01*
G36*
G01X-1678525Y-923870D02*
G01X-1681123Y-923697D01*
G01X-1681989Y-923350D01*
G01X-1683028Y-922658D01*
G01X-1683721Y-921445D01*
G01X-1684067Y-888368D01*
G01X-1683937Y-863862D01*
G01X-1683548Y-855117D01*
G01X-1682162Y-853905D01*
G01X-1679738Y-853385D01*
G01X-1676447Y-853212D01*
G01X-1674196Y-853385D01*
G01X-1671771Y-853731D01*
G01X-1670386Y-854251D01*
G01X-1668827Y-854944D01*
G01X-1667442Y-855636D01*
G01X-1665883Y-856675D01*
G01X-1664498Y-857715D01*
G01X-1662766Y-859446D01*
G01X-1662073Y-860312D01*
G01X-1661380Y-861525D01*
G01X-1660341Y-863083D01*
G01X-1659475Y-864988D01*
G01X-1658783Y-866893D01*
G01X-1658090Y-868971D01*
G01X-1657570Y-871223D01*
G01X-1657224Y-872781D01*
G01X-1656878Y-874860D01*
G01X-1656531Y-877977D01*
G01X-1656358Y-881440D01*
G01X-1656185Y-883865D01*
G01X-1656012Y-888714D01*
G01X-1656185Y-893563D01*
G01X-1656531Y-899105D01*
G01X-1656878Y-902569D01*
G01X-1657570Y-905686D01*
G01X-1657917Y-907071D01*
G01X-1658436Y-908976D01*
G01X-1659129Y-910708D01*
G01X-1659649Y-912094D01*
G01X-1660168Y-913133D01*
G01X-1660861Y-914172D01*
G01X-1661727Y-915557D01*
G01X-1662593Y-916770D01*
G01X-1664325Y-918501D01*
G01X-1665190Y-919194D01*
G01X-1666056Y-919714D01*
G01X-1667269Y-920580D01*
G01X-1668827Y-921445D01*
G01X-1670213Y-922138D01*
G01X-1671945Y-922831D01*
G01X-1674023Y-923350D01*
G01X-1675581Y-923697D01*
G01X-1678525Y-923870D01*
G37*
G36*
G01X-1357446Y-944998D02*
G01X-1757496Y-944998D01*
G01X-1757496Y-906725D01*
G01X-1752820Y-906725D01*
G01X-1752474Y-908110D01*
G01X-1751781Y-912960D01*
G01X-1751435Y-914345D01*
G01X-1751089Y-916423D01*
G01X-1750742Y-919194D01*
G01X-1750396Y-921445D01*
G01X-1750050Y-923004D01*
G01X-1749703Y-925429D01*
G01X-1749703Y-925429D01*
G01X-1749357Y-926814D01*
G01X-1749184Y-927680D01*
G01X-1748318Y-926987D01*
G01X-1746586Y-925775D01*
G01X-1745027Y-924909D01*
G01X-1742776Y-924563D01*
G01X-1740698Y-924736D01*
G01X-1738273Y-925429D01*
G01X-1736715Y-925948D01*
G01X-1734983Y-926641D01*
G01X-1732731Y-927160D01*
G01X-1730653Y-927507D01*
G01X-1728229Y-927680D01*
G01X-1725804Y-927507D01*
G01X-1723033Y-927160D01*
G01X-1721648Y-926814D01*
G01X-1718877Y-925775D01*
G01X-1717665Y-925255D01*
G01X-1698268Y-925255D01*
G01X-1698268Y-926641D01*
G01X-1686319Y-926641D01*
G01X-1673850Y-926468D01*
G01X-1670386Y-925775D01*
G01X-1668827Y-925429D01*
G01X-1665710Y-924390D01*
G01X-1664325Y-923870D01*
G01X-1663112Y-923177D01*
G01X-1661554Y-922311D01*
G01X-1660168Y-921445D01*
G01X-1659129Y-920580D01*
G01X-1657397Y-919194D01*
G01X-1656531Y-918328D01*
G01X-1655492Y-917116D01*
G01X-1653760Y-914691D01*
G01X-1652895Y-913306D01*
G01X-1651509Y-910535D01*
G01X-1650470Y-908110D01*
G01X-1649431Y-904993D01*
G01X-1649085Y-903608D01*
G01X-1648911Y-902222D01*
G01X-1648219Y-899105D01*
G01X-1647872Y-896680D01*
G01X-1647526Y-891831D01*
G01X-1647445Y-889407D01*
G01X-1582929Y-889407D01*
G01X-1582756Y-891485D01*
G01X-1582410Y-895988D01*
G01X-1582063Y-899798D01*
G01X-1581717Y-902569D01*
G01X-1580678Y-907245D01*
G01X-1580158Y-908803D01*
G01X-1579119Y-911574D01*
G01X-1577560Y-914691D01*
G01X-1576521Y-916423D01*
G01X-1575309Y-918155D01*
G01X-1574270Y-919540D01*
G01X-1572538Y-921272D01*
G01X-1571499Y-922138D01*
G01X-1570460Y-922831D01*
G01X-1569248Y-923697D01*
G01X-1567862Y-924563D01*
G01X-1566477Y-925255D01*
G01X-1564572Y-925948D01*
G01X-1563013Y-926468D01*
G01X-1561628Y-926814D01*
G01X-1559896Y-927160D01*
G01X-1559896Y-927160D01*
G01X-1558684Y-927507D01*
G01X-1556259Y-927680D01*
G01X-1553661Y-927507D01*
G01X-1551237Y-927160D01*
G01X-1549851Y-926814D01*
G01X-1548293Y-926295D01*
G01X-1546907Y-925602D01*
G01X-1544483Y-924216D01*
G01X-1543444Y-923350D01*
G01X-1541019Y-921272D01*
G01X-1539980Y-919887D01*
G01X-1538941Y-918675D01*
G01X-1538075Y-917462D01*
G01X-1537209Y-916077D01*
G01X-1536516Y-915038D01*
G01X-1536430Y-914865D01*
G01X-1524047Y-914865D01*
G01X-1523701Y-917635D01*
G01X-1523008Y-919194D01*
G01X-1522315Y-920406D01*
G01X-1521623Y-921272D01*
G01X-1519891Y-923004D01*
G01X-1518852Y-923870D01*
G01X-1517813Y-924563D01*
G01X-1516600Y-925255D01*
G01X-1514695Y-925948D01*
G01X-1512790Y-926468D01*
G01X-1512790Y-926468D01*
G01X-1511578Y-926814D01*
G01X-1507249Y-926987D01*
G01X-1502746Y-926814D01*
G01X-1501014Y-926468D01*
G01X-1499282Y-925948D01*
G01X-1496511Y-924909D01*
G01X-1495126Y-924216D01*
G01X-1493914Y-923524D01*
G01X-1492875Y-922831D01*
G01X-1491489Y-921965D01*
G01X-1490277Y-921272D01*
G01X-1489801Y-921359D01*
G01X-1489411Y-921965D01*
G01X-1488545Y-923524D01*
G01X-1487679Y-924736D01*
G01X-1486467Y-925602D01*
G01X-1485081Y-926121D01*
G01X-1483696Y-926468D01*
G01X-1481618Y-926641D01*
G01X-1479713Y-926295D01*
G01X-1478154Y-925602D01*
G01X-1477669Y-925255D01*
G01X-1468283Y-925255D01*
G01X-1468283Y-926641D01*
G01X-1435378Y-926641D01*
G01X-1435378Y-923870D01*
G01X-1441266Y-923870D01*
G01X-1447501Y-923524D01*
G01X-1448194Y-922831D01*
G01X-1448886Y-921619D01*
G01X-1449233Y-908457D01*
G01X-1449078Y-902742D01*
G01X-1408015Y-902742D01*
G01X-1407842Y-907418D01*
G01X-1407496Y-909496D01*
G01X-1406976Y-911747D01*
G01X-1406457Y-913306D01*
G01X-1405764Y-915038D01*
G01X-1405071Y-916596D01*
G01X-1404552Y-917635D01*
G01X-1403859Y-918675D01*
G01X-1402993Y-919714D01*
G01X-1399530Y-923177D01*
G01X-1398490Y-923870D01*
G01X-1397105Y-924736D01*
G01X-1395373Y-925602D01*
G01X-1393295Y-926295D01*
G01X-1393295Y-926295D01*
G01X-1391563Y-926814D01*
G01X-1387926Y-926987D01*
G01X-1384290Y-926641D01*
G01X-1382904Y-926121D01*
G01X-1381172Y-925429D01*
G01X-1379440Y-924390D01*
G01X-1377709Y-923177D01*
G01X-1376496Y-921965D01*
G01X-1375804Y-921099D01*
G01X-1374938Y-920060D01*
G01X-1374072Y-919540D01*
G01X-1373725Y-923177D01*
G01X-1373552Y-925775D01*
G01X-1373033Y-926641D01*
G01X-1371820Y-926295D01*
G01X-1369396Y-925255D01*
G01X-1367491Y-924736D01*
G01X-1365586Y-924390D01*
G01X-1363508Y-924043D01*
G01X-1361256Y-923697D01*
G01X-1360737Y-923350D01*
G01X-1360564Y-922658D01*
G01X-1361083Y-921445D01*
G01X-1363681Y-921099D01*
G01X-1365326Y-920969D01*
G01X-1366105Y-920580D01*
G01X-1366798Y-919540D01*
G01X-1367145Y-918155D01*
G01X-1367318Y-916770D01*
G01X-1367491Y-881614D01*
G01X-1367621Y-855680D01*
G01X-1368010Y-847150D01*
G01X-1369223Y-847843D01*
G01X-1370781Y-848709D01*
G01X-1372340Y-849402D01*
G01X-1374245Y-849921D01*
G01X-1378228Y-850095D01*
G01X-1380999Y-850095D01*
G01X-1381345Y-850960D01*
G01X-1381345Y-852346D01*
G01X-1380133Y-853039D01*
G01X-1377709Y-853212D01*
G01X-1375284Y-853731D01*
G01X-1374591Y-854467D01*
G01X-1374245Y-855636D01*
G01X-1373899Y-857541D01*
G01X-1373725Y-869664D01*
G01X-1373725Y-881267D01*
G01X-1374418Y-881094D01*
G01X-1375457Y-880401D01*
G01X-1376496Y-879535D01*
G01X-1378921Y-878150D01*
G01X-1380826Y-877457D01*
G01X-1382558Y-876938D01*
G01X-1383943Y-876591D01*
G01X-1385675Y-876418D01*
G01X-1387060Y-876245D01*
G01X-1388446Y-876245D01*
G01X-1390351Y-876418D01*
G01X-1392083Y-876765D01*
G01X-1393815Y-877457D01*
G01X-1395720Y-878323D01*
G01X-1397451Y-879362D01*
G01X-1398837Y-880228D01*
G01X-1402300Y-883692D01*
G01X-1402993Y-884558D01*
G01X-1403513Y-885424D01*
G01X-1404205Y-886463D01*
G01X-1404898Y-887675D01*
G01X-1405591Y-889060D01*
G01X-1406630Y-891831D01*
G01X-1407150Y-893563D01*
G01X-1407842Y-897720D01*
G01X-1408015Y-902742D01*
G01X-1449078Y-902742D01*
G01X-1448886Y-895641D01*
G01X-1448194Y-894256D01*
G01X-1447501Y-893044D01*
G01X-1446808Y-892005D01*
G01X-1445942Y-890619D01*
G01X-1445076Y-889407D01*
G01X-1442998Y-886636D01*
G01X-1440400Y-884038D01*
G01X-1439015Y-882999D01*
G01X-1437283Y-881787D01*
G01X-1435898Y-880921D01*
G01X-1434512Y-880228D01*
G01X-1433127Y-879709D01*
G01X-1431741Y-879362D01*
G01X-1430356Y-879362D01*
G01X-1429317Y-879709D01*
G01X-1428451Y-880921D01*
G01X-1428105Y-883692D01*
G01X-1427975Y-885077D01*
G01X-1427585Y-885770D01*
G01X-1426719Y-886463D01*
G01X-1425334Y-887155D01*
G01X-1423255Y-887329D01*
G01X-1421350Y-886463D01*
G01X-1420311Y-885077D01*
G01X-1419965Y-883865D01*
G01X-1419792Y-882133D01*
G01X-1420138Y-880401D01*
G01X-1420831Y-879189D01*
G01X-1421870Y-878150D01*
G01X-1422909Y-877457D01*
G01X-1424121Y-876765D01*
G01X-1426200Y-876072D01*
G01X-1428970Y-875725D01*
G01X-1431049Y-875899D01*
G01X-1432780Y-876245D01*
G01X-1434512Y-876765D01*
G01X-1436937Y-877804D01*
G01X-1438322Y-878670D01*
G01X-1439535Y-879535D01*
G01X-1442132Y-881614D01*
G01X-1442998Y-882480D01*
G01X-1444037Y-883865D01*
G01X-1445250Y-885077D01*
G01X-1445942Y-885943D01*
G01X-1446462Y-886809D01*
G01X-1448194Y-889234D01*
G01X-1448886Y-889753D01*
G01X-1449146Y-887935D01*
G01X-1449233Y-882133D01*
G01X-1449406Y-876288D01*
G01X-1449925Y-874340D01*
G01X-1451311Y-874686D01*
G01X-1453216Y-875206D01*
G01X-1456680Y-875899D01*
G01X-1459450Y-876245D01*
G01X-1461702Y-876418D01*
G01X-1462914Y-876591D01*
G01X-1465685Y-876765D01*
G01X-1467936Y-876765D01*
G01X-1467936Y-879189D01*
G01X-1463434Y-879189D01*
G01X-1458411Y-879362D01*
G01X-1457199Y-879709D01*
G01X-1456593Y-880055D01*
G01X-1456160Y-880748D01*
G01X-1455640Y-882133D01*
G01X-1455467Y-902395D01*
G01X-1455640Y-917376D01*
G01X-1456160Y-922831D01*
G01X-1457719Y-923697D01*
G01X-1463434Y-923870D01*
G01X-1468283Y-923870D01*
G01X-1468283Y-925255D01*
G01X-1468283Y-925255D01*
G01X-1477669Y-925255D01*
G01X-1476942Y-924736D01*
G01X-1476076Y-923524D01*
G01X-1475210Y-921965D01*
G01X-1474690Y-919887D01*
G01X-1474344Y-918155D01*
G01X-1474171Y-916596D01*
G01X-1474171Y-915557D01*
G01X-1475210Y-915557D01*
G01X-1475989Y-915730D01*
G01X-1476249Y-916250D01*
G01X-1476769Y-919887D01*
G01X-1477288Y-921272D01*
G01X-1478154Y-922311D01*
G01X-1479193Y-922831D01*
G01X-1480579Y-923177D01*
G01X-1482310Y-922658D01*
G01X-1483003Y-921878D01*
G01X-1483350Y-920580D01*
G01X-1483523Y-902915D01*
G01X-1483696Y-886290D01*
G01X-1484042Y-884904D01*
G01X-1484562Y-883345D01*
G01X-1485428Y-881787D01*
G01X-1486467Y-880575D01*
G01X-1487333Y-879709D01*
G01X-1488199Y-879016D01*
G01X-1489065Y-878496D01*
G01X-1490277Y-877804D01*
G01X-1492182Y-877111D01*
G01X-1494087Y-876591D01*
G01X-1495819Y-876245D01*
G01X-1498243Y-875899D01*
G01X-1501707Y-875725D01*
G01X-1504131Y-875899D01*
G01X-1507249Y-876245D01*
G01X-1508461Y-876418D01*
G01X-1509846Y-876765D01*
G01X-1511405Y-877284D01*
G01X-1512790Y-877804D01*
G01X-1514176Y-878496D01*
G01X-1515388Y-879189D01*
G01X-1517466Y-880575D01*
G01X-1518332Y-881267D01*
G01X-1519198Y-882133D01*
G01X-1519891Y-882999D01*
G01X-1520584Y-884211D01*
G01X-1521103Y-885597D01*
G01X-1521276Y-887502D01*
G01X-1520930Y-889407D01*
G01X-1520237Y-890273D01*
G01X-1519025Y-890965D01*
G01X-1516947Y-891312D01*
G01X-1515821Y-891139D01*
G01X-1514869Y-890619D01*
G01X-1514176Y-889840D01*
G01X-1513830Y-888887D01*
G01X-1513656Y-887155D01*
G01X-1513830Y-885943D01*
G01X-1514003Y-884385D01*
G01X-1513656Y-882999D01*
G01X-1512964Y-882133D01*
G01X-1512098Y-881267D01*
G01X-1510885Y-880401D01*
G01X-1509154Y-879535D01*
G01X-1506902Y-879016D01*
G01X-1505170Y-878670D01*
G01X-1500841Y-878496D01*
G01X-1496511Y-878670D01*
G01X-1495126Y-879016D01*
G01X-1493740Y-879535D01*
G01X-1492701Y-880228D01*
G01X-1491835Y-881267D01*
G01X-1491143Y-882480D01*
G01X-1490623Y-883865D01*
G01X-1490277Y-885250D01*
G01X-1489930Y-886982D01*
G01X-1489757Y-891139D01*
G01X-1489757Y-894083D01*
G01X-1494433Y-894602D01*
G01X-1496511Y-894949D01*
G01X-1498936Y-895295D01*
G01X-1502746Y-895988D01*
G01X-1505863Y-896680D01*
G01X-1507422Y-897200D01*
G01X-1509327Y-897720D01*
G01X-1510885Y-898239D01*
G01X-1512617Y-898932D01*
G01X-1514176Y-899625D01*
G01X-1515388Y-900317D01*
G01X-1516774Y-901183D01*
G01X-1517986Y-902049D01*
G01X-1520584Y-904647D01*
G01X-1521450Y-905859D01*
G01X-1522315Y-907418D01*
G01X-1523008Y-908803D01*
G01X-1523528Y-910535D01*
G01X-1523874Y-912267D01*
G01X-1524047Y-914865D01*
G01X-1536430Y-914865D01*
G01X-1535477Y-912960D01*
G01X-1534438Y-910535D01*
G01X-1533399Y-907071D01*
G01X-1533399Y-906205D01*
G01X-1534438Y-905513D01*
G01X-1535477Y-904993D01*
G01X-1535780Y-905080D01*
G01X-1535997Y-905686D01*
G01X-1536690Y-908457D01*
G01X-1537729Y-910881D01*
G01X-1538248Y-912267D01*
G01X-1538941Y-913479D01*
G01X-1539807Y-914865D01*
G01X-1540673Y-916077D01*
G01X-1542058Y-917809D01*
G01X-1542924Y-918675D01*
G01X-1545695Y-920753D01*
G01X-1546907Y-921445D01*
G01X-1550371Y-922831D01*
G01X-1552449Y-923177D01*
G01X-1554354Y-923350D01*
G01X-1556432Y-923524D01*
G01X-1558510Y-923350D01*
G01X-1559896Y-923004D01*
G01X-1561281Y-922485D01*
G01X-1562494Y-921965D01*
G01X-1563533Y-921445D01*
G01X-1564745Y-920580D01*
G01X-1565957Y-919540D01*
G01X-1566823Y-918675D01*
G01X-1567516Y-917809D01*
G01X-1568035Y-916943D01*
G01X-1568728Y-915904D01*
G01X-1569421Y-914518D01*
G01X-1570806Y-911401D01*
G01X-1571326Y-909842D01*
G01X-1572538Y-904993D01*
G01X-1573058Y-902222D01*
G01X-1573404Y-899798D01*
G01X-1573577Y-897200D01*
G01X-1573750Y-894949D01*
G01X-1574097Y-889407D01*
G01X-1574270Y-887848D01*
G01X-1574097Y-886290D01*
G01X-1573750Y-881787D01*
G01X-1573404Y-877630D01*
G01X-1573058Y-874860D01*
G01X-1572365Y-872089D01*
G01X-1572019Y-870530D01*
G01X-1571499Y-868971D01*
G01X-1570980Y-867586D01*
G01X-1570460Y-866027D01*
G01X-1569767Y-864295D01*
G01X-1569075Y-862737D01*
G01X-1567343Y-859966D01*
G01X-1566650Y-858927D01*
G01X-1565265Y-857195D01*
G01X-1564052Y-856156D01*
G01X-1562840Y-855290D01*
G01X-1560415Y-853905D01*
G01X-1558857Y-853385D01*
G01X-1557125Y-853039D01*
G01X-1553661Y-852865D01*
G01X-1550198Y-853039D01*
G01X-1548466Y-853558D01*
G01X-1546907Y-854251D01*
G01X-1545868Y-854770D01*
G01X-1544829Y-855463D01*
G01X-1543617Y-856502D01*
G01X-1542405Y-857715D01*
G01X-1540673Y-859793D01*
G01X-1539807Y-861178D01*
G01X-1538941Y-862737D01*
G01X-1537555Y-865508D01*
G01X-1536863Y-867066D01*
G01X-1536343Y-868625D01*
G01X-1536040Y-869318D01*
G01X-1535477Y-869664D01*
G01X-1534265Y-869664D01*
G01X-1533399Y-869145D01*
G01X-1533226Y-867759D01*
G01X-1533572Y-866200D01*
G01X-1533919Y-864469D01*
G01X-1534265Y-862390D01*
G01X-1534785Y-860312D01*
G01X-1535131Y-858407D01*
G01X-1535304Y-857195D01*
G01X-1535997Y-854424D01*
G01X-1536343Y-852519D01*
G01X-1537036Y-850441D01*
G01X-1537512Y-850051D01*
G01X-1539114Y-850960D01*
G01X-1540500Y-851307D01*
G01X-1542058Y-851480D01*
G01X-1543617Y-851307D01*
G01X-1545349Y-850960D01*
G01X-1549159Y-849921D01*
G01X-1551930Y-849575D01*
G01X-1555220Y-849402D01*
G01X-1557471Y-849575D01*
G01X-1558684Y-849748D01*
G01X-1559896Y-850095D01*
G01X-1563360Y-851134D01*
G01X-1564918Y-851826D01*
G01X-1566304Y-852519D01*
G01X-1568382Y-853905D01*
G01X-1570114Y-855290D01*
G01X-1571845Y-857022D01*
G01X-1572538Y-857888D01*
G01X-1573404Y-858754D01*
G01X-1574270Y-859793D01*
G01X-1575136Y-861178D01*
G01X-1576175Y-862737D01*
G01X-1577907Y-865854D01*
G01X-1578600Y-867413D01*
G01X-1579119Y-868625D01*
G01X-1580158Y-871396D01*
G01X-1580678Y-873301D01*
G01X-1581197Y-875379D01*
G01X-1581717Y-877630D01*
G01X-1582063Y-880401D01*
G01X-1582236Y-882306D01*
G01X-1582410Y-883519D01*
G01X-1582756Y-887329D01*
G01X-1582929Y-889407D01*
G01X-1647445Y-889407D01*
G01X-1647353Y-886636D01*
G01X-1647526Y-881440D01*
G01X-1647872Y-877284D01*
G01X-1648045Y-876072D01*
G01X-1648738Y-873301D01*
G01X-1648911Y-872089D01*
G01X-1649258Y-870876D01*
G01X-1649777Y-869491D01*
G01X-1650297Y-867932D01*
G01X-1650816Y-866720D01*
G01X-1652029Y-864295D01*
G01X-1652895Y-862910D01*
G01X-1653934Y-861351D01*
G01X-1654973Y-859966D01*
G01X-1657570Y-857368D01*
G01X-1659302Y-855983D01*
G01X-1660515Y-855117D01*
G01X-1661900Y-854251D01*
G01X-1663285Y-853558D01*
G01X-1664844Y-852865D01*
G01X-1668654Y-851480D01*
G01X-1670213Y-851134D01*
G01X-1672637Y-850787D01*
G01X-1674023Y-850441D01*
G01X-1686145Y-850095D01*
G01X-1697575Y-850095D01*
G01X-1697749Y-850960D01*
G01X-1697749Y-852346D01*
G01X-1696710Y-853039D01*
G01X-1694631Y-853212D01*
G01X-1692553Y-853731D01*
G01X-1691860Y-854424D01*
G01X-1691514Y-855463D01*
G01X-1691341Y-889407D01*
G01X-1691514Y-914128D01*
G01X-1692034Y-922831D01*
G01X-1693592Y-923697D01*
G01X-1696363Y-923870D01*
G01X-1698268Y-923870D01*
G01X-1698268Y-925255D01*
G01X-1698268Y-925255D01*
G01X-1717665Y-925255D01*
G01X-1715586Y-923870D01*
G01X-1714720Y-923177D01*
G01X-1712989Y-921445D01*
G01X-1711950Y-920233D01*
G01X-1711084Y-918848D01*
G01X-1710391Y-917982D01*
G01X-1709871Y-917116D01*
G01X-1709352Y-916077D01*
G01X-1708313Y-913652D01*
G01X-1707966Y-912440D01*
G01X-1707793Y-911228D01*
G01X-1707100Y-907418D01*
G01X-1707100Y-905686D01*
G01X-1707447Y-903261D01*
G01X-1707793Y-901530D01*
G01X-1708140Y-900317D01*
G01X-1709179Y-897893D01*
G01X-1709698Y-896854D01*
G01X-1711084Y-894775D01*
G01X-1711776Y-893910D01*
G01X-1714374Y-891312D01*
G01X-1715760Y-890273D01*
G01X-1717491Y-889060D01*
G01X-1719050Y-888021D01*
G01X-1720435Y-887155D01*
G01X-1721648Y-886463D01*
G01X-1723726Y-885424D01*
G01X-1726150Y-884385D01*
G01X-1729268Y-882999D01*
G01X-1730480Y-882480D01*
G01X-1732558Y-881440D01*
G01X-1733770Y-880921D01*
G01X-1735156Y-880228D01*
G01X-1736368Y-879535D01*
G01X-1738446Y-878496D01*
G01X-1739485Y-877804D01*
G01X-1740698Y-877111D01*
G01X-1742083Y-876072D01*
G01X-1743295Y-874860D01*
G01X-1743988Y-873994D01*
G01X-1744681Y-872781D01*
G01X-1745374Y-871223D01*
G01X-1745720Y-869837D01*
G01X-1745893Y-868625D01*
G01X-1746066Y-866547D01*
G01X-1745893Y-864469D01*
G01X-1745547Y-863083D01*
G01X-1745027Y-861525D01*
G01X-1744508Y-860139D01*
G01X-1743988Y-858927D01*
G01X-1743295Y-857715D01*
G01X-1742430Y-856675D01*
G01X-1741564Y-855810D01*
G01X-1740351Y-854770D01*
G01X-1738966Y-854078D01*
G01X-1737754Y-853558D01*
G01X-1736368Y-853212D01*
G01X-1735156Y-853039D01*
G01X-1731173Y-852865D01*
G01X-1727190Y-853039D01*
G01X-1725631Y-853385D01*
G01X-1724072Y-853905D01*
G01X-1722514Y-854597D01*
G01X-1721128Y-855290D01*
G01X-1720262Y-855983D01*
G01X-1718530Y-857715D01*
G01X-1717665Y-858754D01*
G01X-1716972Y-859793D01*
G01X-1716106Y-861005D01*
G01X-1715240Y-862564D01*
G01X-1714547Y-863776D01*
G01X-1712642Y-867586D01*
G01X-1711776Y-868279D01*
G01X-1711127Y-868279D01*
G01X-1710564Y-867932D01*
G01X-1710174Y-867153D01*
G01X-1710045Y-865854D01*
G01X-1710218Y-863776D01*
G01X-1710564Y-859273D01*
G01X-1710910Y-855117D01*
G01X-1711257Y-853039D01*
G01X-1711430Y-850787D01*
G01X-1711776Y-850095D01*
G01X-1712469Y-850614D01*
G01X-1713335Y-851480D01*
G01X-1714374Y-852000D01*
G01X-1715933Y-852346D01*
G01X-1717491Y-852346D01*
G01X-1718877Y-852000D01*
G01X-1721648Y-850960D01*
G01X-1725804Y-849921D01*
G01X-1729268Y-849575D01*
G01X-1731519Y-849402D01*
G01X-1733770Y-849575D01*
G01X-1735329Y-849748D01*
G01X-1737061Y-850095D01*
G01X-1738793Y-850614D01*
G01X-1740178Y-851134D01*
G01X-1741390Y-851826D01*
G01X-1742949Y-852692D01*
G01X-1744161Y-853558D01*
G01X-1745374Y-854597D01*
G01X-1746413Y-855810D01*
G01X-1748491Y-858407D01*
G01X-1749357Y-859620D01*
G01X-1750223Y-861351D01*
G01X-1750742Y-862737D01*
G01X-1751262Y-864295D01*
G01X-1751781Y-866547D01*
G01X-1751955Y-869664D01*
G01X-1751608Y-872262D01*
G01X-1750915Y-875033D01*
G01X-1749876Y-877457D01*
G01X-1749184Y-878670D01*
G01X-1747798Y-880401D01*
G01X-1746759Y-881267D01*
G01X-1745720Y-881960D01*
G01X-1743295Y-883692D01*
G01X-1739659Y-885770D01*
G01X-1732731Y-889234D01*
G01X-1729614Y-890619D01*
G01X-1726843Y-892005D01*
G01X-1723206Y-894083D01*
G01X-1722167Y-894775D01*
G01X-1719743Y-896507D01*
G01X-1718877Y-897200D01*
G01X-1717145Y-898932D01*
G01X-1716106Y-900144D01*
G01X-1715240Y-901530D01*
G01X-1714547Y-902915D01*
G01X-1714028Y-904647D01*
G01X-1713681Y-906725D01*
G01X-1713681Y-908457D01*
G01X-1714028Y-912960D01*
G01X-1714374Y-914345D01*
G01X-1714894Y-915730D01*
G01X-1715413Y-916943D01*
G01X-1716106Y-918328D01*
G01X-1716972Y-919540D01*
G01X-1718704Y-921272D01*
G01X-1719743Y-922138D01*
G01X-1720955Y-922831D01*
G01X-1722514Y-923350D01*
G01X-1724245Y-923870D01*
G01X-1726497Y-924216D01*
G01X-1728575Y-924390D01*
G01X-1729614Y-924390D01*
G01X-1731173Y-924216D01*
G01X-1732905Y-923870D01*
G01X-1736715Y-922831D01*
G01X-1738273Y-922138D01*
G01X-1739485Y-921445D01*
G01X-1740698Y-920580D01*
G01X-1742430Y-919367D01*
G01X-1743815Y-917809D01*
G01X-1745547Y-915384D01*
G01X-1746413Y-913999D01*
G01X-1747105Y-912613D01*
G01X-1747798Y-911055D01*
G01X-1749184Y-907591D01*
G01X-1749703Y-906032D01*
G01X-1750396Y-904993D01*
G01X-1751608Y-905166D01*
G01X-1752647Y-905859D01*
G01X-1752820Y-906725D01*
G01X-1757496Y-906725D01*
G01X-1757496Y-830352D01*
G01X-1357446Y-830352D01*
G01X-1357446Y-944998D01*
G37*
G36*
G01X-1506383Y-923870D02*
G01X-1509327Y-923697D01*
G01X-1510193Y-923524D01*
G01X-1511232Y-923177D01*
G01X-1512444Y-922311D01*
G01X-1513656Y-921272D01*
G01X-1514349Y-920233D01*
G01X-1515042Y-919021D01*
G01X-1515735Y-917462D01*
G01X-1516254Y-915384D01*
G01X-1516427Y-912267D01*
G01X-1516081Y-909669D01*
G01X-1515561Y-908284D01*
G01X-1514869Y-906898D01*
G01X-1514003Y-905686D01*
G01X-1512271Y-903954D01*
G01X-1511232Y-903088D01*
G01X-1509846Y-902222D01*
G01X-1508288Y-901356D01*
G01X-1506729Y-900664D01*
G01X-1504997Y-899971D01*
G01X-1502919Y-899278D01*
G01X-1500841Y-898759D01*
G01X-1499282Y-898412D01*
G01X-1495819Y-897720D01*
G01X-1493394Y-897373D01*
G01X-1491316Y-897027D01*
G01X-1489757Y-896854D01*
G01X-1489757Y-907418D01*
G01X-1489887Y-915384D01*
G01X-1490277Y-918155D01*
G01X-1491489Y-918848D01*
G01X-1492875Y-919714D01*
G01X-1494087Y-920406D01*
G01X-1496858Y-921792D01*
G01X-1498070Y-922311D01*
G01X-1499455Y-922831D01*
G01X-1501360Y-923350D01*
G01X-1503092Y-923697D01*
G01X-1506383Y-923870D01*
G37*
G36*
G01X-1385675Y-923350D02*
G01X-1387753Y-923350D01*
G01X-1389831Y-923177D01*
G01X-1391563Y-922831D01*
G01X-1392775Y-922311D01*
G01X-1393815Y-921792D01*
G01X-1394854Y-921099D01*
G01X-1395893Y-920233D01*
G01X-1396759Y-919021D01*
G01X-1397798Y-917462D01*
G01X-1398664Y-915730D01*
G01X-1399356Y-913652D01*
G01X-1399876Y-911920D01*
G01X-1400222Y-910189D01*
G01X-1400569Y-907418D01*
G01X-1400742Y-901703D01*
G01X-1400569Y-897027D01*
G01X-1400222Y-894256D01*
G01X-1399530Y-891831D01*
G01X-1399010Y-890100D01*
G01X-1398317Y-888368D01*
G01X-1397625Y-886982D01*
G01X-1396585Y-885250D01*
G01X-1395200Y-883519D01*
G01X-1393988Y-882480D01*
G01X-1393122Y-881787D01*
G01X-1391910Y-881094D01*
G01X-1390524Y-880575D01*
G01X-1389139Y-880228D01*
G01X-1387753Y-880055D01*
G01X-1386021Y-879882D01*
G01X-1384290Y-880055D01*
G01X-1383077Y-880228D01*
G01X-1381865Y-880575D01*
G01X-1380133Y-881094D01*
G01X-1378575Y-881614D01*
G01X-1375977Y-883345D01*
G01X-1374938Y-884558D01*
G01X-1374418Y-885424D01*
G01X-1373899Y-886982D01*
G01X-1373725Y-899798D01*
G01X-1373899Y-911920D01*
G01X-1374418Y-913306D01*
G01X-1375111Y-914865D01*
G01X-1375804Y-916250D01*
G01X-1376496Y-917462D01*
G01X-1377189Y-918501D01*
G01X-1378228Y-919887D01*
G01X-1379440Y-920926D01*
G01X-1380653Y-921619D01*
G01X-1382385Y-922485D01*
G01X-1383943Y-923004D01*
G01X-1385675Y-923350D01*
G37*
G01X-2337375Y1021732D02*
G01X-2337375Y956708D01*
G01X-2337375Y1021732D02*
G01X-2312483Y956708D01*
G01X-2287845Y1021732D02*
G01X-2312483Y956708D01*
G01X-2287845Y1021732D02*
G01X-2287845Y956708D01*
G01X-2257619Y1021732D02*
G01X-2257619Y956708D01*
G01X-2181165Y1006238D02*
G01X-2184213Y1012588D01*
G01X-2190309Y1018684D01*
G01X-2196659Y1021732D01*
G01X-2208851Y1021732D01*
G01X-2215201Y1018684D01*
G01X-2221297Y1012588D01*
G01X-2224345Y1006238D01*
G01X-2227393Y997094D01*
G01X-2227393Y981600D01*
G01X-2224345Y972202D01*
G01X-2221297Y966106D01*
G01X-2215201Y959756D01*
G01X-2208851Y956708D01*
G01X-2196659Y956708D01*
G01X-2190309Y959756D01*
G01X-2184213Y966106D01*
G01X-2181165Y972202D01*
G01X-2150939Y1009286D02*
G01X-2144843Y1012588D01*
G01X-2135699Y1021732D01*
G01X-2135699Y956708D01*
G01X2062616Y1019232D02*
G01X2062616Y954208D01*
G01X2062616Y1019232D02*
G01X2087508Y954208D01*
G01X2112146Y1019232D02*
G01X2087508Y954208D01*
G01X2112146Y1019232D02*
G01X2112146Y954208D01*
G01X2142372Y1019232D02*
G01X2142372Y954208D01*
G01X2218826Y1003738D02*
G01X2215778Y1010088D01*
G01X2209682Y1016184D01*
G01X2203332Y1019232D01*
G01X2191140Y1019232D01*
G01X2184790Y1016184D01*
G01X2178694Y1010088D01*
G01X2175646Y1003738D01*
G01X2172598Y994594D01*
G01X2172598Y979100D01*
G01X2175646Y969702D01*
G01X2178694Y963606D01*
G01X2184790Y957256D01*
G01X2191140Y954208D01*
G01X2203332Y954208D01*
G01X2209682Y957256D01*
G01X2215778Y963606D01*
G01X2218826Y969702D01*
G01X2252100Y1003738D02*
G01X2252100Y1006786D01*
G01X2255148Y1013136D01*
G01X2258196Y1016184D01*
G01X2264292Y1019232D01*
G01X2276738Y1019232D01*
G01X2283088Y1016184D01*
G01X2286136Y1013136D01*
G01X2289184Y1006786D01*
G01X2289184Y1000690D01*
G01X2286136Y994594D01*
G01X2279786Y985196D01*
G01X2249052Y954208D01*
G01X2292232Y954208D01*
G36*
G01X2107496Y138250D02*
G01X2107496Y-147500D01*
G01X1992849Y-147500D01*
G01X1992849Y-100048D01*
G01X2012592Y-100048D01*
G01X2012592Y-105936D01*
G01X2013631Y-106282D01*
G01X2015882Y-106802D01*
G01X2017787Y-107321D01*
G01X2019173Y-107668D01*
G01X2020385Y-107841D01*
G01X2024542Y-108880D01*
G01X2026447Y-109226D01*
G01X2028178Y-109746D01*
G01X2030430Y-110265D01*
G01X2032508Y-110612D01*
G01X2034932Y-111305D01*
G01X2038396Y-111997D01*
G01X2039955Y-112517D01*
G01X2041687Y-112863D01*
G01X2042899Y-113036D01*
G01X2044631Y-113556D01*
G01X2047055Y-114075D01*
G01X2048787Y-114422D01*
G01X2052943Y-115461D01*
G01X2054675Y-115807D01*
G01X2056580Y-116327D01*
G01X2059005Y-116846D01*
G01X2060910Y-117193D01*
G01X2062468Y-117712D01*
G01X2064893Y-118232D01*
G01X2066798Y-118578D01*
G01X2068357Y-119098D01*
G01X2070781Y-119617D01*
G01X2071777Y-119877D01*
G01X2071993Y-120310D01*
G01X2070954Y-121003D01*
G01X2069049Y-121522D01*
G01X2066452Y-122042D01*
G01X2064373Y-122388D01*
G01X2062815Y-122908D01*
G01X2061083Y-123254D01*
G01X2059871Y-123427D01*
G01X2056753Y-124120D01*
G01X2055368Y-124466D01*
G01X2051904Y-125159D01*
G01X2049133Y-125852D01*
G01X2045670Y-126545D01*
G01X2044284Y-126891D01*
G01X2040821Y-127584D01*
G01X2037703Y-128276D01*
G01X2036318Y-128623D01*
G01X2034240Y-128969D01*
G01X2032335Y-129489D01*
G01X2030949Y-129835D01*
G01X2029737Y-130008D01*
G01X2026620Y-130701D01*
G01X2023156Y-131394D01*
G01X2020385Y-132086D01*
G01X2018653Y-132433D01*
G01X2016575Y-132779D01*
G01X2014670Y-133299D01*
G01X2013285Y-133818D01*
G01X2012765Y-134857D01*
G01X2012592Y-141092D01*
G01X2012592Y-146460D01*
G01X2013458Y-146634D01*
G01X2015017Y-146634D01*
G01X2015536Y-146071D01*
G01X2015709Y-144729D01*
G01X2016056Y-142477D01*
G01X2017268Y-141611D01*
G01X2018653Y-141092D01*
G01X2019692Y-141092D01*
G01X2052424Y-141265D01*
G01X2076756Y-141438D01*
G01X2085328Y-141958D01*
G01X2086194Y-143516D01*
G01X2086367Y-145248D01*
G01X2086584Y-145941D01*
G01X2087233Y-146287D01*
G01X2087233Y-146287D01*
G01X2088619Y-146460D01*
G01X2089009Y-144772D01*
G01X2089138Y-139706D01*
G01X2089138Y-132952D01*
G01X2086367Y-132952D01*
G01X2086367Y-134511D01*
G01X2086194Y-135896D01*
G01X2085675Y-136935D01*
G01X2084852Y-137628D01*
G01X2083770Y-137975D01*
G01X2054156Y-138148D01*
G01X2032898Y-138061D01*
G01X2025927Y-137801D01*
G01X2026966Y-137282D01*
G01X2028352Y-136935D01*
G01X2032162Y-136243D01*
G01X2033893Y-135723D01*
G01X2036664Y-135204D01*
G01X2038742Y-134684D01*
G01X2039955Y-134338D01*
G01X2041167Y-134165D01*
G01X2043072Y-133818D01*
G01X2045150Y-133299D01*
G01X2047402Y-132779D01*
G01X2049480Y-132433D01*
G01X2052251Y-131740D01*
G01X2053982Y-131394D01*
G01X2056407Y-130874D01*
G01X2058485Y-130355D01*
G01X2060563Y-130008D01*
G01X2062295Y-129662D01*
G01X2064027Y-129142D01*
G01X2066798Y-128623D01*
G01X2068876Y-128103D01*
G01X2070088Y-127757D01*
G01X2071301Y-127584D01*
G01X2073206Y-127237D01*
G01X2076669Y-126371D01*
G01X2077882Y-126198D01*
G01X2080999Y-125505D01*
G01X2082384Y-125159D01*
G01X2085848Y-124466D01*
G01X2087233Y-124120D01*
G01X2088446Y-123600D01*
G01X2088965Y-123038D01*
G01X2089138Y-122042D01*
G01X2089138Y-120830D01*
G01X2087926Y-120656D01*
G01X2086021Y-120137D01*
G01X2084636Y-119790D01*
G01X2083423Y-119617D01*
G01X2079267Y-118578D01*
G01X2077535Y-118232D01*
G01X2075630Y-117712D01*
G01X2073379Y-117193D01*
G01X2071647Y-116846D01*
G01X2069222Y-116154D01*
G01X2065759Y-115461D01*
G01X2063334Y-114768D01*
G01X2059871Y-114075D01*
G01X2058312Y-113556D01*
G01X2056580Y-113210D01*
G01X2055368Y-113036D01*
G01X2051212Y-111997D01*
G01X2049480Y-111651D01*
G01X2047748Y-111131D01*
G01X2045497Y-110612D01*
G01X2043592Y-110265D01*
G01X2042033Y-109746D01*
G01X2039608Y-109226D01*
G01X2037703Y-108880D01*
G01X2036145Y-108360D01*
G01X2033720Y-107841D01*
G01X2031815Y-107495D01*
G01X2030257Y-106975D01*
G01X2027832Y-106455D01*
G01X2025927Y-106109D01*
G01X2025234Y-105416D01*
G01X2032508Y-105027D01*
G01X2054675Y-104897D01*
G01X2084809Y-105243D01*
G01X2085848Y-106282D01*
G01X2086238Y-107321D01*
G01X2086367Y-109053D01*
G01X2086367Y-111131D01*
G01X2089138Y-111131D01*
G01X2089138Y-91735D01*
G01X2087926Y-91735D01*
G01X2086974Y-91952D01*
G01X2086541Y-92601D01*
G01X2086367Y-94506D01*
G01X2086194Y-95459D01*
G01X2085675Y-96238D01*
G01X2083943Y-97277D01*
G01X2050519Y-97623D01*
G01X2026014Y-97493D01*
G01X2017268Y-97104D01*
G01X2016532Y-96454D01*
G01X2016056Y-95545D01*
G01X2015709Y-93467D01*
G01X2015579Y-92601D01*
G01X2015190Y-92081D01*
G01X2013804Y-91735D01*
G01X2013112Y-92038D01*
G01X2012765Y-92947D01*
G01X2012592Y-100048D01*
G01X1992849Y-100048D01*
G01X1992849Y-62987D01*
G01X2038223Y-62987D01*
G01X2038396Y-65238D01*
G01X2038742Y-66970D01*
G01X2039262Y-68875D01*
G01X2039782Y-70260D01*
G01X2040301Y-71473D01*
G01X2042033Y-74244D01*
G01X2043072Y-75629D01*
G01X2045150Y-77707D01*
G01X2046189Y-78573D01*
G01X2047228Y-79266D01*
G01X2048094Y-79959D01*
G01X2049133Y-80651D01*
G01X2050519Y-81517D01*
G01X2052251Y-82383D01*
G01X2053809Y-83076D01*
G01X2055714Y-83769D01*
G01X2057792Y-84288D01*
G01X2059524Y-84635D01*
G01X2061602Y-84981D01*
G01X2065066Y-85154D01*
G01X2067837Y-84981D01*
G01X2070262Y-84635D01*
G01X2071820Y-84288D01*
G01X2073552Y-83769D01*
G01X2074937Y-83249D01*
G01X2076150Y-82730D01*
G01X2077535Y-82037D01*
G01X2079094Y-81171D01*
G01X2080652Y-80132D01*
G01X2081865Y-79093D01*
G01X2083597Y-77707D01*
G01X2084982Y-75975D01*
G01X2085848Y-75110D01*
G01X2086541Y-74070D01*
G01X2087060Y-73031D01*
G01X2087753Y-71819D01*
G01X2088446Y-70260D01*
G01X2089138Y-68355D01*
G01X2089658Y-65585D01*
G01X2089658Y-65585D01*
G01X2090004Y-63506D01*
G01X2090177Y-62121D01*
G01X2090004Y-60735D01*
G01X2089658Y-57618D01*
G01X2089312Y-56060D01*
G01X2088792Y-54328D01*
G01X2088099Y-52769D01*
G01X2087407Y-51384D01*
G01X2086541Y-49998D01*
G01X2085328Y-48266D01*
G01X2081518Y-44456D01*
G01X2080652Y-43764D01*
G01X2079787Y-43244D01*
G01X2078747Y-42551D01*
G01X2077535Y-41859D01*
G01X2075977Y-41166D01*
G01X2074245Y-40473D01*
G01X2072513Y-39954D01*
G01X2070954Y-39607D01*
G01X2069569Y-39261D01*
G01X2068010Y-39088D01*
G01X2066798Y-38915D01*
G01X2063681Y-38741D01*
G01X2060563Y-38915D01*
G01X2058139Y-39261D01*
G01X2056407Y-39780D01*
G01X2054156Y-40473D01*
G01X2052597Y-41166D01*
G01X2049826Y-42551D01*
G01X2048441Y-43417D01*
G01X2047228Y-44283D01*
G01X2044631Y-46361D01*
G01X2043765Y-47227D01*
G01X2043072Y-48093D01*
G01X2042206Y-49305D01*
G01X2041167Y-50864D01*
G01X2040301Y-52423D01*
G01X2039608Y-54155D01*
G01X2039089Y-56060D01*
G01X2038742Y-57618D01*
G01X2038396Y-59696D01*
G01X2038223Y-62987D01*
G01X1992849Y-62987D01*
G01X1992849Y-7395D01*
G01X2021771Y-7395D01*
G01X2021771Y-8781D01*
G01X2022810Y-9474D01*
G01X2024368Y-9647D01*
G01X2028005Y-10166D01*
G01X2029391Y-10513D01*
G01X2030949Y-11032D01*
G01X2032508Y-11725D01*
G01X2034067Y-12591D01*
G01X2035279Y-13457D01*
G01X2036145Y-14323D01*
G01X2037011Y-15535D01*
G01X2037877Y-17094D01*
G01X2038569Y-19172D01*
G01X2038916Y-23155D01*
G01X2038916Y-25926D01*
G01X2039782Y-26099D01*
G01X2041340Y-26099D01*
G01X2041860Y-24324D01*
G01X2042033Y-19345D01*
G01X2042033Y-12764D01*
G01X2059697Y-12764D01*
G01X2077882Y-12591D01*
G01X2079613Y-12245D01*
G01X2081518Y-11725D01*
G01X2083077Y-11032D01*
G01X2084809Y-9993D01*
G01X2086194Y-8954D01*
G01X2086887Y-8088D01*
G01X2087407Y-7222D01*
G01X2088099Y-6183D01*
G01X2088792Y-4278D01*
G01X2088792Y-4278D01*
G01X2089485Y-2200D01*
G01X2089831Y571D01*
G01X2089658Y2995D01*
G01X2089138Y4554D01*
G01X2088619Y6286D01*
G01X2087926Y7671D01*
G01X2087060Y8884D01*
G01X2084636Y11308D01*
G01X2083597Y12174D01*
G01X2082384Y12867D01*
G01X2080999Y13560D01*
G01X2079267Y14252D01*
G01X2077189Y14945D01*
G01X2075457Y15118D01*
G01X2075024Y14728D01*
G01X2074764Y13906D01*
G01X2074808Y13126D01*
G01X2075284Y12867D01*
G01X2076669Y12520D01*
G01X2078228Y12001D01*
G01X2079613Y11481D01*
G01X2080826Y10789D01*
G01X2082384Y9750D01*
G01X2083770Y8191D01*
G01X2084636Y6286D01*
G01X2085155Y4381D01*
G01X2085328Y1437D01*
G01X2085155Y-1161D01*
G01X2084636Y-2546D01*
G01X2083770Y-3759D01*
G01X2082904Y-4625D01*
G01X2081518Y-5490D01*
G01X2079613Y-6010D01*
G01X2077535Y-6356D01*
G01X2059178Y-6530D01*
G01X2042033Y-6530D01*
G01X2042033Y11135D01*
G01X2041167Y11308D01*
G01X2039608Y11308D01*
G01X2039089Y8970D01*
G01X2038916Y2303D01*
G01X2038916Y-6530D01*
G01X2021944Y-6530D01*
G01X2021771Y-7395D01*
G01X1992849Y-7395D01*
G01X1992849Y51313D01*
G01X2038223Y51313D01*
G01X2038396Y49062D01*
G01X2038742Y47330D01*
G01X2039262Y45425D01*
G01X2039782Y44040D01*
G01X2040301Y42827D01*
G01X2042033Y40056D01*
G01X2043072Y38671D01*
G01X2045150Y36593D01*
G01X2046189Y35727D01*
G01X2047228Y35034D01*
G01X2048094Y34341D01*
G01X2049133Y33649D01*
G01X2050519Y32783D01*
G01X2052251Y31917D01*
G01X2053809Y31224D01*
G01X2055714Y30531D01*
G01X2057792Y30012D01*
G01X2059524Y29665D01*
G01X2061602Y29319D01*
G01X2065066Y29146D01*
G01X2067837Y29319D01*
G01X2070262Y29665D01*
G01X2071820Y30012D01*
G01X2073552Y30531D01*
G01X2074937Y31051D01*
G01X2076150Y31570D01*
G01X2077535Y32263D01*
G01X2079094Y33129D01*
G01X2080652Y34168D01*
G01X2081865Y35207D01*
G01X2083597Y36593D01*
G01X2084982Y38325D01*
G01X2085848Y39190D01*
G01X2086541Y40230D01*
G01X2087060Y41269D01*
G01X2087753Y42481D01*
G01X2088446Y44040D01*
G01X2089138Y45945D01*
G01X2089658Y48715D01*
G01X2089658Y48715D01*
G01X2090004Y50794D01*
G01X2090177Y52179D01*
G01X2090004Y53565D01*
G01X2089658Y56682D01*
G01X2089312Y58240D01*
G01X2088792Y59972D01*
G01X2088099Y61531D01*
G01X2087407Y62916D01*
G01X2086541Y64302D01*
G01X2085328Y66034D01*
G01X2081518Y69844D01*
G01X2080652Y70536D01*
G01X2079787Y71056D01*
G01X2078747Y71749D01*
G01X2077535Y72441D01*
G01X2075977Y73134D01*
G01X2074245Y73827D01*
G01X2072513Y74346D01*
G01X2070954Y74693D01*
G01X2069569Y75039D01*
G01X2068010Y75212D01*
G01X2066798Y75385D01*
G01X2063681Y75559D01*
G01X2060563Y75385D01*
G01X2058139Y75039D01*
G01X2056407Y74520D01*
G01X2054156Y73827D01*
G01X2052597Y73134D01*
G01X2049826Y71749D01*
G01X2048441Y70883D01*
G01X2047228Y70017D01*
G01X2044631Y67939D01*
G01X2043765Y67073D01*
G01X2043072Y66207D01*
G01X2042206Y64995D01*
G01X2041167Y63436D01*
G01X2040301Y61877D01*
G01X2039608Y60145D01*
G01X2039089Y58240D01*
G01X2038742Y56682D01*
G01X2038396Y54604D01*
G01X2038223Y51313D01*
G01X1992849Y51313D01*
G01X1992849Y102921D01*
G01X2036837Y102921D01*
G01X2037184Y101536D01*
G01X2037703Y99631D01*
G01X2038396Y96167D01*
G01X2038742Y93396D01*
G01X2038916Y91145D01*
G01X2039089Y89933D01*
G01X2039262Y87162D01*
G01X2039262Y84910D01*
G01X2041687Y84910D01*
G01X2041687Y89413D01*
G01X2041860Y94435D01*
G01X2042206Y95648D01*
G01X2042552Y96254D01*
G01X2043245Y96687D01*
G01X2044631Y97206D01*
G01X2064893Y97380D01*
G01X2079873Y97206D01*
G01X2085328Y96687D01*
G01X2086194Y95128D01*
G01X2086367Y89413D01*
G01X2086367Y84564D01*
G01X2087753Y84564D01*
G01X2087753Y84564D01*
G01X2089138Y84564D01*
G01X2089138Y117469D01*
G01X2086367Y117469D01*
G01X2086367Y111580D01*
G01X2086021Y105346D01*
G01X2085328Y104653D01*
G01X2084116Y103960D01*
G01X2070954Y103614D01*
G01X2058139Y103960D01*
G01X2056753Y104653D01*
G01X2055541Y105346D01*
G01X2054502Y106039D01*
G01X2053117Y106905D01*
G01X2051904Y107770D01*
G01X2049133Y109849D01*
G01X2046536Y112446D01*
G01X2045497Y113832D01*
G01X2044284Y115564D01*
G01X2043418Y116949D01*
G01X2042726Y118335D01*
G01X2042206Y119720D01*
G01X2041860Y121105D01*
G01X2041860Y122491D01*
G01X2042206Y123530D01*
G01X2043418Y124396D01*
G01X2046189Y124742D01*
G01X2047575Y124872D01*
G01X2048267Y125262D01*
G01X2048960Y126128D01*
G01X2049653Y127513D01*
G01X2049826Y129591D01*
G01X2048960Y131496D01*
G01X2047575Y132535D01*
G01X2046362Y132882D01*
G01X2044631Y133055D01*
G01X2042899Y132709D01*
G01X2041687Y132016D01*
G01X2040647Y130977D01*
G01X2039955Y129938D01*
G01X2039262Y128725D01*
G01X2038569Y126647D01*
G01X2038223Y123876D01*
G01X2038396Y121798D01*
G01X2038742Y120066D01*
G01X2039262Y118335D01*
G01X2040301Y115910D01*
G01X2041167Y114525D01*
G01X2042033Y113312D01*
G01X2044111Y110715D01*
G01X2044977Y109849D01*
G01X2046362Y108810D01*
G01X2047575Y107597D01*
G01X2048441Y106905D01*
G01X2049307Y106385D01*
G01X2051731Y104653D01*
G01X2052251Y103960D01*
G01X2050432Y103701D01*
G01X2044631Y103614D01*
G01X2038786Y103441D01*
G01X2036837Y102921D01*
G01X1992849Y102921D01*
G01X1992849Y138250D01*
G01X2107496Y138250D01*
G37*
G36*
G01X2087407Y-61948D02*
G01X2087233Y-63506D01*
G01X2087060Y-64545D01*
G01X2086887Y-65931D01*
G01X2086367Y-67316D01*
G01X2085502Y-69048D01*
G01X2084289Y-70780D01*
G01X2083077Y-72165D01*
G01X2082038Y-73031D01*
G01X2081172Y-73724D01*
G01X2079960Y-74590D01*
G01X2078228Y-75456D01*
G01X2076669Y-76149D01*
G01X2075111Y-76668D01*
G01X2073725Y-77015D01*
G01X2071993Y-77361D01*
G01X2069915Y-77707D01*
G01X2064027Y-77880D01*
G01X2058485Y-77707D01*
G01X2056061Y-77361D01*
G01X2054329Y-76841D01*
G01X2052251Y-76149D01*
G01X2050519Y-75456D01*
G01X2048960Y-74590D01*
G01X2047402Y-73551D01*
G01X2046189Y-72512D01*
G01X2044457Y-70780D01*
G01X2043418Y-69395D01*
G01X2042379Y-67663D01*
G01X2041687Y-66104D01*
G01X2041167Y-64199D01*
G01X2040994Y-61082D01*
G01X2041167Y-58657D01*
G01X2041687Y-57272D01*
G01X2042379Y-55713D01*
G01X2043245Y-54328D01*
G01X2044111Y-53115D01*
G01X2045843Y-51384D01*
G01X2046709Y-50691D01*
G01X2047575Y-50171D01*
G01X2048614Y-49479D01*
G01X2049826Y-48786D01*
G01X2051038Y-48266D01*
G01X2052424Y-47747D01*
G01X2054156Y-47227D01*
G01X2055714Y-46881D01*
G01X2057100Y-46535D01*
G01X2059524Y-46188D01*
G01X2065586Y-46015D01*
G01X2070608Y-46188D01*
G01X2073032Y-46535D01*
G01X2074764Y-47054D01*
G01X2077016Y-47747D01*
G01X2078574Y-48440D01*
G01X2079960Y-49132D01*
G01X2081172Y-49998D01*
G01X2082904Y-51384D01*
G01X2083770Y-52250D01*
G01X2084809Y-53462D01*
G01X2085675Y-55020D01*
G01X2086367Y-56579D01*
G01X2086887Y-58484D01*
G01X2087233Y-60043D01*
G01X2087407Y-61948D01*
G37*
G36*
G01X2087407Y52352D02*
G01X2087233Y50794D01*
G01X2087060Y49755D01*
G01X2086887Y48369D01*
G01X2086367Y46984D01*
G01X2085502Y45252D01*
G01X2084289Y43520D01*
G01X2083077Y42135D01*
G01X2082038Y41269D01*
G01X2081172Y40576D01*
G01X2079960Y39710D01*
G01X2078228Y38844D01*
G01X2076669Y38151D01*
G01X2075111Y37632D01*
G01X2073725Y37285D01*
G01X2071993Y36939D01*
G01X2069915Y36593D01*
G01X2064027Y36420D01*
G01X2058485Y36593D01*
G01X2056061Y36939D01*
G01X2054329Y37459D01*
G01X2052251Y38151D01*
G01X2050519Y38844D01*
G01X2048960Y39710D01*
G01X2047402Y40749D01*
G01X2046189Y41788D01*
G01X2044457Y43520D01*
G01X2043418Y44905D01*
G01X2042379Y46637D01*
G01X2041687Y48196D01*
G01X2041167Y50101D01*
G01X2040994Y53218D01*
G01X2041167Y55643D01*
G01X2041687Y57028D01*
G01X2042379Y58587D01*
G01X2043245Y59972D01*
G01X2044111Y61185D01*
G01X2045843Y62916D01*
G01X2046709Y63609D01*
G01X2047575Y64129D01*
G01X2048614Y64821D01*
G01X2049826Y65514D01*
G01X2051038Y66034D01*
G01X2052424Y66553D01*
G01X2054156Y67073D01*
G01X2055714Y67419D01*
G01X2057100Y67765D01*
G01X2059524Y68112D01*
G01X2065586Y68285D01*
G01X2070608Y68112D01*
G01X2073032Y67765D01*
G01X2074764Y67246D01*
G01X2077016Y66553D01*
G01X2078574Y65860D01*
G01X2079960Y65168D01*
G01X2081172Y64302D01*
G01X2082904Y62916D01*
G01X2083770Y62050D01*
G01X2084809Y60838D01*
G01X2085675Y59280D01*
G01X2086367Y57721D01*
G01X2086887Y55816D01*
G01X2087233Y54257D01*
G01X2087407Y52352D01*
G37*
G36*
G01X2344642Y-1414997D02*
G01X2229996Y-1414997D01*
G01X2229996Y-1395255D01*
G01X2231727Y-1395255D01*
G01X2231727Y-1396640D01*
G01X2248180Y-1396640D01*
G01X2265151Y-1396467D01*
G01X2266883Y-1395947D01*
G01X2269135Y-1395428D01*
G01X2270693Y-1394908D01*
G01X2271906Y-1394389D01*
G01X2273291Y-1393696D01*
G01X2274676Y-1392830D01*
G01X2275716Y-1391964D01*
G01X2277447Y-1390579D01*
G01X2278313Y-1389713D01*
G01X2279179Y-1388674D01*
G01X2280565Y-1386595D01*
G01X2281257Y-1385210D01*
G01X2281950Y-1383478D01*
G01X2282470Y-1381573D01*
G01X2282816Y-1379149D01*
G01X2282989Y-1376031D01*
G01X2282816Y-1373953D01*
G01X2282643Y-1372395D01*
G01X2282296Y-1370663D01*
G01X2281257Y-1367545D01*
G01X2280565Y-1365987D01*
G01X2279699Y-1364428D01*
G01X2278833Y-1363216D01*
G01X2277447Y-1361484D01*
G01X2276235Y-1360445D01*
G01X2273811Y-1358713D01*
G01X2272252Y-1357847D01*
G01X2270693Y-1357155D01*
G01X2269308Y-1356462D01*
G01X2267922Y-1355942D01*
G01X2266883Y-1355250D01*
G01X2266970Y-1354773D01*
G01X2267037Y-1354730D01*
G01X2291995Y-1354730D01*
G01X2291995Y-1358540D01*
G01X2314162Y-1358540D01*
G01X2314162Y-1371355D01*
G01X2314162Y-1371355D01*
G01X2314162Y-1384171D01*
G01X2318318Y-1384171D01*
G01X2318318Y-1358540D01*
G01X2340486Y-1358540D01*
G01X2340486Y-1354730D01*
G01X2318318Y-1354730D01*
G01X2318318Y-1329445D01*
G01X2314162Y-1329445D01*
G01X2314162Y-1354730D01*
G01X2291995Y-1354730D01*
G01X2267037Y-1354730D01*
G01X2267576Y-1354384D01*
G01X2269308Y-1353691D01*
G01X2270520Y-1352998D01*
G01X2271559Y-1352479D01*
G01X2272598Y-1351786D01*
G01X2274330Y-1350400D01*
G01X2276062Y-1348669D01*
G01X2276928Y-1347456D01*
G01X2277794Y-1345725D01*
G01X2278486Y-1344166D01*
G01X2278833Y-1342780D01*
G01X2279006Y-1341395D01*
G01X2279352Y-1338278D01*
G01X2279526Y-1336892D01*
G01X2279006Y-1332736D01*
G01X2278660Y-1331350D01*
G01X2278140Y-1329965D01*
G01X2277447Y-1328580D01*
G01X2276408Y-1326848D01*
G01X2274330Y-1324770D01*
G01X2273291Y-1323904D01*
G01X2272079Y-1323211D01*
G01X2270693Y-1322518D01*
G01X2268961Y-1321825D01*
G01X2267230Y-1321306D01*
G01X2265498Y-1320960D01*
G01X2263420Y-1320613D01*
G01X2260649Y-1320267D01*
G01X2245928Y-1320094D01*
G01X2232766Y-1320094D01*
G01X2232593Y-1320960D01*
G01X2232593Y-1322345D01*
G01X2233632Y-1323038D01*
G01X2235711Y-1323211D01*
G01X2237789Y-1323730D01*
G01X2238481Y-1324510D01*
G01X2238828Y-1325809D01*
G01X2239001Y-1359752D01*
G01X2238828Y-1384214D01*
G01X2238308Y-1392830D01*
G01X2236750Y-1393696D01*
G01X2233806Y-1393869D01*
G01X2231727Y-1393869D01*
G01X2231727Y-1395255D01*
G01X2231727Y-1395255D01*
G01X2229996Y-1395255D01*
G01X2229996Y-1300351D01*
G01X2344642Y-1300351D01*
G01X2344642Y-1414997D01*
G37*
G36*
G01X2253895Y-1393869D02*
G01X2248872Y-1393696D01*
G01X2248006Y-1393350D01*
G01X2247141Y-1392657D01*
G01X2246621Y-1391445D01*
G01X2246275Y-1373953D01*
G01X2246275Y-1357155D01*
G01X2253548Y-1357155D01*
G01X2261341Y-1357328D01*
G01X2262900Y-1357674D01*
G01X2264459Y-1358194D01*
G01X2266883Y-1359233D01*
G01X2268269Y-1360099D01*
G01X2269481Y-1361138D01*
G01X2270347Y-1362004D01*
G01X2271040Y-1362870D01*
G01X2272252Y-1365294D01*
G01X2272945Y-1366853D01*
G01X2273464Y-1368758D01*
G01X2273811Y-1370836D01*
G01X2273984Y-1373087D01*
G01X2274157Y-1374992D01*
G01X2274330Y-1376551D01*
G01X2274157Y-1378110D01*
G01X2273811Y-1381920D01*
G01X2273464Y-1383478D01*
G01X2272945Y-1385037D01*
G01X2272252Y-1386422D01*
G01X2271386Y-1387635D01*
G01X2270001Y-1389366D01*
G01X2269135Y-1390232D01*
G01X2267922Y-1391271D01*
G01X2266191Y-1392137D01*
G01X2264805Y-1392657D01*
G01X2263073Y-1393176D01*
G01X2260302Y-1393696D01*
G01X2253895Y-1393869D01*
G37*
G36*
G01X2252856Y-1354037D02*
G01X2246448Y-1353864D01*
G01X2246275Y-1339836D01*
G01X2246621Y-1325289D01*
G01X2247314Y-1324250D01*
G01X2248526Y-1323557D01*
G01X2254068Y-1323211D01*
G01X2259263Y-1323384D01*
G01X2261688Y-1323730D01*
G01X2262900Y-1324077D01*
G01X2265325Y-1325116D01*
G01X2266364Y-1325635D01*
G01X2267230Y-1326328D01*
G01X2268961Y-1328060D01*
G01X2269654Y-1329099D01*
G01X2270174Y-1330138D01*
G01X2270866Y-1331697D01*
G01X2271213Y-1333775D01*
G01X2271386Y-1335160D01*
G01X2271559Y-1338451D01*
G01X2271386Y-1341741D01*
G01X2271040Y-1344166D01*
G01X2270520Y-1345551D01*
G01X2269827Y-1346937D01*
G01X2269135Y-1348149D01*
G01X2268269Y-1349188D01*
G01X2267403Y-1350054D01*
G01X2266191Y-1351093D01*
G01X2264805Y-1351959D01*
G01X2263593Y-1352652D01*
G01X2262207Y-1353345D01*
G01X2260302Y-1353864D01*
G01X2252856Y-1354037D01*
G37*
G36*
G01X-1880350Y-1414997D02*
G01X-1994996Y-1414997D01*
G01X-1994996Y-1395255D01*
G01X-1993264Y-1395255D01*
G01X-1993264Y-1396640D01*
G01X-1976812Y-1396640D01*
G01X-1959840Y-1396467D01*
G01X-1958108Y-1395947D01*
G01X-1955857Y-1395428D01*
G01X-1954298Y-1394908D01*
G01X-1953086Y-1394389D01*
G01X-1951700Y-1393696D01*
G01X-1950315Y-1392830D01*
G01X-1949276Y-1391964D01*
G01X-1947544Y-1390579D01*
G01X-1946678Y-1389713D01*
G01X-1945812Y-1388674D01*
G01X-1944427Y-1386595D01*
G01X-1943734Y-1385210D01*
G01X-1943042Y-1383478D01*
G01X-1942522Y-1381573D01*
G01X-1942175Y-1379149D01*
G01X-1942002Y-1376031D01*
G01X-1942175Y-1373953D01*
G01X-1942349Y-1372395D01*
G01X-1942695Y-1370663D01*
G01X-1943734Y-1367545D01*
G01X-1944427Y-1365987D01*
G01X-1945293Y-1364428D01*
G01X-1946159Y-1363216D01*
G01X-1947544Y-1361484D01*
G01X-1948757Y-1360445D01*
G01X-1951181Y-1358713D01*
G01X-1952740Y-1357847D01*
G01X-1954298Y-1357155D01*
G01X-1955337Y-1356635D01*
G01X-1934382Y-1356635D01*
G01X-1934382Y-1358540D01*
G01X-1884852Y-1358540D01*
G01X-1884852Y-1354730D01*
G01X-1934382Y-1354730D01*
G01X-1934382Y-1356635D01*
G01X-1934382Y-1356635D01*
G01X-1955337Y-1356635D01*
G01X-1955684Y-1356462D01*
G01X-1957069Y-1355942D01*
G01X-1958108Y-1355250D01*
G01X-1958022Y-1354773D01*
G01X-1957415Y-1354384D01*
G01X-1955684Y-1353691D01*
G01X-1954472Y-1352998D01*
G01X-1953432Y-1352479D01*
G01X-1952393Y-1351786D01*
G01X-1950662Y-1350400D01*
G01X-1948930Y-1348669D01*
G01X-1948064Y-1347456D01*
G01X-1947198Y-1345725D01*
G01X-1946505Y-1344166D01*
G01X-1946159Y-1342780D01*
G01X-1945985Y-1341395D01*
G01X-1945639Y-1338278D01*
G01X-1945466Y-1336892D01*
G01X-1945985Y-1332736D01*
G01X-1946332Y-1331350D01*
G01X-1946852Y-1329965D01*
G01X-1947544Y-1328580D01*
G01X-1948583Y-1326848D01*
G01X-1950662Y-1324770D01*
G01X-1951700Y-1323904D01*
G01X-1952913Y-1323211D01*
G01X-1954298Y-1322518D01*
G01X-1956030Y-1321825D01*
G01X-1957762Y-1321306D01*
G01X-1959494Y-1320960D01*
G01X-1961572Y-1320613D01*
G01X-1964343Y-1320267D01*
G01X-1979063Y-1320094D01*
G01X-1992225Y-1320094D01*
G01X-1992398Y-1320960D01*
G01X-1992398Y-1322345D01*
G01X-1991359Y-1323038D01*
G01X-1989281Y-1323211D01*
G01X-1987203Y-1323730D01*
G01X-1986510Y-1324510D01*
G01X-1986164Y-1325809D01*
G01X-1985990Y-1359752D01*
G01X-1986164Y-1384214D01*
G01X-1986683Y-1392830D01*
G01X-1988242Y-1393696D01*
G01X-1991186Y-1393869D01*
G01X-1993264Y-1393869D01*
G01X-1993264Y-1395255D01*
G01X-1993264Y-1395255D01*
G01X-1994996Y-1395255D01*
G01X-1994996Y-1300351D01*
G01X-1880350Y-1300351D01*
G01X-1880350Y-1414997D01*
G37*
G36*
G01X-1971097Y-1393869D02*
G01X-1976119Y-1393696D01*
G01X-1976985Y-1393350D01*
G01X-1977851Y-1392657D01*
G01X-1978370Y-1391445D01*
G01X-1978717Y-1373953D01*
G01X-1978717Y-1357155D01*
G01X-1971443Y-1357155D01*
G01X-1963650Y-1357328D01*
G01X-1962092Y-1357674D01*
G01X-1960533Y-1358194D01*
G01X-1958108Y-1359233D01*
G01X-1956723Y-1360099D01*
G01X-1955510Y-1361138D01*
G01X-1954645Y-1362004D01*
G01X-1953952Y-1362870D01*
G01X-1952740Y-1365294D01*
G01X-1952047Y-1366853D01*
G01X-1951527Y-1368758D01*
G01X-1951181Y-1370836D01*
G01X-1951008Y-1373087D01*
G01X-1950835Y-1374992D01*
G01X-1950662Y-1376551D01*
G01X-1950835Y-1378110D01*
G01X-1951181Y-1381920D01*
G01X-1951527Y-1383478D01*
G01X-1952047Y-1385037D01*
G01X-1952740Y-1386422D01*
G01X-1953605Y-1387635D01*
G01X-1954991Y-1389366D01*
G01X-1955857Y-1390232D01*
G01X-1957069Y-1391271D01*
G01X-1958801Y-1392137D01*
G01X-1960187Y-1392657D01*
G01X-1961918Y-1393176D01*
G01X-1964689Y-1393696D01*
G01X-1971097Y-1393869D01*
G37*
G36*
G01X-1972136Y-1354037D02*
G01X-1978544Y-1353864D01*
G01X-1978717Y-1339836D01*
G01X-1978370Y-1325289D01*
G01X-1977678Y-1324250D01*
G01X-1976465Y-1323557D01*
G01X-1970924Y-1323211D01*
G01X-1965728Y-1323384D01*
G01X-1963304Y-1323730D01*
G01X-1962092Y-1324077D01*
G01X-1959667Y-1325116D01*
G01X-1958628Y-1325635D01*
G01X-1957762Y-1326328D01*
G01X-1956030Y-1328060D01*
G01X-1955337Y-1329099D01*
G01X-1954818Y-1330138D01*
G01X-1954125Y-1331697D01*
G01X-1953779Y-1333775D01*
G01X-1953605Y-1335160D01*
G01X-1953432Y-1338451D01*
G01X-1953605Y-1341741D01*
G01X-1953952Y-1344166D01*
G01X-1954472Y-1345551D01*
G01X-1955164Y-1346937D01*
G01X-1955857Y-1348149D01*
G01X-1956723Y-1349188D01*
G01X-1957589Y-1350054D01*
G01X-1958801Y-1351093D01*
G01X-1960187Y-1351959D01*
G01X-1961399Y-1352652D01*
G01X-1962784Y-1353345D01*
G01X-1964689Y-1353864D01*
G01X-1972136Y-1354037D01*
G37*
G01X1759099Y263740D02*
G01X1756051Y270090D01*
G01X1749701Y276186D01*
G01X1743605Y279234D01*
G01X1731159Y279234D01*
G01X1725063Y276186D01*
G01X1718713Y270090D01*
G01X1715665Y263740D01*
G01X1712617Y254596D01*
G01X1712617Y239102D01*
G01X1715665Y229704D01*
G01X1718713Y223608D01*
G01X1725063Y217258D01*
G01X1731159Y214210D01*
G01X1743605Y214210D01*
G01X1749701Y217258D01*
G01X1756051Y223608D01*
G01X1759099Y229704D01*
G01X1826409Y270090D02*
G01X1823361Y276186D01*
G01X1813963Y279234D01*
G01X1807867Y279234D01*
G01X1798469Y276186D01*
G01X1792373Y266788D01*
G01X1789325Y251548D01*
G01X1789325Y236054D01*
G01X1792373Y223608D01*
G01X1798469Y217258D01*
G01X1807867Y214210D01*
G01X1810915Y214210D01*
G01X1820059Y217258D01*
G01X1826409Y223608D01*
G01X1829457Y232752D01*
G01X1829457Y236054D01*
G01X1826409Y245198D01*
G01X1820059Y251548D01*
G01X1810915Y254596D01*
G01X1807867Y254596D01*
G01X1798469Y251548D01*
G01X1792373Y245198D01*
G01X1789325Y236054D01*
G01X1971050Y775089D02*
G01X1964700Y781185D01*
G01X1955556Y784233D01*
G01X1943110Y784233D01*
G01X1933712Y781185D01*
G01X1927616Y775089D01*
G01X1927616Y768739D01*
G01X1930664Y762643D01*
G01X1933712Y759595D01*
G01X1940062Y756547D01*
G01X1958604Y750197D01*
G01X1964700Y747149D01*
G01X1967748Y744101D01*
G01X1971050Y737751D01*
G01X1971050Y728607D01*
G01X1964700Y722257D01*
G01X1955556Y719209D01*
G01X1943110Y719209D01*
G01X1933712Y722257D01*
G01X1927616Y728607D01*
G01X2001276Y784233D02*
G01X2016516Y719209D01*
G01X2032010Y784233D02*
G01X2016516Y719209D01*
G01X2032010Y784233D02*
G01X2047504Y719209D01*
G01X2062998Y784233D02*
G01X2047504Y719209D01*
G01X2096272Y768739D02*
G01X2096272Y771787D01*
G01X2099320Y778137D01*
G01X2102368Y781185D01*
G01X2108464Y784233D01*
G01X2120910Y784233D01*
G01X2127260Y781185D01*
G01X2130308Y778137D01*
G01X2133356Y771787D01*
G01X2133356Y765691D01*
G01X2130308Y759595D01*
G01X2123958Y750197D01*
G01X2093224Y719209D01*
G01X2136404Y719209D01*
G36*
G01X2207896Y252500D02*
G01X1864996Y252500D01*
G01X1864996Y272242D01*
G01X1866728Y272242D01*
G01X1866728Y270857D01*
G01X1883180Y270857D01*
G01X1900152Y271030D01*
G01X1901884Y271550D01*
G01X1904135Y272069D01*
G01X1905694Y272589D01*
G01X1906906Y273108D01*
G01X1908292Y273801D01*
G01X1909677Y274667D01*
G01X1910716Y275533D01*
G01X1912448Y276918D01*
G01X1913314Y277784D01*
G01X1914180Y278823D01*
G01X1915565Y280901D01*
G01X1916258Y282287D01*
G01X1916951Y284019D01*
G01X1917470Y285924D01*
G01X1917817Y288348D01*
G01X1917990Y291466D01*
G01X1917817Y293544D01*
G01X1917644Y295102D01*
G01X1917297Y296834D01*
G01X1916258Y299951D01*
G01X1915565Y301510D01*
G01X1914699Y303069D01*
G01X1913834Y304281D01*
G01X1912448Y306013D01*
G01X1911236Y307052D01*
G01X1908811Y308784D01*
G01X1907253Y309650D01*
G01X1905694Y310342D01*
G01X1904309Y311035D01*
G01X1902923Y311555D01*
G01X1901884Y312247D01*
G01X1901971Y312724D01*
G01X1902577Y313113D01*
G01X1904309Y313806D01*
G01X1905521Y314499D01*
G01X1906560Y315018D01*
G01X1907599Y315711D01*
G01X1909331Y317096D01*
G01X1911063Y318828D01*
G01X1911929Y320041D01*
G01X1912275Y320733D01*
G01X1924571Y320733D01*
G01X1924571Y318309D01*
G01X1926129Y318309D01*
G01X1928208Y318136D01*
G01X1929420Y317789D01*
G01X1930459Y316923D01*
G01X1930979Y315711D01*
G01X1931325Y313979D01*
G01X1931498Y297700D01*
G01X1931671Y282114D01*
G01X1932018Y280555D01*
G01X1932537Y278823D01*
G01X1933057Y277438D01*
G01X1933749Y276052D01*
G01X1934615Y274840D01*
G01X1936347Y273108D01*
G01X1937386Y272416D01*
G01X1938599Y271896D01*
G01X1940157Y271203D01*
G01X1940157Y271203D01*
G01X1941716Y270684D01*
G01X1945699Y270511D01*
G01X1949682Y270684D01*
G01X1951241Y271030D01*
G01X1952973Y271550D01*
G01X1954704Y272242D01*
G01X1956090Y272935D01*
G01X1957302Y273801D01*
G01X1958514Y274840D01*
G01X1959380Y275706D01*
G01X1960419Y276918D01*
G01X1961285Y278131D01*
G01X1961978Y278996D01*
G01X1962281Y279256D01*
G01X1962498Y278996D01*
G01X1962671Y274667D01*
G01X1962671Y270857D01*
G01X1963710Y271030D01*
G01X1965269Y271550D01*
G01X1966827Y272242D01*
G01X1968905Y272935D01*
G01X1970637Y273281D01*
G01X1971849Y273455D01*
G01X1973928Y273628D01*
G01X1975486Y273628D01*
G01X1975486Y276052D01*
G01X1974101Y276052D01*
G01X1972196Y276226D01*
G01X1970984Y276572D01*
G01X1969771Y277438D01*
G01X1969079Y278996D01*
G01X1968905Y301683D01*
G01X1968905Y320214D01*
G01X1986397Y320214D01*
G01X1986397Y318655D01*
G01X1988172Y318136D01*
G01X1993151Y317962D01*
G01X1999732Y317962D01*
G01X1999732Y300298D01*
G01X1999905Y282114D01*
G01X2000251Y280382D01*
G01X2000771Y278477D01*
G01X2001464Y276918D01*
G01X2002503Y275186D01*
G01X2003542Y273801D01*
G01X2004408Y273108D01*
G01X2005274Y272589D01*
G01X2006313Y271896D01*
G01X2008218Y271203D01*
G01X2008218Y271203D01*
G01X2010296Y270511D01*
G01X2013067Y270164D01*
G01X2015491Y270337D01*
G01X2017050Y270857D01*
G01X2018782Y271376D01*
G01X2020167Y272069D01*
G01X2021379Y272935D01*
G01X2023804Y275360D01*
G01X2024670Y276399D01*
G01X2025363Y277611D01*
G01X2026055Y278996D01*
G01X2026748Y280728D01*
G01X2027441Y282806D01*
G01X2027614Y284538D01*
G01X2027224Y284971D01*
G01X2026402Y285231D01*
G01X2025622Y285188D01*
G01X2025363Y284711D01*
G01X2025016Y283326D01*
G01X2024497Y281767D01*
G01X2023977Y280382D01*
G01X2023284Y279170D01*
G01X2022245Y277611D01*
G01X2020687Y276226D01*
G01X2018782Y275360D01*
G01X2016877Y274840D01*
G01X2013933Y274667D01*
G01X2011335Y274840D01*
G01X2009949Y275360D01*
G01X2008737Y276226D01*
G01X2007871Y277091D01*
G01X2007005Y278477D01*
G01X2006486Y280382D01*
G01X2006139Y282460D01*
G01X2005966Y300817D01*
G01X2005966Y317962D01*
G01X2023631Y317962D01*
G01X2023804Y318828D01*
G01X2023804Y320214D01*
G01X2043547Y320214D01*
G01X2043547Y318655D01*
G01X2045322Y318136D01*
G01X2050301Y317962D01*
G01X2056882Y317962D01*
G01X2056882Y300298D01*
G01X2057055Y282114D01*
G01X2057401Y280382D01*
G01X2057921Y278477D01*
G01X2058614Y276918D01*
G01X2059653Y275186D01*
G01X2060692Y273801D01*
G01X2061558Y273108D01*
G01X2062424Y272589D01*
G01X2063463Y271896D01*
G01X2065368Y271203D01*
G01X2065368Y271203D01*
G01X2067446Y270511D01*
G01X2070217Y270164D01*
G01X2072641Y270337D01*
G01X2074200Y270857D01*
G01X2075932Y271376D01*
G01X2077317Y272069D01*
G01X2078529Y272935D01*
G01X2080954Y275360D01*
G01X2081820Y276399D01*
G01X2082513Y277611D01*
G01X2083205Y278996D01*
G01X2083898Y280728D01*
G01X2084591Y282806D01*
G01X2084764Y284538D01*
G01X2084374Y284971D01*
G01X2083552Y285231D01*
G01X2082772Y285188D01*
G01X2082513Y284711D01*
G01X2082166Y283326D01*
G01X2081647Y281767D01*
G01X2081127Y280382D01*
G01X2080434Y279170D01*
G01X2079395Y277611D01*
G01X2077837Y276226D01*
G01X2075932Y275360D01*
G01X2074027Y274840D01*
G01X2071083Y274667D01*
G01X2068485Y274840D01*
G01X2067099Y275360D01*
G01X2065887Y276226D01*
G01X2065021Y277091D01*
G01X2064155Y278477D01*
G01X2063636Y280382D01*
G01X2063289Y282460D01*
G01X2063172Y294929D01*
G01X2098792Y294929D01*
G01X2098965Y292158D01*
G01X2099311Y289734D01*
G01X2099658Y288175D01*
G01X2100177Y286443D01*
G01X2100697Y285058D01*
G01X2101216Y283846D01*
G01X2101909Y282460D01*
G01X2102775Y280901D01*
G01X2103814Y279343D01*
G01X2104853Y278131D01*
G01X2106239Y276399D01*
G01X2107970Y275013D01*
G01X2108836Y274147D01*
G01X2109875Y273455D01*
G01X2110914Y272935D01*
G01X2112127Y272242D01*
G01X2113685Y271550D01*
G01X2115590Y270857D01*
G01X2118361Y270337D01*
G01X2118361Y270337D01*
G01X2120439Y269991D01*
G01X2121825Y269818D01*
G01X2123210Y269991D01*
G01X2126328Y270337D01*
G01X2127886Y270684D01*
G01X2129618Y271203D01*
G01X2131177Y271896D01*
G01X2131869Y272242D01*
G01X2154210Y272242D01*
G01X2154210Y270857D01*
G01X2172914Y270857D01*
G01X2172914Y273628D01*
G01X2170835Y273628D01*
G01X2169060Y273801D01*
G01X2167891Y274321D01*
G01X2167199Y275143D01*
G01X2166852Y276226D01*
G01X2166679Y292851D01*
G01X2166809Y304497D01*
G01X2167199Y308611D01*
G01X2168584Y310342D01*
G01X2171182Y312940D01*
G01X2172394Y313979D01*
G01X2173953Y315018D01*
G01X2175338Y315884D01*
G01X2176550Y316577D01*
G01X2177763Y317096D01*
G01X2178975Y317443D01*
G01X2180360Y317789D01*
G01X2182092Y318136D01*
G01X2183478Y318136D01*
G01X2184863Y317962D01*
G01X2186595Y317443D01*
G01X2188154Y316577D01*
G01X2189366Y315365D01*
G01X2190232Y313806D01*
G01X2190924Y312074D01*
G01X2191444Y309476D01*
G01X2191617Y291639D01*
G01X2191444Y279256D01*
G01X2190924Y274667D01*
G01X2189366Y273801D01*
G01X2186941Y273628D01*
G01X2185383Y273628D01*
G01X2185383Y270857D01*
G01X2204086Y270857D01*
G01X2204086Y273628D01*
G01X2202008Y273628D01*
G01X2200233Y273801D01*
G01X2199064Y274321D01*
G01X2198371Y275230D01*
G01X2198025Y276572D01*
G01X2197852Y293717D01*
G01X2197679Y309823D01*
G01X2196986Y312940D01*
G01X2196466Y314326D01*
G01X2195774Y315711D01*
G01X2195081Y316750D01*
G01X2193349Y318482D01*
G01X2192137Y319521D01*
G01X2190232Y320387D01*
G01X2188154Y321080D01*
G01X2186422Y321426D01*
G01X2185209Y321599D01*
G01X2182958Y321772D01*
G01X2180707Y321599D01*
G01X2179148Y321253D01*
G01X2177416Y320733D01*
G01X2176031Y320214D01*
G01X2174645Y319521D01*
G01X2173260Y318655D01*
G01X2172221Y317962D01*
G01X2169623Y315884D01*
G01X2167891Y314152D01*
G01X2167025Y313633D01*
G01X2166766Y314715D01*
G01X2166679Y318309D01*
G01X2166679Y323158D01*
G01X2165813Y322985D01*
G01X2164601Y322465D01*
G01X2163389Y321772D01*
G01X2161657Y321253D01*
G01X2159579Y320906D01*
G01X2156461Y320733D01*
G01X2154556Y320733D01*
G01X2154556Y318309D01*
G01X2156461Y318309D01*
G01X2158886Y318136D01*
G01X2159752Y317616D01*
G01X2160271Y316057D01*
G01X2160444Y295276D01*
G01X2160098Y275186D01*
G01X2159405Y274321D01*
G01X2158193Y273801D01*
G01X2155769Y273628D01*
G01X2154210Y273628D01*
G01X2154210Y272242D01*
G01X2154210Y272242D01*
G01X2131869Y272242D01*
G01X2132562Y272589D01*
G01X2133948Y273455D01*
G01X2135679Y274667D01*
G01X2139489Y278477D01*
G01X2140182Y279343D01*
G01X2140702Y280209D01*
G01X2141394Y281248D01*
G01X2142087Y282460D01*
G01X2142780Y284019D01*
G01X2143473Y285751D01*
G01X2143992Y287482D01*
G01X2144339Y289041D01*
G01X2144685Y290426D01*
G01X2144858Y291985D01*
G01X2145031Y293197D01*
G01X2145204Y296315D01*
G01X2145031Y299432D01*
G01X2144685Y301856D01*
G01X2144165Y303588D01*
G01X2143473Y305840D01*
G01X2142780Y307398D01*
G01X2141394Y310169D01*
G01X2140529Y311555D01*
G01X2139663Y312767D01*
G01X2137584Y315365D01*
G01X2136719Y316231D01*
G01X2135853Y316923D01*
G01X2134640Y317789D01*
G01X2133082Y318828D01*
G01X2131523Y319694D01*
G01X2129791Y320387D01*
G01X2127886Y320906D01*
G01X2126328Y321253D01*
G01X2124249Y321599D01*
G01X2120959Y321772D01*
G01X2118708Y321599D01*
G01X2116976Y321253D01*
G01X2115071Y320733D01*
G01X2113685Y320214D01*
G01X2112473Y319694D01*
G01X2109702Y317962D01*
G01X2108317Y316923D01*
G01X2106239Y314845D01*
G01X2105373Y313806D01*
G01X2104680Y312767D01*
G01X2103987Y311901D01*
G01X2103294Y310862D01*
G01X2102429Y309476D01*
G01X2101563Y307745D01*
G01X2100870Y306186D01*
G01X2100177Y304281D01*
G01X2099658Y302203D01*
G01X2099311Y300471D01*
G01X2098965Y298393D01*
G01X2098792Y294929D01*
G01X2063172Y294929D01*
G01X2063116Y300817D01*
G01X2063116Y317962D01*
G01X2080781Y317962D01*
G01X2080954Y318828D01*
G01X2080954Y320387D01*
G01X2078616Y320906D01*
G01X2071949Y321080D01*
G01X2063116Y321080D01*
G01X2063116Y338051D01*
G01X2062250Y338225D01*
G01X2060865Y338225D01*
G01X2060172Y337186D01*
G01X2059999Y335627D01*
G01X2059479Y331990D01*
G01X2059133Y330605D01*
G01X2058614Y329046D01*
G01X2057921Y327487D01*
G01X2057055Y325929D01*
G01X2056189Y324716D01*
G01X2055323Y323851D01*
G01X2054111Y322985D01*
G01X2052552Y322119D01*
G01X2050474Y321426D01*
G01X2046491Y321080D01*
G01X2043720Y321080D01*
G01X2043547Y320214D01*
G01X2023804Y320214D01*
G01X2023804Y320387D01*
G01X2021466Y320906D01*
G01X2014799Y321080D01*
G01X2005966Y321080D01*
G01X2005966Y338051D01*
G01X2005100Y338225D01*
G01X2003715Y338225D01*
G01X2003022Y337186D01*
G01X2002849Y335627D01*
G01X2002329Y331990D01*
G01X2001983Y330605D01*
G01X2001464Y329046D01*
G01X2000771Y327487D01*
G01X1999905Y325929D01*
G01X1999039Y324716D01*
G01X1998173Y323851D01*
G01X1996961Y322985D01*
G01X1995402Y322119D01*
G01X1993324Y321426D01*
G01X1989341Y321080D01*
G01X1986570Y321080D01*
G01X1986397Y320214D01*
G01X1968905Y320214D01*
G01X1968905Y323504D01*
G01X1968039Y323331D01*
G01X1966827Y322811D01*
G01X1965788Y322119D01*
G01X1964056Y321426D01*
G01X1962151Y321080D01*
G01X1960766Y320906D01*
G01X1958168Y320733D01*
G01X1956090Y320733D01*
G01X1955917Y319867D01*
G01X1955917Y318655D01*
G01X1957475Y318309D01*
G01X1959380Y318136D01*
G01X1960593Y317789D01*
G01X1961805Y316750D01*
G01X1962498Y314326D01*
G01X1962671Y299259D01*
G01X1962324Y285058D01*
G01X1961805Y283672D01*
G01X1961285Y282460D01*
G01X1960419Y281075D01*
G01X1959554Y279862D01*
G01X1958861Y278996D01*
G01X1957129Y277611D01*
G01X1956090Y276918D01*
G01X1955051Y276399D01*
G01X1953839Y275879D01*
G01X1952453Y275533D01*
G01X1950721Y275186D01*
G01X1948816Y275013D01*
G01X1947777Y274840D01*
G01X1946911Y274840D01*
G01X1944140Y275186D01*
G01X1942755Y275706D01*
G01X1941543Y276399D01*
G01X1940677Y277091D01*
G01X1939811Y278131D01*
G01X1939118Y279343D01*
G01X1938425Y280728D01*
G01X1937906Y283153D01*
G01X1937733Y304108D01*
G01X1937733Y323504D01*
G01X1936867Y323331D01*
G01X1935654Y322811D01*
G01X1934442Y322119D01*
G01X1933057Y321599D01*
G01X1931671Y321253D01*
G01X1929593Y320906D01*
G01X1926476Y320733D01*
G01X1924571Y320733D01*
G01X1912275Y320733D01*
G01X1912794Y321772D01*
G01X1913487Y323331D01*
G01X1913834Y324716D01*
G01X1914007Y326102D01*
G01X1914353Y329219D01*
G01X1914526Y330605D01*
G01X1914007Y334761D01*
G01X1913660Y336146D01*
G01X1913141Y337532D01*
G01X1912448Y338917D01*
G01X1911409Y340649D01*
G01X1909331Y342727D01*
G01X1908292Y343593D01*
G01X1907079Y344286D01*
G01X1905694Y344979D01*
G01X1903962Y345671D01*
G01X1902230Y346191D01*
G01X1900499Y346537D01*
G01X1898420Y346884D01*
G01X1895649Y347230D01*
G01X1880929Y347403D01*
G01X1867767Y347403D01*
G01X1867594Y346537D01*
G01X1867594Y345152D01*
G01X1868633Y344459D01*
G01X1870711Y344286D01*
G01X1872789Y343766D01*
G01X1873482Y342987D01*
G01X1873829Y341688D01*
G01X1874002Y307745D01*
G01X1873829Y283283D01*
G01X1873309Y274667D01*
G01X1871750Y273801D01*
G01X1868806Y273628D01*
G01X1866728Y273628D01*
G01X1866728Y272242D01*
G01X1866728Y272242D01*
G01X1864996Y272242D01*
G01X1864996Y367146D01*
G01X2207896Y367146D01*
G01X2207896Y252500D01*
G37*
G36*
G01X1888895Y273628D02*
G01X1883873Y273801D01*
G01X1883007Y274147D01*
G01X1882141Y274840D01*
G01X1881622Y276052D01*
G01X1881275Y293544D01*
G01X1881275Y310342D01*
G01X1888549Y310342D01*
G01X1896342Y310169D01*
G01X1897901Y309823D01*
G01X1899459Y309303D01*
G01X1901884Y308264D01*
G01X1903269Y307398D01*
G01X1904482Y306359D01*
G01X1905348Y305493D01*
G01X1906040Y304627D01*
G01X1907253Y302203D01*
G01X1907945Y300644D01*
G01X1908465Y298739D01*
G01X1908811Y296661D01*
G01X1908984Y294410D01*
G01X1909158Y292505D01*
G01X1909331Y290946D01*
G01X1909158Y289387D01*
G01X1908811Y285577D01*
G01X1908465Y284019D01*
G01X1907945Y282460D01*
G01X1907253Y281075D01*
G01X1906387Y279862D01*
G01X1905001Y278131D01*
G01X1904135Y277265D01*
G01X1902923Y276226D01*
G01X1901191Y275360D01*
G01X1899806Y274840D01*
G01X1898074Y274321D01*
G01X1895303Y273801D01*
G01X1888895Y273628D01*
G37*
G36*
G01X1887856Y313460D02*
G01X1881449Y313633D01*
G01X1881275Y327661D01*
G01X1881622Y342208D01*
G01X1882314Y343247D01*
G01X1883527Y343940D01*
G01X1889069Y344286D01*
G01X1894264Y344113D01*
G01X1896689Y343766D01*
G01X1897901Y343420D01*
G01X1900325Y342381D01*
G01X1901364Y341861D01*
G01X1902230Y341169D01*
G01X1903962Y339437D01*
G01X1904655Y338398D01*
G01X1905174Y337359D01*
G01X1905867Y335800D01*
G01X1906214Y333722D01*
G01X1906387Y332336D01*
G01X1906560Y329046D01*
G01X1906387Y325756D01*
G01X1906040Y323331D01*
G01X1905521Y321946D01*
G01X1904828Y320560D01*
G01X1904135Y319348D01*
G01X1903269Y318309D01*
G01X1902404Y317443D01*
G01X1901191Y316404D01*
G01X1899806Y315538D01*
G01X1898594Y314845D01*
G01X1897208Y314152D01*
G01X1895303Y313633D01*
G01X1887856Y313460D01*
G37*
G36*
G01X2121998Y272589D02*
G01X2120439Y272762D01*
G01X2119400Y272935D01*
G01X2118015Y273108D01*
G01X2116629Y273628D01*
G01X2114898Y274494D01*
G01X2113166Y275706D01*
G01X2111780Y276918D01*
G01X2110914Y277957D01*
G01X2110222Y278823D01*
G01X2109356Y280036D01*
G01X2108490Y281767D01*
G01X2107797Y283326D01*
G01X2107278Y284885D01*
G01X2106931Y286270D01*
G01X2106585Y288002D01*
G01X2106239Y290080D01*
G01X2106065Y295968D01*
G01X2106239Y301510D01*
G01X2106585Y303935D01*
G01X2107104Y305666D01*
G01X2107797Y307745D01*
G01X2108490Y309476D01*
G01X2109356Y311035D01*
G01X2110395Y312594D01*
G01X2111434Y313806D01*
G01X2113166Y315538D01*
G01X2114551Y316577D01*
G01X2116283Y317616D01*
G01X2117842Y318309D01*
G01X2119747Y318828D01*
G01X2122864Y319001D01*
G01X2125289Y318828D01*
G01X2126674Y318309D01*
G01X2128233Y317616D01*
G01X2129618Y316750D01*
G01X2130830Y315884D01*
G01X2132562Y314152D01*
G01X2133255Y313286D01*
G01X2133774Y312421D01*
G01X2134467Y311381D01*
G01X2135160Y310169D01*
G01X2135679Y308957D01*
G01X2136199Y307571D01*
G01X2136719Y305840D01*
G01X2137065Y304281D01*
G01X2137411Y302896D01*
G01X2137758Y300471D01*
G01X2137931Y294410D01*
G01X2137758Y289387D01*
G01X2137411Y286963D01*
G01X2136892Y285231D01*
G01X2136199Y282980D01*
G01X2135506Y281421D01*
G01X2134814Y280036D01*
G01X2133948Y278823D01*
G01X2132562Y277091D01*
G01X2131696Y276226D01*
G01X2130484Y275186D01*
G01X2128925Y274321D01*
G01X2127367Y273628D01*
G01X2125462Y273108D01*
G01X2123903Y272762D01*
G01X2121998Y272589D01*
G37*
G01X390119Y-623265D02*
G01X390119Y-688289D01*
G01X390119Y-623265D02*
G01X418059Y-623265D01*
G01X427203Y-626313D01*
G01X430251Y-629361D01*
G01X433553Y-635711D01*
G01X433553Y-641807D01*
G01X430251Y-647903D01*
G01X427203Y-650951D01*
G01X418059Y-654253D01*
G01X390119Y-654253D01*
G01X411709Y-654253D02*
G01X433553Y-688289D01*
G01X506959Y-623265D02*
G01X475971Y-688289D01*
G01X463779Y-623265D02*
G01X506959Y-623265D01*
G01X-487379Y-615765D02*
G01X-487379Y-680789D01*
G01X-487379Y-615765D02*
G01X-459439Y-615765D01*
G01X-450295Y-618813D01*
G01X-447247Y-621861D01*
G01X-443945Y-628211D01*
G01X-443945Y-634307D01*
G01X-447247Y-640403D01*
G01X-450295Y-643451D01*
G01X-459439Y-646753D01*
G01X-487379Y-646753D01*
G01X-465789Y-646753D02*
G01X-443945Y-680789D01*
G01X-413719Y-628211D02*
G01X-407623Y-624909D01*
G01X-398479Y-615765D01*
G01X-398479Y-680789D01*
G01X-331169Y-624909D02*
G01X-334217Y-618813D01*
G01X-343615Y-615765D01*
G01X-349711Y-615765D01*
G01X-359109Y-618813D01*
G01X-365205Y-628211D01*
G01X-368253Y-643451D01*
G01X-368253Y-658945D01*
G01X-365205Y-671391D01*
G01X-359109Y-677741D01*
G01X-349711Y-680789D01*
G01X-346663Y-680789D01*
G01X-337519Y-677741D01*
G01X-331169Y-671391D01*
G01X-328121Y-662247D01*
G01X-328121Y-658945D01*
G01X-331169Y-649801D01*
G01X-337519Y-643451D01*
G01X-346663Y-640403D01*
G01X-349711Y-640403D01*
G01X-359109Y-643451D01*
G01X-365205Y-649801D01*
G01X-368253Y-658945D01*
G01X-84880Y-618265D02*
G01X-84880Y-664747D01*
G01X-81832Y-673891D01*
G01X-75482Y-680241D01*
G01X-66338Y-683289D01*
G01X-59988Y-683289D01*
G01X-50844Y-680241D01*
G01X-44748Y-673891D01*
G01X-41446Y-664747D01*
G01X-41446Y-618265D01*
G01X31960Y-627409D02*
G01X25864Y-621313D01*
G01X16466Y-618265D01*
G01X4020Y-618265D01*
G01X-5124Y-621313D01*
G01X-11220Y-627409D01*
G01X-11220Y-633759D01*
G01X-8172Y-639855D01*
G01X-5124Y-642903D01*
G01X972Y-645951D01*
G01X19514Y-652301D01*
G01X25864Y-655349D01*
G01X28912Y-658397D01*
G01X31960Y-664747D01*
G01X31960Y-673891D01*
G01X25864Y-680241D01*
G01X16466Y-683289D01*
G01X4020Y-683289D01*
G01X-5124Y-680241D01*
G01X-11220Y-673891D01*
G01X62186Y-618265D02*
G01X62186Y-683289D01*
G01X62186Y-618265D02*
G01X89872Y-618265D01*
G01X99270Y-621313D01*
G01X102318Y-624361D01*
G01X105366Y-630711D01*
G01X105366Y-636807D01*
G01X102318Y-642903D01*
G01X99270Y-645951D01*
G01X89872Y-649253D01*
G01X62186Y-649253D02*
G01X89872Y-649253D01*
G01X99270Y-652301D01*
G01X102318Y-655349D01*
G01X105366Y-661445D01*
G01X105366Y-670843D01*
G01X102318Y-676939D01*
G01X99270Y-680241D01*
G01X89872Y-683289D01*
G01X62186Y-683289D01*
G01X135592Y-630711D02*
G01X141688Y-627409D01*
G01X150832Y-618265D01*
G01X150832Y-683289D01*
G01X1425117Y-1268209D02*
G01X1425117Y-1307833D01*
G01X1427657Y-1315961D01*
G01X1432991Y-1321295D01*
G01X1441119Y-1323835D01*
G01X1446199Y-1323835D01*
G01X1454327Y-1321295D01*
G01X1459661Y-1315961D01*
G01X1462201Y-1307833D01*
G01X1462201Y-1268209D01*
G01X1492681Y-1281417D02*
G01X1492681Y-1278877D01*
G01X1495475Y-1273543D01*
G01X1498015Y-1270749D01*
G01X1503349Y-1268209D01*
G01X1514017Y-1268209D01*
G01X1519351Y-1270749D01*
G01X1521891Y-1273543D01*
G01X1524685Y-1278877D01*
G01X1524685Y-1284211D01*
G01X1521891Y-1289291D01*
G01X1516557Y-1297419D01*
G01X1490141Y-1323835D01*
G01X1527225Y-1323835D01*
G04 Text End*

G04 PolygonModel Start*
G01X-895138Y578368D02*
G01X-895138Y657377D01*
G01X-994858Y657377D02*
G01X-994858Y578368D01*
G01X-979618Y563128D02*
G01X-910378Y563128D01*
G01X-895138Y781629D02*
G01X-895138Y702620D01*
G01X-994858Y702620D02*
G01X-994858Y781629D01*
G01X-979618Y796869D02*
G01X-910378Y796869D01*
G01X-994858Y578368D02*
G03X-979618Y563128I15240J0D01*
G01X-910378Y563128D02*
G03X-895138Y578368I0J15240D01*
G01X-994858Y781629D02*
G02X-979618Y796869I15240J0D01*
G01X-910378Y796869D02*
G02X-895138Y781629I0J-15240D01*
G01X-795938Y601534D02*
G01X-795938Y638379D01*
G01X-874058Y638379D02*
G01X-874058Y601534D01*
G01X-858818Y586294D02*
G01X-811178Y586294D01*
G01X-795938Y708463D02*
G01X-795938Y671618D01*
G01X-874058Y671618D02*
G01X-874058Y708463D01*
G01X-858818Y723703D02*
G01X-811178Y723703D01*
G01X-874058Y601534D02*
G03X-858818Y586294I15240J0D01*
G01X-811178Y586294D02*
G03X-795938Y601534I0J15240D01*
G01X-874058Y708463D02*
G02X-858818Y723703I15240J0D01*
G01X-811178Y723703D02*
G02X-795938Y708463I0J-15240D01*
G01X816534Y863438D02*
G01X853379Y863438D01*
G01X853379Y941558D02*
G01X816534Y941558D01*
G01X801294Y926318D02*
G01X801294Y878678D01*
G01X923463Y863438D02*
G01X886617Y863438D01*
G01X886617Y941558D02*
G01X923463Y941558D01*
G01X938703Y926318D02*
G01X938703Y878678D01*
G01X816534Y941558D02*
G03X801294Y926318I0J-15240D01*
G01X801294Y878678D02*
G03X816534Y863438I15240J0D01*
G01X923463Y941558D02*
G02X938703Y926318I0J-15240D01*
G01X938703Y878678D02*
G02X923463Y863438I-15240J0D01*
G01X653439Y-1051533D02*
G01X653439Y-1088379D01*
G01X731559Y-1088379D02*
G01X731559Y-1051533D01*
G01X716319Y-1036293D02*
G01X668679Y-1036293D01*
G01X653439Y-1158462D02*
G01X653439Y-1121617D01*
G01X731559Y-1121617D02*
G01X731559Y-1158462D01*
G01X716319Y-1173702D02*
G01X668679Y-1173702D01*
G01X731559Y-1051533D02*
G03X716319Y-1036293I-15240J0D01*
G01X668679Y-1036293D02*
G03X653439Y-1051533I0J-15240D01*
G01X731559Y-1158462D02*
G02X716319Y-1173702I-15240J0D01*
G01X668679Y-1173702D02*
G02X653439Y-1158462I0J15240D01*
G01X537638Y-1000296D02*
G01X537638Y-1079305D01*
G01X637359Y-1079305D02*
G01X637359Y-1000296D01*
G01X622119Y-985056D02*
G01X552878Y-985056D01*
G01X537638Y-1203557D02*
G01X537638Y-1124547D01*
G01X637359Y-1124547D02*
G01X637359Y-1203557D01*
G01X622119Y-1218797D02*
G01X552878Y-1218797D01*
G01X637359Y-1000296D02*
G03X622119Y-985056I-15240J0D01*
G01X552878Y-985056D02*
G03X537638Y-1000296I0J-15240D01*
G01X637359Y-1203557D02*
G02X622119Y-1218797I-15240J0D01*
G01X552878Y-1218797D02*
G02X537638Y-1203557I0J15240D01*
G01X946534Y280939D02*
G01X983379Y280939D01*
G01X983379Y359059D02*
G01X946534Y359059D01*
G01X931294Y343819D02*
G01X931294Y296179D01*
G01X1053462Y280939D02*
G01X1016617Y280939D01*
G01X1016617Y359059D02*
G01X1053462Y359059D01*
G01X1068702Y343819D02*
G01X1068702Y296179D01*
G01X946534Y359059D02*
G03X931294Y343819I0J-15240D01*
G01X931294Y296179D02*
G03X946534Y280939I15240J0D01*
G01X1053462Y359059D02*
G02X1068702Y343819I0J-15240D01*
G01X1068702Y296179D02*
G02X1053462Y280939I-15240J0D01*
G01X2199126Y-882638D02*
G01X2120117Y-882638D01*
G01X2120117Y-982358D02*
G01X2199126Y-982358D01*
G01X2214366Y-967118D02*
G01X2214366Y-897878D01*
G01X1995865Y-882638D02*
G01X2074874Y-882638D01*
G01X2074874Y-982358D02*
G01X1995865Y-982358D01*
G01X1980625Y-967118D02*
G01X1980625Y-897878D01*
G01X2199126Y-982358D02*
G03X2214366Y-967118I0J15240D01*
G01X2214366Y-897878D02*
G03X2199126Y-882638I-15240J0D01*
G01X1995865Y-982358D02*
G02X1980625Y-967118I0J15240D01*
G01X1980625Y-897878D02*
G02X1995865Y-882638I15240J0D01*
G01X2178460Y-783438D02*
G01X2141615Y-783438D01*
G01X2141615Y-861558D02*
G01X2178460Y-861558D01*
G01X2193700Y-846318D02*
G01X2193700Y-798678D01*
G01X2071531Y-783438D02*
G01X2108377Y-783438D01*
G01X2108377Y-861558D02*
G01X2071531Y-861558D01*
G01X2056291Y-846318D02*
G01X2056291Y-798678D01*
G01X2178460Y-861558D02*
G03X2193700Y-846318I0J15240D01*
G01X2193700Y-798678D02*
G03X2178460Y-783438I-15240J0D01*
G01X2071531Y-861558D02*
G02X2056291Y-846318I0J15240D01*
G01X2056291Y-798678D02*
G02X2071531Y-783438I15240J0D01*
G01X1788436Y-429034D02*
G01X1788436Y-465880D01*
G01X1866557Y-465880D02*
G01X1866557Y-429034D01*
G01X1851317Y-413794D02*
G01X1803676Y-413794D01*
G01X1788436Y-535963D02*
G01X1788436Y-499118D01*
G01X1866557Y-499118D02*
G01X1866557Y-535963D01*
G01X1851317Y-551203D02*
G01X1803676Y-551203D01*
G01X1866557Y-429034D02*
G03X1851317Y-413794I-15240J0D01*
G01X1803676Y-413794D02*
G03X1788436Y-429034I0J-15240D01*
G01X1866557Y-535963D02*
G02X1851317Y-551203I-15240J0D01*
G01X1803676Y-551203D02*
G02X1788436Y-535963I0J15240D01*
G01X1887133Y-407865D02*
G01X1887133Y-486875D01*
G01X1986854Y-486875D02*
G01X1986854Y-407865D01*
G01X1971614Y-392625D02*
G01X1902373Y-392625D01*
G01X1887133Y-611126D02*
G01X1887133Y-532117D01*
G01X1986854Y-532117D02*
G01X1986854Y-611126D01*
G01X1971614Y-626366D02*
G01X1902373Y-626366D01*
G01X1986854Y-407865D02*
G03X1971614Y-392625I-15240J0D01*
G01X1902373Y-392625D02*
G03X1887133Y-407865I0J-15240D01*
G01X1986854Y-611126D02*
G02X1971614Y-626366I-15240J0D01*
G01X1902373Y-626366D02*
G02X1887133Y-611126I0J15240D01*
G01X1819857Y-1034128D02*
G01X1819857Y-955119D01*
G01X1720136Y-955119D02*
G01X1720136Y-1034128D01*
G01X1735376Y-1049368D02*
G01X1804617Y-1049368D01*
G01X1819857Y-830868D02*
G01X1819857Y-909877D01*
G01X1720136Y-909877D02*
G01X1720136Y-830868D01*
G01X1735376Y-815628D02*
G01X1804617Y-815628D01*
G01X1720136Y-1034128D02*
G03X1735376Y-1049368I15240J0D01*
G01X1804617Y-1049368D02*
G03X1819857Y-1034128I0J15240D01*
G01X1720136Y-830868D02*
G02X1735376Y-815628I15240J0D01*
G01X1804617Y-815628D02*
G02X1819857Y-830868I0J-15240D01*
G01X1092637Y-941626D02*
G01X1092637Y-1020635D01*
G01X1192358Y-1020635D02*
G01X1192358Y-941626D01*
G01X1177118Y-926386D02*
G01X1107877Y-926386D01*
G01X1092637Y-1144887D02*
G01X1092637Y-1065877D01*
G01X1192358Y-1065877D02*
G01X1192358Y-1144887D01*
G01X1177118Y-1160127D02*
G01X1107877Y-1160127D01*
G01X1192358Y-941626D02*
G03X1177118Y-926386I-15240J0D01*
G01X1107877Y-926386D02*
G03X1092637Y-941626I0J-15240D01*
G01X1192358Y-1144887D02*
G02X1177118Y-1160127I-15240J0D01*
G01X1107877Y-1160127D02*
G02X1092637Y-1144887I0J15240D01*
G01X-814983Y-497121D02*
G01X-814983Y-460276D01*
G01X-893103Y-460276D02*
G01X-893103Y-497121D01*
G01X-877863Y-512361D02*
G01X-830223Y-512361D01*
G01X-814983Y-390192D02*
G01X-814983Y-427037D01*
G01X-893103Y-427037D02*
G01X-893103Y-390192D01*
G01X-877863Y-374952D02*
G01X-830223Y-374952D01*
G01X-893103Y-497121D02*
G03X-877863Y-512361I15240J0D01*
G01X-830223Y-512361D02*
G03X-814983Y-497121I0J15240D01*
G01X-893103Y-390192D02*
G02X-877863Y-374952I15240J0D01*
G01X-830223Y-374952D02*
G02X-814983Y-390192I0J-15240D01*
G01X-1503037Y922435D02*
G01X-1503037Y885590D01*
G01X-1424917Y885590D02*
G01X-1424917Y922435D01*
G01X-1440157Y937675D02*
G01X-1487797Y937675D01*
G01X-1503037Y815506D02*
G01X-1503037Y852352D01*
G01X-1424917Y852352D02*
G01X-1424917Y815506D01*
G01X-1440157Y800266D02*
G01X-1487797Y800266D01*
G01X-1424917Y922435D02*
G03X-1440157Y937675I-15240J0D01*
G01X-1487797Y937675D02*
G03X-1503037Y922435I0J-15240D01*
G01X-1424917Y815506D02*
G02X-1440157Y800266I-15240J0D01*
G01X-1487797Y800266D02*
G02X-1503037Y815506I0J15240D01*
G01X-1485961Y703439D02*
G01X-1449116Y703439D01*
G01X-1449116Y781559D02*
G01X-1485961Y781559D01*
G01X-1501201Y766319D02*
G01X-1501201Y718679D01*
G01X-1379033Y703439D02*
G01X-1415878Y703439D01*
G01X-1415878Y781559D02*
G01X-1379033Y781559D01*
G01X-1363793Y766319D02*
G01X-1363793Y718679D01*
G01X-1485961Y781559D02*
G03X-1501201Y766319I0J-15240D01*
G01X-1501201Y718679D02*
G03X-1485961Y703439I15240J0D01*
G01X-1379033Y781559D02*
G02X-1363793Y766319I0J-15240D01*
G01X-1363793Y718679D02*
G02X-1379033Y703439I-15240J0D01*
G01X-1530961Y563439D02*
G01X-1494116Y563439D01*
G01X-1494116Y641559D02*
G01X-1530961Y641559D01*
G01X-1546201Y626319D02*
G01X-1546201Y578679D01*
G01X-1424032Y563439D02*
G01X-1460878Y563439D01*
G01X-1460878Y641559D02*
G01X-1424032Y641559D01*
G01X-1408792Y626319D02*
G01X-1408792Y578679D01*
G01X-1530961Y641559D02*
G03X-1546201Y626319I0J-15240D01*
G01X-1546201Y578679D02*
G03X-1530961Y563439I15240J0D01*
G01X-1424032Y641559D02*
G02X-1408792Y626319I0J-15240D01*
G01X-1408792Y578679D02*
G02X-1424032Y563439I-15240J0D01*
G01X-1964031Y821559D02*
G01X-2000877Y821559D01*
G01X-2000877Y743438D02*
G01X-1964031Y743438D01*
G01X-1948791Y758678D02*
G01X-1948791Y806319D01*
G01X-2070960Y821559D02*
G01X-2034115Y821559D01*
G01X-2034115Y743438D02*
G01X-2070960Y743438D01*
G01X-2086200Y758678D02*
G01X-2086200Y806319D01*
G01X-1964031Y743438D02*
G03X-1948791Y758678I0J15240D01*
G01X-1948791Y806319D02*
G03X-1964031Y821559I-15240J0D01*
G01X-2070960Y743438D02*
G02X-2086200Y758678I0J15240D01*
G01X-2086200Y806319D02*
G02X-2070960Y821559I15240J0D01*
G01X-1874032Y1036558D02*
G01X-1910877Y1036558D01*
G01X-1910877Y958438D02*
G01X-1874032Y958438D01*
G01X-1858792Y973678D02*
G01X-1858792Y1021318D01*
G01X-1980960Y1036558D02*
G01X-1944115Y1036558D01*
G01X-1944115Y958438D02*
G01X-1980960Y958438D01*
G01X-1996200Y973678D02*
G01X-1996200Y1021318D01*
G01X-1874032Y958438D02*
G03X-1858792Y973678I0J15240D01*
G01X-1858792Y1021318D02*
G03X-1874032Y1036558I-15240J0D01*
G01X-1980960Y958438D02*
G02X-1996200Y973678I0J15240D01*
G01X-1996200Y1021318D02*
G02X-1980960Y1036558I15240J0D01*
G01X-904858Y-138369D02*
G01X-904858Y-217378D01*
G01X-805138Y-217378D02*
G01X-805138Y-138369D01*
G01X-820378Y-123129D02*
G01X-889618Y-123129D01*
G01X-904858Y-341630D02*
G01X-904858Y-262621D01*
G01X-805138Y-262621D02*
G01X-805138Y-341630D01*
G01X-820378Y-356870D02*
G01X-889618Y-356870D01*
G01X-805138Y-138369D02*
G03X-820378Y-123129I-15240J0D01*
G01X-889618Y-123129D02*
G03X-904858Y-138369I0J-15240D01*
G01X-805138Y-341630D02*
G02X-820378Y-356870I-15240J0D01*
G01X-889618Y-356870D02*
G02X-904858Y-341630I0J15240D01*
G54D13*
G01X1507955Y67352D02*
G01X1508951Y67352D01*
G01X1508951Y67352D02*
G01X1541955Y34347D01*
G01X1507955Y-652D02*
G01X1507955Y347D01*
G01X1507955Y347D02*
G01X1541955Y34347D01*
G01X1507955Y-652D02*
G01X1507955Y67352D01*
G01X1505951Y-40659D02*
G01X1390950Y-40659D01*
G01X1505951Y109353D02*
G01X1390950Y109353D01*
G01X1390950Y-40649D02*
G01X1390950Y107344D01*
G01X1543952Y109584D02*
G01X1648963Y109584D01*
G01X1678958Y69577D02*
G01X1678958Y79579D01*
G01X1678958Y79579D02*
G01X1648963Y109584D01*
G01X1678958Y-418D02*
G01X1678958Y69577D01*
G01X1678958Y-418D02*
G01X1678958Y-10433D01*
G01X1678958Y-10433D02*
G01X1648963Y-40428D01*
G01X1543952Y-40428D02*
G01X1648963Y-40428D01*
G01X1507955Y34347D02*
G01X1541955Y34347D01*
G54D10*
G01X1299578Y81733D02*
G01X1371381Y81733D01*
G01X1371381Y81733D02*
G01X1371381Y-17988D01*
G01X1371381Y-17988D02*
G01X1299578Y-17988D01*
G01X1254335Y81733D02*
G01X1182532Y81733D01*
G01X1182532Y81733D02*
G01X1182532Y-17988D01*
G01X1182532Y-17988D02*
G01X1254335Y-17988D01*
G01X1317619Y-1255895D02*
G01X1389422Y-1255895D01*
G01X1389422Y-1255895D02*
G01X1389422Y-1355616D01*
G01X1389422Y-1355616D02*
G01X1317619Y-1355616D01*
G01X1272376Y-1255895D02*
G01X1200573Y-1255895D01*
G01X1200573Y-1255895D02*
G01X1200573Y-1355616D01*
G01X1200573Y-1355616D02*
G01X1272376Y-1355616D01*
G01X-2115876Y650939D02*
G01X-2070324Y650939D01*
G01X-2070324Y650939D02*
G01X-2070324Y729059D01*
G01X-2070324Y729059D02*
G01X-2115876Y729059D01*
G01X-2149115Y650939D02*
G01X-2194667Y650939D01*
G01X-2194667Y650939D02*
G01X-2194667Y729059D01*
G01X-2194667Y729059D02*
G01X-2149115Y729059D01*
G01X-2033036Y647352D02*
G01X-2033036Y601800D01*
G01X-2033036Y601800D02*
G01X-1954916Y601800D01*
G01X-1954916Y601800D02*
G01X-1954916Y647352D01*
G01X-2033036Y680590D02*
G01X-2033036Y726143D01*
G01X-2033036Y726143D02*
G01X-1954916Y726143D01*
G01X-1954916Y726143D02*
G01X-1954916Y680590D01*
G01X-2149115Y631559D02*
G01X-2194667Y631559D01*
G01X-2194667Y631559D02*
G01X-2194667Y553439D01*
G01X-2194667Y553439D02*
G01X-2149115Y553439D01*
G01X-2115876Y631559D02*
G01X-2070324Y631559D01*
G01X-2070324Y631559D02*
G01X-2070324Y553439D01*
G01X-2070324Y553439D02*
G01X-2115876Y553439D01*
G01X1159118Y182621D02*
G01X1159118Y-222621D01*
G01X1159118Y-222621D02*
G01X1093319Y-222621D01*
G01X850878Y182621D02*
G01X850878Y-222621D01*
G01X850878Y-222621D02*
G01X916677Y-222621D01*
G36*
G01X1166738Y175001D02*
G01X1088239Y175001D01*
G01X1088239Y205481D01*
G01X1166738Y205481D01*
G01X1166738Y175001D01*
G37*
G36*
G01X843258Y175001D02*
G01X921757Y175001D01*
G01X921757Y205481D01*
G01X843258Y205481D01*
G01X843258Y175001D01*
G37*
G54D14*
G01X-489999Y1412513D02*
G01X-339999Y1412513D01*
G01X-339999Y1412513D02*
G01X-339999Y1252513D01*
G01X-339999Y1252513D02*
G01X-120000Y1252513D01*
G01X-120000Y1252513D02*
G01X-120000Y1412513D01*
G01X-120000Y1412513D02*
G01X100000Y1412513D01*
G01X100000Y1412513D02*
G01X100000Y1252513D01*
G01X100000Y1252513D02*
G01X319999Y1252513D01*
G01X319999Y1252513D02*
G01X319999Y1412513D01*
G01X319999Y1412513D02*
G01X530001Y1412513D01*
G01X530001Y1412513D02*
G01X530001Y1142513D01*
G01X-650001Y1142513D02*
G01X-650001Y1412513D01*
G01X-650001Y1412513D02*
G01X-489999Y1412513D01*
G01X-489999Y1412513D02*
G01X-489999Y1142513D01*
G01X-770001Y977474D02*
G01X780001Y977474D01*
G01X780001Y977474D02*
G01X780001Y981101D01*
G01X-770001Y1482512D02*
G01X780001Y1482512D01*
G01X780001Y1482512D02*
G01X780001Y-567489D01*
G01X780001Y-567489D02*
G01X-770001Y-567489D01*
G01X-770001Y-567489D02*
G01X-770001Y1482512D01*
G54D10*
G01X1539862Y-1235375D02*
G01X1369621Y-1235375D01*
G01X1539862Y-930133D02*
G01X1369621Y-930133D01*
G01X1369621Y-1035114D02*
G01X1369621Y-1130394D01*
G01X-1601357Y621351D02*
G01X-1916596Y621351D01*
G01X-1601357Y936591D02*
G01X-1916596Y936591D01*
G54D15*
G01X2302510Y-490408D02*
G01X2308248Y-490408D01*
G01X2308248Y-490408D02*
G01X2308248Y-655508D01*
G01X2112515Y-490408D02*
G01X2199180Y-490408D01*
G01X2104182Y-655508D02*
G01X2003448Y-655508D01*
G01X2003448Y-655508D02*
G01X2003448Y-490408D01*
G01X2003448Y-490408D02*
G01X2009188Y-490408D01*
G01X2308248Y-655508D02*
G01X2207514Y-655508D01*
G54D10*
G01X1085963Y806558D02*
G01X1049117Y806558D01*
G01X1049117Y728438D02*
G01X1085963Y728438D01*
G01X1101203Y743678D02*
G01X1101203Y791318D01*
G01X979034Y806558D02*
G01X1015879Y806558D01*
G01X1015879Y728438D02*
G01X979034Y728438D01*
G01X963794Y743678D02*
G01X963794Y791318D01*
G01X1085963Y728438D02*
G03X1101203Y743678I0J15240D01*
G01X1101203Y791318D02*
G03X1085963Y806558I-15240J0D01*
G01X979034Y728438D02*
G02X963794Y743678I0J15240D01*
G01X963794Y791318D02*
G02X979034Y806558I15240J0D01*
G01X1170962Y979058D02*
G01X1134117Y979058D01*
G01X1134117Y900938D02*
G01X1170962Y900938D01*
G01X1186202Y916178D02*
G01X1186202Y963818D01*
G01X1064033Y979058D02*
G01X1100879Y979058D01*
G01X1100879Y900938D02*
G01X1064033Y900938D01*
G01X1048793Y916178D02*
G01X1048793Y963818D01*
G01X1170962Y900938D02*
G03X1186202Y916178I0J15240D01*
G01X1186202Y963818D02*
G03X1170962Y979058I-15240J0D01*
G01X1064033Y900938D02*
G02X1048793Y916178I0J15240D01*
G01X1048793Y963818D02*
G02X1064033Y979058I15240J0D01*
G01X1033159Y589102D02*
G01X1033159Y625947D01*
G01X955039Y625947D02*
G01X955039Y589102D01*
G01X970279Y573862D02*
G01X1017919Y573862D01*
G01X1033159Y696031D02*
G01X1033159Y659186D01*
G01X955039Y659186D02*
G01X955039Y696031D01*
G01X970279Y711271D02*
G01X1017919Y711271D01*
G01X955039Y589102D02*
G03X970279Y573862I15240J0D01*
G01X1017919Y573862D02*
G03X1033159Y589102I0J15240D01*
G01X955039Y696031D02*
G02X970279Y711271I15240J0D01*
G01X1017919Y711271D02*
G02X1033159Y696031I0J-15240D01*
G01X1519033Y720938D02*
G01X1555878Y720938D01*
G01X1555878Y799059D02*
G01X1519033Y799059D01*
G01X1503793Y783819D02*
G01X1503793Y736178D01*
G01X1625961Y720938D02*
G01X1589116Y720938D01*
G01X1589116Y799059D02*
G01X1625961Y799059D01*
G01X1641201Y783819D02*
G01X1641201Y736178D01*
G01X1519033Y799059D02*
G03X1503793Y783819I0J-15240D01*
G01X1503793Y736178D02*
G03X1519033Y720938I15240J0D01*
G01X1625961Y799059D02*
G02X1641201Y783819I0J-15240D01*
G01X1641201Y736178D02*
G02X1625961Y720938I-15240J0D01*
G01X1709057Y584034D02*
G01X1709057Y620880D01*
G01X1630937Y620880D02*
G01X1630937Y584034D01*
G01X1646177Y568794D02*
G01X1693817Y568794D01*
G01X1709057Y690963D02*
G01X1709057Y654118D01*
G01X1630937Y654118D02*
G01X1630937Y690963D01*
G01X1646177Y706203D02*
G01X1693817Y706203D01*
G01X1630937Y584034D02*
G03X1646177Y568794I15240J0D01*
G01X1693817Y568794D02*
G03X1709057Y584034I0J15240D01*
G01X1630937Y690963D02*
G02X1646177Y706203I15240J0D01*
G01X1693817Y706203D02*
G02X1709057Y690963I0J-15240D01*
G01X1629910Y894058D02*
G01X1584358Y894058D01*
G01X1584358Y894058D02*
G01X1584358Y815938D01*
G01X1584358Y815938D02*
G01X1629910Y815938D01*
G01X1663149Y894058D02*
G01X1708701Y894058D01*
G01X1708701Y894058D02*
G01X1708701Y815938D01*
G01X1708701Y815938D02*
G01X1663149Y815938D01*
G01X1566435Y895773D02*
G01X1566435Y941325D01*
G01X1566435Y941325D02*
G01X1488314Y941325D01*
G01X1488314Y941325D02*
G01X1488314Y895773D01*
G01X1566435Y862534D02*
G01X1566435Y816982D01*
G01X1566435Y816982D02*
G01X1488314Y816982D01*
G01X1488314Y816982D02*
G01X1488314Y862534D01*
G01X1663149Y910938D02*
G01X1708701Y910938D01*
G01X1708701Y910938D02*
G01X1708701Y989058D01*
G01X1708701Y989058D02*
G01X1663149Y989058D01*
G01X1629910Y910938D02*
G01X1584358Y910938D01*
G01X1584358Y910938D02*
G01X1584358Y989058D01*
G01X1584358Y989058D02*
G01X1629910Y989058D01*
G01X1129485Y886080D02*
G01X1444725Y886080D01*
G01X1129485Y570841D02*
G01X1444725Y570841D01*
G01X-795855Y516707D02*
G01X-795855Y562259D01*
G01X-795855Y562259D02*
G01X-873976Y562259D01*
G01X-873976Y562259D02*
G01X-873976Y516707D01*
G01X-795855Y483468D02*
G01X-795855Y437916D01*
G01X-795855Y437916D02*
G01X-873976Y437916D01*
G01X-873976Y437916D02*
G01X-873976Y483468D01*
G01X884118Y668439D02*
G01X929670Y668439D01*
G01X929670Y668439D02*
G01X929670Y746559D01*
G01X929670Y746559D02*
G01X884118Y746559D01*
G01X850879Y668439D02*
G01X805327Y668439D01*
G01X805327Y668439D02*
G01X805327Y746559D01*
G01X805327Y746559D02*
G01X850879Y746559D01*
G01X884118Y765938D02*
G01X929670Y765938D01*
G01X929670Y765938D02*
G01X929670Y844059D01*
G01X929670Y844059D02*
G01X884118Y844059D01*
G01X850879Y765938D02*
G01X805327Y765938D01*
G01X805327Y765938D02*
G01X805327Y844059D01*
G01X805327Y844059D02*
G01X850879Y844059D01*
G01X884058Y501618D02*
G01X884058Y547171D01*
G01X884058Y547171D02*
G01X805938Y547171D01*
G01X805938Y547171D02*
G01X805938Y501618D01*
G01X884058Y468380D02*
G01X884058Y422827D01*
G01X884058Y422827D02*
G01X805938Y422827D01*
G01X805938Y422827D02*
G01X805938Y468380D01*
G01X1370119Y-700120D02*
G01X1370119Y-554877D01*
G01X1370119Y-554877D02*
G01X1266957Y-554877D01*
G01X1064877Y-700120D02*
G01X1064877Y-554877D01*
G01X1064877Y-554877D02*
G01X1168039Y-554877D01*
G01X1263037Y-700120D02*
G01X1171958Y-700120D01*
G01X965119Y-677638D02*
G01X1036923Y-677638D01*
G01X1036923Y-677638D02*
G01X1036923Y-777359D01*
G01X1036923Y-777359D02*
G01X965119Y-777359D01*
G01X919877Y-677638D02*
G01X848074Y-677638D01*
G01X848074Y-677638D02*
G01X848074Y-777359D01*
G01X848074Y-777359D02*
G01X919877Y-777359D01*
G54D14*
G01X-927005Y-809978D02*
G01X-1046164Y-809978D01*
G01X-1046166Y-809976D02*
G01X-1046126Y-529999D01*
G01X-1114998Y-463199D02*
G01X-1221884Y-463199D01*
G01X-927000Y-789998D02*
G01X-927000Y-809978D01*
G01X-2163797Y-809978D02*
G01X-2163837Y-513999D01*
G01X-2282996Y-789998D02*
G01X-2282996Y-809978D01*
G01X-2282996Y-809978D02*
G01X-2163837Y-809978D01*
G01X-2282996Y40000D02*
G01X-2282996Y-559999D01*
G01X-926997Y40000D02*
G01X-926997Y-559999D01*
G01X-982697Y-5999D02*
G01X-926997Y-5999D01*
G01X-2283075Y-5898D02*
G01X-2239895Y-5898D01*
G01X-2282996Y530042D02*
G01X-2282996Y269999D01*
G01X-926997Y530042D02*
G01X-926997Y269999D01*
G01X-2282996Y530012D02*
G01X-926997Y530042D01*
G01X-2100297Y-183799D02*
G01X-1173197Y-183799D01*
G01X-1173197Y-183799D02*
G01X-1160497Y-183799D01*
G01X-2151097Y-94899D02*
G01X-2151097Y-132999D01*
G01X-1109666Y-463172D02*
G02X-1046166Y-526672I0J-63500D01*
G01X-2163797Y-513999D02*
G02X-2112997Y-463199I50800J0D01*
G01X-1096997Y-120299D02*
G02X-982697Y-5999I114300J0D01*
G01X-1160497Y-183799D02*
G03X-1096997Y-120299I0J63500D01*
G01X-2151097Y-132999D02*
G03X-2100297Y-183799I50800J0D01*
G01X-2239997Y-5999D02*
G02X-2151097Y-94899I0J-88900D01*
G01X-2236983Y1237098D02*
G01X-2236983Y1135498D01*
G01X-2287788Y1186298D02*
G01X-2186188Y1186298D01*
G01X-2287788Y1338698D02*
G01X-2186188Y1338698D01*
G01X2088008Y1234597D02*
G01X2088008Y1132997D01*
G01X2037203Y1183797D02*
G01X2138803Y1183797D01*
G01X2037203Y1336197D02*
G01X2138803Y1336197D01*
G54D10*
G01X1715936Y428464D02*
G01X1715936Y391618D01*
G01X1794057Y391618D02*
G01X1794057Y428464D01*
G01X1778817Y443704D02*
G01X1731176Y443704D01*
G01X1715936Y321535D02*
G01X1715936Y358380D01*
G01X1794057Y358380D02*
G01X1794057Y321535D01*
G01X1778817Y306295D02*
G01X1731176Y306295D01*
G01X1794057Y428464D02*
G03X1778817Y443704I-15240J0D01*
G01X1731176Y443704D02*
G03X1715936Y428464I0J-15240D01*
G01X1794057Y321535D02*
G02X1778817Y306295I-15240J0D01*
G01X1731176Y306295D02*
G02X1715936Y321535I0J15240D01*
G01X1837375Y684119D02*
G01X2242617Y684119D01*
G01X2242617Y684119D02*
G01X2242617Y618320D01*
G01X1837375Y375879D02*
G01X2242617Y375879D01*
G01X2242617Y375879D02*
G01X2242617Y441678D01*
G36*
G01X1844995Y691739D02*
G01X1844995Y613240D01*
G01X1814515Y613240D01*
G01X1814515Y691739D01*
G01X1844995Y691739D01*
G37*
G36*
G01X1844995Y368259D02*
G01X1844995Y446758D01*
G01X1814515Y446758D01*
G01X1814515Y368259D01*
G01X1844995Y368259D01*
G37*
G01X297621Y-605138D02*
G01X369424Y-605138D01*
G01X369424Y-605138D02*
G01X369424Y-704859D01*
G01X369424Y-704859D02*
G01X297621Y-704859D01*
G01X252378Y-605138D02*
G01X180575Y-605138D01*
G01X180575Y-605138D02*
G01X180575Y-704859D01*
G01X180575Y-704859D02*
G01X252378Y-704859D01*
G01X-235121Y-704859D02*
G01X-306924Y-704859D01*
G01X-306924Y-704859D02*
G01X-306924Y-605138D01*
G01X-306924Y-605138D02*
G01X-235121Y-605138D01*
G01X-189878Y-704859D02*
G01X-118075Y-704859D01*
G01X-118075Y-704859D02*
G01X-118075Y-605138D01*
G01X-118075Y-605138D02*
G01X-189878Y-605138D01*
G54D14*
G01X454708Y-1152193D02*
G01X454708Y-952798D01*
G01X454708Y-1495095D02*
G01X454708Y-1347798D01*
G01X-452491Y-1151880D02*
G01X-452491Y-953108D01*
G01X-452491Y-1509995D02*
G01X-452491Y-1348111D01*
G01X447507Y-1509995D02*
G01X-452491Y-1509995D01*

G04 Circle Start*
G01X914996Y-20002D02*
G03X1094995Y-20002I90000J0D01*
G03X914996Y-20002I-90000J0D01*
G01X-834136Y832509D02*
G03X-805840Y832509I14148J0D01*
G03X-834136Y832509I-14148J0D01*
G54D16*
G01X1554030Y-1247854D02*
G03X1584052Y-1247854I15011J0D01*
G03X1554030Y-1247854I-15011J0D01*
G54D13*
G01X-1568477Y658981D02*
G03X-1553491Y658981I7493J0D01*
G03X-1568477Y658981I-7493J0D01*
G54D15*
G01X2170834Y-356296D02*
G03X2180841Y-356296I5004J0D01*
G03X2170834Y-356296I-5004J0D01*
G54D13*
G01X1081619Y848450D02*
G03X1096605Y848450I7493J0D01*
G03X1081619Y848450I-7493J0D01*
G54D18*
G01X-1217977Y-364012D02*
G03X-1177997Y-364012I19990J0D01*
G03X-1217977Y-364012I-19990J0D01*
G54D14*
G01X-2364986Y1262498D02*
G03X-1964987Y1262498I200000J0D01*
G03X-2364986Y1262498I-200000J0D01*
G01X1960005Y1259997D02*
G03X2360004Y1259997I200000J0D01*
G03X1960005Y1259997I-200000J0D01*
G01X1949999Y529996D02*
G03X2129998Y529996I90000J0D01*
G03X1949999Y529996I-90000J0D01*
G04 Circle End*

M02*

