G04 Layer: TopPasteMaskLayer*
G04 EasyEDA Pro v2.2.40.8, 2025-08-10 13:50:58*
G04 Gerber Generator version 0.3*
G04 Scale: 100 percent, Rotated: No, Reflected: No*
G04 Dimensions in millimeters*
G04 Leading zeros omitted, absolute positions, 4 integers and 5 decimals*
G04 Generated by one-click*
%FSLAX45Y45*%
%MOMM*%
%ADD10R,0.8X0.8*%
%ADD11R,1.35999X1.23*%
%ADD12R,0.8X0.4*%
%ADD13R,0.4X0.8*%
%ADD14R,1.2X1.2*%
%ADD15R,1.157X0.48999*%
%ADD16R,1.175X0.48999*%
%ADD17R,0.5183X0.224*%
%ADD18R,0.505X0.224*%
%ADD19R,1.7X2.3*%
%ADD20R,0.7X1.25001*%
%ADD21R,0.8X1.524*%
%ADD22R,1.5X2.0*%
%ADD23R,2.0X1.5*%
%ADD24R,1.23X1.35999*%
G75*


G04 PolygonModel Start*
G36*
G01X-922496Y698002D02*
G01X-967497Y698002D01*
G01X-972496Y705000D01*
G01X-972496Y753001D01*
G01X-967497Y758002D01*
G01X-922496Y758002D01*
G01X-917498Y753001D01*
G01X-917498Y705000D01*
G01X-922496Y698002D01*
G37*
G36*
G01X-922496Y602000D02*
G01X-967497Y602000D01*
G01X-972496Y607002D01*
G01X-972496Y655000D01*
G01X-967497Y662000D01*
G01X-922496Y662000D01*
G01X-917498Y655000D01*
G01X-917498Y607002D01*
G01X-922496Y602000D01*
G37*
G36*
G01X-848798Y646899D02*
G01X-821199Y646899D01*
G01X-818798Y644498D01*
G01X-818798Y611555D01*
G01X-821199Y609154D01*
G01X-848798Y609154D01*
G01X-851198Y611555D01*
G01X-851198Y644498D01*
G01X-848798Y646899D01*
G37*
G36*
G01X-848798Y663099D02*
G01X-821199Y663099D01*
G01X-818798Y665499D01*
G01X-818798Y698443D01*
G01X-821199Y700843D01*
G01X-848798Y700843D01*
G01X-851198Y698443D01*
G01X-851198Y665499D01*
G01X-848798Y663099D01*
G37*
G36*
G01X861898Y916298D02*
G01X861898Y888699D01*
G01X859498Y886298D01*
G01X826554Y886298D01*
G01X824154Y888699D01*
G01X824154Y916298D01*
G01X826554Y918698D01*
G01X859498Y918698D01*
G01X861898Y916298D01*
G37*
G36*
G01X878098Y916298D02*
G01X878098Y888699D01*
G01X880499Y886298D01*
G01X913442Y886298D01*
G01X915843Y888699D01*
G01X915843Y916298D01*
G01X913442Y918698D01*
G01X880499Y918698D01*
G01X878098Y916298D01*
G37*
G36*
G01X706299Y-1096898D02*
G01X678699Y-1096898D01*
G01X676299Y-1094497D01*
G01X676299Y-1061554D01*
G01X678699Y-1059153D01*
G01X706299Y-1059153D01*
G01X708699Y-1061554D01*
G01X708699Y-1094497D01*
G01X706299Y-1096898D01*
G37*
G36*
G01X706299Y-1113098D02*
G01X678699Y-1113098D01*
G01X676299Y-1115498D01*
G01X676299Y-1148442D01*
G01X678699Y-1150842D01*
G01X706299Y-1150842D01*
G01X708699Y-1148442D01*
G01X708699Y-1115498D01*
G01X706299Y-1113098D01*
G37*
G36*
G01X564997Y-1119930D02*
G01X609998Y-1119930D01*
G01X614997Y-1126927D01*
G01X614997Y-1174928D01*
G01X609998Y-1179930D01*
G01X564997Y-1179930D01*
G01X559998Y-1174928D01*
G01X559998Y-1126927D01*
G01X564997Y-1119930D01*
G37*
G36*
G01X564997Y-1023928D02*
G01X609998Y-1023928D01*
G01X614997Y-1028929D01*
G01X614997Y-1076927D01*
G01X609998Y-1083928D01*
G01X564997Y-1083928D01*
G01X559998Y-1076927D01*
G01X559998Y-1028929D01*
G01X564997Y-1023928D01*
G37*
G36*
G01X991898Y333799D02*
G01X991898Y306200D01*
G01X989498Y303799D01*
G01X956554Y303799D01*
G01X954154Y306200D01*
G01X954154Y333799D01*
G01X956554Y336199D01*
G01X989498Y336199D01*
G01X991898Y333799D01*
G37*
G36*
G01X1008098Y333799D02*
G01X1008098Y306200D01*
G01X1010498Y303799D01*
G01X1043442Y303799D01*
G01X1045842Y306200D01*
G01X1045842Y333799D01*
G01X1043442Y336199D01*
G01X1010498Y336199D01*
G01X1008098Y333799D01*
G37*
G36*
G01X2079492Y-909996D02*
G01X2079492Y-954997D01*
G01X2072494Y-959996D01*
G01X2024494Y-959996D01*
G01X2019492Y-954997D01*
G01X2019492Y-909996D01*
G01X2024494Y-904997D01*
G01X2072494Y-904997D01*
G01X2079492Y-909996D01*
G37*
G36*
G01X2175494Y-909996D02*
G01X2175494Y-954997D01*
G01X2170493Y-959996D01*
G01X2122494Y-959996D01*
G01X2115494Y-954997D01*
G01X2115494Y-909996D01*
G01X2122494Y-904997D01*
G01X2170493Y-904997D01*
G01X2175494Y-909996D01*
G37*
G36*
G01X2133096Y-836298D02*
G01X2133096Y-808698D01*
G01X2135496Y-806298D01*
G01X2168440Y-806298D01*
G01X2170840Y-808698D01*
G01X2170840Y-836298D01*
G01X2168440Y-838698D01*
G01X2135496Y-838698D01*
G01X2133096Y-836298D01*
G37*
G36*
G01X2116896Y-836298D02*
G01X2116896Y-808698D01*
G01X2114495Y-806298D01*
G01X2081552Y-806298D01*
G01X2079151Y-808698D01*
G01X2079151Y-836298D01*
G01X2081552Y-838698D01*
G01X2114495Y-838698D01*
G01X2116896Y-836298D01*
G37*
G36*
G01X1841296Y-474399D02*
G01X1813697Y-474399D01*
G01X1811296Y-471999D01*
G01X1811296Y-439055D01*
G01X1813697Y-436654D01*
G01X1841296Y-436654D01*
G01X1843697Y-439055D01*
G01X1843697Y-471999D01*
G01X1841296Y-474399D01*
G37*
G36*
G01X1841296Y-490599D02*
G01X1813697Y-490599D01*
G01X1811296Y-492999D01*
G01X1811296Y-525943D01*
G01X1813697Y-528343D01*
G01X1841296Y-528343D01*
G01X1843697Y-525943D01*
G01X1843697Y-492999D01*
G01X1841296Y-490599D01*
G37*
G36*
G01X1914491Y-527499D02*
G01X1959493Y-527499D01*
G01X1964491Y-534497D01*
G01X1964491Y-582498D01*
G01X1959493Y-587499D01*
G01X1914491Y-587499D01*
G01X1909493Y-582498D01*
G01X1909493Y-534497D01*
G01X1914491Y-527499D01*
G37*
G36*
G01X1914491Y-431497D02*
G01X1959493Y-431497D01*
G01X1964491Y-436499D01*
G01X1964491Y-484497D01*
G01X1959493Y-491497D01*
G01X1914491Y-491497D01*
G01X1909493Y-484497D01*
G01X1909493Y-436499D01*
G01X1914491Y-431497D01*
G37*
G36*
G01X1792498Y-914494D02*
G01X1747497Y-914494D01*
G01X1742498Y-907497D01*
G01X1742498Y-859496D01*
G01X1747497Y-854495D01*
G01X1792498Y-854495D01*
G01X1797497Y-859496D01*
G01X1797497Y-907497D01*
G01X1792498Y-914494D01*
G37*
G36*
G01X1792498Y-1010496D02*
G01X1747497Y-1010496D01*
G01X1742498Y-1005495D01*
G01X1742498Y-957497D01*
G01X1747497Y-950496D01*
G01X1792498Y-950496D01*
G01X1797497Y-957497D01*
G01X1797497Y-1005495D01*
G01X1792498Y-1010496D01*
G37*
G36*
G01X1119996Y-1061260D02*
G01X1164997Y-1061260D01*
G01X1169996Y-1068257D01*
G01X1169996Y-1116258D01*
G01X1164997Y-1121260D01*
G01X1119996Y-1121260D01*
G01X1114997Y-1116258D01*
G01X1114997Y-1068257D01*
G01X1119996Y-1061260D01*
G37*
G36*
G01X1119996Y-965258D02*
G01X1164997Y-965258D01*
G01X1169996Y-970259D01*
G01X1169996Y-1018258D01*
G01X1164997Y-1025258D01*
G01X1119996Y-1025258D01*
G01X1114997Y-1018258D01*
G01X1114997Y-970259D01*
G01X1119996Y-965258D01*
G37*
G36*
G01X-867843Y-451757D02*
G01X-840243Y-451757D01*
G01X-837843Y-454157D01*
G01X-837843Y-487101D01*
G01X-840243Y-489501D01*
G01X-867843Y-489501D01*
G01X-870243Y-487101D01*
G01X-870243Y-454157D01*
G01X-867843Y-451757D01*
G37*
G36*
G01X-867843Y-435556D02*
G01X-840243Y-435556D01*
G01X-837843Y-433156D01*
G01X-837843Y-400212D01*
G01X-840243Y-397812D01*
G01X-867843Y-397812D01*
G01X-870243Y-400212D01*
G01X-870243Y-433156D01*
G01X-867843Y-435556D01*
G37*
G36*
G01X-1450177Y877071D02*
G01X-1477777Y877071D01*
G01X-1480177Y879471D01*
G01X-1480177Y912415D01*
G01X-1477777Y914815D01*
G01X-1450177Y914815D01*
G01X-1447777Y912415D01*
G01X-1447777Y879471D01*
G01X-1450177Y877071D01*
G37*
G36*
G01X-1450177Y860871D02*
G01X-1477777Y860871D01*
G01X-1480177Y858470D01*
G01X-1480177Y825527D01*
G01X-1477777Y823126D01*
G01X-1450177Y823126D01*
G01X-1447777Y825527D01*
G01X-1447777Y858470D01*
G01X-1450177Y860871D01*
G37*
G36*
G01X-1440597Y756298D02*
G01X-1440597Y728699D01*
G01X-1442997Y726299D01*
G01X-1475941Y726299D01*
G01X-1478341Y728699D01*
G01X-1478341Y756298D01*
G01X-1475941Y758699D01*
G01X-1442997Y758699D01*
G01X-1440597Y756298D01*
G37*
G36*
G01X-1424397Y756298D02*
G01X-1424397Y728699D01*
G01X-1421997Y726299D01*
G01X-1389053Y726299D01*
G01X-1386653Y728699D01*
G01X-1386653Y756298D01*
G01X-1389053Y758699D01*
G01X-1421997Y758699D01*
G01X-1424397Y756298D01*
G37*
G36*
G01X-1485597Y616299D02*
G01X-1485597Y588699D01*
G01X-1487997Y586299D01*
G01X-1520941Y586299D01*
G01X-1523341Y588699D01*
G01X-1523341Y616299D01*
G01X-1520941Y618699D01*
G01X-1487997Y618699D01*
G01X-1485597Y616299D01*
G37*
G36*
G01X-1469397Y616299D02*
G01X-1469397Y588699D01*
G01X-1466997Y586299D01*
G01X-1434053Y586299D01*
G01X-1431652Y588699D01*
G01X-1431652Y616299D01*
G01X-1434053Y618699D01*
G01X-1466997Y618699D01*
G01X-1469397Y616299D01*
G37*
G36*
G01X-2009396Y768699D02*
G01X-2009396Y796298D01*
G01X-2006995Y798699D01*
G01X-1974052Y798699D01*
G01X-1971651Y796298D01*
G01X-1971651Y768699D01*
G01X-1974052Y766298D01*
G01X-2006995Y766298D01*
G01X-2009396Y768699D01*
G37*
G36*
G01X-2025596Y768699D02*
G01X-2025596Y796298D01*
G01X-2027996Y798699D01*
G01X-2060940Y798699D01*
G01X-2063340Y796298D01*
G01X-2063340Y768699D01*
G01X-2060940Y766298D01*
G01X-2027996Y766298D01*
G01X-2025596Y768699D01*
G37*
G36*
G01X-1919396Y983698D02*
G01X-1919396Y1011298D01*
G01X-1916996Y1013698D01*
G01X-1884052Y1013698D01*
G01X-1881652Y1011298D01*
G01X-1881652Y983698D01*
G01X-1884052Y981298D01*
G01X-1916996Y981298D01*
G01X-1919396Y983698D01*
G37*
G36*
G01X-1935596Y983698D02*
G01X-1935596Y1011298D01*
G01X-1937996Y1013698D01*
G01X-1970940Y1013698D01*
G01X-1973340Y1011298D01*
G01X-1973340Y983698D01*
G01X-1970940Y981298D01*
G01X-1937996Y981298D01*
G01X-1935596Y983698D01*
G37*
G36*
G01X-877500Y-258003D02*
G01X-832499Y-258003D01*
G01X-827500Y-265001D01*
G01X-827500Y-313002D01*
G01X-832499Y-318003D01*
G01X-877500Y-318003D01*
G01X-882499Y-313002D01*
G01X-882499Y-265001D01*
G01X-877500Y-258003D01*
G37*
G36*
G01X-877500Y-162001D02*
G01X-832499Y-162001D01*
G01X-827500Y-167002D01*
G01X-827500Y-215001D01*
G01X-832499Y-222001D01*
G01X-877500Y-222001D01*
G01X-882499Y-215001D01*
G01X-882499Y-167002D01*
G01X-877500Y-162001D01*
G37*
G36*
G01X1263456Y54872D02*
G01X1263456Y8873D01*
G01X1259456Y4872D01*
G01X1209393Y4872D01*
G01X1205392Y8873D01*
G01X1205392Y54872D01*
G01X1209393Y58873D01*
G01X1259456Y58873D01*
G01X1263456Y54872D01*
G37*
G36*
G01X1290457Y54872D02*
G01X1290457Y8873D01*
G01X1294457Y4872D01*
G01X1344521Y4872D01*
G01X1348521Y8873D01*
G01X1348521Y54872D01*
G01X1344521Y58873D01*
G01X1294457Y58873D01*
G01X1290457Y54872D01*
G37*
G36*
G01X1281497Y-1282756D02*
G01X1281497Y-1328755D01*
G01X1277497Y-1332756D01*
G01X1227433Y-1332756D01*
G01X1223433Y-1328755D01*
G01X1223433Y-1282756D01*
G01X1227433Y-1278755D01*
G01X1277497Y-1278755D01*
G01X1281497Y-1282756D01*
G37*
G36*
G01X1308498Y-1282756D02*
G01X1308498Y-1328755D01*
G01X1312498Y-1332756D01*
G01X1362561Y-1332756D01*
G01X1366562Y-1328755D01*
G01X1366562Y-1282756D01*
G01X1362561Y-1278755D01*
G01X1312498Y-1278755D01*
G01X1308498Y-1282756D01*
G37*
G36*
G01X-2124396Y676199D02*
G01X-2124396Y703798D01*
G01X-2121995Y706199D01*
G01X-2095582Y706199D01*
G01X-2093184Y703798D01*
G01X-2093184Y676199D01*
G01X-2095582Y673799D01*
G01X-2121995Y673799D01*
G01X-2124396Y676199D01*
G37*
G36*
G01X-2140596Y676199D02*
G01X-2140596Y703798D01*
G01X-2142996Y706199D01*
G01X-2169409Y706199D01*
G01X-2171807Y703798D01*
G01X-2171807Y676199D01*
G01X-2169409Y673799D01*
G01X-2142996Y673799D01*
G01X-2140596Y676199D01*
G37*
G36*
G01X-2007776Y655871D02*
G01X-1980176Y655871D01*
G01X-1977776Y653471D01*
G01X-1977776Y627057D01*
G01X-1980176Y624660D01*
G01X-2007776Y624660D01*
G01X-2010176Y627057D01*
G01X-2010176Y653471D01*
G01X-2007776Y655871D01*
G37*
G36*
G01X-2007776Y672071D02*
G01X-1980176Y672071D01*
G01X-1977776Y674472D01*
G01X-1977776Y700885D01*
G01X-1980176Y703283D01*
G01X-2007776Y703283D01*
G01X-2010176Y700885D01*
G01X-2010176Y674472D01*
G01X-2007776Y672071D01*
G37*
G36*
G01X-2140596Y606299D02*
G01X-2140596Y578699D01*
G01X-2142996Y576299D01*
G01X-2169409Y576299D01*
G01X-2171807Y578699D01*
G01X-2171807Y606299D01*
G01X-2169409Y608699D01*
G01X-2142996Y608699D01*
G01X-2140596Y606299D01*
G37*
G36*
G01X-2124396Y606299D02*
G01X-2124396Y578699D01*
G01X-2121995Y576299D01*
G01X-2095582Y576299D01*
G01X-2093184Y578699D01*
G01X-2093184Y606299D01*
G01X-2095582Y608699D01*
G01X-2121995Y608699D01*
G01X-2124396Y606299D01*
G37*
G36*
G01X1040598Y753699D02*
G01X1040598Y781298D01*
G01X1042998Y783698D01*
G01X1075942Y783698D01*
G01X1078343Y781298D01*
G01X1078343Y753699D01*
G01X1075942Y751298D01*
G01X1042998Y751298D01*
G01X1040598Y753699D01*
G37*
G36*
G01X1024398Y753699D02*
G01X1024398Y781298D01*
G01X1021998Y783698D01*
G01X989054Y783698D01*
G01X986654Y781298D01*
G01X986654Y753699D01*
G01X989054Y751298D01*
G01X1021998Y751298D01*
G01X1024398Y753699D01*
G37*
G36*
G01X1125598Y926198D02*
G01X1125598Y953798D01*
G01X1127998Y956198D01*
G01X1160942Y956198D01*
G01X1163342Y953798D01*
G01X1163342Y926198D01*
G01X1160942Y923798D01*
G01X1127998Y923798D01*
G01X1125598Y926198D01*
G37*
G36*
G01X1109398Y926198D02*
G01X1109398Y953798D01*
G01X1106997Y956198D01*
G01X1074054Y956198D01*
G01X1071653Y953798D01*
G01X1071653Y926198D01*
G01X1074054Y923798D01*
G01X1106997Y923798D01*
G01X1109398Y926198D01*
G37*
G36*
G01X980299Y634467D02*
G01X1007899Y634467D01*
G01X1010299Y632066D01*
G01X1010299Y599123D01*
G01X1007899Y596722D01*
G01X980299Y596722D01*
G01X977899Y599123D01*
G01X977899Y632066D01*
G01X980299Y634467D01*
G37*
G36*
G01X980299Y650667D02*
G01X1007899Y650667D01*
G01X1010299Y653067D01*
G01X1010299Y686011D01*
G01X1007899Y688411D01*
G01X980299Y688411D01*
G01X977899Y686011D01*
G01X977899Y653067D01*
G01X980299Y650667D01*
G37*
G36*
G01X1564397Y773798D02*
G01X1564397Y746199D01*
G01X1561997Y743798D01*
G01X1529053Y743798D01*
G01X1526653Y746199D01*
G01X1526653Y773798D01*
G01X1529053Y776199D01*
G01X1561997Y776199D01*
G01X1564397Y773798D01*
G37*
G36*
G01X1580597Y773798D02*
G01X1580597Y746199D01*
G01X1582997Y743798D01*
G01X1615941Y743798D01*
G01X1618341Y746199D01*
G01X1618341Y773798D01*
G01X1615941Y776199D01*
G01X1582997Y776199D01*
G01X1580597Y773798D01*
G37*
G36*
G01X1656197Y629399D02*
G01X1683796Y629399D01*
G01X1686197Y626998D01*
G01X1686197Y594055D01*
G01X1683796Y591654D01*
G01X1656197Y591654D01*
G01X1653797Y594055D01*
G01X1653797Y626998D01*
G01X1656197Y629399D01*
G37*
G36*
G01X1656197Y645599D02*
G01X1683796Y645599D01*
G01X1686197Y647999D01*
G01X1686197Y680943D01*
G01X1683796Y683343D01*
G01X1656197Y683343D01*
G01X1653797Y680943D01*
G01X1653797Y647999D01*
G01X1656197Y645599D01*
G37*
G36*
G01X1638430Y868798D02*
G01X1638430Y841198D01*
G01X1636029Y838798D01*
G01X1609616Y838798D01*
G01X1607218Y841198D01*
G01X1607218Y868798D01*
G01X1609616Y871198D01*
G01X1636029Y871198D01*
G01X1638430Y868798D01*
G37*
G36*
G01X1654630Y868798D02*
G01X1654630Y841198D01*
G01X1657030Y838798D01*
G01X1683443Y838798D01*
G01X1685841Y841198D01*
G01X1685841Y868798D01*
G01X1683443Y871198D01*
G01X1657030Y871198D01*
G01X1654630Y868798D01*
G37*
G36*
G01X1541174Y887254D02*
G01X1513575Y887254D01*
G01X1511174Y889654D01*
G01X1511174Y916068D01*
G01X1513575Y918465D01*
G01X1541174Y918465D01*
G01X1543575Y916068D01*
G01X1543575Y889654D01*
G01X1541174Y887254D01*
G37*
G36*
G01X1541174Y871054D02*
G01X1513575Y871054D01*
G01X1511174Y868653D01*
G01X1511174Y842240D01*
G01X1513575Y839842D01*
G01X1541174Y839842D01*
G01X1543575Y842240D01*
G01X1543575Y868653D01*
G01X1541174Y871054D01*
G37*
G36*
G01X1654630Y936198D02*
G01X1654630Y963798D01*
G01X1657030Y966198D01*
G01X1683443Y966198D01*
G01X1685841Y963798D01*
G01X1685841Y936198D01*
G01X1683443Y933798D01*
G01X1657030Y933798D01*
G01X1654630Y936198D01*
G37*
G36*
G01X1638430Y936198D02*
G01X1638430Y963798D01*
G01X1636029Y966198D01*
G01X1609616Y966198D01*
G01X1607218Y963798D01*
G01X1607218Y936198D01*
G01X1609616Y933798D01*
G01X1636029Y933798D01*
G01X1638430Y936198D01*
G37*
G36*
G01X-821116Y508188D02*
G01X-848715Y508188D01*
G01X-851116Y510588D01*
G01X-851116Y537001D01*
G01X-848715Y539399D01*
G01X-821116Y539399D01*
G01X-818715Y537001D01*
G01X-818715Y510588D01*
G01X-821116Y508188D01*
G37*
G36*
G01X-821116Y491988D02*
G01X-848715Y491988D01*
G01X-851116Y489587D01*
G01X-851116Y463174D01*
G01X-848715Y460776D01*
G01X-821116Y460776D01*
G01X-818715Y463174D01*
G01X-818715Y489587D01*
G01X-821116Y491988D01*
G37*
G36*
G01X875598Y693699D02*
G01X875598Y721299D01*
G01X877999Y723699D01*
G01X904412Y723699D01*
G01X906810Y721299D01*
G01X906810Y693699D01*
G01X904412Y691299D01*
G01X877999Y691299D01*
G01X875598Y693699D01*
G37*
G36*
G01X859398Y693699D02*
G01X859398Y721299D01*
G01X856998Y723699D01*
G01X830585Y723699D01*
G01X828187Y721299D01*
G01X828187Y693699D01*
G01X830585Y691299D01*
G01X856998Y691299D01*
G01X859398Y693699D01*
G37*
G36*
G01X875598Y791199D02*
G01X875598Y818798D01*
G01X877999Y821199D01*
G01X904412Y821199D01*
G01X906810Y818798D01*
G01X906810Y791199D01*
G01X904412Y788798D01*
G01X877999Y788798D01*
G01X875598Y791199D01*
G37*
G36*
G01X859398Y791199D02*
G01X859398Y818798D01*
G01X856998Y821199D01*
G01X830585Y821199D01*
G01X828187Y818798D01*
G01X828187Y791199D01*
G01X830585Y788798D01*
G01X856998Y788798D01*
G01X859398Y791199D01*
G37*
G36*
G01X858798Y493099D02*
G01X831198Y493099D01*
G01X828798Y495499D01*
G01X828798Y521913D01*
G01X831198Y524311D01*
G01X858798Y524311D01*
G01X861198Y521913D01*
G01X861198Y495499D01*
G01X858798Y493099D01*
G37*
G36*
G01X858798Y476899D02*
G01X831198Y476899D01*
G01X828798Y474499D01*
G01X828798Y448085D01*
G01X831198Y445687D01*
G01X858798Y445687D01*
G01X861198Y448085D01*
G01X861198Y474499D01*
G01X858798Y476899D01*
G37*
G36*
G01X928998Y-704499D02*
G01X928998Y-750498D01*
G01X924998Y-754499D01*
G01X874934Y-754499D01*
G01X870934Y-750498D01*
G01X870934Y-704499D01*
G01X874934Y-700498D01*
G01X924998Y-700498D01*
G01X928998Y-704499D01*
G37*
G36*
G01X955998Y-704499D02*
G01X955998Y-750498D01*
G01X959999Y-754499D01*
G01X1010062Y-754499D01*
G01X1014063Y-750498D01*
G01X1014063Y-704499D01*
G01X1010062Y-700498D01*
G01X959999Y-700498D01*
G01X955998Y-704499D01*
G37*
G36*
G01X1768796Y383099D02*
G01X1741197Y383099D01*
G01X1738796Y385500D01*
G01X1738796Y418443D01*
G01X1741197Y420844D01*
G01X1768796Y420844D01*
G01X1771197Y418443D01*
G01X1771197Y385500D01*
G01X1768796Y383099D01*
G37*
G36*
G01X1768796Y366899D02*
G01X1741197Y366899D01*
G01X1738796Y364499D01*
G01X1738796Y331555D01*
G01X1741197Y329155D01*
G01X1768796Y329155D01*
G01X1771197Y331555D01*
G01X1771197Y364499D01*
G01X1768796Y366899D01*
G37*
G36*
G01X261499Y-631999D02*
G01X261499Y-677998D01*
G01X257499Y-681999D01*
G01X207435Y-681999D01*
G01X203435Y-677998D01*
G01X203435Y-631999D01*
G01X207435Y-627998D01*
G01X257499Y-627998D01*
G01X261499Y-631999D01*
G37*
G36*
G01X288500Y-631999D02*
G01X288500Y-677998D01*
G01X292500Y-681999D01*
G01X342563Y-681999D01*
G01X346564Y-677998D01*
G01X346564Y-631999D01*
G01X342563Y-627998D01*
G01X292500Y-627998D01*
G01X288500Y-631999D01*
G37*
G36*
G01X-198999Y-677998D02*
G01X-198999Y-631999D01*
G01X-194999Y-627998D01*
G01X-144936Y-627998D01*
G01X-140935Y-631999D01*
G01X-140935Y-677998D01*
G01X-144936Y-681999D01*
G01X-194999Y-681999D01*
G01X-198999Y-677998D01*
G37*
G36*
G01X-226000Y-677998D02*
G01X-226000Y-631999D01*
G01X-230000Y-627998D01*
G01X-280064Y-627998D01*
G01X-284064Y-631999D01*
G01X-284064Y-677998D01*
G01X-280064Y-681999D01*
G01X-230000Y-681999D01*
G01X-226000Y-677998D01*
G37*
G36*
G01X137507Y-829994D02*
G01X137507Y-719994D01*
G01X107505Y-719994D01*
G01X107505Y-829994D01*
G01X137507Y-829994D01*
G37*
G36*
G01X157517Y-719994D02*
G01X157517Y-829994D01*
G01X187520Y-829994D01*
G01X187520Y-719994D01*
G01X157517Y-719994D01*
G37*
G36*
G01X-352502Y-719994D02*
G01X-352502Y-829994D01*
G01X-292502Y-829994D01*
G01X-292502Y-719994D01*
G01X-352502Y-719994D01*
G37*
G36*
G01X87495Y-829994D02*
G01X87495Y-719994D01*
G01X57492Y-719994D01*
G01X57492Y-829994D01*
G01X87495Y-829994D01*
G37*
G36*
G01X207517Y-719994D02*
G01X207517Y-829994D01*
G01X267517Y-829994D01*
G01X267517Y-719994D01*
G01X207517Y-719994D01*
G37*
G36*
G01X347502Y-829994D02*
G01X347502Y-719994D01*
G01X287502Y-719994D01*
G01X287502Y-829994D01*
G01X347502Y-829994D01*
G37*
G36*
G01X37508Y-829994D02*
G01X37508Y-719994D01*
G01X7505Y-719994D01*
G01X7505Y-829994D01*
G01X37508Y-829994D01*
G37*
G36*
G01X-12505Y-829994D02*
G01X-12505Y-719994D01*
G01X-42508Y-719994D01*
G01X-42508Y-829994D01*
G01X-12505Y-829994D01*
G37*
G36*
G01X-272492Y-719994D02*
G01X-272492Y-829994D01*
G01X-212492Y-829994D01*
G01X-212492Y-719994D01*
G01X-272492Y-719994D01*
G37*
G36*
G01X-62492Y-829994D02*
G01X-62492Y-719994D01*
G01X-92495Y-719994D01*
G01X-92495Y-829994D01*
G01X-62492Y-829994D01*
G37*
G36*
G01X-112479Y-829994D02*
G01X-112479Y-719994D01*
G01X-142482Y-719994D01*
G01X-142482Y-829994D01*
G01X-112479Y-829994D01*
G37*
G36*
G01X-162492Y-829994D02*
G01X-162492Y-719994D01*
G01X-192495Y-719994D01*
G01X-192495Y-829994D01*
G01X-162492Y-829994D01*
G37*
G36*
G01X434482Y-730154D02*
G01X431495Y-730004D01*
G01X428502Y-730004D01*
G01X425515Y-730154D01*
G01X422539Y-730451D01*
G01X419579Y-730898D01*
G01X416648Y-731490D01*
G01X413748Y-732229D01*
G01X410890Y-733111D01*
G01X408078Y-734134D01*
G01X405322Y-735295D01*
G01X402625Y-736593D01*
G01X399999Y-738026D01*
G01X397446Y-739585D01*
G01X394974Y-741269D01*
G01X392589Y-743078D01*
G01X390298Y-745000D01*
G01X388104Y-747035D01*
G01X386016Y-749176D01*
G01X384035Y-751419D01*
G01X382170Y-753758D01*
G01X380425Y-756187D01*
G01X378802Y-758701D01*
G01X377306Y-761292D01*
G01X375940Y-763954D01*
G01X374710Y-766679D01*
G01X373618Y-769466D01*
G01X372663Y-772300D01*
G01X371853Y-775181D01*
G01X371187Y-778097D01*
G01X370669Y-781043D01*
G01X370296Y-784012D01*
G01X370072Y-786997D01*
G01X369999Y-789986D01*
G01X369999Y-869986D01*
G01X370072Y-872976D01*
G01X370296Y-875960D01*
G01X370669Y-878930D01*
G01X371187Y-881876D01*
G01X371853Y-884792D01*
G01X372663Y-887672D01*
G01X373618Y-890507D01*
G01X374710Y-893293D01*
G01X375940Y-896019D01*
G01X377306Y-898681D01*
G01X378802Y-901271D01*
G01X380425Y-903786D01*
G01X382170Y-906214D01*
G01X384035Y-908554D01*
G01X386016Y-910796D01*
G01X388104Y-912938D01*
G01X390298Y-914972D01*
G01X392589Y-916895D01*
G01X394974Y-918703D01*
G01X397446Y-920387D01*
G01X399999Y-921947D01*
G01X402625Y-923380D01*
G01X405322Y-924677D01*
G01X408078Y-925838D01*
G01X410890Y-926862D01*
G01X413748Y-927743D01*
G01X416648Y-928482D01*
G01X419579Y-929074D01*
G01X422539Y-929521D01*
G01X425515Y-929818D01*
G01X428502Y-929968D01*
G01X431495Y-929968D01*
G01X434482Y-929818D01*
G01X437458Y-929521D01*
G01X440418Y-929074D01*
G01X443349Y-928482D01*
G01X446249Y-927743D01*
G01X449107Y-926862D01*
G01X451919Y-925838D01*
G01X454675Y-924677D01*
G01X457372Y-923380D01*
G01X459998Y-921947D01*
G01X462551Y-920387D01*
G01X465023Y-918703D01*
G01X467408Y-916895D01*
G01X469699Y-914972D01*
G01X471893Y-912938D01*
G01X473981Y-910796D01*
G01X475962Y-908554D01*
G01X477827Y-906214D01*
G01X479572Y-903786D01*
G01X481195Y-901271D01*
G01X482691Y-898681D01*
G01X484057Y-896019D01*
G01X485287Y-893293D01*
G01X486379Y-890507D01*
G01X487334Y-887672D01*
G01X488144Y-884792D01*
G01X488810Y-881876D01*
G01X489328Y-878930D01*
G01X489701Y-875960D01*
G01X489925Y-872976D01*
G01X489998Y-869986D01*
G01X489998Y-789986D01*
G01X489925Y-786997D01*
G01X489701Y-784012D01*
G01X489328Y-781043D01*
G01X488810Y-778097D01*
G01X488144Y-775181D01*
G01X487334Y-772300D01*
G01X486379Y-769466D01*
G01X485287Y-766679D01*
G01X484057Y-763954D01*
G01X482691Y-761292D01*
G01X481195Y-758701D01*
G01X479572Y-756187D01*
G01X477827Y-753758D01*
G01X475962Y-751419D01*
G01X473981Y-749176D01*
G01X471893Y-747035D01*
G01X469699Y-745000D01*
G01X467408Y-743078D01*
G01X465023Y-741269D01*
G01X462551Y-739585D01*
G01X459998Y-738026D01*
G01X457372Y-736593D01*
G01X454675Y-735295D01*
G01X451919Y-734134D01*
G01X449107Y-733111D01*
G01X446249Y-732229D01*
G01X443349Y-731490D01*
G01X440418Y-730898D01*
G01X437458Y-730451D01*
G01X434482Y-730154D01*
G37*
G36*
G01X-436495Y-730004D02*
G01X-439482Y-730154D01*
G01X-442458Y-730451D01*
G01X-445418Y-730898D01*
G01X-448349Y-731490D01*
G01X-451249Y-732229D01*
G01X-454107Y-733111D01*
G01X-456919Y-734134D01*
G01X-459675Y-735295D01*
G01X-462372Y-736593D01*
G01X-464998Y-738026D01*
G01X-467551Y-739585D01*
G01X-470023Y-741269D01*
G01X-472408Y-743078D01*
G01X-474699Y-745000D01*
G01X-476893Y-747035D01*
G01X-478981Y-749176D01*
G01X-480962Y-751419D01*
G01X-482827Y-753758D01*
G01X-484572Y-756187D01*
G01X-486195Y-758701D01*
G01X-487691Y-761292D01*
G01X-489057Y-763954D01*
G01X-490287Y-766679D01*
G01X-491379Y-769466D01*
G01X-492334Y-772300D01*
G01X-493144Y-775181D01*
G01X-493810Y-778097D01*
G01X-494328Y-781043D01*
G01X-494701Y-784012D01*
G01X-494925Y-786997D01*
G01X-494998Y-789986D01*
G01X-494998Y-869986D01*
G01X-494925Y-872976D01*
G01X-494701Y-875960D01*
G01X-494328Y-878930D01*
G01X-493810Y-881876D01*
G01X-493144Y-884792D01*
G01X-492334Y-887672D01*
G01X-491379Y-890507D01*
G01X-490287Y-893293D01*
G01X-489057Y-896019D01*
G01X-487691Y-898681D01*
G01X-486195Y-901271D01*
G01X-484572Y-903786D01*
G01X-482827Y-906214D01*
G01X-480962Y-908554D01*
G01X-478981Y-910796D01*
G01X-476893Y-912938D01*
G01X-474699Y-914972D01*
G01X-472408Y-916895D01*
G01X-470023Y-918703D01*
G01X-467551Y-920387D01*
G01X-464998Y-921947D01*
G01X-462372Y-923380D01*
G01X-459675Y-924677D01*
G01X-456919Y-925838D01*
G01X-454107Y-926862D01*
G01X-451249Y-927743D01*
G01X-448349Y-928482D01*
G01X-445418Y-929074D01*
G01X-442458Y-929521D01*
G01X-439482Y-929818D01*
G01X-436495Y-929968D01*
G01X-433502Y-929968D01*
G01X-430515Y-929818D01*
G01X-427539Y-929521D01*
G01X-424579Y-929074D01*
G01X-421648Y-928482D01*
G01X-418748Y-927743D01*
G01X-415890Y-926862D01*
G01X-413078Y-925838D01*
G01X-410322Y-924677D01*
G01X-407625Y-923380D01*
G01X-404999Y-921947D01*
G01X-402446Y-920387D01*
G01X-399974Y-918703D01*
G01X-397589Y-916895D01*
G01X-395298Y-914972D01*
G01X-393104Y-912938D01*
G01X-391016Y-910796D01*
G01X-389035Y-908554D01*
G01X-387170Y-906214D01*
G01X-385425Y-903786D01*
G01X-383802Y-901271D01*
G01X-382306Y-898681D01*
G01X-380940Y-896019D01*
G01X-379710Y-893293D01*
G01X-378618Y-890507D01*
G01X-377663Y-887672D01*
G01X-376853Y-884792D01*
G01X-376187Y-881876D01*
G01X-375669Y-878930D01*
G01X-375296Y-875960D01*
G01X-375072Y-872976D01*
G01X-374999Y-869986D01*
G01X-374999Y-789986D01*
G01X-375072Y-786997D01*
G01X-375296Y-784012D01*
G01X-375669Y-781043D01*
G01X-376187Y-778097D01*
G01X-376853Y-775181D01*
G01X-377663Y-772300D01*
G01X-378618Y-769466D01*
G01X-379710Y-766679D01*
G01X-380940Y-763954D01*
G01X-382306Y-761292D01*
G01X-383802Y-758701D01*
G01X-385425Y-756187D01*
G01X-387170Y-753758D01*
G01X-389035Y-751419D01*
G01X-391016Y-749176D01*
G01X-393104Y-747035D01*
G01X-395298Y-745000D01*
G01X-397589Y-743078D01*
G01X-399974Y-741269D01*
G01X-402446Y-739585D01*
G01X-404999Y-738026D01*
G01X-407625Y-736593D01*
G01X-410322Y-735295D01*
G01X-413078Y-734134D01*
G01X-415890Y-733111D01*
G01X-418748Y-732229D01*
G01X-421648Y-731490D01*
G01X-424579Y-730898D01*
G01X-427539Y-730451D01*
G01X-430515Y-730154D01*
G01X-433502Y-730004D01*
G01X-436495Y-730004D01*
G37*
G36*
G01X-430515Y-1175170D02*
G01X-433502Y-1175020D01*
G01X-436495Y-1175020D01*
G01X-439482Y-1175170D01*
G01X-442458Y-1175467D01*
G01X-445418Y-1175914D01*
G01X-448349Y-1176506D01*
G01X-451249Y-1177245D01*
G01X-454107Y-1178126D01*
G01X-456919Y-1179150D01*
G01X-459675Y-1180311D01*
G01X-462372Y-1181609D01*
G01X-464998Y-1183041D01*
G01X-467551Y-1184601D01*
G01X-470023Y-1186285D01*
G01X-472408Y-1188093D01*
G01X-474699Y-1190016D01*
G01X-476893Y-1192051D01*
G01X-478981Y-1194192D01*
G01X-480962Y-1196435D01*
G01X-482827Y-1198774D01*
G01X-484572Y-1201202D01*
G01X-486195Y-1203717D01*
G01X-487691Y-1206308D01*
G01X-489057Y-1208970D01*
G01X-490287Y-1211695D01*
G01X-491379Y-1214481D01*
G01X-492334Y-1217316D01*
G01X-493144Y-1220196D01*
G01X-493810Y-1223112D01*
G01X-494328Y-1226059D01*
G01X-494701Y-1229028D01*
G01X-494925Y-1232012D01*
G01X-494998Y-1235002D01*
G01X-494998Y-1265002D01*
G01X-494925Y-1267991D01*
G01X-494701Y-1270976D01*
G01X-494328Y-1273945D01*
G01X-493810Y-1276892D01*
G01X-493144Y-1279808D01*
G01X-492334Y-1282688D01*
G01X-491379Y-1285523D01*
G01X-490287Y-1288309D01*
G01X-489057Y-1291034D01*
G01X-487691Y-1293696D01*
G01X-486195Y-1296287D01*
G01X-484572Y-1298802D01*
G01X-482827Y-1301230D01*
G01X-480962Y-1303569D01*
G01X-478981Y-1305812D01*
G01X-476893Y-1307953D01*
G01X-474699Y-1309988D01*
G01X-472408Y-1311911D01*
G01X-470023Y-1313719D01*
G01X-467551Y-1315403D01*
G01X-464998Y-1316963D01*
G01X-462372Y-1318395D01*
G01X-459675Y-1319693D01*
G01X-456919Y-1320854D01*
G01X-454107Y-1321878D01*
G01X-451249Y-1322759D01*
G01X-448349Y-1323498D01*
G01X-445418Y-1324090D01*
G01X-442458Y-1324537D01*
G01X-439482Y-1324834D01*
G01X-436495Y-1324984D01*
G01X-433502Y-1324984D01*
G01X-430515Y-1324834D01*
G01X-427539Y-1324537D01*
G01X-424579Y-1324090D01*
G01X-421648Y-1323498D01*
G01X-418748Y-1322759D01*
G01X-415890Y-1321878D01*
G01X-413078Y-1320854D01*
G01X-410322Y-1319693D01*
G01X-407625Y-1318395D01*
G01X-404999Y-1316963D01*
G01X-402446Y-1315403D01*
G01X-399974Y-1313719D01*
G01X-397589Y-1311911D01*
G01X-395298Y-1309988D01*
G01X-393104Y-1307953D01*
G01X-391016Y-1305812D01*
G01X-389035Y-1303569D01*
G01X-387170Y-1301230D01*
G01X-385425Y-1298802D01*
G01X-383802Y-1296287D01*
G01X-382306Y-1293696D01*
G01X-380940Y-1291034D01*
G01X-379710Y-1288309D01*
G01X-378618Y-1285523D01*
G01X-377663Y-1282688D01*
G01X-376853Y-1279808D01*
G01X-376187Y-1276892D01*
G01X-375669Y-1273945D01*
G01X-375296Y-1270976D01*
G01X-375072Y-1267991D01*
G01X-374999Y-1265002D01*
G01X-374999Y-1235002D01*
G01X-375072Y-1232012D01*
G01X-375296Y-1229028D01*
G01X-375669Y-1226059D01*
G01X-376187Y-1223112D01*
G01X-376853Y-1220196D01*
G01X-377663Y-1217316D01*
G01X-378618Y-1214481D01*
G01X-379710Y-1211695D01*
G01X-380940Y-1208970D01*
G01X-382306Y-1206308D01*
G01X-383802Y-1203717D01*
G01X-385425Y-1201202D01*
G01X-387170Y-1198774D01*
G01X-389035Y-1196435D01*
G01X-391016Y-1194192D01*
G01X-393104Y-1192051D01*
G01X-395298Y-1190016D01*
G01X-397589Y-1188093D01*
G01X-399974Y-1186285D01*
G01X-402446Y-1184601D01*
G01X-404999Y-1183041D01*
G01X-407625Y-1181609D01*
G01X-410322Y-1180311D01*
G01X-413078Y-1179150D01*
G01X-415890Y-1178126D01*
G01X-418748Y-1177245D01*
G01X-421648Y-1176506D01*
G01X-424579Y-1175914D01*
G01X-427539Y-1175467D01*
G01X-430515Y-1175170D01*
G37*
G36*
G01X428502Y-1175020D02*
G01X425515Y-1175170D01*
G01X422539Y-1175467D01*
G01X419579Y-1175914D01*
G01X416648Y-1176506D01*
G01X413748Y-1177245D01*
G01X410890Y-1178126D01*
G01X408078Y-1179150D01*
G01X405322Y-1180311D01*
G01X402625Y-1181609D01*
G01X399999Y-1183041D01*
G01X397446Y-1184601D01*
G01X394974Y-1186285D01*
G01X392589Y-1188093D01*
G01X390298Y-1190016D01*
G01X388104Y-1192051D01*
G01X386016Y-1194192D01*
G01X384035Y-1196435D01*
G01X382170Y-1198774D01*
G01X380425Y-1201202D01*
G01X378802Y-1203717D01*
G01X377306Y-1206308D01*
G01X375940Y-1208970D01*
G01X374710Y-1211695D01*
G01X373618Y-1214481D01*
G01X372663Y-1217316D01*
G01X371853Y-1220196D01*
G01X371187Y-1223112D01*
G01X370669Y-1226059D01*
G01X370296Y-1229028D01*
G01X370072Y-1232012D01*
G01X369999Y-1235002D01*
G01X369999Y-1265002D01*
G01X370072Y-1267991D01*
G01X370296Y-1270976D01*
G01X370669Y-1273945D01*
G01X371187Y-1276892D01*
G01X371853Y-1279808D01*
G01X372663Y-1282688D01*
G01X373618Y-1285523D01*
G01X374710Y-1288309D01*
G01X375940Y-1291034D01*
G01X377306Y-1293696D01*
G01X378802Y-1296287D01*
G01X380425Y-1298802D01*
G01X382170Y-1301230D01*
G01X384035Y-1303569D01*
G01X386016Y-1305812D01*
G01X388104Y-1307953D01*
G01X390298Y-1309988D01*
G01X392589Y-1311911D01*
G01X394974Y-1313719D01*
G01X397446Y-1315403D01*
G01X399999Y-1316963D01*
G01X402625Y-1318395D01*
G01X405322Y-1319693D01*
G01X408078Y-1320854D01*
G01X410890Y-1321878D01*
G01X413748Y-1322759D01*
G01X416648Y-1323498D01*
G01X419579Y-1324090D01*
G01X422539Y-1324537D01*
G01X425515Y-1324834D01*
G01X428502Y-1324984D01*
G01X431495Y-1324984D01*
G01X434482Y-1324834D01*
G01X437458Y-1324537D01*
G01X440418Y-1324090D01*
G01X443349Y-1323498D01*
G01X446249Y-1322759D01*
G01X449107Y-1321878D01*
G01X451919Y-1320854D01*
G01X454675Y-1319693D01*
G01X457372Y-1318395D01*
G01X459998Y-1316963D01*
G01X462551Y-1315403D01*
G01X465023Y-1313719D01*
G01X467408Y-1311911D01*
G01X469699Y-1309988D01*
G01X471893Y-1307953D01*
G01X473981Y-1305812D01*
G01X475962Y-1303569D01*
G01X477827Y-1301230D01*
G01X479572Y-1298802D01*
G01X481195Y-1296287D01*
G01X482691Y-1293696D01*
G01X484057Y-1291034D01*
G01X485287Y-1288309D01*
G01X486379Y-1285523D01*
G01X487334Y-1282688D01*
G01X488144Y-1279808D01*
G01X488810Y-1276892D01*
G01X489328Y-1273945D01*
G01X489701Y-1270976D01*
G01X489925Y-1267991D01*
G01X489998Y-1265002D01*
G01X489998Y-1235002D01*
G01X489925Y-1232012D01*
G01X489701Y-1229028D01*
G01X489328Y-1226059D01*
G01X488810Y-1223112D01*
G01X488144Y-1220196D01*
G01X487334Y-1217316D01*
G01X486379Y-1214481D01*
G01X485287Y-1211695D01*
G01X484057Y-1208970D01*
G01X482691Y-1206308D01*
G01X481195Y-1203717D01*
G01X479572Y-1201202D01*
G01X477827Y-1198774D01*
G01X475962Y-1196435D01*
G01X473981Y-1194192D01*
G01X471893Y-1192051D01*
G01X469699Y-1190016D01*
G01X467408Y-1188093D01*
G01X465023Y-1186285D01*
G01X462551Y-1184601D01*
G01X459998Y-1183041D01*
G01X457372Y-1181609D01*
G01X454675Y-1180311D01*
G01X451919Y-1179150D01*
G01X449107Y-1178126D01*
G01X446249Y-1177245D01*
G01X443349Y-1176506D01*
G01X440418Y-1175914D01*
G01X437458Y-1175467D01*
G01X434482Y-1175170D01*
G01X431495Y-1175020D01*
G01X428502Y-1175020D01*
G37*

G04 Pad Start*
G54D10*
G01X1609951Y35361D03*
G01X1450058Y34649D03*
G54D11*
G01X1004998Y-238491D03*
G01X1004998Y198491D03*
G54D12*
G01X-697509Y797507D03*
G01X-697509Y712519D03*
G01X-697509Y627505D03*
G01X-697509Y542517D03*
G01X-697509Y457503D03*
G01X-697509Y372515D03*
G01X-697509Y287501D03*
G01X-697509Y202512D03*
G01X-697509Y117524D03*
G01X-697509Y32510D03*
G01X-697509Y-52478D03*
G01X-697509Y-137492D03*
G01X-697509Y-222480D03*
G01X-697509Y-307494D03*
G01X-697509Y-392483D03*
G54D13*
G01X-594995Y-500001D03*
G01X-510007Y-500001D03*
G01X-424993Y-500001D03*
G01X-340004Y-500001D03*
G01X-254991Y-500001D03*
G01X-170002Y-500001D03*
G01X-84988Y-500001D03*
G01X0Y-500001D03*
G01X84988Y-500001D03*
G01X170002Y-500001D03*
G01X254991Y-500001D03*
G01X340004Y-500001D03*
G01X424993Y-500001D03*
G01X510007Y-500001D03*
G01X594995Y-500001D03*
G54D12*
G01X697509Y-392483D03*
G01X697509Y-307494D03*
G01X697509Y-222480D03*
G01X697509Y-137492D03*
G01X697509Y-52478D03*
G01X697509Y32510D03*
G01X697509Y117524D03*
G01X697509Y202512D03*
G01X697509Y287501D03*
G01X697509Y372515D03*
G01X697509Y457503D03*
G01X697509Y542517D03*
G01X697509Y627505D03*
G01X697509Y712519D03*
G01X697509Y797507D03*
G54D13*
G01X594995Y905000D03*
G01X510007Y905000D03*
G01X424993Y905000D03*
G01X340004Y905000D03*
G01X254991Y905000D03*
G01X170002Y905000D03*
G01X84988Y905000D03*
G01X0Y905000D03*
G01X-84988Y905000D03*
G01X-170002Y905000D03*
G01X-254991Y905000D03*
G01X-340004Y905000D03*
G01X-424993Y905000D03*
G01X-510007Y905000D03*
G01X-594995Y905000D03*
G54D10*
G01X-699999Y902511D03*
G01X699999Y902511D03*
G01X-699999Y-497486D03*
G01X699999Y-497486D03*
G54D14*
G01X-164998Y367511D03*
G01X0Y367511D03*
G01X164998Y367511D03*
G01X-164998Y202512D03*
G01X0Y202512D03*
G01X164998Y202512D03*
G01X-164998Y37514D03*
G01X0Y37514D03*
G01X164998Y37514D03*
G54D15*
G01X1570108Y-1177750D03*
G01X1570108Y-1082754D03*
G01X1570108Y-987758D03*
G54D16*
G01X1339374Y-987758D03*
G01X1339374Y-1177750D03*
G54D18*
G01X-1616229Y658981D03*
G01X-1616229Y698961D03*
G01X-1616229Y738966D03*
G01X-1616229Y778971D03*
G01X-1616229Y818976D03*
G01X-1616229Y858981D03*
G01X-1616229Y898961D03*
G01X-1901725Y898961D03*
G01X-1901725Y858981D03*
G01X-1901725Y818976D03*
G01X-1901725Y778971D03*
G01X-1901725Y738966D03*
G01X-1901725Y698961D03*
G01X-1901725Y658981D03*
G54D19*
G01X-1758977Y778971D03*
G54D20*
G01X2155848Y-704276D03*
G01X2060852Y-454340D03*
G01X2250844Y-454340D03*
G54D18*
G01X1144357Y848450D03*
G01X1144357Y808471D03*
G01X1144357Y768466D03*
G01X1144357Y728461D03*
G01X1144357Y688456D03*
G01X1144357Y648451D03*
G01X1144357Y608471D03*
G01X1429853Y608471D03*
G01X1429853Y648451D03*
G01X1429853Y688456D03*
G01X1429853Y728461D03*
G01X1429853Y768466D03*
G01X1429853Y808471D03*
G01X1429853Y848450D03*
G54D19*
G01X1287105Y728461D03*
G54D20*
G01X1122502Y-727498D03*
G01X1312494Y-727498D03*
G01X1217498Y-527499D03*
G54D21*
G01X-2054983Y-414990D03*
G01X-1945001Y-414990D03*
G01X-1834994Y-414990D03*
G01X-1724986Y-414990D03*
G01X-1615004Y-414990D03*
G01X-1504997Y-414990D03*
G01X-1394990Y-414990D03*
G01X-1285008Y-414990D03*
G54D22*
G01X-917495Y-675010D03*
G01X-917495Y155011D03*
G01X-2292499Y-675010D03*
G01X-2292499Y155011D03*
G54D23*
G01X2229791Y141159D03*
G01X2229791Y-151340D03*
G01X2117253Y-1361419D03*
G01X-2112739Y-1361418D03*
G54D24*
G01X2258487Y529999D03*
G01X1821505Y529999D03*
G04 Pad End*

M02*

