G04 Layer: BottomSilkscreenLayer*
G04 EasyEDA Pro v2.2.40.8, 2025-08-10 13:50:58*
G04 Gerber Generator version 0.3*
G04 Scale: 100 percent, Rotated: No, Reflected: No*
G04 Dimensions in millimeters*
G04 Leading zeros omitted, absolute positions, 4 integers and 5 decimals*
G04 Generated by one-click*
%FSLAX45Y45*%
%MOMM*%
%ADD10C,0.1524*%
%ADD11C,0.15*%
%ADD12C,0.8183*%
G75*


G04 Text Start*
G54D10*
G01X1591389Y-803264D02*
G01X1591389Y-852794D01*
G01X1594437Y-861938D01*
G01X1597485Y-865240D01*
G01X1603835Y-868288D01*
G01X1609931Y-868288D01*
G01X1616281Y-865240D01*
G01X1619329Y-861938D01*
G01X1622377Y-852794D01*
G01X1622377Y-846444D01*
G01X1561163Y-803264D02*
G01X1561163Y-868288D01*
G01X1561163Y-803264D02*
G01X1533477Y-803264D01*
G01X1524079Y-806312D01*
G01X1521031Y-809360D01*
G01X1517983Y-815710D01*
G01X1517983Y-824854D01*
G01X1521031Y-830950D01*
G01X1524079Y-834252D01*
G01X1533477Y-837300D01*
G01X1561163Y-837300D01*
G01X1487757Y-815710D02*
G01X1481661Y-812408D01*
G01X1472517Y-803264D01*
G01X1472517Y-868288D01*
G01X1719877Y-558265D02*
G01X1719877Y-623289D01*
G01X1719877Y-558265D02*
G01X1698287Y-558265D01*
G01X1688889Y-561313D01*
G01X1682793Y-567409D01*
G01X1679745Y-573759D01*
G01X1676443Y-582903D01*
G01X1676443Y-598397D01*
G01X1679745Y-607795D01*
G01X1682793Y-613891D01*
G01X1688889Y-620241D01*
G01X1698287Y-623289D01*
G01X1719877Y-623289D01*
G01X1646217Y-558265D02*
G01X1643169Y-561313D01*
G01X1640121Y-558265D01*
G01X1643169Y-555217D01*
G01X1646217Y-558265D01*
G01X1643169Y-579855D02*
G01X1643169Y-623289D01*
G01X1609895Y-579855D02*
G01X1609895Y-623289D01*
G01X1609895Y-598397D02*
G01X1606847Y-589253D01*
G01X1600751Y-582903D01*
G01X1594655Y-579855D01*
G01X1585257Y-579855D01*
G01X1555031Y-598397D02*
G01X1517947Y-598397D01*
G01X1517947Y-592301D01*
G01X1520995Y-585951D01*
G01X1524297Y-582903D01*
G01X1530393Y-579855D01*
G01X1539791Y-579855D01*
G01X1545887Y-582903D01*
G01X1551983Y-589253D01*
G01X1555031Y-598397D01*
G01X1555031Y-604747D01*
G01X1551983Y-613891D01*
G01X1545887Y-620241D01*
G01X1539791Y-623289D01*
G01X1530393Y-623289D01*
G01X1524297Y-620241D01*
G01X1517947Y-613891D01*
G01X1450637Y-589253D02*
G01X1456987Y-582903D01*
G01X1463083Y-579855D01*
G01X1472481Y-579855D01*
G01X1478577Y-582903D01*
G01X1484673Y-589253D01*
G01X1487721Y-598397D01*
G01X1487721Y-604747D01*
G01X1484673Y-613891D01*
G01X1478577Y-620241D01*
G01X1472481Y-623289D01*
G01X1463083Y-623289D01*
G01X1456987Y-620241D01*
G01X1450637Y-613891D01*
G01X1411267Y-558265D02*
G01X1411267Y-610843D01*
G01X1408219Y-620241D01*
G01X1401869Y-623289D01*
G01X1395773Y-623289D01*
G01X1420411Y-579855D02*
G01X1398821Y-579855D01*
G04 Text End*

G04 PolygonModel Start*
G54D11*
G01X1395539Y-650824D02*
G01X1717306Y-650824D01*
G01X1396614Y-780999D02*
G01X1718380Y-780999D01*
G01X1396614Y-780999D02*
G02X1395539Y-650824I57700J65568D01*
G01X1718380Y-780999D02*
G03X1717306Y-650824I-55694J64632D01*

M02*

